<?xml version="1.0" encoding="UTF-8" standalone="no"?>
<svg
   width="23px"
   height="23px"
   version="1.1"
   xml:space="preserve"
   style="fill-rule:evenodd;clip-rule:evenodd;stroke-linejoin:round;stroke-miterlimit:2;"
   id="svg15"
   sodipodi:docname="device_drum_module.svg"
   inkscape:version="1.4 (e7c3feb100, 2024-10-09)"
   xmlns:inkscape="http://www.inkscape.org/namespaces/inkscape"
   xmlns:sodipodi="http://sodipodi.sourceforge.net/DTD/sodipodi-0.dtd"
   xmlns="http://www.w3.org/2000/svg"
   xmlns:svg="http://www.w3.org/2000/svg"
   xmlns:serif="http://www.serif.com/"><sodipodi:namedview
   id="namedview15"
   pagecolor="#505050"
   bordercolor="#ffffff"
   borderopacity="1"
   inkscape:showpageshadow="0"
   inkscape:pageopacity="0"
   inkscape:pagecheckerboard="1"
   inkscape:deskcolor="#505050"
   inkscape:zoom="36.769553"
   inkscape:cx="20.886846"
   inkscape:cy="8.5124778"
   inkscape:window-width="2560"
   inkscape:window-height="1403"
   inkscape:window-x="0"
   inkscape:window-y="0"
   inkscape:window-maximized="1"
   inkscape:current-layer="svg15" />
    <g
   transform="matrix(1,0,0,1,-191,-130)"
   id="g8">
        <g
   transform="matrix(1.21053,0,0,1.21053,-2.68421,36.7895)"
   id="g7">
            <rect
   id="device_drum_module"
   x="160"
   y="77"
   width="19"
   height="19"
   style="fill:none;" />
            <g
   id="device_drum_module1"
   serif:id="device_drum_module">
                <g
   transform="matrix(0.826087,0,0,0.826087,29.4783,15.0435)"
   id="g6">
                    <g
   transform="matrix(1.13333,0,0,1.12448,122.467,25.1492)"
   id="g2">
                        <path
   id="path1"
   style="fill:#ffe356;fill-opacity:1"
   d="M 35.765657 46.555254 C 34.547657 46.555254 33.559775 47.551497 33.559775 48.778497 L 33.559775 60.221251 C 33.559775 61.448251 34.547657 62.444494 35.765657 62.444494 L 47.23452 62.444494 C 48.45252 62.444494 49.440402 61.448251 49.440402 60.221251 L 49.440402 48.778497 C 49.440402 47.551497 48.45252 46.555254 47.23452 46.555254 L 35.765657 46.555254 z " />
                        
                    </g>
                    <g
   id="path3109-1"
   transform="matrix(1.22222,0,0,1.38462,157.889,73.6923)">
                        <path
   d="M14,11C14,11.828 11.985,12.5 9.5,12.5C7.015,12.5 5,11.828 5,11L5,7.5L14,7.5L14,11Z"
   style="fill:#ffe356;fill-rule:nonzero;fill-opacity:1"
   id="path3" />
                        <path
   d="M14,11C14,11.828 11.985,12.5 9.5,12.5C7.015,12.5 5,11.828 5,11L5,7.5L14,7.5L14,11ZM5.818,10.966C5.832,10.982 5.862,11.015 5.885,11.034C5.977,11.11 6.1,11.179 6.243,11.244C6.976,11.577 8.164,11.778 9.5,11.778C10.836,11.778 12.024,11.577 12.757,11.244C12.9,11.179 13.023,11.11 13.115,11.034C13.138,11.015 13.168,10.982 13.182,10.966C13.182,10.652 13.182,8.222 13.182,8.222C13.182,8.222 5.818,8.222 5.818,8.222L5.818,10.966Z"
   id="path4"
   style="fill:#000000;fill-opacity:1" />
                    </g>
                    <g
   id="path3109"
   transform="matrix(0.785714,0,0,1.01252,175,62.7622)">
                        <path
   d="M0,21C0,22.105 -3.134,23 -7,23C-10.866,23 -14,22.105 -14,21C-14,19.895 -10.866,19 -7,19C-3.134,19 0,19.895 0,21Z"
   style="fill:#ffe356;fill-rule:nonzero;fill-opacity:1"
   id="path5" />
                        <path
   d="M0,21C0,22.105 -3.134,23 -7,23C-10.866,23 -14,22.105 -14,21C-14,19.895 -10.866,19 -7,19C-3.134,19 0,19.895 0,21ZM-12.631,21C-12.5,21.085 -12.278,21.221 -12.078,21.299C-10.934,21.744 -9.083,22.012 -7,22.012C-4.917,22.012 -3.066,21.744 -1.922,21.299C-1.722,21.221 -1.5,21.085 -1.369,21C-1.5,20.915 -1.722,20.779 -1.922,20.701C-3.066,20.256 -4.917,19.988 -7,19.988C-9.083,19.988 -10.934,20.256 -12.078,20.701C-12.278,20.779 -12.5,20.915 -12.631,21Z"
   id="path6"
   style="fill:#000000;fill-opacity:1" />
                    </g>
                </g>
            </g>
        </g>
    </g>
    <defs
   id="defs15">
        <linearGradient
   id="_Linear1"
   x1="0"
   y1="0"
   x2="1"
   y2="0"
   gradientUnits="userSpaceOnUse"
   gradientTransform="matrix(9.25713e-16,-15.118,15.118,9.25713e-16,41.1144,62.118)"><stop
     offset="0"
     style="stop-color:rgb(209,164,0);stop-opacity:1"
     id="stop8" /><stop
     offset="0.6"
     style="stop-color:rgb(255,207,33);stop-opacity:1"
     id="stop9" /><stop
     offset="1"
     style="stop-color:rgb(255,218,86);stop-opacity:1"
     id="stop10" /></linearGradient>
        <linearGradient
   id="_Linear2"
   x1="0"
   y1="0"
   x2="1"
   y2="0"
   gradientUnits="userSpaceOnUse"
   gradientTransform="matrix(9,-0.333333,0.237664,5,5,10.3333)"><stop
     offset="0"
     style="stop-color:rgb(209,164,0);stop-opacity:1"
     id="stop11" /><stop
     offset="0.5"
     style="stop-color:rgb(255,207,33);stop-opacity:1"
     id="stop12" /><stop
     offset="1"
     style="stop-color:rgb(133,124,88);stop-opacity:1"
     id="stop13" /></linearGradient>
        <radialGradient
   id="_Radial3"
   cx="0"
   cy="0"
   r="1"
   gradientUnits="userSpaceOnUse"
   gradientTransform="matrix(3.18182,0,0,2.4691,-7,21.0512)"><stop
     offset="0"
     style="stop-color:rgb(255,220,95);stop-opacity:1"
     id="stop14" /><stop
     offset="1"
     style="stop-color:rgb(209,164,0);stop-opacity:1"
     id="stop15" /></radialGradient>
    <linearGradient
   id="_Linear1-3"
   x1="0"
   y1="0"
   x2="1"
   y2="0"
   gradientUnits="userSpaceOnUse"
   gradientTransform="matrix(0,-15.118,15.118,0,41.1144,62.118)"><stop
     offset="0"
     style="stop-color:rgb(209,164,0);stop-opacity:1"
     id="stop5" /><stop
     offset="0.6"
     style="stop-color:rgb(255,207,33);stop-opacity:1"
     id="stop6" /><stop
     offset="1"
     style="stop-color:rgb(255,218,86);stop-opacity:1"
     id="stop7" /></linearGradient></defs>
</svg>
