<?xml version="1.0" encoding="UTF-8" standalone="no"?>
<!-- Generator: Adobe Illustrator 15.0.0, SVG Export Plug-In . SVG Version: 6.00 Build 0)  -->

<svg
   version="1.1"
   id="Layer_1"
   x="0px"
   y="0px"
   width="15"
   height="15"
   viewBox="0 0 15 15"
   enable-background="new 0 0 19 19"
   xml:space="preserve"
   xmlns="http://www.w3.org/2000/svg"
   xmlns:svg="http://www.w3.org/2000/svg"
   xmlns:rdf="http://www.w3.org/1999/02/22-rdf-syntax-ns#"
   xmlns:cc="http://creativecommons.org/ns#"
   xmlns:dc="http://purl.org/dc/elements/1.1/"><metadata
   id="metadata3696"><rdf:RDF><cc:Work
       rdf:about=""><dc:format>image/svg+xml</dc:format><dc:type
         rdf:resource="http://purl.org/dc/dcmitype/StillImage" /><dc:title /></cc:Work></rdf:RDF></metadata><defs
   id="defs3694" />









<g
   style="clip-rule:evenodd;fill-rule:evenodd;stroke-linejoin:round;stroke-miterlimit:2"
   id="g2"><rect
     id="note-op-chance"
     x="0"
     y="0"
     width="15"
     height="15"
     style="fill:none" /><g
     id="g1"
     transform="translate(0.0010766,6.01e-4)"><path
       d="M 12.147955,4.7061048 7.5,7.4940174 v 5.5047806 c 0.1426783,-0.01764 0.2813719,-0.06347 0.4090366,-0.139934 l 3.8148124,-2.288455 c 0.315102,-0.189213 0.508067,-0.530175 0.508067,-0.8977301 V 5.1129893 c 0,-0.1426081 -0.02991,-0.2797165 -0.08396,-0.4068845 z m -0.747031,1.4832985 c 0.171634,-0.020976 0.292785,0.083848 0.292785,0.2820212 0,0.2640688 -0.213859,0.5965432 -0.477928,0.7405728 -0.264234,0.1438864 -0.477927,0.044475 -0.477927,-0.2195887 -1e-6,-0.264211 0.213693,-0.5943916 0.477927,-0.7384202 0.06602,-0.036011 0.127932,-0.057592 0.185143,-0.06458 z m -2.6695068,1.457465 c 0.1716674,-0.020921 0.2906143,0.08182 0.2906319,0.2798674 0,0.2642342 -0.2137644,0.5965444 -0.4779281,0.7405729 -0.2643058,0.1440286 -0.4779282,0.046802 -0.4779282,-0.217436 0,-0.2640446 0.2136224,-0.5965433 0.4779282,-0.7405729 0.066047,-0.035966 0.1300741,-0.055454 0.1872962,-0.062431 z m 2.6695068,1.2141945 c 0.171634,-0.020975 0.292785,0.083849 0.292785,0.2820212 0,0.2640446 -0.213859,0.5943906 -0.477928,0.7384202 -0.264234,0.1438868 -0.477927,0.046802 -0.477927,-0.217436 -1e-6,-0.2640931 0.213693,-0.5943917 0.477927,-0.7384202 0.06602,-0.036011 0.127932,-0.057592 0.185143,-0.06458 z M 8.7314172,10.316375 c 0.1716674,-0.02091 0.2906143,0.08397 0.2906319,0.282021 0,0.264234 -0.2137644,0.594367 -0.4779281,0.73842 -0.2643058,0.144028 -0.4779282,0.04681 -0.4779282,-0.217436 0,-0.26407 0.2136224,-0.594392 0.4779282,-0.738419 0.066047,-0.03596 0.1300741,-0.05762 0.1872962,-0.06459 z"
       style="clip-rule:evenodd;display:inline;fill:#000000;fill-opacity:0.403638;fill-rule:evenodd;stroke-width:1.10225;stroke-linejoin:round;stroke-miterlimit:2"
       id="path12" /><path
       d="m 2.8498908,4.7061048 c -0.053898,0.1271916 -0.08396,0.2642764 -0.08396,0.4068845 v 4.5596896 c 0,0.3675551 0.192871,0.7085171 0.5080675,0.8977301 L 7.08881,12.858864 c 0.127712,0.07647 0.2684867,0.122293 0.4111903,0.139934 V 7.4940174 Z m 3.2335475,2.9407635 c 0.076353,-0.010035 0.1678988,0.00849 0.2669512,0.062431 0.2642342,0.1440296 0.4779282,0.4765283 0.4779282,0.7405729 0,0.2642353 -0.213694,0.3614646 -0.4779282,0.217436 C 6.086249,8.5232798 5.8724615,8.1909696 5.8724615,7.9267354 c 0,-0.1650429 0.083726,-0.2632378 0.2109768,-0.2798671 z M 4.7465325,8.2539656 c 0.076349,-0.00992 0.1700155,0.010581 0.2691035,0.06458 0.2641398,0.1438863 0.4779277,0.4743513 0.4779277,0.7384202 0,0.2642342 -0.2137879,0.3614645 -0.4779277,0.2174349 C 4.7514013,9.1303487 4.5355552,8.8001923 4.5355552,8.5359813 c 0,-0.1650429 0.083728,-0.2654247 0.2109773,-0.2820201 z M 3.4117789,8.8610628 c 0.076352,-0.00992 0.1678894,0.010582 0.2669508,0.064581 0.2641399,0.1440285 0.4779278,0.4743512 0.4779278,0.7384201 0,0.2642342 -0.2137879,0.3613231 -0.4779278,0.2174361 C 3.4145661,9.7374702 3.2007781,9.4071485 3.2008018,9.1430796 c 0,-0.1651465 0.083725,-0.2654169 0.2109771,-0.2820211 z"
       style="clip-rule:evenodd;display:inline;fill:#000000;fill-opacity:0.747077;fill-rule:evenodd;stroke-width:1.10225;stroke-linejoin:round;stroke-miterlimit:2"
       id="path11" /><path
       d="M 7.5,2 C 7.3135813,2 7.1276089,2.0513313 6.9617932,2.1506979 L 3.1469815,4.4370015 C 3.0298781,4.5072635 2.931755,4.5982394 2.852044,4.7039522 L 7.5,7.4940174 12.150109,4.7039522 c -0.0795,-0.1057128 -0.17975,-0.1966887 -0.29709,-0.2669507 L 8.0382068,2.1506979 C 7.8724629,2.0513317 7.686324,2 7.5,2 Z m 0.00651,1.8751133 c 0.2479451,0.0028 0.4940893,0.073058 0.6802942,0.2109772 0.372498,0.2756963 0.3627156,0.716766 -0.021534,0.9838425 C 7.7807592,5.3371751 7.1684813,5.3307016 6.7960714,5.0548631 6.4235667,4.7793562 6.4333249,4.3382627 6.8175983,4.0710206 7.0098072,3.9374823 7.2585592,3.8723128 7.5065033,3.8751133 Z"
       style="clip-rule:evenodd;display:inline;fill-rule:evenodd;stroke-width:1.10225;stroke-linejoin:round;stroke-miterlimit:2"
       id="path10" /></g></g></svg>
