<?xml version="1.0" encoding="UTF-8" standalone="no"?>
<!-- Generator: Adobe Illustrator 15.0.2, SVG Export Plug-In . SVG Version: 6.00 Build 0)  -->

<svg
   version="1.1"
   id="Layer_1"
   x="0px"
   y="0px"
   width="18px"
   height="11px"
   viewBox="0 0 18 11"
   enable-background="new 0 0 18 11"
   xml:space="preserve"
   sodipodi:docname="add_friend.svg"
   inkscape:version="1.4.2 (ebf0e940d0, 2025-05-08)"
   xmlns:inkscape="http://www.inkscape.org/namespaces/inkscape"
   xmlns:sodipodi="http://sodipodi.sourceforge.net/DTD/sodipodi-0.dtd"
   xmlns="http://www.w3.org/2000/svg"
   xmlns:svg="http://www.w3.org/2000/svg"><defs
   id="defs3"><clipPath
     id="clipPath1">
                        <path
   d="m 49,52 c 0,-1.105 -0.895,-2 -2,-2 -1.091,0 -2.41,0 -3.367,0 -0.79,0 -1.506,-0.465 -1.827,-1.187 -0.091,-0.206 -0.187,-0.42 -0.278,-0.626 C 41.207,47.465 40.491,47 39.701,47 38.662,47 37.189,47 36,47 35.47,47 34.961,47.211 34.586,47.586 34.211,47.961 34,48.47 34,49 c 0,2.871 0,8.129 0,11 0,0.53 0.211,1.039 0.586,1.414 C 34.961,61.789 35.47,62 36,62 h 11 c 1.105,0 2,-0.895 2,-2 0,-2.22 0,-5.78 0,-8 z"
   id="path1" />
                    </clipPath><clipPath
     clipPathUnits="userSpaceOnUse"
     id="clipPath6"><path
       d="m 18.325824,2.452445 c 0,-1.59500609 -1.291881,-2.88688902 -2.886887,-2.88688902 -1.574798,0 -3.478702,0 -4.860078,0 -1.1403214,0 -2.1738274,-0.67120168 -2.6371733,-1.71336858 C 7.8103315,-2.4451621 7.6717615,-2.7540593 7.5404082,-3.0514088 7.0770625,-4.0935757 6.0435563,-4.7647774 4.903235,-4.7647774 c -1.4997387,0 -3.6259325,0 -5.34218791,0 -0.76502579,0 -1.49973889,0.3045666 -2.04103059,0.8458583 -0.5412917,0.5412917 -0.8458585,1.2760049 -0.8458585,2.0410307 0,4.144129 0,11.7337607 0,15.8778904 0,0.765024 0.3045668,1.499737 0.8458585,2.041031 0.5412917,0.541289 1.2760048,0.845857 2.04103059,0.845857 H 15.438937 c 1.595006,0 2.886887,-1.291884 2.886887,-2.886888 0,-3.204447 0,-8.3431102 0,-11.547557 z"
       id="path7"
       style="stroke-width:1.44344" /></clipPath><clipPath
     clipPathUnits="userSpaceOnUse"
     id="clipPath7"><path
       d="m 18.325824,2.452445 c 0,-1.59500609 -1.291881,-2.88688902 -2.886887,-2.88688902 -1.574798,0 -3.478702,0 -4.860078,0 -1.1403214,0 -2.1738274,-0.67120168 -2.6371733,-1.71336858 C 7.8103315,-2.4451621 7.6717615,-2.7540593 7.5404082,-3.0514088 7.0770625,-4.0935757 6.0435563,-4.7647774 4.903235,-4.7647774 c -1.4997387,0 -3.6259325,0 -5.34218791,0 -0.76502579,0 -1.49973889,0.3045666 -2.04103059,0.8458583 -0.5412917,0.5412917 -0.8458585,1.2760049 -0.8458585,2.0410307 0,4.144129 0,11.7337607 0,15.8778904 0,0.765024 0.3045668,1.499737 0.8458585,2.041031 0.5412917,0.541289 1.2760048,0.845857 2.04103059,0.845857 H 15.438937 c 1.595006,0 2.886887,-1.291884 2.886887,-2.886888 0,-3.204447 0,-8.3431102 0,-11.547557 z"
       id="path8"
       style="stroke-width:1.44344" /></clipPath></defs><sodipodi:namedview
   id="namedview3"
   pagecolor="#ffffff"
   bordercolor="#000000"
   borderopacity="0.25"
   inkscape:showpageshadow="2"
   inkscape:pageopacity="0.0"
   inkscape:pagecheckerboard="0"
   inkscape:deskcolor="#d1d1d1"
   inkscape:zoom="38.440896"
   inkscape:cx="9.3390123"
   inkscape:cy="6.6075463"
   inkscape:window-width="2560"
   inkscape:window-height="1403"
   inkscape:window-x="0"
   inkscape:window-y="0"
   inkscape:window-maximized="1"
   inkscape:current-layer="Layer_1" />
<polygon
   points="17,5 15,5 15,3 14,3 14,5 12,5 12,6 14,6 14,8 15,8 15,6 17,6  "
   id="polygon1" />
<g
   id="g1"
   transform="matrix(0.69040208,0,0,0.69040208,0.32199,0.30338376)"
   style="fill:#000000;fill-opacity:1"><path
     d="m 13.995493,13.07331 c 0,-2.554897 -2.19548,-4.6421174 -4.8716258,-4.6421174 H 5.876117 c -2.6804765,0 -4.8716253,2.0893864 -4.8716253,4.6421174 v 0.926692 H 13.995493 Z"
     style="clip-rule:evenodd;fill:#000000;fill-opacity:1;fill-rule:nonzero;stroke-width:2.16517;stroke-linejoin:round;stroke-miterlimit:2"
     id="path3"
     clip-path="url(#clipPath7)" /><circle
     cx="7.4999919"
     cy="4.2567511"
     r="3.2477503"
     style="clip-rule:evenodd;fill:#000000;fill-opacity:1;fill-rule:evenodd;stroke-width:2.16517;stroke-linejoin:round;stroke-miterlimit:2"
     id="circle3"
     clip-path="url(#clipPath6)" /></g></svg>
