<?xml version="1.0" encoding="UTF-8" standalone="no"?>
<!-- Generator: Adobe Illustrator 15.0.2, SVG Export Plug-In . SVG Version: 6.00 Build 0)  -->

<svg
   version="1.1"
   id="Layer_1"
   x="0px"
   y="0px"
   width="18px"
   height="11px"
   viewBox="0 0 18 11"
   enable-background="new 0 0 18 11"
   xml:space="preserve"
   sodipodi:docname="add_friend.svg"
   inkscape:version="1.4.2 (ebf0e940d0, 2025-05-08)"
   xmlns:inkscape="http://www.inkscape.org/namespaces/inkscape"
   xmlns:sodipodi="http://sodipodi.sourceforge.net/DTD/sodipodi-0.dtd"
   xmlns="http://www.w3.org/2000/svg"
   xmlns:svg="http://www.w3.org/2000/svg"><defs
   id="defs3" /><sodipodi:namedview
   id="namedview3"
   pagecolor="#ffffff"
   bordercolor="#000000"
   borderopacity="0.25"
   inkscape:showpageshadow="2"
   inkscape:pageopacity="0.0"
   inkscape:pagecheckerboard="0"
   inkscape:deskcolor="#d1d1d1"
   inkscape:zoom="38.440896"
   inkscape:cx="19.04222"
   inkscape:cy="9.9373334"
   inkscape:window-width="2560"
   inkscape:window-height="1403"
   inkscape:window-x="0"
   inkscape:window-y="0"
   inkscape:window-maximized="1"
   inkscape:current-layer="Layer_1" />
<polygon
   points="17,5 15,5 15,3 14,3 14,5 12,5 12,6 14,6 14,8 15,8 15,6 17,6  "
   id="polygon1" /><path
   id="path4100-6"
   d="M 5.5,1 C 4.4385459,1 3.5780687,1.8604813 3.5780687,2.9219323 c 0,1.0614499 0.8604772,1.9219312 1.9219313,1.9219312 1.0614529,0 1.9219301,-0.8604813 1.9219301,-1.9219312 C 7.4219301,1.8604813 6.5614529,1 5.5,1 Z M 4.5390394,5.484508 c -1.5971272,0 -2.882902,1.285772 -2.882902,2.8828982 v 0.320321 c 0,0.7098335 0.5714467,1.281287 1.2812799,1.281287 h 5.1251645 c 0.7098331,0 1.2812914,-0.5714535 1.2812914,-1.281287 V 8.3674062 C 9.3438732,6.77028 8.0580977,5.484508 6.4609593,5.484508 Z"
   style="clip-rule:evenodd;display:inline;fill:#000000;fill-opacity:1;fill-rule:evenodd;stroke-width:0.640646;stroke-linejoin:round;stroke-miterlimit:2" />
</svg>
