<?xml version="1.0" encoding="UTF-8" standalone="no"?>
<!-- Generator: Adobe Illustrator 15.0.2, SVG Export Plug-In . SVG Version: 6.00 Build 0)  -->

<svg
   version="1.1"
   id="Layer_1"
   x="0px"
   y="0px"
   width="21px"
   height="19px"
   viewBox="-1 0 21 19"
   enable-background="new -1 0 21 19"
   xml:space="preserve"
   sodipodi:docname="audio_track_browser.svg"
   inkscape:export-filename="audio_track_browser.svg"
   inkscape:export-xdpi="96"
   inkscape:export-ydpi="96"
   inkscape:version="1.4 (e7c3feb100, 2024-10-09)"
   xmlns:inkscape="http://www.inkscape.org/namespaces/inkscape"
   xmlns:sodipodi="http://sodipodi.sourceforge.net/DTD/sodipodi-0.dtd"
   xmlns="http://www.w3.org/2000/svg"
   xmlns:svg="http://www.w3.org/2000/svg"><defs
   id="defs5"><inkscape:path-effect
     effect="fillet_chamfer"
     id="path-effect7"
     is_visible="true"
     lpeversion="1"
     nodesatellites_param="F,0,0,1,0,0.8374582,0,1 @ F,0,1,1,0,0.8374582,0,1 @ F,0,1,1,0,0.8374582,0,1 @ F,0,1,1,0,0.8374582,0,1"
     radius="0"
     unit="px"
     method="auto"
     mode="F"
     chamfer_steps="1"
     flexible="false"
     use_knot_distance="true"
     apply_no_radius="true"
     apply_with_radius="true"
     only_selected="false"
     hide_knots="false" /><inkscape:path-effect
     effect="fillet_chamfer"
     id="path-effect6"
     is_visible="true"
     lpeversion="1"
     nodesatellites_param="F,0,1,1,0,0.83745819,0,1 @ F,0,0,1,0,0,0,1 @ F,0,0,1,0,0,0,1 @ F,0,0,1,0,0.83745819,0,1"
     radius="0"
     unit="px"
     method="auto"
     mode="F"
     chamfer_steps="1"
     flexible="false"
     use_knot_distance="true"
     apply_no_radius="true"
     apply_with_radius="true"
     only_selected="false"
     hide_knots="false" /></defs><sodipodi:namedview
   id="namedview5"
   pagecolor="#505050"
   bordercolor="#ffffff"
   borderopacity="1"
   inkscape:showpageshadow="0"
   inkscape:pageopacity="0"
   inkscape:pagecheckerboard="1"
   inkscape:deskcolor="#505050"
   inkscape:zoom="31.473684"
   inkscape:cx="7.3394649"
   inkscape:cy="12.137124"
   inkscape:window-width="2560"
   inkscape:window-height="1403"
   inkscape:window-x="0"
   inkscape:window-y="0"
   inkscape:window-maximized="1"
   inkscape:current-layer="Layer_1" />

<linearGradient
   id="SVGID_1_"
   gradientUnits="userSpaceOnUse"
   x1="9.4995"
   y1="2.5"
   x2="9.4995"
   y2="17.5005">
	<stop
   offset="0"
   style="stop-color:#FFFFFF"
   id="stop1" />
	<stop
   offset="1"
   style="stop-color:#000000"
   id="stop2" />
</linearGradient>




<linearGradient
   id="SVGID_2_"
   gradientUnits="userSpaceOnUse"
   x1="9.4995"
   y1="2.5"
   x2="9.4995"
   y2="17.5005">
	<stop
   offset="0"
   style="stop-color:#FFFFFF"
   id="stop4" />
	<stop
   offset="1"
   style="stop-color:#000000"
   id="stop5" />
</linearGradient>

<path
   id="rect6"
   style="display:inline;fill:#7b7d86;stroke-width:4;stroke-linecap:square;paint-order:markers stroke fill;fill-opacity:1"
   d="M 1.8374582,2 H 18.162542 A 0.8374582,0.8374582 45 0 1 19,2.8374582 V 17.162542 A 0.8374582,0.8374582 135 0 1 18.162542,18 H 1.8374582 A 0.8374582,0.8374582 45 0 1 1,17.162542 V 2.8374582 A 0.8374582,0.8374582 135 0 1 1.8374582,2 Z"
   inkscape:path-effect="#path-effect7"
   inkscape:original-d="M 1,2 H 19 V 18 H 1 Z" /><path
   id="rect4"
   style="fill:#ff925f;fill-opacity:1"
   d="M 1.8374582,2 H 3.397157 V 18 H 1.8374582 A 0.83745819,0.83745819 45 0 1 1,17.162542 V 2.8374582 A 0.83745819,0.83745819 135 0 1 1.8374582,2 Z"
   inkscape:path-effect="#path-effect6"
   inkscape:original-d="M 1,2 H 3.397157 V 18 H 1 Z"
   sodipodi:nodetypes="ccccc" /><g
   id="g4"
   style="display:inline;fill:#ffffff;fill-opacity:1"
   transform="translate(0.97179867,0.16)">
	<polygon
   fill="#999999"
   points="5.8,15 5.8,7.842 7,13.5 7.8,13.5 7.8,8.16 9.018,12 9.8,12 9.8,8.694 11.042,11 11.8,11 11.8,8.966 13.117,10.283 13.8,9.899 16,9.9 16,9.1 13.064,9.1 11.683,8 11,8 11,9.306 9.758,7 9,7 9,9.34 7.782,5.5 7,5.5 7,9.658 5.791,4 5,4 5,15 "
   id="polygon3"
   style="fill:#ffffff;fill-opacity:1"
   transform="translate(-0.47179867)" />
</g></svg>
