<?xml version="1.0" encoding="UTF-8" standalone="no"?>
<svg
   width="100%"
   height="100%"
   viewBox="0 0 15 16"
   version="1.1"
   xml:space="preserve"
   style="fill-rule:evenodd;clip-rule:evenodd;stroke-linejoin:round;stroke-miterlimit:2;"
   id="svg2"
   sodipodi:docname="crossfade_section_view.svg"
   inkscape:version="1.4.2 (ebf0e940d0, 2025-05-08)"
   xmlns:inkscape="http://www.inkscape.org/namespaces/inkscape"
   xmlns:sodipodi="http://sodipodi.sourceforge.net/DTD/sodipodi-0.dtd"
   xmlns="http://www.w3.org/2000/svg"
   xmlns:svg="http://www.w3.org/2000/svg"><defs
   id="defs2">
        
        
    </defs><sodipodi:namedview
   id="namedview2"
   pagecolor="#ffffff"
   bordercolor="#000000"
   borderopacity="0.25"
   inkscape:showpageshadow="2"
   inkscape:pageopacity="0.0"
   inkscape:pagecheckerboard="0"
   inkscape:deskcolor="#d1d1d1"
   inkscape:zoom="11.313709"
   inkscape:cx="15.379572"
   inkscape:cy="-6.9826794"
   inkscape:window-width="2560"
   inkscape:window-height="1403"
   inkscape:window-x="0"
   inkscape:window-y="0"
   inkscape:window-maximized="1"
   inkscape:current-layer="svg2" />
    
    
    <path
   d="M 7.994,11.464 H 6.741 C 6.601,11.464 6.498,11.431 6.43,11.366 6.363,11.3 6.331,11.217 6.333,11.115 L 6.363,9.901 H 3.715 L 2.863,11.115 C 2.799,11.204 2.707,11.284 2.589,11.356 2.47,11.428 2.344,11.464 2.21,11.464 H 0.949 L 6.173,4.5 H 7.827 Z M 4.487,8.801 H 6.389 L 6.441,6.894 C 6.444,6.773 6.447,6.631 6.451,6.467 6.454,6.303 6.464,6.125 6.479,5.934 6.358,6.128 6.24,6.308 6.125,6.474 6.011,6.64 5.908,6.783 5.816,6.904 Z"
   style="display:none;fill-rule:nonzero"
   id="path1" /><path
   d="M 8.531,11.464 V 4.5 h 2.562 c 0.481,0 0.89,0.045 1.228,0.134 0.338,0.089 0.613,0.215 0.827,0.377 0.213,0.163 0.369,0.36 0.466,0.593 0.097,0.233 0.146,0.492 0.146,0.779 0,0.156 -0.023,0.307 -0.067,0.452 -0.045,0.145 -0.115,0.281 -0.211,0.408 -0.095,0.128 -0.218,0.243 -0.368,0.347 -0.149,0.103 -0.329,0.193 -0.54,0.27 0.459,0.111 0.799,0.292 1.018,0.542 0.22,0.251 0.33,0.572 0.33,0.963 0,0.297 -0.057,0.572 -0.172,0.827 -0.115,0.255 -0.283,0.477 -0.504,0.667 -0.222,0.19 -0.495,0.338 -0.82,0.444 -0.325,0.107 -0.696,0.161 -1.113,0.161 z M 10.146,8.51 v 1.735 h 1.138 c 0.213,0 0.388,-0.027 0.523,-0.081 0.136,-0.055 0.242,-0.125 0.318,-0.211 0.077,-0.086 0.129,-0.183 0.158,-0.291 0.028,-0.109 0.043,-0.218 0.043,-0.33 0,-0.127 -0.017,-0.242 -0.05,-0.344 C 12.242,8.886 12.185,8.8 12.104,8.73 12.022,8.66 11.915,8.606 11.781,8.567 11.647,8.529 11.478,8.51 11.274,8.51 Z m 0,-1.08 h 0.842 c 0.178,0 0.339,-0.013 0.482,-0.038 0.144,-0.026 0.266,-0.071 0.366,-0.134 0.1,-0.064 0.177,-0.152 0.229,-0.263 0.053,-0.112 0.079,-0.252 0.079,-0.421 0,-0.165 -0.021,-0.303 -0.062,-0.413 C 12.041,6.051 11.977,5.962 11.891,5.896 11.805,5.829 11.696,5.781 11.563,5.752 11.431,5.724 11.274,5.709 11.093,5.709 h -0.947 z"
   style="display:none;fill-rule:nonzero"
   id="path2" />
<g
   id="path13"
   style="opacity:1;stroke:none;stroke-opacity:1;fill:#000000;fill-opacity:1"><path
     style="font-size:24px;font-family:'Adwaita Sans';-inkscape-font-specification:'Adwaita Sans, @opsz=32,wght=600';font-variation-settings:'opsz' 32, 'wght' 600;letter-spacing:0px;word-spacing:0px;baseline-shift:baseline;clip-rule:nonzero;display:inline;overflow:visible;vector-effect:none;fill:#000000;fill-rule:nonzero;stroke-linejoin:miter;enable-background:accumulate;stop-color:#000000;stop-opacity:1;stroke:none;stroke-opacity:1;fill-opacity:1"
     d="m 8.531,4.5 v 6.964 h 2.813643 c 0.539047,0 0.99085,-0.08101 1.355409,-0.243039 0.364558,-0.165142 0.638756,-0.39416 0.822592,-0.687053 0.186954,-0.296008 0.28043,-0.6387567 0.28043,-1.0282416 0,-0.3333998 -0.06543,-0.6169449 -0.196301,-0.8506363 C 13.475906,8.4182229 13.298301,8.23127 13.073957,8.0941711 12.85273,7.9570722 12.60346,7.8729436 12.326146,7.8417848 v -0.00934 c 0.24927,-0.06855 0.464266,-0.1713737 0.644988,-0.3084726 0.18072,-0.1370989 0.319378,-0.3069144 0.41597,-0.5094466 0.09971,-0.2025325 0.149562,-0.4377817 0.149562,-0.7057477 0,-0.3645583 -0.09036,-0.6808204 -0.271081,-0.9487864 C 13.084863,5.088902 12.821571,4.87858 12.475708,4.7290176 12.132961,4.5763394 11.715433,4.5000002 11.223123,4.5000002 Z m 1.215194,1.0048723 h 1.420843 c 0.355211,0 0.632525,0.087245 0.831941,0.2617342 0.202533,0.1744895 0.303799,0.4112967 0.303798,0.7104214 0,0.1994166 -0.04518,0.372348 -0.13554,0.5187945 -0.09036,0.1433306 -0.221229,0.2555024 -0.392602,0.3365154 -0.168258,0.077897 -0.37079,0.1168457 -0.607597,0.1168457 H 9.746194 Z m 0,2.9117928 h 1.495624 c 0.274198,0 0.507889,0.042064 0.701074,0.1261932 0.193184,0.084129 0.339632,0.2040904 0.439339,0.3598846 0.102825,0.1557941 0.154237,0.3427471 0.154237,0.5608589 0,0.3209358 -0.115287,0.5670912 -0.345864,0.7384652 -0.230574,0.171372 -0.556184,0.257059 -0.976829,0.257059 H 9.746194 Z"
     id="path14" /><path
     style="font-size:24px;font-family:'Adwaita Sans';-inkscape-font-specification:'Adwaita Sans, @opsz=32,wght=600';font-variation-settings:'opsz' 32, 'wght' 600;letter-spacing:0px;word-spacing:0px;baseline-shift:baseline;clip-rule:nonzero;display:inline;overflow:visible;vector-effect:none;fill:#000000;fill-rule:nonzero;stroke-linejoin:miter;enable-background:accumulate;stop-color:#000000;stop-opacity:1;stroke:none;stroke-opacity:1;fill-opacity:1"
     d="M 8.53125,4.3789062 A 0.1210121,0.1210121 0 0 0 8.4101563,4.5 v 6.964844 A 0.1210121,0.1210121 0 0 0 8.53125,11.585938 h 2.8125 c 0.55117,0 1.021464,-0.08289 1.40625,-0.253907 0.382086,-0.173082 0.677462,-0.419651 0.875,-0.734375 0.199749,-0.316266 0.298828,-0.6829518 0.298828,-1.0917966 0,-0.3492307 -0.06808,-0.6550602 -0.210937,-0.9101563 -0.139781,-0.2529359 -0.333475,-0.45583 -0.574219,-0.6035156 -0.15128,-0.093751 -0.334765,-0.1264793 -0.509766,-0.1738281 0.142618,-0.061434 0.298567,-0.1081671 0.416016,-0.1972657 0.194893,-0.1478508 0.346546,-0.3339175 0.451172,-0.5527343 v -0.00195 c 0.108507,-0.2211236 0.162109,-0.4755351 0.162109,-0.7578125 0,-0.3845524 -0.09802,-0.7265698 -0.292969,-1.015625 C 13.170965,5.0021228 12.886818,4.7759527 12.525391,4.6191406 12.162973,4.4577002 11.727475,4.3789062 11.222656,4.3789062 Z m 0.1210938,0.2421875 h 2.5703122 c 0.479802,0 0.880049,0.074834 1.203125,0.21875 a 0.1210121,0.1210121 0 0 0 0.002,0 c 0.328466,0.1420392 0.569671,0.3378986 0.736329,0.5878907 a 0.1210121,0.1210121 0 0 0 0.002,0 c 0.166498,0.2468768 0.25,0.5362952 0.25,0.8808593 0,0.2529589 -0.04635,0.4687842 -0.136719,0.6523438 a 0.1210121,0.1210121 0 0 0 -0.002,0.00195 c -0.08854,0.1856419 -0.212773,0.3388108 -0.378906,0.4648438 -0.167117,0.1267778 -0.366923,0.2220455 -0.603516,0.2871093 a 0.1210121,0.1210121 0 0 0 -0.08984,0.1171875 v 0.00977 A 0.1210121,0.1210121 0 0 0 12.3125,7.9628906 c 0.261294,0.029359 0.491792,0.1070391 0.697266,0.234375 a 0.1210121,0.1210121 0 0 0 0.002,0 C 13.218545,8.3236596 13.37851,8.4930505 13.5,8.7128906 a 0.1210121,0.1210121 0 0 0 0.002,0.00195 c 0.118884,0.2122867 0.179688,0.4734467 0.179688,0.7910156 0,0.370125 -0.08756,0.6871416 -0.261719,0.9628906 -0.170134,0.271062 -0.422501,0.485376 -0.769531,0.642578 -0.344332,0.153039 -0.779717,0.232422 -1.306641,0.232422 H 8.6523438 Z m 1.09375,0.7636719 A 0.1210121,0.1210121 0 0 0 9.625,5.5039062 v 1.9453125 a 0.1210121,0.1210121 0 0 0 0.1210938,0.1210938 h 1.4218752 c 0.250074,0 0.470306,-0.041917 0.658203,-0.1289063 0.188871,-0.089285 0.34008,-0.2170356 0.443359,-0.3808593 a 0.1210121,0.1210121 0 0 0 0,-0.00195 C 12.372779,6.8912596 12.423828,6.694255 12.423828,6.4765625 12.423829,6.1501286 12.306562,5.8725876 12.078125,5.6757812 11.851914,5.4778466 11.542993,5.3847656 11.167969,5.3847656 Z M 9.8671875,5.625 h 1.3007815 c 0.335398,0 0.579332,0.081378 0.751953,0.2324219 0.176629,0.1521727 0.26172,0.3473251 0.261719,0.6191406 0,0.1811407 -0.03972,0.3295193 -0.117188,0.4550781 -0.07744,0.1228375 -0.187921,0.2182743 -0.341797,0.2910156 -0.148358,0.068356 -0.331905,0.1054688 -0.554687,0.1054688 H 9.8671875 Z M 9.7460938,8.2949219 A 0.1210121,0.1210121 0 0 0 9.625,8.4160156 v 2.0429684 a 0.1210121,0.1210121 0 0 0 0.1210938,0.121094 h 1.4667972 c 0.437077,0 0.791933,-0.08886 1.050781,-0.28125 0.259601,-0.192946 0.394531,-0.4860244 0.394531,-0.8359374 0,-0.237126 -0.05866,-0.4494925 -0.175781,-0.6269531 C 12.368939,8.6597011 12.200591,8.5232482 11.990234,8.4316406 11.777836,8.3391443 11.52876,8.2949219 11.242188,8.2949219 Z m 0.1210937,0.2421875 h 1.3750005 c 0.261823,0 0.478372,0.041425 0.652343,0.1171875 0.175103,0.076255 0.300808,0.1802151 0.386719,0.3144531 0.08853,0.1341276 0.134766,0.2950431 0.134766,0.4941406 0,0.2919586 -0.09532,0.4927762 -0.296875,0.6425784 -0.2023,0.150357 -0.502037,0.232422 -0.90625,0.232422 H 9.8671875 Z"
     id="path15" /></g><g
   id="path12"
   style="opacity:1;stroke:none;stroke-opacity:1;fill:#000000;fill-opacity:1"><path
     style="font-size:24px;font-family:'Adwaita Sans';-inkscape-font-specification:'Adwaita Sans, @opsz=32,wght=600';font-variation-settings:'opsz' 32, 'wght' 600;letter-spacing:0px;word-spacing:0px;baseline-shift:baseline;clip-rule:nonzero;display:inline;overflow:visible;vector-effect:none;fill:#000000;fill-rule:nonzero;stroke-linejoin:miter;enable-background:accumulate;stop-color:#000000;stop-opacity:1;stroke:none;stroke-opacity:1;fill-opacity:1"
     d="M 5.5759167,4.5128445 0.94900075,11.463999 H 2.6606912 L 3.8445786,9.7296705 H 6.6432357 L 6.658666,11.464 H 8.076334 L 8.0484261,4.5128445 Z m 1.067319,1.0240913 V 6.3681912 7.6494507 8.6725095 H 4.2067086 C 5.2427342,7.0469303 5.5220329,6.6798533 6.2547888,5.538169 c 0.2451952,0 0.3614206,-0.00115 0.3884469,-0.00123 z"
     id="path16" /><path
     style="font-size:24px;font-family:'Adwaita Sans';-inkscape-font-specification:'Adwaita Sans, @opsz=32,wght=600';font-variation-settings:'opsz' 32, 'wght' 600;letter-spacing:0px;word-spacing:0px;baseline-shift:baseline;clip-rule:nonzero;display:inline;overflow:visible;vector-effect:none;fill:#000000;fill-rule:nonzero;stroke-linejoin:miter;enable-background:accumulate;stop-color:#000000;stop-opacity:1;stroke:none;stroke-opacity:1;fill-opacity:1"
     d="M 5.5761719,4.3867187 A 0.12620362,0.12620362 0 0 0 5.4707031,4.4433594 L 0.84375,11.394531 a 0.12620362,0.12620362 0 0 0 0.10546875,0.195313 H 2.6601563 A 0.12620362,0.12620362 0 0 0 2.765625,11.535156 L 3.9121094,9.8554688 h 2.6054687 l 0.015625,1.6093752 a 0.12620362,0.12620362 0 0 0 0.125,0.125 H 8.0761719 A 0.12620362,0.12620362 0 0 0 8.203125,11.462891 L 8.1738281,4.5117187 a 0.12620362,0.12620362 0 0 0 -0.125,-0.125 z m 0.068359,0.2519532 H 7.921875 l 0.027344,6.6992191 H 6.7832031 L 6.7695312,9.7285156 a 0.12620362,0.12620362 0 0 0 -0.1269531,-0.125 H 3.84375 A 0.12620362,0.12620362 0 0 0 3.7402344,9.6582031 L 2.59375,11.337891 H 1.1855469 Z m 0.9980469,0.7714843 c -0.029545,8.75e-5 -0.1438723,0.00195 -0.3886719,0.00195 A 0.12620362,0.12620362 0 0 0 6.1484375,5.4707031 C 5.4169135,6.610468 5.136532,6.9784821 4.0996094,8.6054688 A 0.12620362,0.12620362 0 0 0 4.2070312,8.7988281 H 6.6425781 A 0.12620362,0.12620362 0 0 0 6.7695312,8.671875 V 7.6503906 6.3691406 5.5371094 A 0.12620362,0.12620362 0 0 0 6.6425781,5.4101562 Z M 6.3222656,5.6640625 c 0.1010919,-1.683e-4 0.1507142,2.706e-4 0.1953125,0 v 0.7050781 1.28125 0.8964844 H 4.4394531 C 5.3095215,7.189301 5.6627623,6.6893081 6.3222656,5.6640625 Z"
     id="path17" /></g><rect
   style="font-variation-settings:'opsz' 32, 'wght' 600;clip-rule:evenodd;display:none;fill:#9279a8;fill-opacity:0.761215;fill-rule:evenodd;stroke:none;stroke-width:0.105634;stroke-linecap:butt;stroke-linejoin:round;stroke-miterlimit:2;stroke-dasharray:none;stroke-opacity:1"
   id="rect13"
   width="1.5016644"
   height="8.3101797"
   x="6.6432357"
   y="3.2800112" /></svg>
