<?xml version="1.0" encoding="UTF-8" standalone="no"?>
<svg
   width="100%"
   height="100%"
   viewBox="0 0 21 21"
   version="1.1"
   xml:space="preserve"
   style="fill-rule:evenodd;clip-rule:evenodd;stroke-linejoin:round;stroke-miterlimit:2;"
   id="svg1"
   sodipodi:docname="delete.svg"
   inkscape:version="1.4.2 (ebf0e940d0, 2025-05-08)"
   xmlns:inkscape="http://www.inkscape.org/namespaces/inkscape"
   xmlns:sodipodi="http://sodipodi.sourceforge.net/DTD/sodipodi-0.dtd"
   xmlns="http://www.w3.org/2000/svg"
   xmlns:svg="http://www.w3.org/2000/svg"><defs
   id="defs1">
        
    
            
            
        
                
            </defs><sodipodi:namedview
   id="namedview1"
   pagecolor="#ffffff"
   bordercolor="#000000"
   borderopacity="0.25"
   inkscape:showpageshadow="2"
   inkscape:pageopacity="0.0"
   inkscape:pagecheckerboard="0"
   inkscape:deskcolor="#d1d1d1"
   inkscape:zoom="28.47619"
   inkscape:cx="4.5301003"
   inkscape:cy="11.307692"
   inkscape:window-width="2560"
   inkscape:window-height="1403"
   inkscape:window-x="0"
   inkscape:window-y="0"
   inkscape:window-maximized="1"
   inkscape:current-layer="svg1" />
    <path
   d="m 10.5,4.1992187 c -3.4559999,0 -6.3007814,2.8447814 -6.3007813,6.3007813 0,3.456 2.8447814,6.300781 6.3007813,6.300781 3.456,0 6.300781,-2.844781 6.300781,-6.300781 C 16.800781,7.0440001 13.956,4.1992186 10.5,4.1992187 Z M 8.1875,7.0039062 A 0.35003499,0.35003499 0 0 1 8.4355469,7.1054687 L 10.5,9.1679688 12.564453,7.1054687 a 0.35003499,0.35003499 0 0 1 0.494141,0 l 0.835937,0.8359375 a 0.35003499,0.35003499 0 0 1 0,0.4941407 L 11.832031,10.5 l 2.0625,2.064453 a 0.35003499,0.35003499 0 0 1 0,0.494141 l -0.835937,0.835937 a 0.35003499,0.35003499 0 0 1 -0.494141,0 L 10.5,11.832031 l -2.0644531,2.0625 a 0.35003499,0.35003499 0 0 1 -0.4941407,0 L 7.1054687,13.058594 a 0.35003499,0.35003499 0 0 1 0,-0.494141 L 9.1679688,10.5 7.1054687,8.4355469 a 0.35003499,0.35003499 0 0 1 0,-0.4941407 L 7.9414062,7.1054687 A 0.35003499,0.35003499 0 0 1 8.1875,7.0039062 Z"
   style="fill-rule:nonzero"
   id="path8" />
</svg>
