<?xml version="1.0" encoding="UTF-8" standalone="no"?>
<svg
   width="13"
   height="13"
   version="1.1"
   xml:space="preserve"
   style="clip-rule:evenodd;fill-rule:evenodd;stroke-linejoin:round;stroke-miterlimit:1.41421"
   id="svg2"
   xmlns="http://www.w3.org/2000/svg"
   xmlns:svg="http://www.w3.org/2000/svg"><path
     d="M 5.4870588,2.9062387 C 5.4789919,2.877713 5.441786,2.7391284 5.4342081,2.5937365 5.4268009,2.4516138 5.4769753,2.2191394 5.5453788,2.0907949 5.6465816,1.9009097 5.8027945,1.7446188 5.9927473,1.6433645 6.1210874,1.5749528 6.355196,1.5224816 6.5007137,1.5225477 c 0.1447116,6.6e-5 0.3781564,0.052389 0.506499,0.1207955 0.1899575,0.1012466 0.3461767,0.2575312 0.4473872,0.4474117 0.068409,0.128342 0.1190272,0.3635647 0.1088067,0.508513 -0.010046,0.1424663 -0.080019,0.3674711 -0.1283294,0.5050298 -0.011503,0.032754 -0.063034,0.2284184 0.05593,0.2852768 C 7.5408867,3.4134136 7.7071934,3.41 7.8529952,3.41 h 1.6600096 c 0.1458018,0 0.4113894,0.00449 0.4845195,0.1233446 0.042165,0.068528 0.03577,0.2587711 0.032831,0.4045434 l -0.02471,1.225224 C 10.002745,5.3088843 9.9777163,5.6031367 9.847,5.6075402 9.8290627,5.6081428 9.801134,5.6010327 9.7671326,5.589437 9.6299489,5.5426526 9.4061484,5.4711548 9.2604769,5.4695162 c -0.2385,-0.00268 -0.3891658,0.052603 -0.4797977,0.1142107 -0.1635,0.1111427 -0.3020112,0.266097 -0.4024918,0.425224 -0.077716,0.123076 -0.1596409,0.349532 -0.1585501,0.4946309 0.00106,0.1411447 0.08486,0.3632754 0.1639643,0.485494 0.1015473,0.1568935 0.2398184,0.3098915 0.3995837,0.4210251 0.1193418,0.083015 0.3497268,0.1583993 0.4939002,0.1450913 0.1390134,-0.012832 0.3537244,-0.1069411 0.4848361,-0.1707042 0.019803,-0.00963 0.2091542,-0.067916 0.2566254,0.050506 0.01795,0.044786 0.01577,0.2041968 0.01627,0.3499978 l 0.0044,1.2670156 c 5.04e-4,0.145801 -0.0025,0.4106546 -0.1199776,0.4862915 C 9.8503917,9.5826003 9.6588066,9.58 9.5130048,9.58 H 7.8319952 c -0.1458018,0 -0.4388571,0.017809 -0.4496514,0.1487507 -0.00248,0.03003 0.00242,0.063157 0.01567,0.09797 0.038923,0.1023057 0.08247,0.2193203 0.1173159,0.3226693 0.046055,0.136595 0.068895,0.372879 0.033767,0.514013 -0.096201,0.386512 -0.4007718,0.691442 -0.7876477,0.787705 -0.1411605,0.03512 -0.381717,0.03512 -0.5228552,1.1e-5 C 5.8517119,11.354871 5.5471305,11.049952 5.4509139,10.663446 5.4157745,10.52229 5.4462014,10.286191 5.5062271,10.153973 5.5569557,10.042234 5.6215135,9.913613 5.6764265,9.803968 5.7405331,9.6759663 5.669805,9.5704178 5.524004,9.5709332 l -2.301008,0.00813 C 3.0773477,9.579578 2.959002,9.4616516 2.959,9.3160024 V 7.3959976 c 0,-0.1458018 0.1053315,-0.2101591 0.2297598,-0.1343601 0.1131023,0.068899 0.2470943,0.1518199 0.3619323,0.2158988 0.1257393,0.070162 0.359669,0.1066125 0.500551,0.070568 C 4.440878,7.4484165 4.7517759,7.132413 4.849704,6.7414995 4.8850655,6.6003419 4.885415,6.3595886 4.8492245,6.2187468 4.7507969,5.8356982 4.4404486,5.5418126 4.051627,5.4494844 3.9100924,5.4158761 3.6731414,5.4399775 3.5359425,5.4881842 3.4291249,5.5257159 3.3076098,5.5728018 3.2023471,5.6143587 3.0680312,5.6673856 2.959,5.5918042 2.959,5.4460024 V 3.6739976 C 2.959,3.5281958 3.0771958,3.41 3.2229976,3.41 h 2.1580048 c 0.039432,0 0.074027,-0.00818 0.1026547,-0.022855 0.1186297,-0.060833 0.043076,-0.340611 0.0034,-0.4809062 z"
     style="fill:#ffffff;fill-opacity:1"
     id="path1" /><defs
     id="defs2" /></svg>
