<?xml version="1.0" encoding="UTF-8" standalone="no"?>
<svg
   width="15px"
   height="15px"
   version="1.1"
   xml:space="preserve"
   style="fill-rule:evenodd;clip-rule:evenodd;stroke-linejoin:round;stroke-miterlimit:2;"
   id="svg4"
   sodipodi:docname="hour_glass.svg"
   inkscape:version="1.4.2 (ebf0e940d0, 2025-05-08)"
   xmlns:inkscape="http://www.inkscape.org/namespaces/inkscape"
   xmlns:sodipodi="http://sodipodi.sourceforge.net/DTD/sodipodi-0.dtd"
   xmlns="http://www.w3.org/2000/svg"
   xmlns:svg="http://www.w3.org/2000/svg"><defs
   id="defs4" /><sodipodi:namedview
   id="namedview4"
   pagecolor="#ffffff"
   bordercolor="#000000"
   borderopacity="0.25"
   inkscape:showpageshadow="2"
   inkscape:pageopacity="0.0"
   inkscape:pagecheckerboard="0"
   inkscape:deskcolor="#d1d1d1"
   inkscape:zoom="14.094995"
   inkscape:cx="31.07486"
   inkscape:cy="14.757011"
   inkscape:window-width="2560"
   inkscape:window-height="1403"
   inkscape:window-x="0"
   inkscape:window-y="0"
   inkscape:window-maximized="1"
   inkscape:current-layer="svg4" />
    
<g
   id="Layer_2"
   data-name="Layer 2"
   transform="matrix(0.47862016,0,0,0.47862016,21.045866,-0.54908316)"><g
     id="icons_Q2"
     data-name="icons Q2"
     transform="matrix(0.4047779,0,0,0.4047779,-38.016582,7.1025976)"><path
       d="M 40,47.999956 H 38 V 34.5 c 0.03421,-2.132577 -0.795321,-4.188379 -2.3,-5.7 L 30.8,24 35.7,19.2 c 1.504679,-1.511621 2.334214,-3.567423 2.3,-5.7 V -4.2301513e-5 h 2 c 2.666666,0 2.666666,-3.999999998487 0,-3.999999998487 H 8 c -2.6666655,0 -2.6666655,3.999999998487 0,3.999999998487 h 2 V 13.5 c -0.034214,2.132577 0.795321,4.188379 2.3,5.7 l 4.9,4.8 -4.9,4.8 C 10.795321,30.311621 9.9657864,32.367423 10,34.5 V 47.999956 H 8 c -2.6666655,0 -2.6666655,4 0,4 h 32 c 2.666666,0 2.666666,-4 0,-4 z M 15.2,31.7 21.4,25.4 c 0.820636,-0.752947 0.820636,-2.047053 0,-2.8 L 15.2,16.3 C 14.40536,15.590232 13.965942,14.564924 14,13.5 V -4.2301513e-5 H 34 V 13.5 c 0.03406,1.064924 -0.40536,2.090232 -1.2,2.8 l -6.2,6.3 c -0.820636,0.752947 -0.820636,2.047053 0,2.8 l 6.2,6.3 c 0.79464,0.709768 1.234058,1.735076 1.2,2.8 v 12.299956 l -7.2,-7.3 c -1.5322,-1.580301 -4.0678,-1.580301 -5.6,0 l -7.2,7.3 V 34.5 c -0.03406,-1.064924 0.40536,-2.090232 1.2,-2.8 z M 29.6,47.999956 H 18.4 l 5.6,-5.7 z"
       id="path1-6"
       sodipodi:nodetypes="scccccccsssscccccccssssccccccccccccccccccccccc" /></g></g></svg>
