<?xml version="1.0" encoding="UTF-8" standalone="no"?>
<svg
   width="100%"
   height="100%"
   viewBox="0 0 13 13"
   version="1.1"
   xml:space="preserve"
   style="fill-rule:evenodd;clip-rule:evenodd;stroke-linejoin:round;stroke-miterlimit:2;"
   id="svg2"
   sodipodi:docname="monitor_on.svg"
   inkscape:version="1.4.2 (ebf0e940d0, 2025-05-08)"
   xmlns:inkscape="http://www.inkscape.org/namespaces/inkscape"
   xmlns:sodipodi="http://sodipodi.sourceforge.net/DTD/sodipodi-0.dtd"
   xmlns="http://www.w3.org/2000/svg"
   xmlns:svg="http://www.w3.org/2000/svg"><defs
   id="defs2"><inkscape:path-effect
     effect="fillet_chamfer"
     id="path-effect3"
     is_visible="true"
     lpeversion="1"
     nodesatellites_param="F,0,0,1,0,0.61265638,0,1 @ F,0,1,1,0,0.61265638,0,1 @ F,0,1,1,0,0.61265638,0,1 @ F,0,1,1,0,0.61265638,0,1 @ F,0,1,1,0,0.61265638,0,1 @ F,0,1,1,0,0.61265638,0,1"
     radius="0"
     unit="px"
     method="auto"
     mode="F"
     chamfer_steps="1"
     flexible="false"
     use_knot_distance="true"
     apply_no_radius="true"
     apply_with_radius="true"
     only_selected="false"
     hide_knots="false" /></defs><sodipodi:namedview
   id="namedview2"
   pagecolor="#ffffff"
   bordercolor="#000000"
   borderopacity="0.25"
   inkscape:showpageshadow="2"
   inkscape:pageopacity="0.0"
   inkscape:pagecheckerboard="0"
   inkscape:deskcolor="#d1d1d1"
   inkscape:zoom="32.526912"
   inkscape:cx="2.3980143"
   inkscape:cy="4.0274343"
   inkscape:window-width="2560"
   inkscape:window-height="1403"
   inkscape:window-x="0"
   inkscape:window-y="0"
   inkscape:window-maximized="1"
   inkscape:current-layer="monitor_on" />
    <g
   transform="matrix(1,0,0,1,0,-30)"
   id="g2">
        <g
   id="monitor_on"
   transform="matrix(0.371429,0,0,0.565217,-0.371429,28.8696)">
            <rect
   x="1"
   y="2"
   width="35"
   height="23"
   style="fill:none;"
   id="rect1" />
            <path
   d="m 18.49998,3.7691718 c -8.172866,0 -14.8076754,4.3602395 -14.8076754,9.7307762 0,5.370536 6.6348094,9.730776 14.8076754,9.730776 8.172866,0 14.807675,-4.36024 14.807675,-9.730776 0,-5.3705367 -6.634809,-9.7307762 -14.807675,-9.7307762 z m 4.411804,4.9828761 a 0.4435782,0.4435782 0 0 1 0.462739,0.442308 V 17.80554 a 0.44357823,0.44357823 0 0 1 -0.578424,0.421575 L 17.54295,16.499349 A 3.8272767,3.8272767 0 0 0 16.349291,16.309295 H 13.299415 A 0.61265638,0.61265638 0 0 1 12.68944,15.697666 V 11.30223 a 0.61265638,0.61265638 0 0 1 0.609975,-0.611629 h 3.049876 a 3.8272761,3.8272761 0 0 0 1.193659,-0.190054 l 5.253149,-1.7277659 a 0.4435782,0.4435782 0 0 1 0.115685,-0.020733 z"
   id="path1"
   style="" />
        </g>
    </g>
</svg>
