<?xml version="1.0" encoding="UTF-8" standalone="no"?>
<svg
   width="23px"
   height="19px"
   version="1.1"
   xml:space="preserve"
   style="fill-rule:evenodd;clip-rule:evenodd;stroke-linejoin:round;stroke-miterlimit:2;"
   id="svg1"
   sodipodi:docname="play_follow_selection.svg"
   inkscape:version="1.4.2 (ebf0e940d0, 2025-05-08)"
   xmlns:inkscape="http://www.inkscape.org/namespaces/inkscape"
   xmlns:sodipodi="http://sodipodi.sourceforge.net/DTD/sodipodi-0.dtd"
   xmlns="http://www.w3.org/2000/svg"
   xmlns:svg="http://www.w3.org/2000/svg"><defs
   id="defs1"><inkscape:path-effect
     effect="fillet_chamfer"
     id="path-effect1"
     is_visible="true"
     lpeversion="1"
     nodesatellites_param="F,0,0,1,0,0.23915184,0,1 @ F,0,1,1,0,0.46156021,0,1 @ F,0,1,1,0,0.46156021,0,1 @ F,0,0,1,0,0.23915184,0,1 @ F,0,1,1,0,0.46156021,0,1 @ F,0,1,1,0,0.46156021,0,1"
     radius="0"
     unit="px"
     method="auto"
     mode="F"
     chamfer_steps="1"
     flexible="false"
     use_knot_distance="true"
     apply_no_radius="true"
     apply_with_radius="true"
     only_selected="false"
     hide_knots="false" /></defs><sodipodi:namedview
   id="namedview1"
   pagecolor="#ffffff"
   bordercolor="#000000"
   borderopacity="0.25"
   inkscape:showpageshadow="2"
   inkscape:pageopacity="0.0"
   inkscape:pagecheckerboard="0"
   inkscape:deskcolor="#d1d1d1"
   inkscape:zoom="31.473684"
   inkscape:cx="21.510034"
   inkscape:cy="11.056856"
   inkscape:window-width="2560"
   inkscape:window-height="1403"
   inkscape:window-x="0"
   inkscape:window-y="0"
   inkscape:window-maximized="1"
   inkscape:current-layer="g1" />
    <g
   transform="matrix(1.8,0,0,1.85714,-0.2,-2.57143)"
   id="g1">
        <path
   d="M 6.2608482,5 H 4.4615602 A 0.46156021,0.46156021 135 0 0 4,5.4615602 V 7.5384398 A 0.46156021,0.46156021 45 0 0 4.4615602,8 h 1.799288 a 0.68176954,0.68176954 19.329904 0 1 0.425898,0.149397 L 8.639582,9.7116656 A 0.22183731,0.22183731 154.3299 0 0 9,9.5384398 V 3.4615602 A 0.22183731,0.22183731 25.670096 0 0 8.639582,3.2883344 L 6.6867462,4.850603 A 0.68176954,0.68176954 160.6701 0 1 6.2608482,5 Z"
   style="fill-rule:nonzero"
   id="path1"
   inkscape:path-effect="#path-effect1"
   inkscape:original-d="M 6.5,5 H 4 V 8 H 6.5 L 9,10 V 3 Z"
   transform="translate(0,1.0769247e-5)" />
    </g>
</svg>
