<?xml version="1.0" encoding="UTF-8" standalone="no"?>
<svg
   width="23px"
   height="23px"
   version="1.1"
   xml:space="preserve"
   style="fill-rule:evenodd;clip-rule:evenodd;stroke-linejoin:round;stroke-miterlimit:2;"
   id="svg4"
   sodipodi:docname="any.svg"
   inkscape:version="1.4 (e7c3feb100, 2024-10-09)"
   xmlns:inkscape="http://www.inkscape.org/namespaces/inkscape"
   xmlns:sodipodi="http://sodipodi.sourceforge.net/DTD/sodipodi-0.dtd"
   xmlns="http://www.w3.org/2000/svg"
   xmlns:svg="http://www.w3.org/2000/svg"
   xmlns:serif="http://www.serif.com/"><defs
   id="defs4" /><sodipodi:namedview
   id="namedview4"
   pagecolor="#505050"
   bordercolor="#ffffff"
   borderopacity="1"
   inkscape:showpageshadow="0"
   inkscape:pageopacity="0"
   inkscape:pagecheckerboard="1"
   inkscape:deskcolor="#505050"
   inkscape:zoom="18.384776"
   inkscape:cx="29.671288"
   inkscape:cy="20.397311"
   inkscape:window-width="2560"
   inkscape:window-height="1403"
   inkscape:window-x="0"
   inkscape:window-y="0"
   inkscape:window-maximized="1"
   inkscape:current-layer="g2" />
    <g
   transform="matrix(1,0,0,1,-31,-33)"
   id="g4">
        <g
   transform="matrix(1.21053,0,0,1.21053,31,17.2632)"
   id="g3">
            <rect
   id="any"
   x="0"
   y="13"
   width="19"
   height="19"
   style="fill:none;" />
            <g
   id="any1"
   serif:id="any">
                <g
   transform="matrix(0.665624,0,0,0.665624,3.17657,16.1778)"
   id="g2">
                    <path
   id="path1"
   style="fill:#ffffff;fill-rule:nonzero;fill-opacity:1"
   d="M 8.738836 2.9702748 C 8.701711 2.9713998 8.6629099 2.9744706 8.6249099 2.9799706 C 8.5719099 2.9879706 8.5212004 3.0026019 8.4722004 3.0236019 C 8.3802004 3.0636019 8.2951085 3.1190073 8.2201085 3.1860073 C 8.0071085 3.3560073 7.8783301 3.6219235 7.8783301 3.9059235 L 7.8783301 6.6498466 L 5.4640656 5.2730371 C 5.4610656 5.2720371 5.4597937 5.2701892 5.4567937 5.2681892 C 5.0687937 5.0541892 4.5821407 5.1470737 4.2981407 5.4790737 C 4.2941407 5.4830737 4.2900209 5.4886175 4.2860209 5.4936175 C 4.2740209 5.5056175 4.2606615 5.5169769 4.2496615 5.5299769 C 4.2226615 5.5609769 4.1979427 5.5972072 4.1769427 5.6342072 L 3.4909619 6.8510353 C 3.4889619 6.8550353 3.488114 6.8577311 3.486114 6.8607311 C 3.310114 7.1877311 3.3429526 7.5877945 3.5709526 7.8787945 C 3.6089526 7.9287945 3.6548464 7.9759602 3.7018464 8.0169602 C 3.7108464 8.0269602 3.7293256 8.0450155 3.7503256 8.0630155 C 3.7793256 8.0880155 3.8108601 8.1118864 3.8448601 8.1308864 L 6.2009495 9.5004239 L 3.8448601 10.869962 C 3.8238601 10.881962 3.8032611 10.896169 3.7842611 10.911169 C 3.7282611 10.953169 3.6775516 11.000183 3.6315516 11.054183 C 3.3575516 11.335183 3.29269 11.776269 3.48369 12.135269 C 3.48569 12.139269 3.4879619 12.144813 3.4909619 12.149813 L 4.1745187 13.359369 C 4.3365187 13.661369 4.6532413 13.851433 4.9962413 13.851433 C 5.1612413 13.851433 5.3220656 13.808387 5.4640656 13.725387 L 7.8783301 12.348577 L 7.8783301 15.094924 C 7.8783301 15.295924 7.943975 15.492859 8.064975 15.654859 C 8.240975 15.888859 8.5199788 16.028149 8.8139788 16.028149 L 10.188364 16.028149 C 10.389364 16.028149 10.584875 15.96008 10.745875 15.83908 C 10.980875 15.66308 11.121589 15.3865 11.121589 15.0925 L 11.121589 12.348577 L 13.535854 13.727811 C 13.538854 13.728811 13.540125 13.728235 13.543125 13.730235 C 13.931125 13.944235 14.420202 13.85135 14.704202 13.51935 C 14.708202 13.51535 14.709898 13.51223 14.713898 13.50723 C 14.725898 13.49523 14.739258 13.481447 14.750258 13.468447 C 14.777258 13.437447 14.801976 13.403641 14.822976 13.366641 L 15.508957 12.149813 C 15.510957 12.145813 15.511805 12.143117 15.513805 12.140117 C 15.689805 11.813117 15.656967 11.410629 15.428967 11.119629 C 15.390967 11.069629 15.345073 11.024888 15.298073 10.983888 C 15.289073 10.973888 15.270593 10.955832 15.249593 10.937832 C 15.220593 10.912832 15.189059 10.888962 15.155059 10.869962 L 12.79897 9.5004239 L 15.155059 8.1308864 C 15.176059 8.1188864 15.196658 8.104679 15.215658 8.089679 C 15.271658 8.047679 15.322368 8.0006654 15.368368 7.9466654 C 15.642368 7.6656654 15.707229 7.2221551 15.516229 6.8631551 C 15.514229 6.8591551 15.511957 6.8560353 15.508957 6.8510353 L 14.8254 5.6390551 C 14.6634 5.3370551 14.346678 5.1469912 14.003678 5.1469912 C 13.838678 5.1469912 13.677854 5.1900371 13.535854 5.2730371 L 11.121589 6.6498466 L 11.121589 3.9059235 C 11.121589 3.7049235 11.055944 3.5079886 10.934944 3.3459886 C 10.758944 3.1119886 10.47994 2.9726987 10.18594 2.9726987 L 8.8454903 2.9726987 C 8.8119903 2.9696987 8.775961 2.9691498 8.738836 2.9702748 z " />
                    
                </g>
            </g>
        </g>
    </g>
</svg>
