<?xml version="1.0" encoding="UTF-8" standalone="no"?>
<svg
   width="23px"
   height="23px"
   version="1.1"
   xml:space="preserve"
   style="fill-rule:evenodd;clip-rule:evenodd;stroke-linejoin:round;stroke-miterlimit:2;"
   id="svg10"
   sodipodi:docname="creator.svg"
   inkscape:version="1.4 (e7c3feb100, 2024-10-09)"
   xmlns:inkscape="http://www.inkscape.org/namespaces/inkscape"
   xmlns:sodipodi="http://sodipodi.sourceforge.net/DTD/sodipodi-0.dtd"
   xmlns="http://www.w3.org/2000/svg"
   xmlns:svg="http://www.w3.org/2000/svg"
   xmlns:serif="http://www.serif.com/"><sodipodi:namedview
   id="namedview10"
   pagecolor="#505050"
   bordercolor="#ffffff"
   borderopacity="1"
   inkscape:showpageshadow="0"
   inkscape:pageopacity="0"
   inkscape:pagecheckerboard="1"
   inkscape:deskcolor="#505050"
   inkscape:zoom="26"
   inkscape:cx="10.153846"
   inkscape:cy="10.307692"
   inkscape:window-width="2560"
   inkscape:window-height="1403"
   inkscape:window-x="0"
   inkscape:window-y="0"
   inkscape:window-maximized="1"
   inkscape:current-layer="creator1" />
    <g
   transform="matrix(1,0,0,1,-191,-98)"
   id="g6">
        <g
   transform="matrix(1.21053,0,0,1.21053,-2.68421,43.5263)"
   id="g5">
            <rect
   id="creator"
   x="160"
   y="45"
   width="19"
   height="19"
   style="fill:none;" />
            <g
   id="creator1"
   serif:id="creator">
                <g
   transform="matrix(0.936232,0,0,0.936232,130.64586,3.47536)"
   id="g1">
                    <path
   d="M 49,54.5 C 49,58.639 45.639,62 41.5,62 37.361,62 34,58.639 34,54.5 34,50.361 37.361,47 41.5,47 c 4.139,0 7.5,3.361 7.5,7.5 z m -0.882,0 c 0,-3.652 -2.966,-6.618 -6.618,-6.618 -3.652,0 -6.618,2.966 -6.618,6.618 0,3.652 2.966,6.618 6.618,6.618 3.652,0 6.618,-2.966 6.618,-6.618 z"
   style="fill:#ffffff;fill-opacity:1"
   id="path1" />
                </g>
                <g
   transform="matrix(0.826087,0,0,0.826087,160,-8.69565)"
   id="g2">
                    <path
   d="m 11.499374,67.565808 c 4.931,0 8.934,4.003 8.934,8.934 0,4.931 -4.003,8.934 -8.934,8.934 -4.9309996,0 -8.9339996,-4.003 -8.9339996,-8.934 0,-4.931 4.003,-8.934 8.9339996,-8.934 z m 0,0.5 c -4.6549996,0 -8.4339996,3.779 -8.4339996,8.434 0,4.655 3.779,8.434 8.4339996,8.434 4.655,0 8.434,-3.779 8.434,-8.434 0,-4.655 -3.779,-8.434 -8.434,-8.434 z"
   style="fill:#ffffff;fill-opacity:1"
   id="path2" />
                </g>
                
                
            <path
   id="path4100-6"
   d="m 169.49948,50.479583 c -0.95157,0 -1.72297,0.771403 -1.72297,1.722971 0,0.951567 0.7714,1.72297 1.72297,1.72297 0.95157,0 1.72297,-0.771403 1.72297,-1.72297 0,-0.951568 -0.7714,-1.722971 -1.72297,-1.722971 z m -0.86148,4.020265 c -1.43179,0 -2.58446,1.152667 -2.58446,2.584456 v 0.287161 c 0,0.636351 0.51229,1.148647 1.14864,1.148647 h 4.5946 c 0.63635,0 1.14865,-0.512296 1.14865,-1.148647 v -0.287161 c 0,-1.431789 -1.15267,-2.584456 -2.58447,-2.584456 z"
   style="display:inline;fill:#ffffff;fill-opacity:1;stroke-width:0.574325" /></g>
        </g>
    </g>
    <defs
   id="defs10">
        <radialGradient
   id="_Radial1"
   cx="0"
   cy="0"
   r="1"
   gradientUnits="userSpaceOnUse"
   gradientTransform="matrix(2.44929e-16,4,-4,2.44929e-16,169,59)"><stop
     offset="0"
     style="stop-color:rgb(228,228,228);stop-opacity:1"
     id="stop6" /><stop
     offset="1"
     style="stop-color:rgb(164,164,164);stop-opacity:1"
     id="stop7" /></radialGradient>
        <radialGradient
   id="_Radial2"
   cx="0"
   cy="0"
   r="1"
   gradientUnits="userSpaceOnUse"
   gradientTransform="matrix(-0.101434,4.02886,-4.02886,-0.101434,169.141,52.3912)"><stop
     offset="0"
     style="stop-color:rgb(228,228,228);stop-opacity:1"
     id="stop8" /><stop
     offset="0.56"
     style="stop-color:rgb(214,214,214);stop-opacity:1"
     id="stop9" /><stop
     offset="1"
     style="stop-color:rgb(157,157,157);stop-opacity:1"
     id="stop10" /></radialGradient>
    </defs>
</svg>
