<?xml version="1.0" encoding="UTF-8" standalone="no"?>
<svg
   width="23px"
   height="23px"
   version="1.1"
   xml:space="preserve"
   style="fill-rule:evenodd;clip-rule:evenodd;stroke-linecap:round;"
   id="svg10"
   sodipodi:docname="curve.svg"
   inkscape:version="1.4 (e7c3feb100, 2024-10-09)"
   xmlns:inkscape="http://www.inkscape.org/namespaces/inkscape"
   xmlns:sodipodi="http://sodipodi.sourceforge.net/DTD/sodipodi-0.dtd"
   xmlns="http://www.w3.org/2000/svg"
   xmlns:svg="http://www.w3.org/2000/svg"
   xmlns:serif="http://www.serif.com/"><sodipodi:namedview
   id="namedview10"
   pagecolor="#505050"
   bordercolor="#ffffff"
   borderopacity="1"
   inkscape:showpageshadow="0"
   inkscape:pageopacity="0"
   inkscape:pagecheckerboard="1"
   inkscape:deskcolor="#505050"
   inkscape:zoom="36.769553"
   inkscape:cx="6.4727467"
   inkscape:cy="9.9810842"
   inkscape:window-width="2560"
   inkscape:window-height="1403"
   inkscape:window-x="0"
   inkscape:window-y="0"
   inkscape:window-maximized="1"
   inkscape:current-layer="g5" />
    <g
   transform="matrix(1,0,0,1,-415,-98)"
   id="g7">
        <g
   transform="matrix(1.21053,0,0,1.21053,-49.8421,43.5263)"
   id="g6">
            <rect
   id="curve"
   x="384"
   y="45"
   width="19"
   height="19"
   style="fill:none;" />
            <g
   id="curve1"
   serif:id="curve">
                <g
   id="wavetable"
   transform="matrix(0.936232,0,0,0.928922,354.646,3.87375)">
                    <path
   d="M 49,48.779 C 49,47.797 48.209,47 47.235,47 H 35.765 C 34.791,47 34,47.797 34,48.779 V 60.221 C 34,61.203 34.791,62 35.765,62 h 11.47 C 48.209,62 49,61.203 49,60.221 Z"
   id="path1"
   sodipodi:nodetypes="sssssssss" />
                    <clipPath
   id="_clip1">
                        <path
   d="M49,48.779C49,47.797 48.209,47 47.235,47L35.765,47C34.791,47 34,47.797 34,48.779L34,60.221C34,61.203 34.791,62 35.765,62L47.235,62C48.209,62 49,61.203 49,60.221L49,48.779Z"
   id="path2" />
                    </clipPath>
                    <g
   clip-path="url(#_clip1)"
   id="g3">
                        <g
   id="path3020"
   transform="matrix(0.825775,0,0,0.703834,34.4809,48.8693)">
                            <path
   d="M2.623,11.159C3.044,9.196 4.482,6.785 4.76,3.578C8.939,4.016 7.998,7.368 11.171,7.368C12.24,7.368 12.501,11.178 14.377,11.159"
   style="fill:none;stroke:#c465f3;stroke-width:1px;stroke-opacity:1"
   id="path3" />
                        </g>
                    </g>
                    <path
   id="path4"
   style="fill:#c465f3;stroke:none;stroke-opacity:1;fill-opacity:1"
   d="M 35.824154 46.555248 C 34.606735 46.555248 33.616556 47.551482 33.616556 48.778482 L 33.616556 60.221191 C 33.616556 61.448191 34.606735 62.444425 35.824154 62.444425 L 47.177519 62.444425 C 48.394939 62.444425 49.383395 61.448191 49.383395 60.221191 L 49.383395 48.778482 C 49.383395 47.551482 48.394939 46.555248 47.177519 46.555248 L 35.824154 46.555248 z M 35.765561 47.889189 L 47.234389 47.889189 C 47.721389 47.889189 48.118463 48.287482 48.118463 48.778482 L 48.118463 60.221191 C 48.118463 60.712191 47.721389 61.110484 47.234389 61.110484 L 35.765561 61.110484 C 35.278561 61.110484 34.881487 60.712191 34.881487 60.221191 L 34.881487 48.778482 C 34.881487 48.287482 35.278561 47.889189 35.765561 47.889189 z " />
                </g>
                <g
   transform="matrix(0.928922,0,0,0.928922,26.1113,-47.217)"
   id="g5">
                    
                </g>
            </g>
        </g>
    </g>
    <defs
   id="defs10">
        <linearGradient
   id="_Linear2"
   x1="0"
   y1="0"
   x2="1"
   y2="0"
   gradientUnits="userSpaceOnUse"
   gradientTransform="matrix(4.57994e-16,-8.84453,3.84488,2.78394e-16,9.03426,11.1588)"><stop
     offset="0"
     style="stop-color:rgb(196,100,243);stop-opacity:1"
     id="stop7" /><stop
     offset="1"
     style="stop-color:rgb(218,144,255);stop-opacity:1"
     id="stop8" /></linearGradient>
        <linearGradient
   id="_Linear3"
   x1="0"
   y1="0"
   x2="1"
   y2="0"
   gradientUnits="userSpaceOnUse"
   gradientTransform="matrix(7.57982e-15,-15,15,7.57982e-15,41.5,62)"><stop
     offset="0"
     style="stop-color:rgb(196,100,243);stop-opacity:1"
     id="stop9" /><stop
     offset="1"
     style="stop-color:rgb(218,144,255);stop-opacity:1"
     id="stop10" /></linearGradient>
    </defs>
</svg>
