<?xml version="1.0" encoding="UTF-8" standalone="no"?>
<!DOCTYPE svg PUBLIC "-//W3C//DTD SVG 1.1//EN" "http://www.w3.org/Graphics/SVG/1.1/DTD/svg11.dtd">
<svg width="23px" height="23px" version="1.1" xmlns="http://www.w3.org/2000/svg" xmlns:xlink="http://www.w3.org/1999/xlink" xml:space="preserve" xmlns:serif="http://www.serif.com/" style="fill-rule:evenodd;clip-rule:evenodd;stroke-linejoin:round;stroke-miterlimit:2;">
    <g transform="matrix(1,0,0,1,-127,-162)">
        <g transform="matrix(1.21053,0,0,1.21053,10.7895,107.526)">
            <rect id="damage" x="96" y="45" width="19" height="19" style="fill:none;"/>
            <g id="damage1" serif:id="damage">
                <g transform="matrix(0.826087,0,0,0.826087,16.6957,-88.8261)">
                    <path d="M111,171L114,171L114,182L104,182L104,181L100,181L100,166L111,166L111,171Z" style="fill:url(#_Linear1);"/>
                </g>
                <g transform="matrix(1.10145,0,0,0.929348,-11.942,-107.516)">
                    <rect x="101" y="173" width="3" height="8" style="fill:url(#_Radial2);"/>
                </g>
                <g transform="matrix(1.10145,0,0,1.13587,-8.63768,-144.071)">
                    <rect x="101" y="173" width="3" height="8" style="fill:url(#_Radial3);"/>
                </g>
                <g transform="matrix(0.826087,0,0,0.826087,16.6957,-88.8261)">
                    <path d="M100,166L111,166C111,166 111.688,170.021 108,169C104.312,167.979 102,168 102,168L100,166Z" style="fill:rgb(110,151,47);"/>
                </g>
                <g transform="matrix(0.826087,0,0,0.826087,16.6957,-88.8261)">
                    <rect x="105" y="172" width="2" height="2" style="fill:rgb(67,70,63);"/>
                </g>
                <g transform="matrix(0.826087,0,0,0.826087,13.3913,-85.5217)">
                    <rect x="105" y="172" width="2" height="2" style="fill:rgb(67,70,63);fill-opacity:0.6;"/>
                </g>
                <g transform="matrix(0.826087,0,0,0.826087,19.1739,-82.2174)">
                    <path d="M107,170L105,172L105,174L107,174L107,170Z" style="fill:rgb(53,53,53);"/>
                </g>
                <g transform="matrix(0.826087,0,0,0.826087,16.6957,-87.1739)">
                    <path d="M104,177L105,176L104,175L104,177Z" style="fill:rgb(134,134,134);"/>
                </g>
                <g transform="matrix(0.826087,0,0,0.826087,16.6957,-88.0867)">
                    <path d="M103,178C102.366,178.483 101.7,178.502 101,178L101,181C101.69,181.461 102.356,181.446 103,181L103,178Z" style="fill:url(#_Linear4);"/>
                </g>
                <g transform="matrix(0.826087,0,0,0.826087,16.6957,-88.8261)">
                    <path d="M102.005,177.442C102.694,178.142 102.936,178.592 102.944,178.912C102.346,179.334 101.709,179.353 101.025,178.912C101.265,178.317 101.6,177.837 102.005,177.442Z" style="fill:url(#_Linear5);"/>
                </g>
            </g>
        </g>
    </g>
    <defs>
        <linearGradient id="_Linear1" x1="0" y1="0" x2="1" y2="0" gradientUnits="userSpaceOnUse" gradientTransform="matrix(9.79717e-16,-16,11.7333,7.18459e-16,105,182)"><stop offset="0" style="stop-color:rgb(88,78,58);stop-opacity:0.6"/><stop offset="0.32" style="stop-color:rgb(145,226,82);stop-opacity:0"/><stop offset="0.45" style="stop-color:rgb(82,117,64);stop-opacity:0.23"/><stop offset="1" style="stop-color:rgb(71,91,41);stop-opacity:0.77"/></linearGradient>
        <radialGradient id="_Radial2" cx="0" cy="0" r="1" gradientUnits="userSpaceOnUse" gradientTransform="matrix(2.29621e-16,-4.44444,3.75,2.72144e-16,102.5,178.333)"><stop offset="0" style="stop-color:rgb(255,143,3);stop-opacity:0.42"/><stop offset="1" style="stop-color:rgb(239,77,0);stop-opacity:0"/></radialGradient>
        <radialGradient id="_Radial3" cx="0" cy="0" r="1" gradientUnits="userSpaceOnUse" gradientTransform="matrix(3.75,0,0,3.63636,99.5,178.091)"><stop offset="0" style="stop-color:rgb(255,143,3);stop-opacity:0.21"/><stop offset="1" style="stop-color:rgb(239,77,0);stop-opacity:0"/></radialGradient>
        <linearGradient id="_Linear4" x1="0" y1="0" x2="1" y2="0" gradientUnits="userSpaceOnUse" gradientTransform="matrix(1.9227,0.00224812,-0.00224812,1.9227,101.053,179.584)"><stop offset="0" style="stop-color:rgb(134,134,134);stop-opacity:1"/><stop offset="0.5" style="stop-color:rgb(177,177,177);stop-opacity:1"/><stop offset="1" style="stop-color:rgb(81,81,81);stop-opacity:1"/></linearGradient>
        <linearGradient id="_Linear5" x1="0" y1="0" x2="1" y2="0" gradientUnits="userSpaceOnUse" gradientTransform="matrix(0.0179476,-1.7556,1.43463,0.0146663,101.986,179.232)"><stop offset="0" style="stop-color:rgb(255,249,18);stop-opacity:0.6"/><stop offset="1" style="stop-color:rgb(255,10,0);stop-opacity:0.64"/></linearGradient>
    </defs>
</svg>
