<?xml version="1.0" encoding="UTF-8" standalone="no"?>
<svg
   width="23px"
   height="23px"
   version="1.1"
   xml:space="preserve"
   style="fill-rule:evenodd;clip-rule:evenodd;stroke-linejoin:round;stroke-miterlimit:2;"
   id="svg12"
   sodipodi:docname="device_clap.svg"
   inkscape:version="1.4 (e7c3feb100, 2024-10-09)"
   xmlns:inkscape="http://www.inkscape.org/namespaces/inkscape"
   xmlns:sodipodi="http://sodipodi.sourceforge.net/DTD/sodipodi-0.dtd"
   xmlns="http://www.w3.org/2000/svg"
   xmlns:svg="http://www.w3.org/2000/svg"
   xmlns:serif="http://www.serif.com/"><sodipodi:namedview
   id="namedview12"
   pagecolor="#505050"
   bordercolor="#ffffff"
   borderopacity="1"
   inkscape:showpageshadow="0"
   inkscape:pageopacity="0"
   inkscape:pagecheckerboard="1"
   inkscape:deskcolor="#505050"
   inkscape:zoom="52"
   inkscape:cx="11.5"
   inkscape:cy="11.5"
   inkscape:window-width="2560"
   inkscape:window-height="1403"
   inkscape:window-x="0"
   inkscape:window-y="0"
   inkscape:window-maximized="1"
   inkscape:current-layer="g5" />
    <g
   transform="matrix(1,0,0,1,-287,-258)"
   id="g9">
        <g
   transform="matrix(1.21053,0,0,1.21053,-22.8947,9.84211)"
   id="g8">
            <rect
   id="device_clap"
   x="256"
   y="205"
   width="19"
   height="19"
   style="fill:none;" />
            <g
   id="device_clap1"
   serif:id="device_clap">
                <g
   transform="matrix(0.936232,0,0,0.928922,226.646,163.874)"
   id="g6">
                    <g
   id="g5">
                        <path
   d="M49,48.779C49,47.797 48.209,47 47.235,47L35.765,47C34.791,47 34,47.797 34,48.779L34,60.221C34,61.203 34.791,62 35.765,62L47.235,62C48.209,62 49,61.203 49,60.221L49,48.779Z"
   style="fill:#ffffff;fill-opacity:1"
   id="path1" />
                        <clipPath
   id="_clip2">
                            <path
   d="M49,48.779C49,47.797 48.209,47 47.235,47L35.765,47C34.791,47 34,47.797 34,48.779L34,60.221C34,61.203 34.791,62 35.765,62L47.235,62C48.209,62 49,61.203 49,60.221L49,48.779Z"
   id="path2" />
                        </clipPath>
                        <g
   clip-path="url(#_clip2)"
   id="g4">
                            <g
   transform="matrix(0.882353,0,0,0.889296,-193.647,-71.2764)"
   id="g3">
                                <path
   d="M274,135C274,134.448 273.552,134 273,134L260,134C259.448,134 259,134.448 259,135L259,148C259,148.552 259.448,149 260,149L273,149C273.552,149 274,148.552 274,148L274,135Z"
   id="path3" />
                            </g>
                        </g>
                    </g>
                </g>
                <g
   transform="matrix(0.796535,0,0,0.811552,259.128,208.022)"
   id="g7">
                    <path
   d="M10.5,10.3L10,10.3L10,8.2L10.5,8.2C11.3,8.2 11.9,7.5 11.9,6.8C11.9,6 11.2,5.4 10.5,5.4C9.7,5.3 9,6 9,6.8L9,9.3C9,11.2 7.4,12.8 5.5,12.8C3.6,12.8 2,11.2 2,9.2C2,7.2 3.6,5.7 5.5,5.7L6,5.7L6,7.8L5.5,7.8C4.7,7.8 4.1,8.5 4.1,9.2C4.1,10 4.8,10.6 5.5,10.6C6.2,10.6 7,10 7,9.2L7,6.8C7,4.9 8.6,3.3 10.5,3.3C12.4,3.3 14,4.8 14,6.8C14,8.8 12.4,10.3 10.5,10.3Z"
   style="fill:#ffffff;fill-rule:nonzero;fill-opacity:1"
   id="path6" />
                </g>
            </g>
        </g>
    </g>
    <defs
   id="defs12">
        <linearGradient
   id="_Linear1"
   x1="0"
   y1="0"
   x2="1"
   y2="0"
   gradientUnits="userSpaceOnUse"
   gradientTransform="matrix(7.57982e-15,-15,15,7.57982e-15,41.5,62)"><stop
     offset="0"
     style="stop-color:rgb(148,125,101);stop-opacity:1"
     id="stop9" /><stop
     offset="1"
     style="stop-color:rgb(147,167,189);stop-opacity:1"
     id="stop10" /></linearGradient>
        <linearGradient
   id="_Linear3"
   x1="0"
   y1="0"
   x2="1"
   y2="0"
   gradientUnits="userSpaceOnUse"
   gradientTransform="matrix(6.06386e-15,-9.5,12,4.80055e-15,8,12.8)"><stop
     offset="0"
     style="stop-color:rgb(148,125,101);stop-opacity:1"
     id="stop11" /><stop
     offset="1"
     style="stop-color:rgb(147,167,189);stop-opacity:1"
     id="stop12" /></linearGradient>
    </defs>
</svg>
