<?xml version="1.0" encoding="UTF-8" standalone="no"?>
<svg
   width="23px"
   height="23px"
   version="1.1"
   xml:space="preserve"
   style="fill-rule:evenodd;clip-rule:evenodd;stroke-linejoin:round;stroke-miterlimit:2;"
   id="svg7"
   sodipodi:docname="device_container.svg"
   inkscape:version="1.4 (e7c3feb100, 2024-10-09)"
   xmlns:inkscape="http://www.inkscape.org/namespaces/inkscape"
   xmlns:sodipodi="http://sodipodi.sourceforge.net/DTD/sodipodi-0.dtd"
   xmlns="http://www.w3.org/2000/svg"
   xmlns:svg="http://www.w3.org/2000/svg"
   xmlns:serif="http://www.serif.com/"><sodipodi:namedview
   id="namedview7"
   pagecolor="#505050"
   bordercolor="#ffffff"
   borderopacity="1"
   inkscape:showpageshadow="0"
   inkscape:pageopacity="0"
   inkscape:pagecheckerboard="1"
   inkscape:deskcolor="#505050"
   inkscape:zoom="52"
   inkscape:cx="11.5"
   inkscape:cy="11.5"
   inkscape:window-width="2560"
   inkscape:window-height="1403"
   inkscape:window-x="0"
   inkscape:window-y="0"
   inkscape:window-maximized="1"
   inkscape:current-layer="g2" />
    <g
   transform="matrix(1,0,0,1,-223,-130)"
   id="g6">
        <g
   transform="matrix(1.21053,0,0,1.21053,-9.42105,36.7895)"
   id="g5">
            <rect
   id="device_container"
   x="192"
   y="77"
   width="19"
   height="19"
   style="fill:none;" />
            <g
   id="device_container1"
   serif:id="device_container">
                <g
   transform="matrix(0.928922,0,0,0.928922,14.2674,6.09342)"
   id="g4">
                    <g
   transform="matrix(1,0,0,1,160,32)"
   id="g2">
                        <path
   id="path1"
   style="fill:#cbcbcb;fill-opacity:1"
   d="M 35.779677 46.555072 C 34.552677 46.555072 33.554706 47.551307 33.554706 48.778307 L 33.554706 60.221015 C 33.554706 61.448015 34.552677 62.444249 35.779677 62.444249 L 47.220648 62.444249 C 48.447648 62.444249 49.445619 61.448015 49.445619 60.221015 L 49.445619 48.778307 C 49.445619 47.551307 48.447648 46.555072 47.220648 46.555072 L 35.779677 46.555072 z " />
                        
                    </g>
                    <g
   transform="matrix(0.889296,0,0,1.01634,22.3658,31.6132)"
   id="g3">
                        <path
   d="M197,54.05L201.5,54.05L202,52.167L206,52.167L206,58L197,58L197,54.05ZM201,51L201,52.75L197,52.75L197,51L201,51Z"
   id="path3" />
                    </g>
                </g>
            </g>
        </g>
    </g>
    <defs
   id="defs7">
        <linearGradient
   id="_Linear1"
   x1="0"
   y1="0"
   x2="1"
   y2="0"
   gradientUnits="userSpaceOnUse"
   gradientTransform="matrix(0.889296,15,-15,0.889296,39.3358,47)"><stop
     offset="0"
     style="stop-color:rgb(211,211,211);stop-opacity:1"
     id="stop6" /><stop
     offset="1"
     style="stop-color:rgb(166,166,166);stop-opacity:1"
     id="stop7" /></linearGradient>
    </defs>
</svg>
