<?xml version="1.0" encoding="UTF-8" standalone="no"?>
<svg
   width="23px"
   height="23px"
   version="1.1"
   xml:space="preserve"
   style="fill-rule:evenodd;clip-rule:evenodd;stroke-linejoin:round;stroke-miterlimit:2;"
   id="svg18"
   sodipodi:docname="device_legacy.svg"
   inkscape:version="1.4 (e7c3feb100, 2024-10-09)"
   xmlns:inkscape="http://www.inkscape.org/namespaces/inkscape"
   xmlns:sodipodi="http://sodipodi.sourceforge.net/DTD/sodipodi-0.dtd"
   xmlns="http://www.w3.org/2000/svg"
   xmlns:svg="http://www.w3.org/2000/svg"
   xmlns:serif="http://www.serif.com/"><sodipodi:namedview
   id="namedview18"
   pagecolor="#505050"
   bordercolor="#ffffff"
   borderopacity="1"
   inkscape:showpageshadow="0"
   inkscape:pageopacity="0"
   inkscape:pagecheckerboard="1"
   inkscape:deskcolor="#505050"
   inkscape:zoom="52"
   inkscape:cx="11.5"
   inkscape:cy="11.5"
   inkscape:window-width="2560"
   inkscape:window-height="1403"
   inkscape:window-x="0"
   inkscape:window-y="0"
   inkscape:window-maximized="1"
   inkscape:current-layer="Generic-FX" />
    <g
   transform="matrix(1,0,0,1,-159,-162)"
   id="g11">
        <g
   transform="matrix(1.21053,0,0,1.21053,42.7895,68.7895)"
   id="g10">
            <rect
   id="device_legacy"
   x="96"
   y="77"
   width="19"
   height="19"
   style="fill:none;" />
            <g
   id="device_legacy1"
   serif:id="device_legacy">
                <g
   id="Generic-FX"
   serif:id="Generic FX"
   transform="matrix(0.928922,0,0,0.928922,66.8949,35.8189)">
                    <path
   id="path1"
   style="fill:#ffffff;fill-opacity:1"
   d="M 35.778255 46.555098 C 34.551255 46.555098 33.555021 47.551332 33.555021 48.778332 L 33.555021 60.221041 C 33.555021 61.448041 34.551255 62.444275 35.778255 62.444275 L 47.220963 62.444275 C 48.447963 62.444275 49.444197 61.448041 49.444197 60.221041 L 49.444197 48.778332 C 49.444197 47.551332 48.447963 46.555098 47.220963 46.555098 L 35.778255 46.555098 z " />
                    <clipPath
   id="_clip2">
                        <path
   d="M49,48.779C49,47.797 48.203,47 47.221,47L35.779,47C34.797,47 34,47.797 34,48.779L34,60.221C34,61.203 34.797,62 35.779,62L47.221,62C48.203,62 49,61.203 49,60.221L49,48.779Z"
   id="path2" />
                    </clipPath>
                    
                    
                <path
   d="m 41.558664,50.530866 c -2.212306,0 -3.993137,1.782568 -3.993137,3.994874 v 3.38116 a 0.67971642,0.67971642 45 0 0 0.679716,0.679716 h 6.626842 A 0.67971642,0.67971642 135 0 0 45.551801,57.9069 v -3.38116 c 0,-2.212306 -1.780831,-3.994874 -3.993137,-3.994874 z"
   style="fill:#000000;fill-opacity:1;stroke-width:0.266788;paint-order:markers stroke fill"
   id="path19"
   inkscape:path-effect="#path-effect19" /><path
   style="font-size:2.71194px;font-family:Ultra;-inkscape-font-specification:Ultra;text-align:center;text-anchor:middle;fill:#ffffff;stroke-width:0.152546;paint-order:markers stroke fill"
   d="m 38.652068,55.898056 v -0.491274 q 0.116528,0 0.166847,-0.03046 0.05032,-0.03178 0.05032,-0.117852 v -0.67004 q 0,-0.0874 -0.05032,-0.117853 -0.05032,-0.03178 -0.166847,-0.03178 v -0.491274 h 1.402316 q 0.194656,0 0.327075,0.0384 0.133743,0.0384 0.213195,0.109908 0.08078,0.07151 0.11388,0.170821 0.03443,0.09931 0.03443,0.221139 0,0.222464 -0.10726,0.356207 -0.107259,0.132419 -0.342965,0.143013 v 0.01589 q 0.113881,0.0079 0.188035,0.04237 0.07548,0.03443 0.117853,0.09004 0.0437,0.05429 0.06091,0.132419 0.01854,0.0768 0.01854,0.174793 v 0.07018 q 0,0.0331 0.01722,0.05826 0.01721,0.02384 0.05297,0.02384 0.0384,0 0.05429,-0.02384 0.01589,-0.02516 0.01589,-0.05826 v -0.336344 h 0.152281 v 0.336344 q 0,0.09534 -0.02913,0.176117 -0.02781,0.07945 -0.09269,0.13904 -0.06488,0.05959 -0.170821,0.09137 -0.105935,0.0331 -0.260865,0.0331 -0.15493,0 -0.254244,-0.03443 -0.09799,-0.0331 -0.153606,-0.09269 -0.05562,-0.05959 -0.07813,-0.137716 -0.02119,-0.07945 -0.02119,-0.166848 v -0.101963 q 0,-0.105935 -0.01192,-0.17082 -0.01192,-0.06621 -0.03973,-0.101963 -0.02648,-0.03708 -0.07018,-0.04899 -0.0437,-0.01192 -0.105935,-0.01192 h -0.03178 v 0.189359 q 0,0.07018 0.0384,0.101962 0.03973,0.03046 0.140364,0.03046 v 0.491274 z m 0.998438,-1.047434 h 0.116529 q 0.111232,0 0.152282,-0.05297 0.04237,-0.05429 0.04237,-0.149634 0,-0.111232 -0.04237,-0.160227 -0.04105,-0.04899 -0.152282,-0.04899 h -0.116529 z m 1.374509,1.047434 v -0.491274 q 0.116529,0 0.166848,-0.03046 0.05032,-0.03178 0.05032,-0.117852 v -0.67004 q 0,-0.0874 -0.05032,-0.117853 -0.05032,-0.03178 -0.166848,-0.03178 v -0.491274 h 1.214282 v 0.491274 q -0.116529,0 -0.166848,0.03178 -0.04899,0.03046 -0.04899,0.117853 v 0.67004 q 0,0.08607 0.04899,0.117852 0.05032,0.03046 0.166848,0.03046 v 0.491274 z m 2.321304,-0.719035 v 0.07945 q 0,0.07018 0.03443,0.109907 0.03575,0.0384 0.128446,0.0384 h 0.135068 v 0.491274 H 42.34788 v -0.491274 q 0.116529,0 0.166848,-0.03046 0.05032,-0.03178 0.05032,-0.117852 v -0.67004 q 0,-0.0874 -0.05032,-0.117853 -0.05032,-0.03178 -0.166848,-0.03178 v -0.491274 h 1.428801 q 0.19598,0 0.328399,0.04635 0.132419,0.04635 0.21187,0.12977 0.08078,0.0821 0.11388,0.199953 0.03443,0.117853 0.03443,0.259541 0,0.143012 -0.03443,0.25292 -0.0331,0.109908 -0.11388,0.188035 -0.07945,0.0768 -0.21187,0.116529 -0.132419,0.0384 -0.328399,0.0384 z m 0,-0.313833 h 0.143013 q 0.111232,0 0.153606,-0.05826 0.04237,-0.05826 0.04237,-0.153606 0,-0.09004 -0.04237,-0.152282 -0.04237,-0.06224 -0.153606,-0.06224 h -0.143013 z"
   id="text19"
   aria-label="RIP" /></g>
            </g>
        </g>
    </g>
    <defs
   id="defs18"><inkscape:path-effect
   effect="fillet_chamfer"
   id="path-effect19"
   is_visible="true"
   lpeversion="1"
   nodesatellites_param="F,0,0,1,0,0,0,1 @ F,0,0,1,0,0,0,1 @ F,0,1,1,0,0.67971642,0,1 @ F,0,0,1,0,0.67971642,0,1 @ F,0,0,1,0,0,0,1"
   radius="0"
   unit="px"
   method="auto"
   mode="F"
   chamfer_steps="1"
   flexible="false"
   use_knot_distance="true"
   apply_no_radius="true"
   apply_with_radius="true"
   only_selected="false"
   hide_knots="false" />
        <linearGradient
   id="_Linear1"
   x1="0"
   y1="0"
   x2="1"
   y2="0"
   gradientUnits="userSpaceOnUse"
   gradientTransform="matrix(9.18485e-16,15,-15,9.18485e-16,41.5,47)"><stop
     offset="0"
     style="stop-color:rgb(211,211,211);stop-opacity:1"
     id="stop11" /><stop
     offset="1"
     style="stop-color:rgb(166,166,166);stop-opacity:1"
     id="stop12" /></linearGradient>
        <linearGradient
   id="_Linear3"
   x1="0"
   y1="0"
   x2="1"
   y2="0"
   gradientUnits="userSpaceOnUse"
   gradientTransform="matrix(8.2477e-16,-11.8532,13.4695,7.25797e-16,171.14,180.623)"><stop
     offset="0"
     style="stop-color:rgb(63,63,63);stop-opacity:1"
     id="stop13" /><stop
     offset="1"
     style="stop-color:rgb(127,127,127);stop-opacity:1"
     id="stop14" /></linearGradient>
        <linearGradient
   id="_Linear4"
   x1="0"
   y1="0"
   x2="1"
   y2="0"
   gradientUnits="userSpaceOnUse"
   gradientTransform="matrix(7.53896e-16,10.8346,-12.312,6.63428e-16,171,168)"><stop
     offset="0"
     style="stop-color:rgb(172,172,172);stop-opacity:1"
     id="stop15" /><stop
     offset="1"
     style="stop-color:rgb(101,101,101);stop-opacity:1"
     id="stop16" /></linearGradient>
        <linearGradient
   id="_Linear5"
   x1="0"
   y1="0"
   x2="1"
   y2="0"
   gradientUnits="userSpaceOnUse"
   gradientTransform="matrix(1.38638e-16,2.26413,-2.26413,1.38638e-16,170.5,176.736)"><stop
     offset="0"
     style="stop-color:rgb(47,102,56);stop-opacity:1"
     id="stop17" /><stop
     offset="1"
     style="stop-color:rgb(13,55,20);stop-opacity:1"
     id="stop18" /></linearGradient>
    </defs>
</svg>
