<?xml version="1.0" encoding="UTF-8" standalone="no"?>
<svg
   width="23px"
   height="23px"
   version="1.1"
   xml:space="preserve"
   style="fill-rule:evenodd;clip-rule:evenodd;"
   id="svg6"
   sodipodi:docname="device_analysis.svg"
   inkscape:version="1.4 (e7c3feb100, 2024-10-09)"
   xmlns:inkscape="http://www.inkscape.org/namespaces/inkscape"
   xmlns:sodipodi="http://sodipodi.sourceforge.net/DTD/sodipodi-0.dtd"
   xmlns="http://www.w3.org/2000/svg"
   xmlns:svg="http://www.w3.org/2000/svg"
   xmlns:serif="http://www.serif.com/"><sodipodi:namedview
   id="namedview6"
   pagecolor="#505050"
   bordercolor="#ffffff"
   borderopacity="1"
   inkscape:showpageshadow="0"
   inkscape:pageopacity="0"
   inkscape:pagecheckerboard="1"
   inkscape:deskcolor="#505050"
   inkscape:zoom="26"
   inkscape:cx="12.653846"
   inkscape:cy="8.7692308"
   inkscape:window-width="2560"
   inkscape:window-height="1403"
   inkscape:window-x="0"
   inkscape:window-y="0"
   inkscape:window-maximized="1"
   inkscape:current-layer="svg6" />
    <g
   transform="matrix(1,0,0,1,-383,-130)"
   id="g5">
        <g
   transform="matrix(1.21053,0,0,1.21053,-43.1053,36.7895)"
   id="g4">
            <rect
   id="device_analysis"
   x="352"
   y="77"
   width="19"
   height="19"
   style="fill:none;" />
            <g
   id="device_analysis1"
   serif:id="device_analysis">
                <g
   id="Analyzer"
   transform="matrix(0.826087,0,0,0.826087,62.8993,15.0435)">
                    <g
   id="Analyzer1"
   serif:id="Analyzer"
   transform="matrix(1.13333,0,0,1.13333,314.637,24.7333)">
                        <path
   id="path1"
   style="fill:#ce78f9;fill-opacity:1"
   d="M 35.764289 46.558683 C 34.546289 46.558683 33.558407 47.546565 33.558407 48.764565 L 33.558407 60.235151 C 33.558407 61.453151 34.546289 62.441033 35.764289 62.441033 L 47.234876 62.441033 C 48.452876 62.441033 49.440758 61.453151 49.440758 60.235151 L 49.440758 48.764565 C 49.440758 47.546565 48.452876 46.558683 47.234876 46.558683 L 35.764289 46.558683 z " />
                        
                    </g>
                    <g
   id="path9501"
   transform="matrix(1.1078,0,0,1.09241,350.3,76.0956)">
                        <path
   d="M14.393,9.83L12.878,8.315C13.132,7.916 13.27,7.454 13.27,6.97C13.27,6.299 13.009,5.669 12.535,5.194C12.061,4.721 11.431,4.46 10.76,4.46C10.089,4.46 9.459,4.721 8.985,5.195C8.511,5.669 8.25,6.299 8.25,6.97C8.25,7.641 8.511,8.271 8.985,8.744C9.459,9.218 10.09,9.479 10.76,9.479C11.245,9.479 11.707,9.341 12.105,9.087L13.621,10.602L14.393,9.83ZM9.525,8.204C9.195,7.874 9.014,7.436 9.014,6.97C9.014,6.504 9.195,6.065 9.525,5.735C9.855,5.405 10.294,5.224 10.76,5.224C11.226,5.224 11.665,5.405 11.994,5.735C12.324,6.065 12.507,6.504 12.507,6.97C12.507,7.436 12.325,7.874 11.995,8.204C11.665,8.534 11.226,8.715 10.76,8.715C10.294,8.715 9.855,8.534 9.525,8.204Z"
   style="fill-rule:nonzero;"
   id="path3" />
                    </g>
                    <g
   id="path9660"
   transform="matrix(1.14177,0,0,1,350.082,77.7376)">
                        <path
   d="M5.479,13.4C5.479,11.843 7.036,11.843 7.036,11.843C7.036,11.843 8.593,11.843 8.593,13.4C8.593,14.957 10.15,14.957 10.15,14.957C10.15,14.957 11.707,14.957 11.707,13.4C11.707,11.843 13.264,11.843 13.264,11.843C13.264,11.843 14.821,11.843 14.821,13.4"
   style="fill:none;fill-rule:nonzero;stroke:black;stroke-width:0.78px;"
   id="path4" />
                    </g>
                </g>
            </g>
        </g>
    </g>
    <defs
   id="defs6">
        <linearGradient
   id="_Linear1"
   x1="0"
   y1="0"
   x2="1"
   y2="0"
   gradientUnits="userSpaceOnUse"
   gradientTransform="matrix(9.18485e-16,15,-15,9.18485e-16,42.8292,47)"><stop
     offset="0"
     style="stop-color:rgb(218,144,255);stop-opacity:1"
     id="stop5" /><stop
     offset="1"
     style="stop-color:rgb(196,100,243);stop-opacity:1"
     id="stop6" /></linearGradient>
    <linearGradient
   id="_Linear1-3"
   x1="0"
   y1="0"
   x2="1"
   y2="0"
   gradientUnits="userSpaceOnUse"
   gradientTransform="matrix(0,15,-15,0,42.8292,47)"><stop
     offset="0"
     style="stop-color:rgb(218,144,255);stop-opacity:1"
     id="stop5-6" /><stop
     offset="1"
     style="stop-color:rgb(196,100,243);stop-opacity:1"
     id="stop6-7" /></linearGradient></defs>
</svg>
