<?xml version="1.0" encoding="UTF-8" standalone="no"?>
<svg
   width="23px"
   height="23px"
   version="1.1"
   xml:space="preserve"
   style="fill-rule:evenodd;clip-rule:evenodd;stroke-linejoin:round;stroke-miterlimit:2;"
   id="svg17"
   sodipodi:docname="device_plugin.svg"
   inkscape:version="1.4 (e7c3feb100, 2024-10-09)"
   xmlns:inkscape="http://www.inkscape.org/namespaces/inkscape"
   xmlns:sodipodi="http://sodipodi.sourceforge.net/DTD/sodipodi-0.dtd"
   xmlns="http://www.w3.org/2000/svg"
   xmlns:svg="http://www.w3.org/2000/svg"
   xmlns:serif="http://www.serif.com/"><sodipodi:namedview
   id="namedview17"
   pagecolor="#505050"
   bordercolor="#ffffff"
   borderopacity="1"
   inkscape:showpageshadow="0"
   inkscape:pageopacity="0"
   inkscape:pagecheckerboard="1"
   inkscape:deskcolor="#505050"
   inkscape:zoom="52"
   inkscape:cx="11.5"
   inkscape:cy="11.5"
   inkscape:window-width="2560"
   inkscape:window-height="1403"
   inkscape:window-x="0"
   inkscape:window-y="0"
   inkscape:window-maximized="1"
   inkscape:current-layer="g8" />
    <g
   transform="matrix(1,0,0,1,-287,-130)"
   id="g10">
        <g
   transform="matrix(1.21053,0,0,1.21053,15.8421,36.7895)"
   id="g9">
            <rect
   id="device_plugin"
   x="224"
   y="77"
   width="19"
   height="19"
   style="fill:none;" />
            <g
   id="device_plugin1"
   serif:id="device_plugin">
                <g
   transform="matrix(0.936232,0,0,0.928922,194.646,35.8189)"
   id="g8">
                    <path
   d="M49,48.779C49,47.797 48.209,47 47.235,47L35.765,47C34.791,47 34,47.797 34,48.779L34,60.221C34,61.203 34.791,62 35.765,62L47.235,62C48.209,62 49,61.203 49,60.221L49,48.779Z"
   style="fill:#ffffff;fill-opacity:1"
   id="path1" />
                    <clipPath
   id="_clip2">
                        <path
   d="M49,48.779C49,47.797 48.209,47 47.235,47L35.765,47C34.791,47 34,47.797 34,48.779L34,60.221C34,61.203 34.791,62 35.765,62L47.235,62C48.209,62 49,61.203 49,60.221L49,48.779Z"
   id="path2" />
                    </clipPath>
                    <g
   clip-path="url(#_clip2)"
   id="g7">
                        <g
   transform="matrix(0.882353,0,0,0.889296,-193.647,-71.2764)"
   id="g3">
                            <path
   d="M274,135C274,134.448 273.552,134 273,134L260,134C259.448,134 259,134.448 259,135L259,148C259,148.552 259.448,149 260,149L273,149C273.552,149 274,148.552 274,148L274,135Z"
   id="path3" />
                        </g>
                        <g
   transform="matrix(0.882353,0,0,0.60691,-194.529,-31.7423)"
   id="g4">
                            <path
   id="path4"
   style="fill:#ffffff;fill-opacity:1"
   d="M 266.93271 136.69404 C 265.42987 136.69404 263.92686 138.89353 263.92686 141.09561 L 260.92101 141.09561 L 260.92101 143.29925 L 263.92686 143.29925 C 263.92686 145.50132 265.42987 147.70368 266.93271 147.70368 L 269.93856 147.70368 L 269.93856 145.39701 L 272.45808 145.39701 C 272.60108 145.39701 272.73989 145.31319 272.84089 145.16519 C 272.94289 145.01619 272.99909 144.81427 272.99909 144.60427 L 272.99909 144.18929 C 272.99909 143.97929 272.94289 143.77737 272.84089 143.62837 C 272.73989 143.48037 272.60108 143.39655 272.45808 143.39655 L 269.93856 143.39655 L 269.93856 141.00116 L 272.45808 141.00116 C 272.60108 141.00116 272.73989 140.91735 272.84089 140.76935 C 272.94289 140.62035 272.99909 140.41842 272.99909 140.20842 L 272.99909 139.79345 C 272.99909 139.58345 272.94289 139.38152 272.84089 139.23252 C 272.73989 139.08452 272.60108 139.00071 272.45808 139.00071 L 269.93856 139.00071 L 269.93856 136.69404 L 266.93271 136.69404 z " />
                        </g>
                        <g
   transform="matrix(0.882353,0,0,0.60691,-194.529,-29.0744)"
   id="g5">
                            
                        </g>
                        <g
   transform="matrix(1.32603,0,0,1.33646,22.4355,33.8439)"
   id="g6">
                            
                        </g>
                    </g>
                </g>
            </g>
        </g>
    </g>
    <defs
   id="defs17">
        <linearGradient
   id="_Linear1"
   x1="0"
   y1="0"
   x2="1"
   y2="0"
   gradientUnits="userSpaceOnUse"
   gradientTransform="matrix(7.57982e-15,-15,15,7.57982e-15,41.5,62)"><stop
     offset="0"
     style="stop-color:rgb(148,125,101);stop-opacity:1"
     id="stop10" /><stop
     offset="1"
     style="stop-color:rgb(147,167,189);stop-opacity:1"
     id="stop11" /></linearGradient>
        <linearGradient
   id="_Linear3"
   x1="0"
   y1="0"
   x2="1"
   y2="0"
   gradientUnits="userSpaceOnUse"
   gradientTransform="matrix(1.54686e-15,-2,3.06113,1.01064e-15,271.469,141)"><stop
     offset="0"
     style="stop-color:rgb(148,125,101);stop-opacity:1"
     id="stop12" /><stop
     offset="1"
     style="stop-color:rgb(147,167,189);stop-opacity:1"
     id="stop13" /></linearGradient>
        <linearGradient
   id="_Linear4"
   x1="0"
   y1="0"
   x2="1"
   y2="0"
   gradientUnits="userSpaceOnUse"
   gradientTransform="matrix(1.54686e-15,-2,3.06113,1.01064e-15,271.469,141)"><stop
     offset="0"
     style="stop-color:rgb(148,125,101);stop-opacity:1"
     id="stop14" /><stop
     offset="1"
     style="stop-color:rgb(147,167,189);stop-opacity:1"
     id="stop15" /></linearGradient>
        <linearGradient
   id="_Linear5"
   x1="0"
   y1="0"
   x2="1"
   y2="0"
   gradientUnits="userSpaceOnUse"
   gradientTransform="matrix(3.03193e-15,-5,6,2.52661e-15,13,18)"><stop
     offset="0"
     style="stop-color:rgb(148,125,101);stop-opacity:1"
     id="stop16" /><stop
     offset="1"
     style="stop-color:rgb(147,167,189);stop-opacity:1"
     id="stop17" /></linearGradient>
    </defs>
</svg>
