<?xml version="1.0" encoding="UTF-8" standalone="no"?>
<svg
   width="23px"
   height="23px"
   version="1.1"
   xml:space="preserve"
   style="fill-rule:evenodd;clip-rule:evenodd;stroke-linejoin:round;stroke-miterlimit:2;"
   id="svg7"
   sodipodi:docname="device_drum_machine.svg"
   inkscape:version="1.4 (e7c3feb100, 2024-10-09)"
   xmlns:inkscape="http://www.inkscape.org/namespaces/inkscape"
   xmlns:sodipodi="http://sodipodi.sourceforge.net/DTD/sodipodi-0.dtd"
   xmlns="http://www.w3.org/2000/svg"
   xmlns:svg="http://www.w3.org/2000/svg"
   xmlns:serif="http://www.serif.com/"><sodipodi:namedview
   id="namedview7"
   pagecolor="#505050"
   bordercolor="#ffffff"
   borderopacity="1"
   inkscape:showpageshadow="0"
   inkscape:pageopacity="0"
   inkscape:pagecheckerboard="1"
   inkscape:deskcolor="#505050"
   inkscape:zoom="18.384776"
   inkscape:cx="0.54392829"
   inkscape:cy="9.0292097"
   inkscape:window-width="2560"
   inkscape:window-height="1403"
   inkscape:window-x="0"
   inkscape:window-y="0"
   inkscape:window-maximized="1"
   inkscape:current-layer="g2" />
    <g
   transform="matrix(1,0,0,1,-159,-130)"
   id="g5">
        <g
   transform="matrix(1.21053,0,0,1.21053,4.05263,36.7895)"
   id="g4">
            <rect
   id="device_drum_machine"
   x="128"
   y="77"
   width="19"
   height="19"
   style="fill:none;" />
            <g
   id="device_drum_machine1"
   serif:id="device_drum_machine">
                <g
   transform="matrix(0.826087,0,0,0.826087,23.913,15.0435)"
   id="g3">
                    <g
   transform="matrix(1.13333,0,0,1.12448,90.4667,25.1492)"
   id="g2">
                        <path
   id="path1"
   style="fill:#ffe356;fill-opacity:1"
   d="M 35.764394 46.555254 C 34.546394 46.555254 33.558512 47.551497 33.558512 48.778497 L 33.558512 60.221251 C 33.558512 61.448251 34.546394 62.444494 35.764394 62.444494 L 47.23498 62.444494 C 48.45298 62.444494 49.440862 61.448251 49.440862 60.221251 L 49.440862 48.778497 C 49.440862 47.551497 48.45298 46.555254 47.23498 46.555254 L 35.764394 46.555254 z " />
                        
                    <g
   style="clip-rule:evenodd;fill-rule:evenodd;stroke-linejoin:round;stroke-miterlimit:2"
   id="g7"
   transform="matrix(0.8823528,0,0,0.88929719,51.646806,44.332011)" /></g>
                    <path
   d="M130.973,94C130.715,94 130.468,93.897 130.285,93.715C130.103,93.532 130,93.285 130,93.027C130,90.325 130,82.756 130,80.011C130,79.452 130.452,79 131.011,79L143.989,79C144.548,79 145,79.452 145,80.011L145,93.027C145,93.285 144.897,93.532 144.715,93.715C144.532,93.897 144.285,94 144.027,94C141.313,94 133.687,94 130.973,94ZM133.5,80L131,80L131,82.5L133.5,82.5L133.5,80ZM137,80L134.5,80L134.5,82.5L137,82.5L137,80ZM140.5,80L138,80L138,82.5L140.5,82.5L140.5,80ZM144,80L141.5,80L141.5,82.5L144,82.5L144,80ZM144,86L144,83.5L141.5,83.5L141.5,86L144,86ZM144,89.5L144,87L141.5,87L141.5,89.5L144,89.5ZM144,93L144,90.5L141.5,90.5L141.5,93L144,93ZM138,93L140.5,93L140.5,90.5L138,90.5L138,93ZM134.5,93L137,93L137,90.5L134.5,90.5L134.5,93ZM131,93L133.5,93L133.5,90.5L131,90.5L131,93ZM131,87L131,89.5L133.5,89.5L133.5,87L131,87ZM131,83.5L131,86L133.5,86L133.5,83.5L131,83.5ZM137,83.5L134.5,83.5L134.5,86L137,86L137,83.5ZM140.5,83.5L138,83.5L138,86L140.5,86L140.5,83.5ZM140.5,89.5L140.5,87L138,87L138,89.5L140.5,89.5ZM134.5,89.5L137,89.5L137,87L134.5,87L134.5,89.5Z"
   style="fill-opacity:1;fill:#000000"
   id="path3" />
                </g>
            </g>
        </g>
    </g>
    <defs
   id="defs7">
        <linearGradient
   id="_Linear1"
   x1="0"
   y1="0"
   x2="1"
   y2="0"
   gradientUnits="userSpaceOnUse"
   gradientTransform="matrix(0,-15.118,15.118,0,41.1144,62.118)"><stop
     offset="0"
     style="stop-color:rgb(209,164,0);stop-opacity:1"
     id="stop5" /><stop
     offset="0.6"
     style="stop-color:rgb(255,207,33);stop-opacity:1"
     id="stop6" /><stop
     offset="1"
     style="stop-color:rgb(255,218,86);stop-opacity:1"
     id="stop7" /></linearGradient>
    </defs>
</svg>
