<?xml version="1.0" encoding="UTF-8" standalone="no"?>
<svg
   width="23px"
   height="23px"
   version="1.1"
   xml:space="preserve"
   style="fill-rule:evenodd;clip-rule:evenodd;stroke-linecap:round;stroke-linejoin:round;stroke-miterlimit:1.5;"
   id="svg15"
   sodipodi:docname="device_instrument.svg"
   inkscape:version="1.4 (e7c3feb100, 2024-10-09)"
   xmlns:inkscape="http://www.inkscape.org/namespaces/inkscape"
   xmlns:sodipodi="http://sodipodi.sourceforge.net/DTD/sodipodi-0.dtd"
   xmlns="http://www.w3.org/2000/svg"
   xmlns:svg="http://www.w3.org/2000/svg"
   xmlns:serif="http://www.serif.com/"><sodipodi:namedview
   id="namedview15"
   pagecolor="#505050"
   bordercolor="#ffffff"
   borderopacity="1"
   inkscape:showpageshadow="0"
   inkscape:pageopacity="0"
   inkscape:pagecheckerboard="1"
   inkscape:deskcolor="#505050"
   inkscape:zoom="26"
   inkscape:cx="9.6923077"
   inkscape:cy="8.6923077"
   inkscape:window-width="2560"
   inkscape:window-height="1403"
   inkscape:window-x="0"
   inkscape:window-y="0"
   inkscape:window-maximized="1"
   inkscape:current-layer="svg15" />
    <g
   transform="matrix(1,0,0,1,-63,-130)"
   id="g13">
        <g
   transform="matrix(1.21053,0,0,1.21053,24.2632,36.7895)"
   id="g12">
            <rect
   id="device_instrument"
   x="32"
   y="77"
   width="19"
   height="19"
   style="fill:none;" />
            <g
   id="device_instrument1"
   serif:id="device_instrument">
                <g
   id="Instrument"
   transform="matrix(0.928922,0,0,0.928922,2.89491,6.09342)">
                    <g
   id="Instrument1"
   serif:id="Instrument"
   transform="matrix(1,0,0,1,0,32)">
                        <path
   id="path1"
   style="fill:#ffe356;fill-opacity:1"
   d="M 35.77844 46.555072 C 34.55144 46.555072 33.555206 47.551307 33.555206 48.778307 L 33.555206 60.221015 C 33.555206 61.448015 34.55144 62.444249 35.77844 62.444249 L 47.221148 62.444249 C 48.448148 62.444249 49.444382 61.448015 49.444382 60.221015 L 49.444382 48.778307 C 49.444382 47.551307 48.448148 46.555072 47.221148 46.555072 L 35.77844 46.555072 z " />
                        
                    </g>
                    <g
   transform="matrix(0.929727,0,0,0.855491,-27.9492,-34.6966)"
   id="g2">
                        <rect
   x="69"
   y="135.476"
   width="11.524"
   height="12.524"
   style="display:inline;fill:#ffffff;fill-opacity:0.3"
   id="rect2" />
                    </g>
                    <g
   transform="matrix(0.95575,0,0,0.955748,1.87631,3.88683)"
   id="g11">
                        <g
   transform="matrix(2.46715e-18,0.0390625,-0.0386406,2.29387e-18,51.6416,55.6988)"
   id="g3">
                            <path
   d="M645.021,116.888L932.001,116.888"
   style="fill:none;stroke:black;stroke-width:19.16px;"
   id="path3" />
                        </g>
                        <g
   transform="matrix(-0.0390624,4.85905e-18,-4.65992e-18,-0.0386407,72.3211,96.6217)"
   id="g4">
                            <path
   d="M645.021,116.888L932.001,116.888"
   style="fill:none;stroke:black;stroke-width:19.16px;"
   id="path4" />
                        </g>
                        <g
   transform="matrix(2.46715e-18,0.0390625,-0.0386406,2.29387e-18,40.4315,55.6988)"
   id="g5">
                            <path
   d="M645.021,116.888L932.001,116.888"
   style="fill:none;stroke:black;stroke-width:19.16px;"
   id="path5" />
                        </g>
                        <g
   transform="matrix(-0.0390624,4.85905e-18,-4.65992e-18,-0.0386407,72.3211,85.4115)"
   id="g6">
                            <path
   d="M645.021,116.888L932.001,116.888"
   style="fill:none;stroke:black;stroke-width:19.16px;"
   id="path6" />
                        </g>
                        <g
   transform="matrix(2.46715e-18,0.0390625,-0.0386406,2.29387e-18,44.1682,55.6988)"
   id="g7">
                            <path
   d="M645.021,116.888L932.001,116.888"
   style="fill:none;stroke:black;stroke-width:10.05px;"
   id="path7" />
                        </g>
                        <g
   transform="matrix(0.0576839,-3.71206e-19,7.00098e-18,0.606633,-93.9155,2.01938)"
   id="g8">
                            <path
   d="M2334,130.022L2297,130.022L2297,140.371C2297,140.718 2299.97,141 2303.62,141L2327.38,141C2331.03,141 2334,140.718 2334,140.371L2334,130.022Z"
   id="path8" />
                        </g>
                        <g
   transform="matrix(0.0576839,-3.71206e-19,7.00098e-18,0.606633,-90.1788,2.01938)"
   id="g9">
                            <path
   d="M2334,130.022L2297,130.022L2297,140.371C2297,140.718 2299.97,141 2303.62,141L2327.38,141C2331.03,141 2334,140.718 2334,140.371L2334,130.022Z"
   id="path9" />
                        </g>
                        <g
   transform="matrix(2.46715e-18,0.0390625,-0.0386406,2.29387e-18,47.9049,55.6988)"
   id="g10">
                            <path
   d="M645.021,116.888L932.001,116.888"
   style="fill:none;stroke:black;stroke-width:10.05px;"
   id="path10" />
                        </g>
                    </g>
                </g>
            </g>
        </g>
    </g>
    <defs
   id="defs15">
        <linearGradient
   id="_Linear1"
   x1="0"
   y1="0"
   x2="1"
   y2="0"
   gradientUnits="userSpaceOnUse"
   gradientTransform="matrix(9.25713e-16,-15.118,15.118,9.25713e-16,41.1144,62.118)"><stop
     offset="0"
     style="stop-color:#ffe356;stop-opacity:1;"
     id="stop13" /><stop
     offset="0.6"
     style="stop-color:rgb(255,207,33);stop-opacity:1"
     id="stop14" /><stop
     offset="1"
     style="stop-color:rgb(255,218,86);stop-opacity:1"
     id="stop15" /></linearGradient>
    <linearGradient
   id="_Linear2"
   x1="0"
   y1="0"
   x2="1"
   y2="0"
   gradientUnits="userSpaceOnUse"
   gradientTransform="matrix(9,-0.333333,0.237664,5,5,10.3333)"><stop
     offset="0"
     style="stop-color:rgb(209,164,0);stop-opacity:1"
     id="stop11" /><stop
     offset="0.5"
     style="stop-color:rgb(255,207,33);stop-opacity:1"
     id="stop12" /><stop
     offset="1"
     style="stop-color:rgb(133,124,88);stop-opacity:1"
     id="stop13-0" /></linearGradient><radialGradient
   id="_Radial3"
   cx="0"
   cy="0"
   r="1"
   gradientUnits="userSpaceOnUse"
   gradientTransform="matrix(3.18182,0,0,2.4691,-7,21.0512)"><stop
     offset="0"
     style="stop-color:rgb(255,220,95);stop-opacity:1"
     id="stop14-9" /><stop
     offset="1"
     style="stop-color:rgb(209,164,0);stop-opacity:1"
     id="stop15-3" /></radialGradient><linearGradient
   id="_Linear1-3"
   x1="0"
   y1="0"
   x2="1"
   y2="0"
   gradientUnits="userSpaceOnUse"
   gradientTransform="matrix(0,-15.118,15.118,0,41.1144,62.118)"><stop
     offset="0"
     style="stop-color:rgb(209,164,0);stop-opacity:1"
     id="stop5" /><stop
     offset="0.6"
     style="stop-color:rgb(255,207,33);stop-opacity:1"
     id="stop6" /><stop
     offset="1"
     style="stop-color:rgb(255,218,86);stop-opacity:1"
     id="stop7" /></linearGradient></defs>
</svg>
