<?xml version="1.0" encoding="UTF-8" standalone="no"?>
<svg
   width="23px"
   height="23px"
   version="1.1"
   xml:space="preserve"
   style="fill-rule:evenodd;clip-rule:evenodd;stroke-linejoin:round;stroke-miterlimit:2;"
   id="svg6"
   sodipodi:docname="device_spectral.svg"
   inkscape:version="1.4 (e7c3feb100, 2024-10-09)"
   xmlns:inkscape="http://www.inkscape.org/namespaces/inkscape"
   xmlns:sodipodi="http://sodipodi.sourceforge.net/DTD/sodipodi-0.dtd"
   xmlns="http://www.w3.org/2000/svg"
   xmlns:svg="http://www.w3.org/2000/svg"
   xmlns:serif="http://www.serif.com/"><sodipodi:namedview
   id="namedview6"
   pagecolor="#505050"
   bordercolor="#ffffff"
   borderopacity="1"
   inkscape:showpageshadow="0"
   inkscape:pageopacity="0"
   inkscape:pagecheckerboard="1"
   inkscape:deskcolor="#505050"
   inkscape:zoom="18.384776"
   inkscape:cx="21.865917"
   inkscape:cy="5.9288184"
   inkscape:window-width="2560"
   inkscape:window-height="1403"
   inkscape:window-x="0"
   inkscape:window-y="0"
   inkscape:window-maximized="1"
   inkscape:current-layer="svg6" />
    <g
   transform="matrix(1,0,0,1,-351,-98)"
   id="g5">
        <g
   transform="matrix(1.21053,0,0,1.21053,-36.3684,43.5263)"
   id="g4">
            <rect
   id="device_spectral"
   x="320"
   y="45"
   width="19"
   height="19"
   style="fill:none;" />
            <g
   id="device_spectral1"
   serif:id="device_spectral">
                <g
   transform="matrix(0.936232,0,0,0.936232,290.646,3.47536)"
   id="g2">
                    <path
   id="path1"
   style="fill:#ff704c;fill-opacity:1"
   d="M 35.765755 46.558681 C 34.547755 46.558681 33.558156 47.546557 33.558156 48.764557 L 33.558156 60.235108 C 33.558156 61.453108 34.547755 62.440984 35.765755 62.440984 L 47.234584 62.440984 C 48.452584 62.440984 49.440459 61.453108 49.440459 60.235108 L 49.440459 48.764557 C 49.440459 47.546557 48.452584 46.558681 47.234584 46.558681 L 35.765755 46.558681 z " />
                    
                </g>
                <g
   transform="matrix(0.826087,0,0,0.826087,57.3043,9.47826)"
   id="g3">
                    <path
   d="M334,55.56L334,60.004L335,60.004L335,55.56L334,55.56ZM332,54.658L332,60.004L333,60.004L333,54.658L332,54.658ZM328.01,53.18L328,60.003L329,60.004L329.01,53.181L328.01,53.18ZM330,53.908L330.05,60.001L331.05,59.993L331,53.9L330,53.908ZM326,52.335L326.032,60.001L327.032,59.997L327,52.331L326,52.335ZM324.049,49.996L324,59.996L325,60.001L325.049,50.001L324.049,49.996Z"
   style="fill:rgb(14,4,1);"
   id="path3" />
                </g>
            </g>
        </g>
    </g>
    <defs
   id="defs6">
        <linearGradient
   id="_Linear1"
   x1="0"
   y1="0"
   x2="1"
   y2="0"
   gradientUnits="userSpaceOnUse"
   gradientTransform="matrix(9.11314e-16,-15,14.8829,9.18485e-16,41.5,62)"><stop
     offset="0"
     style="stop-color:rgb(198,75,38);stop-opacity:1"
     id="stop5" /><stop
     offset="1"
     style="stop-color:rgb(255,113,70);stop-opacity:1"
     id="stop6" /></linearGradient>
    <linearGradient
   id="_Linear1-8"
   x1="0"
   y1="0"
   x2="1"
   y2="0"
   gradientUnits="userSpaceOnUse"
   gradientTransform="matrix(0,-15,14.8829,0,41.5,62)"><stop
     offset="0"
     style="stop-color:rgb(198,75,38);stop-opacity:1"
     id="stop10" /><stop
     offset="1"
     style="stop-color:rgb(255,113,70);stop-opacity:1"
     id="stop11" /></linearGradient><linearGradient
   id="_Linear3"
   x1="0"
   y1="0"
   x2="1"
   y2="0"
   gradientUnits="userSpaceOnUse"
   gradientTransform="matrix(0,2,-1.57083,0,42.8927,139)"><stop
     offset="0"
     style="stop-color:black;stop-opacity:0"
     id="stop12" /><stop
     offset="1"
     style="stop-color:black;stop-opacity:0.42"
     id="stop13" /></linearGradient></defs>
</svg>
