<?xml version="1.0" encoding="UTF-8" standalone="no"?>
<svg
   width="23px"
   height="23px"
   version="1.1"
   xml:space="preserve"
   style="fill-rule:evenodd;clip-rule:evenodd;stroke-linejoin:round;stroke-miterlimit:2;"
   id="svg10"
   sodipodi:docname="favorite_folder_closed.svg"
   inkscape:version="1.4 (e7c3feb100, 2024-10-09)"
   xmlns:inkscape="http://www.inkscape.org/namespaces/inkscape"
   xmlns:sodipodi="http://sodipodi.sourceforge.net/DTD/sodipodi-0.dtd"
   xmlns="http://www.w3.org/2000/svg"
   xmlns:svg="http://www.w3.org/2000/svg"
   xmlns:serif="http://www.serif.com/"><sodipodi:namedview
   id="namedview10"
   pagecolor="#505050"
   bordercolor="#ffffff"
   borderopacity="1"
   inkscape:showpageshadow="0"
   inkscape:pageopacity="0"
   inkscape:pagecheckerboard="1"
   inkscape:deskcolor="#505050"
   inkscape:zoom="36.769553"
   inkscape:cx="12.97269"
   inkscape:cy="11.640065"
   inkscape:window-width="2560"
   inkscape:window-height="1403"
   inkscape:window-x="0"
   inkscape:window-y="0"
   inkscape:window-maximized="1"
   inkscape:current-layer="Folder-back" />
    <g
   transform="matrix(1,0,0,1,-95,-98)"
   id="g7">
        <g
   transform="matrix(1.21053,0,0,1.21053,17.5263,43.5263)"
   id="g6">
            <rect
   id="favorite_folder_closed"
   x="64"
   y="45"
   width="19"
   height="19"
   style="fill:none;" />
            <g
   id="favorite_folder_closed1"
   serif:id="favorite_folder_closed">
                <g
   id="Folder-back"
   serif:id="Folder back"
   transform="matrix(0.826087,0,0,0.826087,39.2174,9.47826)">
                    <path
   id="path9"
   style="fill:#bfbfbf"
   d="M 35.999749 46.499838 C 35.336749 46.499838 34.701177 46.763258 34.232177 47.232258 C 33.763177 47.701258 33.499757 48.33683 33.499757 48.99983 L 33.499757 59.999796 C 33.499757 60.662796 33.763177 61.298369 34.232177 61.767369 C 34.701177 62.236369 35.336749 62.499788 35.999749 62.499788 L 46.999715 62.499788 C 48.380715 62.499788 49.499708 61.380796 49.499708 59.999796 L 49.499708 51.999821 C 49.499708 50.618821 48.380715 49.499829 46.999715 49.499829 L 43.634491 49.499829 C 43.041491 49.499829 42.504402 49.151206 42.263402 48.609206 L 41.984106 47.984208 C 41.583106 47.082208 40.68791 46.499838 39.70091 46.499838 L 35.999749 46.499838 z M 41.806372 48.812331 C 41.846497 48.902581 41.893224 48.988316 41.945043 49.070142 C 41.893224 48.988316 41.846497 48.902581 41.806372 48.812331 z M 43.33957 49.978343 C 43.435358 49.992481 43.533788 49.999827 43.632538 49.999827 C 43.533788 49.999827 43.435358 49.992481 43.33957 49.978343 z " />
                    
                </g>
                <g
   id="Folder-front"
   serif:id="Folder front"
   transform="matrix(0.826087,0,0,0.901186,11.1304,13.834)">
                    <path
   id="path7"
   style="fill:#ffffff"
   d="M 69.865035 40.541492 C 68.560035 40.541492 67.499808 41.512616 67.499808 42.709616 L 67.499808 50.289995 C 67.499808 51.486995 68.560035 52.458119 69.865035 52.458119 L 81.134531 52.458119 C 82.439531 52.458119 83.499758 51.486995 83.499758 50.289995 L 83.499758 42.709616 C 83.499758 41.512616 82.439531 40.541492 81.134531 40.541492 L 69.865035 40.541492 z " />
                    
                </g>
                <g
   transform="matrix(0.826087,0,0,0.826087,65.6518,47.0086)"
   id="g5">
                    <path
   d="M9.5,11.939L11.82,13.637L10.922,10.906L13.254,9.227L10.38,9.236L9.5,6.5L8.623,9.236L5.747,9.227L8.078,10.906L7.182,13.637L9.5,11.939Z"
   style="fill:#000000;fill-rule:nonzero;fill-opacity:1"
   id="path5" />
                </g>
            </g>
        </g>
    </g>
    <defs
   id="defs10">
        <linearGradient
   id="_Linear1"
   x1="0"
   y1="0"
   x2="1"
   y2="0"
   gradientUnits="userSpaceOnUse"
   gradientTransform="matrix(1.04095e-15,17,-17,1.04095e-15,38,46)"><stop
     offset="0"
     style="stop-color:rgb(155,155,155);stop-opacity:1"
     id="stop7" /><stop
     offset="1"
     style="stop-color:rgb(132,132,132);stop-opacity:1"
     id="stop8" /></linearGradient>
        <linearGradient
   id="_Linear2"
   x1="0"
   y1="0"
   x2="1"
   y2="0"
   gradientUnits="userSpaceOnUse"
   gradientTransform="matrix(1.04095e-15,12.4667,-17,7.63363e-16,72,40.2667)"><stop
     offset="0"
     style="stop-color:rgb(214,214,214);stop-opacity:1"
     id="stop9" /><stop
     offset="1"
     style="stop-color:rgb(172,172,172);stop-opacity:1"
     id="stop10" /></linearGradient>
    </defs>
</svg>
