<?xml version="1.0" encoding="UTF-8" standalone="no"?>
<svg
   width="23px"
   height="23px"
   version="1.1"
   xml:space="preserve"
   style="fill-rule:evenodd;clip-rule:evenodd;stroke-linejoin:round;stroke-miterlimit:2;"
   id="svg8"
   sodipodi:docname="folder_closed.svg"
   inkscape:version="1.4 (e7c3feb100, 2024-10-09)"
   xmlns:inkscape="http://www.inkscape.org/namespaces/inkscape"
   xmlns:sodipodi="http://sodipodi.sourceforge.net/DTD/sodipodi-0.dtd"
   xmlns="http://www.w3.org/2000/svg"
   xmlns:svg="http://www.w3.org/2000/svg"
   xmlns:serif="http://www.serif.com/"><sodipodi:namedview
   id="namedview8"
   pagecolor="#505050"
   bordercolor="#ffffff"
   borderopacity="1"
   inkscape:showpageshadow="0"
   inkscape:pageopacity="0"
   inkscape:pagecheckerboard="1"
   inkscape:deskcolor="#505050"
   inkscape:zoom="18.384776"
   inkscape:cx="23.008167"
   inkscape:cy="13.380636"
   inkscape:window-width="2560"
   inkscape:window-height="1403"
   inkscape:window-x="0"
   inkscape:window-y="0"
   inkscape:window-maximized="1"
   inkscape:current-layer="Folder-back" />
    <g
   transform="matrix(1,0,0,1,-63,-98)"
   id="g5">
        <g
   transform="matrix(1.21053,0,0,1.21053,24.2632,43.5263)"
   id="g4">
            <rect
   id="folder_closed"
   x="32"
   y="45"
   width="19"
   height="19"
   style="fill:none;" />
            <g
   id="folder_closed1"
   serif:id="folder_closed">
                <g
   id="Folder-back"
   serif:id="Folder back"
   transform="matrix(0.826087,0,0,0.826087,7.21739,9.47826)">
                    <path
   id="path8"
   style="fill:#bfbfbf;fill-opacity:1"
   d="M 35.999821 46.499838 C 35.336821 46.499838 34.701249 46.763258 34.232249 47.232258 C 33.763249 47.701258 33.499829 48.33683 33.499829 48.99983 L 33.499829 59.999796 C 33.499829 60.662796 33.763249 61.298369 34.232249 61.767369 C 34.701249 62.236369 35.336821 62.499788 35.999821 62.499788 L 46.999787 62.499788 C 48.380787 62.499788 49.49978 61.380796 49.49978 59.999796 L 49.49978 51.999821 C 49.49978 50.618821 48.380787 49.499829 46.999787 49.499829 L 43.634563 49.499829 C 43.041563 49.499829 42.504474 49.151206 42.263474 48.609206 L 41.984178 47.984208 C 41.583178 47.082208 40.687982 46.499838 39.700982 46.499838 L 35.999821 46.499838 z M 41.806444 48.812331 C 41.846569 48.902581 41.893297 48.988316 41.945116 49.070142 C 41.893297 48.988316 41.846569 48.902581 41.806444 48.812331 z M 43.339642 49.978343 C 43.43543 49.992481 43.53386 49.999827 43.63261 49.999827 C 43.53386 49.999827 43.43543 49.992481 43.339642 49.978343 z " />
                    
                </g>
                <g
   id="Folder-front"
   serif:id="Folder front"
   transform="matrix(0.826087,0,0,0.901186,-20.8696,13.834)">
                    <path
   id="path6"
   style="fill:#ffffff;fill-opacity:1"
   d="M 69.865095 40.541492 C 68.560095 40.541492 67.499868 41.512616 67.499868 42.709616 L 67.499868 50.289995 C 67.499868 51.486995 68.560095 52.458119 69.865095 52.458119 L 81.134591 52.458119 C 82.439591 52.458119 83.499818 51.486995 83.499818 50.289995 L 83.499818 42.709616 C 83.499818 41.512616 82.439591 40.541492 81.134591 40.541492 L 69.865095 40.541492 z " />
                    
                </g>
            </g>
        </g>
    </g>
    <defs
   id="defs8">
        <linearGradient
   id="_Linear1"
   x1="0"
   y1="0"
   x2="1"
   y2="0"
   gradientUnits="userSpaceOnUse"
   gradientTransform="matrix(1.04095e-15,17,-17,1.04095e-15,38,46)"><stop
     offset="0"
     style="stop-color:rgb(155,155,155);stop-opacity:1"
     id="stop5" /><stop
     offset="1"
     style="stop-color:rgb(132,132,132);stop-opacity:1"
     id="stop6" /></linearGradient>
        <linearGradient
   id="_Linear2"
   x1="0"
   y1="0"
   x2="1"
   y2="0"
   gradientUnits="userSpaceOnUse"
   gradientTransform="matrix(1.04095e-15,12.4667,-17,7.63363e-16,72,40.2667)"><stop
     offset="0"
     style="stop-color:rgb(214,214,214);stop-opacity:1"
     id="stop7" /><stop
     offset="1"
     style="stop-color:rgb(172,172,172);stop-opacity:1"
     id="stop8" /></linearGradient>
    </defs>
</svg>
