<?xml version="1.0" encoding="UTF-8" standalone="no"?>
<svg
   width="23px"
   height="23px"
   version="1.1"
   xml:space="preserve"
   style="fill-rule:evenodd;clip-rule:evenodd;stroke-linejoin:round;stroke-miterlimit:2;"
   id="svg21"
   sodipodi:docname="impulse.svg"
   inkscape:version="1.4 (e7c3feb100, 2024-10-09)"
   xmlns:inkscape="http://www.inkscape.org/namespaces/inkscape"
   xmlns:sodipodi="http://sodipodi.sourceforge.net/DTD/sodipodi-0.dtd"
   xmlns="http://www.w3.org/2000/svg"
   xmlns:svg="http://www.w3.org/2000/svg"
   xmlns:serif="http://www.serif.com/"><sodipodi:namedview
   id="namedview21"
   pagecolor="#505050"
   bordercolor="#ffffff"
   borderopacity="1"
   inkscape:showpageshadow="0"
   inkscape:pageopacity="0"
   inkscape:pagecheckerboard="1"
   inkscape:deskcolor="#505050"
   inkscape:zoom="13"
   inkscape:cx="6.3846154"
   inkscape:cy="1.3076923"
   inkscape:window-width="2560"
   inkscape:window-height="1403"
   inkscape:window-x="0"
   inkscape:window-y="0"
   inkscape:window-maximized="1"
   inkscape:current-layer="svg21" />
    <g
   transform="matrix(1,0,0,1,-63,-66)"
   id="g10">
        <g
   transform="matrix(1.21053,0,0,1.21053,24.2632,50.2632)"
   id="g9">
            <rect
   id="impulse"
   x="32"
   y="13"
   width="19"
   height="19"
   style="fill:none;" />
            <g
   id="impulse1"
   serif:id="impulse">
                <g
   id="impulse2"
   serif:id="impulse"
   transform="matrix(0.936232,0,0,0.928922,2.64638,-28.1263)">
                    <path
   d="M49,48.779C49,47.797 48.209,47 47.235,47L35.765,47C34.791,47 34,47.797 34,48.779L34,60.221C34,61.203 34.791,62 35.765,62L47.235,62C48.209,62 49,61.203 49,60.221L49,48.779Z"
   id="path1" />
                    <clipPath
   id="_clip1">
                        <path
   d="M49,48.779C49,47.797 48.209,47 47.235,47L35.765,47C34.791,47 34,47.797 34,48.779L34,60.221C34,61.203 34.791,62 35.765,62L47.235,62C48.209,62 49,61.203 49,60.221L49,48.779Z"
   id="path2" />
                    </clipPath>
                    <g
   clip-path="url(#_clip1)"
   id="g7">
                        <g
   transform="matrix(0.882353,0,0,0.889296,4,34.4908)"
   id="g2">
                            <rect
   x="37"
   y="18"
   width="1"
   height="9"
   style="fill:url(#_Linear2);"
   id="rect2" />
                        </g>
                        <g
   transform="matrix(0.882353,0,0,0.395243,5.76471,47.8303)"
   id="g3">
                            <rect
   x="37"
   y="18"
   width="1"
   height="9"
   style="fill:url(#_Linear3);"
   id="rect3" />
                        </g>
                        <g
   transform="matrix(0.882353,0,0,0.197621,7.52941,53.1661)"
   id="g4">
                            <rect
   x="37"
   y="18"
   width="1"
   height="9"
   style="fill:url(#_Linear4);"
   id="rect4" />
                        </g>
                        <g
   transform="matrix(0.882353,0,0,0.0988107,9.29412,55.8339)"
   id="g5">
                            <rect
   x="37"
   y="18"
   width="1"
   height="9"
   style="fill:url(#_Linear5);"
   id="rect5" />
                        </g>
                        <g
   transform="matrix(0.882353,0,0,0.0494054,11.0588,57.1679)"
   id="g6">
                            <rect
   x="37"
   y="18"
   width="1"
   height="9"
   style="fill:url(#_Linear6);"
   id="rect6" />
                        </g>
                    </g>
                    <path
   id="path7"
   style="fill:#c465f3;fill-opacity:1"
   d="M 35.823137 46.555355 C 34.605717 46.555355 33.617262 47.55159 33.617262 48.77859 L 33.617262 60.221298 C 33.617262 61.448298 34.605717 62.444532 35.823137 62.444532 L 47.176502 62.444532 C 48.393921 62.444532 49.382377 61.448298 49.382377 60.221298 L 49.382377 48.77859 C 49.382377 47.55159 48.393921 46.555355 47.176502 46.555355 L 35.823137 46.555355 z M 35.764543 47.889296 L 47.235095 47.889296 C 47.722095 47.889296 48.117445 48.28759 48.117445 48.77859 L 48.117445 60.221298 C 48.117445 60.712298 47.722095 61.110592 47.235095 61.110592 L 35.764543 61.110592 C 35.277543 61.110592 34.882193 60.712298 34.882193 60.221298 L 34.882193 48.77859 C 34.882193 48.28759 35.277543 47.889296 35.764543 47.889296 z " />
                </g>
                <g
   transform="matrix(0.928922,0,0,0.928922,-325.889,-79.217)"
   id="g8">
                    
                </g>
            </g>
        </g>
    </g>
    <defs
   id="defs21">
        <linearGradient
   id="_Linear2"
   x1="0"
   y1="0"
   x2="1"
   y2="0"
   gradientUnits="userSpaceOnUse"
   gradientTransform="matrix(-1.65327e-15,9,-9,-1.65327e-15,37.5,18)"><stop
     offset="0"
     style="stop-color:rgb(234,119,255);stop-opacity:1"
     id="stop10" /><stop
     offset="1"
     style="stop-color:rgb(103,86,167);stop-opacity:1"
     id="stop11" /></linearGradient>
        <linearGradient
   id="_Linear3"
   x1="0"
   y1="0"
   x2="1"
   y2="0"
   gradientUnits="userSpaceOnUse"
   gradientTransform="matrix(-1.65327e-15,9,-9,-1.65327e-15,37.5,18)"><stop
     offset="0"
     style="stop-color:rgb(234,119,255);stop-opacity:1"
     id="stop12" /><stop
     offset="1"
     style="stop-color:rgb(103,86,167);stop-opacity:1"
     id="stop13" /></linearGradient>
        <linearGradient
   id="_Linear4"
   x1="0"
   y1="0"
   x2="1"
   y2="0"
   gradientUnits="userSpaceOnUse"
   gradientTransform="matrix(-1.65327e-15,9,-9,-1.65327e-15,37.5,18)"><stop
     offset="0"
     style="stop-color:rgb(234,119,255);stop-opacity:1"
     id="stop14" /><stop
     offset="1"
     style="stop-color:rgb(103,86,167);stop-opacity:1"
     id="stop15" /></linearGradient>
        <linearGradient
   id="_Linear5"
   x1="0"
   y1="0"
   x2="1"
   y2="0"
   gradientUnits="userSpaceOnUse"
   gradientTransform="matrix(-1.65327e-15,9,-9,-1.65327e-15,37.5,18)"><stop
     offset="0"
     style="stop-color:rgb(234,119,255);stop-opacity:1"
     id="stop16" /><stop
     offset="1"
     style="stop-color:rgb(103,86,167);stop-opacity:1"
     id="stop17" /></linearGradient>
        <linearGradient
   id="_Linear6"
   x1="0"
   y1="0"
   x2="1"
   y2="0"
   gradientUnits="userSpaceOnUse"
   gradientTransform="matrix(-1.65327e-15,9,-9,-1.65327e-15,37.5,18)"><stop
     offset="0"
     style="stop-color:rgb(234,119,255);stop-opacity:1"
     id="stop18" /><stop
     offset="1"
     style="stop-color:rgb(103,86,167);stop-opacity:1"
     id="stop19" /></linearGradient>
        <linearGradient
   id="_Linear7"
   x1="0"
   y1="0"
   x2="1"
   y2="0"
   gradientUnits="userSpaceOnUse"
   gradientTransform="matrix(7.57982e-15,-15,15,7.57982e-15,41.5,62)"><stop
     offset="0"
     style="stop-color:rgb(196,100,243);stop-opacity:1"
     id="stop20" /><stop
     offset="1"
     style="stop-color:rgb(218,144,255);stop-opacity:1"
     id="stop21" /></linearGradient>
    <linearGradient
   id="_Linear2-2"
   x1="0"
   y1="0"
   x2="1"
   y2="0"
   gradientUnits="userSpaceOnUse"
   gradientTransform="matrix(4.57994e-16,-8.84453,3.84488,2.78394e-16,9.03426,11.1588)"><stop
     offset="0"
     style="stop-color:rgb(196,100,243);stop-opacity:1"
     id="stop7" /><stop
     offset="1"
     style="stop-color:rgb(218,144,255);stop-opacity:1"
     id="stop8" /></linearGradient></defs>
</svg>
