<?xml version="1.0" encoding="UTF-8" standalone="no"?>
<svg
   width="23px"
   height="23px"
   version="1.1"
   xml:space="preserve"
   style="fill-rule:evenodd;clip-rule:evenodd;stroke-linejoin:round;stroke-miterlimit:2;"
   id="svg7"
   sodipodi:docname="instrument_io.svg"
   inkscape:version="1.4 (e7c3feb100, 2024-10-09)"
   xmlns:inkscape="http://www.inkscape.org/namespaces/inkscape"
   xmlns:sodipodi="http://sodipodi.sourceforge.net/DTD/sodipodi-0.dtd"
   xmlns="http://www.w3.org/2000/svg"
   xmlns:svg="http://www.w3.org/2000/svg"
   xmlns:serif="http://www.serif.com/"><sodipodi:namedview
   id="namedview7"
   pagecolor="#505050"
   bordercolor="#ffffff"
   borderopacity="1"
   inkscape:showpageshadow="0"
   inkscape:pageopacity="0"
   inkscape:pagecheckerboard="1"
   inkscape:deskcolor="#505050"
   inkscape:zoom="26"
   inkscape:cx="21.153846"
   inkscape:cy="11.384615"
   inkscape:window-width="2560"
   inkscape:window-height="1403"
   inkscape:window-x="0"
   inkscape:window-y="0"
   inkscape:window-maximized="1"
   inkscape:current-layer="svg7" />
    <g
   transform="matrix(1,0,0,1,-319,-130)"
   id="g5">
        <g
   transform="matrix(1.21053,0,0,1.21053,-68.3684,36.7895)"
   id="g4">
            <rect
   id="instrument_io"
   x="320"
   y="77"
   width="19"
   height="19"
   style="fill:none;" />
            <g
   id="instrument_io1"
   serif:id="instrument_io">
                <g
   transform="matrix(0.936232,0,0,0.936232,290.646,35.4754)"
   id="g2">
                    <path
   id="path1"
   style="fill:#ffe356;fill-opacity:1"
   d="M 35.765755 46.558497 C 34.547755 46.558497 33.558156 47.546373 33.558156 48.764373 L 33.558156 60.234925 C 33.558156 61.452925 34.547755 62.4408 35.765755 62.4408 L 47.234584 62.4408 C 48.452584 62.4408 49.440459 61.452925 49.440459 60.234925 L 49.440459 48.764373 C 49.440459 47.546373 48.452584 46.558497 47.234584 46.558497 L 35.765755 46.558497 z " />
                    
                </g>
                <g
   transform="matrix(-0.826087,0,0,0.826087,335.696,80.3043)"
   id="g3">
                    <path
   id="polygon3061"
   d="M11.5,5.5L8,3.25L8,5L4,5L4,6L8,6L8,7.75L11.5,5.5Z"
   style="fill-rule:nonzero;" />
                    <path
   id="polygon3063"
   d="M3.5,9.5L7,11.75L7,10L11,10L11,9L7,9L7,7.25L3.5,9.5Z"
   style="fill-rule:nonzero;" />
                </g>
            </g>
        </g>
    </g>
    <defs
   id="defs7">
        <linearGradient
   id="_Linear1"
   x1="0"
   y1="0"
   x2="1"
   y2="0"
   gradientUnits="userSpaceOnUse"
   gradientTransform="matrix(9.25713e-16,-15.118,15.118,9.25713e-16,41.1144,62.118)"><stop
     offset="0"
     style="stop-color:rgb(209,164,0);stop-opacity:1"
     id="stop5" /><stop
     offset="0.6"
     style="stop-color:rgb(255,207,33);stop-opacity:1"
     id="stop6" /><stop
     offset="1"
     style="stop-color:rgb(255,218,86);stop-opacity:1"
     id="stop7" /></linearGradient>
    <linearGradient
   id="_Linear2"
   x1="0"
   y1="0"
   x2="1"
   y2="0"
   gradientUnits="userSpaceOnUse"
   gradientTransform="matrix(9,-0.333333,0.237664,5,5,10.3333)"><stop
     offset="0"
     style="stop-color:rgb(209,164,0);stop-opacity:1"
     id="stop11" /><stop
     offset="0.5"
     style="stop-color:rgb(255,207,33);stop-opacity:1"
     id="stop12" /><stop
     offset="1"
     style="stop-color:rgb(133,124,88);stop-opacity:1"
     id="stop13" /></linearGradient><radialGradient
   id="_Radial3"
   cx="0"
   cy="0"
   r="1"
   gradientUnits="userSpaceOnUse"
   gradientTransform="matrix(3.18182,0,0,2.4691,-7,21.0512)"><stop
     offset="0"
     style="stop-color:rgb(255,220,95);stop-opacity:1"
     id="stop14" /><stop
     offset="1"
     style="stop-color:rgb(209,164,0);stop-opacity:1"
     id="stop15" /></radialGradient><linearGradient
   id="_Linear1-3"
   x1="0"
   y1="0"
   x2="1"
   y2="0"
   gradientUnits="userSpaceOnUse"
   gradientTransform="matrix(0,-15.118,15.118,0,41.1144,62.118)"><stop
     offset="0"
     style="stop-color:rgb(209,164,0);stop-opacity:1"
     id="stop5-7" /><stop
     offset="0.6"
     style="stop-color:rgb(255,207,33);stop-opacity:1"
     id="stop6-5" /><stop
     offset="1"
     style="stop-color:rgb(255,218,86);stop-opacity:1"
     id="stop7-3" /></linearGradient></defs>
</svg>
