<?xml version="1.0" encoding="UTF-8" standalone="no"?>
<svg
   width="23px"
   height="23px"
   version="1.1"
   xml:space="preserve"
   style="fill-rule:evenodd;clip-rule:evenodd;stroke-linejoin:round;stroke-miterlimit:2;"
   id="svg5"
   sodipodi:docname="kind_clip.svg"
   inkscape:version="1.4 (e7c3feb100, 2024-10-09)"
   xmlns:inkscape="http://www.inkscape.org/namespaces/inkscape"
   xmlns:sodipodi="http://sodipodi.sourceforge.net/DTD/sodipodi-0.dtd"
   xmlns="http://www.w3.org/2000/svg"
   xmlns:svg="http://www.w3.org/2000/svg"
   xmlns:serif="http://www.serif.com/"><sodipodi:namedview
   id="namedview5"
   pagecolor="#505050"
   bordercolor="#ffffff"
   borderopacity="1"
   inkscape:showpageshadow="0"
   inkscape:pageopacity="0"
   inkscape:pagecheckerboard="1"
   inkscape:deskcolor="#505050"
   inkscape:zoom="26"
   inkscape:cx="17.461538"
   inkscape:cy="7.5384615"
   inkscape:window-width="2560"
   inkscape:window-height="1403"
   inkscape:window-x="0"
   inkscape:window-y="0"
   inkscape:window-maximized="1"
   inkscape:current-layer="svg5" />
    <g
   transform="matrix(1,0,0,1,-255,-194)"
   id="g4">
        <g
   transform="matrix(1.21053,0,0,1.21053,-16.1579,23.3158)"
   id="g3">
            <rect
   id="kind_clip"
   x="224"
   y="141"
   width="19"
   height="19"
   style="fill:none;" />
            <g
   id="kind_clip1"
   serif:id="kind_clip">
                <g
   transform="matrix(0.928922,0,0,0.928922,-133.889,48.783)"
   id="g1"
   style="fill:#c465f3;fill-opacity:1">
                    <path
   id="path1"
   style="fill:#c465f3;fill-opacity:1"
   d="m 389.77826,101.55495 c -1.227,0 -2.22323,0.99624 -2.22323,2.22324 v 11.44271 c 0,1.227 0.99623,2.22497 2.22323,2.22497 h 11.44271 c 1.227,0 2.22323,-0.99797 2.22323,-2.22497 v -11.44271 c 0,-1.227 -0.99623,-2.22324 -2.22323,-2.22324 z"
   sodipodi:nodetypes="sssssssss" />
                </g>
                <g
   transform="matrix(0.928922,-4.3395e-32,0,0.928922,194.95,99.8737)"
   id="g2">
                    
                </g>
                <path
   d="M239.696,147.609L239.696,155.87C239.696,156.089 239.609,156.299 239.454,156.454C239.299,156.609 239.089,156.696 238.87,156.696L228.13,156.696C227.911,156.696 227.701,156.609 227.546,156.454C227.391,156.299 227.304,156.089 227.304,155.87L227.304,147.609C227.304,147.39 227.391,147.179 227.546,147.025C227.701,146.87 227.911,146.783 228.13,146.783L238.87,146.783C239.089,146.783 239.299,146.87 239.454,147.025C239.609,147.179 239.696,147.39 239.696,147.609ZM236.391,151.52L231.435,148.918L231.435,154.123L236.391,151.52Z"
   id="path3" />
            </g>
        </g>
    </g>
    <defs
   id="defs5">
        <linearGradient
   id="_Linear1"
   x1="0"
   y1="0"
   x2="1"
   y2="0"
   gradientUnits="userSpaceOnUse"
   gradientTransform="matrix(9.18485e-16,15,-15,9.18485e-16,41.5,47)"><stop
     offset="0"
     style="stop-color:rgb(214,114,244);stop-opacity:1"
     id="stop4" /><stop
     offset="1"
     style="stop-color:rgb(134,82,238);stop-opacity:1"
     id="stop5" /></linearGradient>
    <linearGradient
   id="_Linear2"
   x1="0"
   y1="0"
   x2="1"
   y2="0"
   gradientUnits="userSpaceOnUse"
   gradientTransform="matrix(-1.65327e-15,9,-9,-1.65327e-15,37.5,18)"><stop
     offset="0"
     style="stop-color:rgb(234,119,255);stop-opacity:1"
     id="stop10" /><stop
     offset="1"
     style="stop-color:rgb(103,86,167);stop-opacity:1"
     id="stop11" /></linearGradient><linearGradient
   id="_Linear7"
   x1="0"
   y1="0"
   x2="1"
   y2="0"
   gradientUnits="userSpaceOnUse"
   gradientTransform="matrix(7.57982e-15,-15,15,7.57982e-15,41.5,62)"><stop
     offset="0"
     style="stop-color:rgb(196,100,243);stop-opacity:1"
     id="stop20" /><stop
     offset="1"
     style="stop-color:rgb(218,144,255);stop-opacity:1"
     id="stop21" /></linearGradient><linearGradient
   id="_Linear2-2"
   x1="0"
   y1="0"
   x2="1"
   y2="0"
   gradientUnits="userSpaceOnUse"
   gradientTransform="matrix(4.57994e-16,-8.84453,3.84488,2.78394e-16,9.03426,11.1588)"><stop
     offset="0"
     style="stop-color:rgb(196,100,243);stop-opacity:1"
     id="stop7" /><stop
     offset="1"
     style="stop-color:rgb(218,144,255);stop-opacity:1"
     id="stop8" /></linearGradient></defs>
</svg>
