<?xml version="1.0" encoding="UTF-8" standalone="no"?>
<svg
   enable-background="new 0 0 19 19"
   height="19"
   viewBox="0 0 19 19"
   width="19"
   version="1.1"
   id="svg16"
   sodipodi:docname="libraries_music.svg"
   inkscape:version="1.4 (e7c3feb100, 2024-10-09)"
   xmlns:inkscape="http://www.inkscape.org/namespaces/inkscape"
   xmlns:sodipodi="http://sodipodi.sourceforge.net/DTD/sodipodi-0.dtd"
   xmlns="http://www.w3.org/2000/svg"
   xmlns:svg="http://www.w3.org/2000/svg">
  <defs
     id="defs16" />
  <sodipodi:namedview
     id="namedview16"
     pagecolor="#505050"
     bordercolor="#ffffff"
     borderopacity="1"
     inkscape:showpageshadow="0"
     inkscape:pageopacity="0"
     inkscape:pagecheckerboard="1"
     inkscape:deskcolor="#505050"
     inkscape:zoom="62.947368"
     inkscape:cx="9.5"
     inkscape:cy="9.5"
     inkscape:window-width="2560"
     inkscape:window-height="1403"
     inkscape:window-x="0"
     inkscape:window-y="0"
     inkscape:window-maximized="1"
     inkscape:current-layer="svg16" />
  <linearGradient
     id="a"
     gradientUnits="userSpaceOnUse"
     spreadMethod="reflect"
     x1="9.503881"
     x2="14.547608"
     y1="9.476827"
     y2="5.682635">
    <stop
       offset="0"
       stop-color="#8c8c8c"
       id="stop1" />
    <stop
       offset=".43055555"
       stop-opacity=".498039"
       id="stop2" />
    <stop
       offset="1"
       stop-opacity="0"
       id="stop3" />
  </linearGradient>
  <linearGradient
     id="b"
     gradientTransform="matrix(.86666667 0 0 .76923077 -500.4 -629.38462)"
     gradientUnits="userSpaceOnUse"
     x1="589.5"
     x2="589.5"
     y1="826.4336"
     y2="839.4336">
    <stop
       offset="0"
       stop-color="#fff"
       id="stop4" />
    <stop
       offset="1"
       id="stop5" />
  </linearGradient>
  <path
     d="m2 4h13v10.0625h-13z"
     fill="#819262"
     id="path6" />
  <path
     d="m3 5h13v10h-13z"
     opacity=".3"
     id="path7" />
  <path
     d="m3 5h13v10.0625h-13z"
     fill="#97ac76"
     id="path8" />
  <path
     d="m4 6h13v10.0625h-13z"
     fill="#c7d6a9"
     id="path9" />
  <g
     fill="#7a9450"
     transform="matrix(.6 0 0 1 6.4 3)"
     id="g12">
    <path
       d="m11 4h5v2h-5z"
       id="path10" />
    <path
       d="m12 7h4v2h-4z"
       id="path11" />
    <path
       d="m11 10h5v2h-5z"
       id="path12" />
  </g>
  <path
     d="M 4,6 H 17 V 16 H 4 Z"
     fill="url(#b)"
     opacity="0.15"
     id="path13"
     style="display:none" />
  <g
     opacity=".5"
     transform="matrix(.53571258 0 0 .53333334 3.910731 5.933333)"
     id="g16">
    <path
       d="m16 9.5c0 3.589851-2.910149 6.5-6.5 6.5-3.5898509 0-6.5-2.910149-6.5-6.5 0-3.5898509 2.9101491-6.5 6.5-6.5 3.589851 0 6.5 2.9101491 6.5 6.5z"
       transform="matrix(1.1487216 0 0 1.1538461 -1.412855 -1.461538)"
       id="path14" />
    <path
       d="m9.515625 2c-3.3794664.0000001-6.3440797 2.2836239-7.21875 5.5625l7.1875 1.9375v7.5c3.379466 0 6.34408-2.283624 7.21875-5.5625l-7.1875-1.9375z"
       fill="url(#a)"
       id="path15" />
    <path
       d="m9.5 6.5c-1.5954017 0-2.875 1.3431458-2.875 3 0 1.656854 1.2795983 3 2.875 3 1.595402 0 2.875-1.343146 2.875-3 0-1.6568542-1.279598-3-2.875-3zm0 2.5c.2761424 0 .5.2238576.5.5s-.2238576.5-.5.5-.5-.2238576-.5-.5.2238576-.5.5-.5z"
       fill="#4d9ab5"
       id="path16" />
  </g>
</svg>
