<?xml version="1.0" encoding="UTF-8" standalone="no"?>
<svg
   width="23px"
   height="23px"
   version="1.1"
   xml:space="preserve"
   style="fill-rule:evenodd;clip-rule:evenodd;stroke-linejoin:round;stroke-miterlimit:2;"
   id="svg6"
   sodipodi:docname="location.svg"
   inkscape:version="1.4 (e7c3feb100, 2024-10-09)"
   xmlns:inkscape="http://www.inkscape.org/namespaces/inkscape"
   xmlns:sodipodi="http://sodipodi.sourceforge.net/DTD/sodipodi-0.dtd"
   xmlns="http://www.w3.org/2000/svg"
   xmlns:svg="http://www.w3.org/2000/svg"
   xmlns:serif="http://www.serif.com/"><defs
   id="defs6"><linearGradient
     id="_Linear1"
     x1="0"
     y1="0"
     x2="1"
     y2="0"
     gradientUnits="userSpaceOnUse"
     gradientTransform="matrix(0.889296,15,-15,0.889296,39.3358,47)"><stop
       offset="0"
       style="stop-color:rgb(211,211,211);stop-opacity:1"
       id="stop6" /><stop
       offset="1"
       style="stop-color:rgb(166,166,166);stop-opacity:1"
       id="stop7" /></linearGradient></defs><sodipodi:namedview
   id="namedview6"
   pagecolor="#505050"
   bordercolor="#ffffff"
   borderopacity="1"
   inkscape:showpageshadow="0"
   inkscape:pageopacity="0"
   inkscape:pagecheckerboard="1"
   inkscape:deskcolor="#505050"
   inkscape:zoom="26"
   inkscape:cx="17.307692"
   inkscape:cy="8.4230769"
   inkscape:window-width="2560"
   inkscape:window-height="1403"
   inkscape:window-x="0"
   inkscape:window-y="0"
   inkscape:window-maximized="1"
   inkscape:current-layer="svg6" />
    <g
   transform="matrix(1,0,0,1,-223,-66)"
   id="g6">
        <g
   transform="matrix(1.21053,0,0,1.21053,-9.42105,50.2632)"
   id="g5">
            <rect
   id="location"
   x="192"
   y="13"
   width="19"
   height="19"
   style="fill:none;" />
            <g
   id="location1"
   serif:id="location">
                <g
   transform="matrix(0.936232,0,0,0.936232,162.646,-28.5246)"
   id="g2">
                    <path
   id="path1"
   style="fill:#cbcbcb;fill-opacity:1"
   d="M 35.764464 46.558691 C 34.546464 46.558691 33.558589 47.546567 33.558589 48.764567 L 33.558589 60.235119 C 33.558589 61.453119 34.546464 62.440994 35.764464 62.440994 L 47.235016 62.440994 C 48.453016 62.440994 49.440891 61.453119 49.440891 60.235119 L 49.440891 48.764567 C 49.440891 47.546567 48.453016 46.558691 47.235016 46.558691 L 35.764464 46.558691 z " />
                    
                </g>
                <g
   transform="matrix(0.826087,0,0,0.826087,35.0435,-22.5217)"
   id="g3">
                    <path
   d="M197,54.05L201.5,54.05L201.5,52.167L206,52.167L206,58L197,58L197,54.05ZM201,51.144L201,53L197,53L197,51L200.938,51L201,51.144Z"
   style="fill:rgb(201,201,201);"
   id="path3" />
                </g>
                <g
   transform="matrix(0.826087,0,0,0.826087,35.0435,-22.5217)"
   id="g4">
                    <path
   d="M197,54.05L201.5,54.05L201.5,52.167L206,52.167L206,58L197,58L197,54.05ZM201,51.144L201,53L197,53L197,51L200.938,51L201,51.144Z"
   id="path4" />
                </g>
            </g>
        </g>
    </g>
</svg>
