<?xml version="1.0" encoding="UTF-8" standalone="no"?>
<svg
   width="23px"
   height="23px"
   version="1.1"
   xml:space="preserve"
   style="fill-rule:evenodd;clip-rule:evenodd;stroke-linejoin:round;stroke-miterlimit:2;"
   id="svg20"
   sodipodi:docname="modulator_modifier.svg"
   inkscape:version="1.4 (e7c3feb100, 2024-10-09)"
   xmlns:inkscape="http://www.inkscape.org/namespaces/inkscape"
   xmlns:sodipodi="http://sodipodi.sourceforge.net/DTD/sodipodi-0.dtd"
   xmlns="http://www.w3.org/2000/svg"
   xmlns:svg="http://www.w3.org/2000/svg"
   xmlns:serif="http://www.serif.com/"><sodipodi:namedview
   id="namedview20"
   pagecolor="#505050"
   bordercolor="#ffffff"
   borderopacity="1"
   inkscape:showpageshadow="0"
   inkscape:pageopacity="0"
   inkscape:pagecheckerboard="1"
   inkscape:deskcolor="#505050"
   inkscape:zoom="26"
   inkscape:cx="5.1923077"
   inkscape:cy="10.5"
   inkscape:window-width="2560"
   inkscape:window-height="1403"
   inkscape:window-x="0"
   inkscape:window-y="0"
   inkscape:window-maximized="1"
   inkscape:current-layer="svg20" />
    <g
   transform="matrix(1,0,0,1,-191,-258)"
   id="g19">
        <g
   transform="matrix(1.21053,0,0,1.21053,-2.68421,9.84211)"
   id="g18">
            <rect
   id="modulator_modifier"
   x="160"
   y="205"
   width="19"
   height="19"
   style="fill:none;" />
            <g
   id="modulator_modifier1"
   serif:id="modulator_modifier">
                <g
   transform="matrix(0.936232,0,0,0.936232,160.606,-16.2812)"
   id="g2">
                    <g
   id="Modulator-Shape"
   serif:id="Modulator Shape">
                        <g
   id="Modulator-Shape1"
   serif:id="Modulator Shape">
                            <path
   id="path1"
   style="fill:#5381e0;fill-opacity:1"
   d="M 3.765678 238.55816 C 3.180678 238.55816 2.6183319 238.79041 2.2043319 239.20441 C 1.7903319 239.61841 1.5598027 240.18076 1.5598027 240.76576 L 1.5598027 252.23459 C 1.5598027 252.81959 1.7903319 253.38021 2.2043319 253.79421 C 2.6183319 254.20821 3.180678 254.44046 3.765678 254.44046 L 15.234507 254.44046 C 15.819507 254.44046 16.381853 254.20821 16.795853 253.79421 C 17.209853 253.38021 17.440382 252.81959 17.440382 252.23459 L 17.440382 240.76576 C 17.440382 240.18076 17.209853 239.61841 16.795853 239.20441 C 16.381853 238.79041 15.819507 238.55816 15.234507 238.55816 L 3.765678 238.55816 z " />
                            
                        </g>
                    </g>
                </g>
                <g
   transform="matrix(0.871134,0,0,0.826087,-4.86964,38.1304)"
   id="g3">
                    <rect
   x="194"
   y="209"
   width="4.741"
   height="1"
   id="rect2" />
                    <rect
   x="194"
   y="209"
   width="4.741"
   height="1"
   id="rect3" />
                </g>
                <g
   transform="matrix(0.615985,0.615985,-0.584132,0.584132,167.61,-25.5327)"
   id="g5">
                    <rect
   x="194"
   y="209"
   width="4.741"
   height="1"
   id="rect4" />
                    <rect
   x="194"
   y="209"
   width="4.741"
   height="1"
   id="rect5" />
                </g>
                <g
   transform="matrix(0.871134,0,0,0.826087,1.73905,38.1304)"
   id="g7">
                    <rect
   x="194"
   y="209"
   width="4.741"
   height="1"
   id="rect6" />
                    <rect
   x="194"
   y="209"
   width="4.741"
   height="1"
   id="rect7" />
                </g>
                <g
   transform="matrix(0.871134,0,0,0.826087,1.73905,44.7391)"
   id="g9">
                    <rect
   x="194"
   y="209"
   width="4.741"
   height="1"
   id="rect8" />
                    <rect
   x="194"
   y="209"
   width="4.741"
   height="1"
   id="rect9" />
                </g>
                <g
   transform="matrix(0.174227,0,0,0.826087,138.591,46.3913)"
   id="g11">
                    <rect
   x="194"
   y="209"
   width="4.741"
   height="1"
   id="rect10" />
                    <rect
   x="194"
   y="209"
   width="4.741"
   height="1"
   id="rect11" />
                </g>
                <g
   transform="matrix(0.174227,0,0,0.826087,138.591,43.087)"
   id="g13">
                    <rect
   x="194"
   y="209"
   width="4.741"
   height="1"
   id="rect12" />
                    <rect
   x="194"
   y="209"
   width="4.741"
   height="1"
   id="rect13" />
                </g>
                <g
   transform="matrix(5.33416e-17,0.871134,-0.826087,5.05832e-17,339.261,40.1304)"
   id="g15">
                    <rect
   x="194"
   y="209"
   width="4.741"
   height="1"
   id="rect14" />
                    <rect
   x="194"
   y="209"
   width="4.741"
   height="1"
   id="rect15" />
                </g>
                <g
   transform="matrix(-0.615985,0.615985,-0.584132,-0.584132,409.533,219.219)"
   id="g17">
                    <rect
   x="194"
   y="209"
   width="4.741"
   height="1"
   id="rect16" />
                    <rect
   x="194"
   y="209"
   width="4.741"
   height="1"
   id="rect17" />
                </g>
            </g>
        </g>
    </g>
    <defs
   id="defs20">
        <linearGradient
   id="_Linear1"
   x1="0"
   y1="0"
   x2="1"
   y2="0"
   gradientUnits="userSpaceOnUse"
   gradientTransform="matrix(6.17647,8.82353,-8.82353,6.17647,6.41176,242.529)"><stop
     offset="0"
     style="stop-color:rgb(127,216,241);stop-opacity:1"
     id="stop19" /><stop
     offset="1"
     style="stop-color:rgb(38,163,191);stop-opacity:1"
     id="stop20" /></linearGradient>
    <linearGradient
   id="_Linear1-3"
   x1="0"
   y1="0"
   x2="1"
   y2="0"
   gradientUnits="userSpaceOnUse"
   gradientTransform="matrix(9.18485e-16,15,-15,9.18485e-16,41.5,47)"><stop
     offset="0"
     style="stop-color:rgb(114,211,244);stop-opacity:1"
     id="stop5-5" /><stop
     offset="1"
     style="stop-color:rgb(21,161,208);stop-opacity:1"
     id="stop6-9" /></linearGradient></defs>
</svg>
