<?xml version="1.0" encoding="UTF-8" standalone="no"?>
<svg
   width="23px"
   height="23px"
   version="1.1"
   xml:space="preserve"
   style="fill-rule:evenodd;clip-rule:evenodd;"
   id="svg7"
   sodipodi:docname="modulator_midi.svg"
   inkscape:version="1.4 (e7c3feb100, 2024-10-09)"
   xmlns:inkscape="http://www.inkscape.org/namespaces/inkscape"
   xmlns:sodipodi="http://sodipodi.sourceforge.net/DTD/sodipodi-0.dtd"
   xmlns="http://www.w3.org/2000/svg"
   xmlns:svg="http://www.w3.org/2000/svg"
   xmlns:serif="http://www.serif.com/"><sodipodi:namedview
   id="namedview7"
   pagecolor="#505050"
   bordercolor="#ffffff"
   borderopacity="1"
   inkscape:showpageshadow="0"
   inkscape:pageopacity="0"
   inkscape:pagecheckerboard="1"
   inkscape:deskcolor="#505050"
   inkscape:zoom="26"
   inkscape:cx="9.4615385"
   inkscape:cy="10.038462"
   inkscape:window-width="2560"
   inkscape:window-height="1403"
   inkscape:window-x="0"
   inkscape:window-y="0"
   inkscape:window-maximized="1"
   inkscape:current-layer="svg7" />
    <g
   transform="matrix(1,0,0,1,-191,-290)"
   id="g6">
        <g
   transform="matrix(1.21053,0,0,1.21053,-2.68421,3.10526)"
   id="g5">
            <rect
   id="modulator_midi"
   x="160"
   y="237"
   width="19"
   height="19"
   style="fill:none;" />
            <g
   id="modulator_midi1"
   serif:id="modulator_midi">
                <g
   transform="matrix(0.936232,0,0,0.936232,160.606,15.7188)"
   id="g2">
                    <g
   id="Modulator-Shape"
   serif:id="Modulator Shape">
                        <g
   id="Modulator-Shape1"
   serif:id="Modulator Shape">
                            <path
   id="path1"
   style="fill:#5381e0;fill-opacity:1"
   d="M 3.765678 238.55979 C 3.180678 238.55979 2.6183319 238.79032 2.2043319 239.20432 C 1.7903319 239.61832 1.5598027 240.18066 1.5598027 240.76566 L 1.5598027 252.23449 C 1.5598027 252.81949 1.7903319 253.38184 2.2043319 253.79584 C 2.6183319 254.20984 3.180678 254.44037 3.765678 254.44037 L 15.234507 254.44037 C 15.819507 254.44037 16.381853 254.20984 16.795853 253.79584 C 17.209853 253.38184 17.440382 252.81949 17.440382 252.23449 L 17.440382 240.76566 C 17.440382 240.18066 17.209853 239.61832 16.795853 239.20432 C 16.381853 238.79032 15.819507 238.55979 15.234507 238.55979 L 3.765678 238.55979 z " />
                            
                        </g>
                    </g>
                </g>
                <g
   id="path3083"
   transform="matrix(0.917874,0,0,0.917874,164.452,241.452)">
                    <path
   d="M10,5.5C10,7.969 7.969,10 5.5,10C3.031,10 1,7.969 1,5.5C1,3.031 3.031,1 5.5,1C7.969,1 10,3.031 10,5.5Z"
   style="fill:none;fill-rule:nonzero;stroke:black;stroke-width:0.99px;"
   id="path3" />
                </g>
                <g
   transform="matrix(0.860328,0,0,0.860328,-86.4476,227.143)"
   id="g4">
                    <path
   d="M300.75,22.475C300.75,22.886 300.411,23.225 300,23.225C299.589,23.225 299.25,22.886 299.25,22.475C299.25,22.063 299.589,21.725 300,21.725C300.411,21.725 300.75,22.063 300.75,22.475ZM295.629,22.475C295.629,22.886 295.291,23.225 294.879,23.225C294.468,23.225 294.129,22.886 294.129,22.475C294.129,22.063 294.468,21.725 294.879,21.725C295.291,21.725 295.629,22.063 295.629,22.475ZM300,20.725C300,21.136 299.661,21.475 299.25,21.475C298.839,21.475 298.5,21.136 298.5,20.725C298.5,20.313 298.839,19.975 299.25,19.975C299.661,19.975 300,20.313 300,20.725ZM296.5,20.725C296.5,21.136 296.161,21.475 295.75,21.475C295.339,21.475 295,21.136 295,20.725C295,20.313 295.339,19.975 295.75,19.975C296.161,19.975 296.5,20.313 296.5,20.725ZM298.25,20C298.25,20.411 297.911,20.75 297.5,20.75C297.089,20.75 296.75,20.411 296.75,20C296.75,19.589 297.089,19.25 297.5,19.25C297.911,19.25 298.25,19.589 298.25,20Z"
   id="path4" />
                </g>
            </g>
        </g>
    </g>
    <defs
   id="defs7">
        <linearGradient
   id="_Linear1"
   x1="0"
   y1="0"
   x2="1"
   y2="0"
   gradientUnits="userSpaceOnUse"
   gradientTransform="matrix(6.17647,8.82353,-8.82353,6.17647,6.41176,242.529)"><stop
     offset="0"
     style="stop-color:rgb(127,216,241);stop-opacity:1"
     id="stop6" /><stop
     offset="1"
     style="stop-color:rgb(38,163,191);stop-opacity:1"
     id="stop7" /></linearGradient>
    <linearGradient
   id="_Linear1-3"
   x1="0"
   y1="0"
   x2="1"
   y2="0"
   gradientUnits="userSpaceOnUse"
   gradientTransform="matrix(9.18485e-16,15,-15,9.18485e-16,41.5,47)"><stop
     offset="0"
     style="stop-color:rgb(114,211,244);stop-opacity:1"
     id="stop5-5" /><stop
     offset="1"
     style="stop-color:rgb(21,161,208);stop-opacity:1"
     id="stop6-9" /></linearGradient></defs>
</svg>
