<?xml version="1.0" encoding="UTF-8" standalone="no"?>
<svg
   width="23px"
   height="23px"
   version="1.1"
   xml:space="preserve"
   style="fill-rule:evenodd;clip-rule:evenodd;stroke-linejoin:round;stroke-miterlimit:2;"
   id="svg5"
   sodipodi:docname="modulator_audio_driven.svg"
   inkscape:version="1.4 (e7c3feb100, 2024-10-09)"
   xmlns:inkscape="http://www.inkscape.org/namespaces/inkscape"
   xmlns:sodipodi="http://sodipodi.sourceforge.net/DTD/sodipodi-0.dtd"
   xmlns="http://www.w3.org/2000/svg"
   xmlns:svg="http://www.w3.org/2000/svg"
   xmlns:serif="http://www.serif.com/"><sodipodi:namedview
   id="namedview5"
   pagecolor="#505050"
   bordercolor="#ffffff"
   borderopacity="1"
   inkscape:showpageshadow="0"
   inkscape:pageopacity="0"
   inkscape:pagecheckerboard="1"
   inkscape:deskcolor="#505050"
   inkscape:zoom="18.384776"
   inkscape:cx="18.330383"
   inkscape:cy="6.6359252"
   inkscape:window-width="2560"
   inkscape:window-height="1403"
   inkscape:window-x="0"
   inkscape:window-y="0"
   inkscape:window-maximized="1"
   inkscape:current-layer="modulator_audio_driven1" />
    <g
   transform="matrix(1,0,0,1,-159,-258)"
   id="g4">
        <g
   transform="matrix(1.21053,0,0,1.21053,4.05263,9.84211)"
   id="g3">
            <rect
   id="modulator_audio_driven"
   x="128"
   y="205"
   width="19"
   height="19"
   style="fill:none;" />
            <g
   id="modulator_audio_driven1"
   serif:id="modulator_audio_driven">
                <g
   transform="matrix(0.936232,0,0,0.936232,128.606,-16.2812)"
   id="g2">
                    <g
   id="Modulator-Shape"
   serif:id="Modulator Shape">
                        <g
   id="Modulator-Shape1"
   serif:id="Modulator Shape">
                            <path
   id="path1"
   style="fill:#5381e0;fill-opacity:1"
   d="M 3.7657839 238.55816 C 3.1807839 238.55816 2.6184377 238.79041 2.2044377 239.20441 C 1.7904377 239.61841 1.5581852 240.18076 1.5581852 240.76576 L 1.5581852 252.23459 C 1.5581852 252.81959 1.7904377 253.38021 2.2044377 253.79421 C 2.6184377 254.20821 3.1807839 254.44046 3.7657839 254.44046 L 15.234612 254.44046 C 15.819612 254.44046 16.380235 254.20821 16.794235 253.79421 C 17.208235 253.38021 17.440488 252.81959 17.440488 252.23459 L 17.440488 240.76576 C 17.440488 240.18076 17.208235 239.61841 16.794235 239.20441 C 16.380235 238.79041 15.819612 238.55816 15.234612 238.55816 L 3.7657839 238.55816 z " />
                            
                        </g>
                    </g>
                </g>
                <g
   id="polygon4587"
   transform="matrix(1.00966,0,0,1.29814,126.89815,202.16701)">
                    <path
   d="M 6.8,13 H 6 V 6.451 C 6,6.202 6.26,6 6.58,6 6.634,6 6.681,6 6.716,6 6.753,6 6.786,6.019 6.795,6.047 6.94,6.466 8,9.535 8,9.535 V 7.471 C 8,7.346 8.064,7.226 8.177,7.138 8.291,7.05 8.445,7 8.605,7 8.644,7 8.678,7 8.704,7 8.737,7 8.766,7.015 8.779,7.039 8.942,7.342 10,9.306 10,9.306 V 8.456 C 10,8.335 10.062,8.219 10.172,8.134 10.282,8.048 10.431,8 10.587,8 c 0.024,0 0.045,0 0.061,0 0.022,0 0.044,0.007 0.059,0.02 C 10.878,8.161 11.9,9 11.9,9 c 0,0 0.148,-0.118 0.3,-0.24 0.193,-0.154 0.494,-0.19 0.738,-0.088 0.181,0.075 0.395,0.165 0.58,0.242 C 13.812,9.036 14.139,9.1 14.472,9.1 14.734,9.101 15,9.101 15,9.101 V 9.9 L 13.773,9.879 12.8,9.555 V 10 c 0,0 -0.029,0.012 -0.075,0.031 C 12.374,10.177 11.939,10.105 11.694,9.86 11.309,9.475 10.8,8.966 10.8,8.966 V 11 H 10.586 C 10.257,11 9.959,10.846 9.832,10.61 9.477,9.952 8.8,8.694 8.8,8.694 V 12 H 8.648 C 8.278,12 7.954,11.807 7.858,11.529 7.526,10.566 6.8,8.465 6.8,8.465 Z"
   style="fill-rule:nonzero"
   id="path3" />
                </g>
            </g>
        </g>
    </g>
    <defs
   id="defs5">
        <linearGradient
   id="_Linear1"
   x1="0"
   y1="0"
   x2="1"
   y2="0"
   gradientUnits="userSpaceOnUse"
   gradientTransform="matrix(6.17647,8.82353,-8.82353,6.17647,6.41176,242.529)"><stop
     offset="0"
     style="stop-color:rgb(127,216,241);stop-opacity:1"
     id="stop4" /><stop
     offset="1"
     style="stop-color:rgb(38,163,191);stop-opacity:1"
     id="stop5" /></linearGradient>
    <linearGradient
   id="_Linear1-3"
   x1="0"
   y1="0"
   x2="1"
   y2="0"
   gradientUnits="userSpaceOnUse"
   gradientTransform="matrix(9.18485e-16,15,-15,9.18485e-16,41.5,47)"><stop
     offset="0"
     style="stop-color:rgb(114,211,244);stop-opacity:1"
     id="stop5-5" /><stop
     offset="1"
     style="stop-color:rgb(21,161,208);stop-opacity:1"
     id="stop6" /></linearGradient></defs>
</svg>
