<?xml version="1.0" encoding="UTF-8" standalone="no"?>
<svg
   width="23px"
   height="23px"
   version="1.1"
   xml:space="preserve"
   style="fill-rule:evenodd;clip-rule:evenodd;stroke-linecap:round;stroke-linejoin:round;stroke-miterlimit:1.5;"
   id="svg6"
   sodipodi:docname="modulator_lfo.svg"
   inkscape:version="1.4 (e7c3feb100, 2024-10-09)"
   xmlns:inkscape="http://www.inkscape.org/namespaces/inkscape"
   xmlns:sodipodi="http://sodipodi.sourceforge.net/DTD/sodipodi-0.dtd"
   xmlns="http://www.w3.org/2000/svg"
   xmlns:svg="http://www.w3.org/2000/svg"
   xmlns:serif="http://www.serif.com/"><sodipodi:namedview
   id="namedview6"
   pagecolor="#505050"
   bordercolor="#ffffff"
   borderopacity="1"
   inkscape:showpageshadow="0"
   inkscape:pageopacity="0"
   inkscape:pagecheckerboard="1"
   inkscape:deskcolor="#505050"
   inkscape:zoom="18.384776"
   inkscape:cx="8.0501387"
   inkscape:cy="-1.0334638"
   inkscape:window-width="2560"
   inkscape:window-height="1403"
   inkscape:window-x="0"
   inkscape:window-y="0"
   inkscape:window-maximized="1"
   inkscape:current-layer="svg6" />
    <g
   transform="matrix(1,0,0,1,-127,-290)"
   id="g5">
        <g
   transform="matrix(1.21053,0,0,1.21053,10.7895,3.10526)"
   id="g4">
            <rect
   id="modulator_lfo"
   x="96"
   y="237"
   width="19"
   height="19"
   style="fill:none;" />
            <g
   id="modulator_lfo1"
   serif:id="modulator_lfo">
                <g
   transform="matrix(0.936232,0,0,0.936232,96.6058,15.7188)"
   id="g2">
                    <g
   id="Modulator-Shape"
   serif:id="Modulator Shape">
                        <g
   id="Modulator-Shape1"
   serif:id="Modulator Shape">
                            <path
   id="path1"
   style="fill:#5381e0;fill-opacity:1"
   d="M 3.7643536 238.55979 C 3.1793536 238.55979 2.6187308 238.79032 2.2047308 239.20432 C 1.7907308 239.61832 1.5584782 240.18066 1.5584782 240.76566 L 1.5584782 252.23449 C 1.5584782 252.81949 1.7907308 253.38184 2.2047308 253.79584 C 2.6187308 254.20984 3.1793536 254.44037 3.7643536 254.44037 L 15.234906 254.44037 C 15.819906 254.44037 16.380528 254.20984 16.794528 253.79584 C 17.208528 253.38184 17.440781 252.81949 17.440781 252.23449 L 17.440781 240.76566 C 17.440781 240.18066 17.208528 239.61832 16.794528 239.20432 C 16.380528 238.79032 15.819906 238.55979 15.234906 238.55979 L 3.7643536 238.55979 z " />
                            
                        </g>
                    </g>
                </g>
                <g
   transform="matrix(0.826087,0,0,0.826087,18.3478,42.8696)"
   id="g3">
                    <path
   d="M100.5,246.5L100.5,244.864C100.5,244.237 100.749,243.636 101.192,243.192C101.636,242.749 102.237,242.5 102.864,242.5C103.008,242.5 103.152,242.5 103.294,242.5C103.879,242.5 104.44,242.732 104.854,243.146C105.268,243.56 105.5,244.121 105.5,244.706C105.5,245.731 105.5,246.955 105.5,248.013C105.5,248.673 105.762,249.305 106.228,249.772C106.695,250.238 107.327,250.5 107.987,250.5C107.988,250.5 107.989,250.5 107.99,250.5C109.376,250.5 110.5,249.376 110.5,247.99C110.5,247.186 110.5,246.5 110.5,246.5"
   style="fill:none;stroke:black;stroke-width:1.31px;"
   id="path3" />
                </g>
            </g>
        </g>
    </g>
    <defs
   id="defs6">
        <linearGradient
   id="_Linear1"
   x1="0"
   y1="0"
   x2="1"
   y2="0"
   gradientUnits="userSpaceOnUse"
   gradientTransform="matrix(6.17647,8.82353,-8.82353,6.17647,6.41176,242.529)"><stop
     offset="0"
     style="stop-color:rgb(127,216,241);stop-opacity:1"
     id="stop5" /><stop
     offset="1"
     style="stop-color:rgb(38,163,191);stop-opacity:1"
     id="stop6" /></linearGradient>
    <linearGradient
   id="_Linear1-3"
   x1="0"
   y1="0"
   x2="1"
   y2="0"
   gradientUnits="userSpaceOnUse"
   gradientTransform="matrix(9.18485e-16,15,-15,9.18485e-16,41.5,47)"><stop
     offset="0"
     style="stop-color:rgb(114,211,244);stop-opacity:1"
     id="stop5-5" /><stop
     offset="1"
     style="stop-color:rgb(21,161,208);stop-opacity:1"
     id="stop6-9" /></linearGradient></defs>
</svg>
