<?xml version="1.0" encoding="UTF-8" standalone="no"?>
<svg
   width="23px"
   height="23px"
   version="1.1"
   xml:space="preserve"
   style="fill-rule:evenodd;clip-rule:evenodd;stroke-linejoin:round;stroke-miterlimit:2;"
   id="svg7"
   sodipodi:docname="modulator_chaos.svg"
   inkscape:version="1.4 (e7c3feb100, 2024-10-09)"
   xmlns:inkscape="http://www.inkscape.org/namespaces/inkscape"
   xmlns:sodipodi="http://sodipodi.sourceforge.net/DTD/sodipodi-0.dtd"
   xmlns="http://www.w3.org/2000/svg"
   xmlns:svg="http://www.w3.org/2000/svg"
   xmlns:serif="http://www.serif.com/"><sodipodi:namedview
   id="namedview7"
   pagecolor="#505050"
   bordercolor="#ffffff"
   borderopacity="1"
   inkscape:showpageshadow="0"
   inkscape:pageopacity="0"
   inkscape:pagecheckerboard="1"
   inkscape:deskcolor="#505050"
   inkscape:zoom="22.627417"
   inkscape:cx="1.1048543"
   inkscape:cy="15.026019"
   inkscape:window-width="2560"
   inkscape:window-height="1403"
   inkscape:window-x="0"
   inkscape:window-y="0"
   inkscape:window-maximized="1"
   inkscape:current-layer="svg7" />
    <g
   transform="translate(-255.00086,-290.0009)"
   id="g6">
        <g
   transform="matrix(1.21053,0,0,1.21053,-16.1579,3.10526)"
   id="g5">
            <rect
   id="modulator_chaos"
   x="224"
   y="237"
   width="19"
   height="19"
   style="fill:none" />
            <g
   id="modulator_chaos1"
   serif:id="modulator_chaos">
                <g
   transform="matrix(0.936232,0,0,0.936232,224.606,15.7188)"
   id="g2">
                    <g
   id="Modulator-Shape"
   serif:id="Modulator Shape">
                        <g
   id="Modulator-Shape1"
   serif:id="Modulator Shape">
                            <path
   id="path1"
   style="fill:#5381e0;fill-opacity:1"
   d="m 3.7654751,238.55979 c -0.585,0 -1.1456228,0.23053 -1.5596228,0.64453 -0.414,0.414 -0.6462526,0.97634 -0.6462526,1.56134 v 11.46883 c 0,0.585 0.2322526,1.14735 0.6462526,1.56135 0.414,0.414 0.9746228,0.64453 1.5596228,0.64453 H 15.234304 c 0.585,0 1.147346,-0.23053 1.561346,-0.64453 0.414,-0.414 0.644529,-0.97635 0.644529,-1.56135 v -11.46883 c 0,-0.585 -0.230529,-1.14734 -0.644529,-1.56134 -0.414,-0.414 -0.976346,-0.64453 -1.561346,-0.64453 z" />
                            
                        </g>
                    </g>
                </g>
                <g
   id="rect3009"
   transform="matrix(0.826087,0,0,0.826087,227.304,240.304)">
                    
                </g>
                <g
   id="path3012"
   transform="matrix(0.826087,0,0,0.826087,227.304,240.304)">
                    
                </g>
                
            </g>
        </g>
    </g>
    <defs
   id="defs7">
        <linearGradient
   id="_Linear1"
   x1="0"
   y1="0"
   x2="1"
   y2="0"
   gradientUnits="userSpaceOnUse"
   gradientTransform="matrix(6.17647,8.82353,-8.82353,6.17647,6.41176,242.529)"><stop
     offset="0"
     style="stop-color:rgb(127,216,241);stop-opacity:1"
     id="stop6" /><stop
     offset="1"
     style="stop-color:rgb(38,163,191);stop-opacity:1"
     id="stop7" /></linearGradient>
    <linearGradient
   id="_Linear1-3"
   x1="0"
   y1="0"
   x2="1"
   y2="0"
   gradientUnits="userSpaceOnUse"
   gradientTransform="matrix(9.18485e-16,15,-15,9.18485e-16,41.5,47)"><stop
     offset="0"
     style="stop-color:rgb(114,211,244);stop-opacity:1"
     id="stop5-5" /><stop
     offset="1"
     style="stop-color:rgb(21,161,208);stop-opacity:1"
     id="stop6-5" /></linearGradient></defs>
<style
   type="text/css"
   id="style1">
	.st0{fill:#000000;}
</style><path
   d="m 15.715941,8.860423 -4.216796,2.529297 v 4.99414 c 0.129443,-0.016 0.255271,-0.05758 0.371093,-0.126953 l 3.460938,-2.076171 c 0.285872,-0.171661 0.460937,-0.480994 0.460937,-0.814454 V 9.2295636 c 0,-0.1293793 -0.02714,-0.2537691 -0.07617,-0.3691406 z m -0.677734,1.345703 c 0.155712,-0.01903 0.265625,0.07607 0.265625,0.25586 0,0.239573 -0.194021,0.541206 -0.433594,0.671875 -0.239723,0.130539 -0.433593,0.04035 -0.433593,-0.199219 -1e-6,-0.239702 0.19387,-0.539254 0.433593,-0.669922 0.05989,-0.03267 0.116065,-0.05225 0.167969,-0.05859 z m -2.421875,1.322266 c 0.155743,-0.01898 0.263656,0.07423 0.263672,0.253906 0,0.239723 -0.193935,0.541207 -0.433594,0.671875 -0.239788,0.130668 -0.433594,0.04246 -0.433594,-0.197266 0,-0.239551 0.193806,-0.541206 0.433594,-0.671875 0.05992,-0.03263 0.118008,-0.05031 0.169922,-0.05664 z m 2.421875,1.101562 c 0.155712,-0.01903 0.265625,0.07607 0.265625,0.25586 0,0.239551 -0.194021,0.539253 -0.433594,0.669922 -0.239723,0.130539 -0.433593,0.04246 -0.433593,-0.197266 -1e-6,-0.239595 0.19387,-0.539254 0.433593,-0.669922 0.05989,-0.03267 0.116065,-0.05225 0.167969,-0.05859 z m -2.421875,1.320313 c 0.155743,-0.01897 0.263656,0.07618 0.263672,0.255859 0,0.239724 -0.193935,0.539232 -0.433594,0.669922 -0.239788,0.130668 -0.433594,0.04246 -0.433594,-0.197266 0,-0.239573 0.193806,-0.539253 0.433594,-0.669921 0.05992,-0.03263 0.118008,-0.05227 0.169922,-0.05859 z"
   style="display:inline;fill:#385696;fill-opacity:1"
   id="path12"
   sodipodi:nodetypes="cccccsssccscsccccccscccscsccccccsccc" /><path
   d="M 7.2803946,8.860423 C 7.231496,8.9758159 7.2042227,9.1001843 7.2042227,9.2295636 v 4.1367184 c 0,0.33346 0.1749796,0.642793 0.4609375,0.814454 l 3.4609378,2.076171 c 0.115865,0.06937 0.243581,0.110948 0.373047,0.126953 v -4.99414 z m 2.9335934,2.667969 c 0.06927,-0.0091 0.152324,0.0077 0.242188,0.05664 0.239723,0.130669 0.433594,0.432324 0.433594,0.671875 0,0.239724 -0.193871,0.327934 -0.433594,0.197266 -0.239638,-0.130668 -0.433594,-0.432152 -0.433594,-0.671875 0,-0.149733 0.07596,-0.238819 0.191406,-0.253906 z m -1.2128902,0.550781 c 0.069267,-0.009 0.1542443,0.0096 0.2441406,0.05859 0.2396374,0.130539 0.4335937,0.430349 0.4335937,0.669922 0,0.239723 -0.1939563,0.327934 -0.4335937,0.197265 -0.2397234,-0.13069 -0.4355469,-0.43022 -0.4355469,-0.669922 0,-0.149733 0.075961,-0.240803 0.1914063,-0.255859 z m -1.2109376,0.550781 c 0.069269,-0.009 0.1523154,0.0096 0.2421875,0.05859 0.2396375,0.130668 0.4335938,0.430349 0.4335938,0.669922 0,0.239723 -0.1939563,0.327805 -0.4335938,0.197266 C 7.7926888,13.425063 7.5987325,13.125383 7.598754,12.88581 c 0,-0.149827 0.075958,-0.240796 0.1914062,-0.25586 z"
   style="display:inline;fill:#1c2b4b;fill-opacity:1"
   id="path11" /><path
   d="m 11.499145,6.405345 c -0.169126,0 -0.337847,0.04657 -0.488281,0.1367187 L 7.5499262,8.6162825 C 7.4436857,8.6800268 7.3546648,8.7625635 7.2823481,8.85847 l 4.2167969,2.53125 4.21875,-2.53125 C 15.645772,8.7625635 15.554819,8.6800268 15.448364,8.6162825 L 11.987426,6.5420637 C 11.837057,6.451915 11.668185,6.405345 11.499145,6.405345 Z m 0.0059,1.7011719 c 0.224945,0.00254 0.448256,0.066281 0.617188,0.1914062 0.33795,0.2501219 0.329075,0.6502766 -0.01953,0.8925782 -0.348843,0.2424519 -0.904324,0.2365789 -1.242188,-0.013672 -0.33795,-0.24995 -0.329097,-0.6501262 0.01953,-0.8925781 0.174379,-0.1211508 0.400056,-0.180275 0.625,-0.1777343 z"
   style="display:inline"
   id="path10" /><path
   d="m 11.499145,5.999095 c -0.241313,0 -0.482765,0.06456 -0.697266,0.1933594 L 7.3409419,8.2686263 C 6.9325226,8.5136778 6.6827388,8.95449 6.6827387,9.4307356 v 4.1367184 c 0,0.476267 0.2497839,0.919011 0.6582032,1.164063 l 3.4609371,2.074219 c 0.21448,0.128648 0.456039,0.193359 0.697266,0.193359 0.241227,0 0.482808,-0.06471 0.697266,-0.193359 l 3.460937,-2.074219 C 16.06581,14.486465 16.315551,14.0437 16.315551,13.567454 V 9.4307356 c 0,-0.4762456 -0.249741,-0.9170578 -0.658203,-1.1621093 L 12.196411,6.1924544 C 11.981953,6.0636551 11.740372,5.999095 11.499145,5.999095 Z m 0,0.40625 c 0.16904,0 0.337912,0.04657 0.488281,0.1367187 l 3.460938,2.0742188 c 0.106455,0.063744 0.197408,0.146281 0.269531,0.2421875 L 11.499145,11.38972 7.2823481,8.85847 C 7.3546648,8.7625635 7.4436857,8.6800268 7.5499262,8.6162825 L 11.010864,6.5420637 C 11.161298,6.451915 11.330019,6.405345 11.499145,6.405345 Z m -4.3339844,2.65625 4.2187504,2.529297 v 4.99414 c -0.129466,-0.016 -0.257182,-0.05758 -0.373047,-0.126953 L 7.5499262,14.381908 C 7.2639683,14.210247 7.0889887,13.900914 7.0889887,13.567454 V 9.4307356 c 0,-0.1293793 0.027273,-0.2537477 0.076172,-0.3691406 z m 8.6679684,0 c 0.04903,0.1153715 0.07617,0.2397613 0.07617,0.3691406 v 4.1367184 c 0,0.33346 -0.175065,0.642793 -0.460937,0.814454 l -3.460938,2.076171 c -0.115822,0.06937 -0.24165,0.110948 -0.371093,0.126953 v -4.99414 z"
   id="path13"
   sodipodi:nodetypes="sccssccsccssccsscccccccscccccssccssccccc"
   style="clip-rule:evenodd;opacity:0;fill-rule:evenodd;stroke-linejoin:round;stroke-miterlimit:2" /></svg>
