<?xml version="1.0" encoding="UTF-8" standalone="no"?>
<svg
   width="23px"
   height="23px"
   version="1.1"
   xml:space="preserve"
   style="fill-rule:evenodd;clip-rule:evenodd;stroke-linejoin:round;stroke-miterlimit:2;"
   id="svg7"
   sodipodi:docname="module.svg"
   inkscape:version="1.4 (e7c3feb100, 2024-10-09)"
   xmlns:inkscape="http://www.inkscape.org/namespaces/inkscape"
   xmlns:sodipodi="http://sodipodi.sourceforge.net/DTD/sodipodi-0.dtd"
   xmlns="http://www.w3.org/2000/svg"
   xmlns:svg="http://www.w3.org/2000/svg"
   xmlns:serif="http://www.serif.com/"><sodipodi:namedview
   id="namedview7"
   pagecolor="#505050"
   bordercolor="#ffffff"
   borderopacity="1"
   inkscape:showpageshadow="0"
   inkscape:pageopacity="0"
   inkscape:pagecheckerboard="1"
   inkscape:deskcolor="#505050"
   inkscape:zoom="18.384776"
   inkscape:cx="-10.660995"
   inkscape:cy="7.7781747"
   inkscape:window-width="2560"
   inkscape:window-height="1403"
   inkscape:window-x="0"
   inkscape:window-y="0"
   inkscape:window-maximized="1"
   inkscape:current-layer="g4" />
    <g
   transform="matrix(1,0,0,1,-31,-323)"
   id="g6">
        <g
   transform="matrix(1.21053,0,0,1.21053,31,36.1053)"
   id="g5">
            <rect
   id="module"
   x="0"
   y="237"
   width="19"
   height="19"
   style="fill:none;" />
            <g
   id="module1"
   serif:id="module">
                
                <g
   id="Module-Shape"
   serif:id="Module Shape"
   transform="matrix(0.936232,0,0,0.936232,0.605797,15.7188)"
   style="stroke:#747474;stroke-opacity:1;stroke-width:0.88235015;stroke-dasharray:none">
                    <path
   d="m 15.235,239 c 0.468,0 0.917,0.186 1.248,0.517 0.331,0.331 0.517,0.78 0.517,1.248 v 11.47 c 0,0.468 -0.186,0.917 -0.517,1.248 -0.331,0.331 -0.78,0.517 -1.248,0.517 H 3.765 C 3.297,254 2.848,253.814 2.517,253.483 2.186,253.152 2,252.703 2,252.235 v -11.47 c 0,-0.468 0.186,-0.917 0.517,-1.248 C 2.848,239.186 3.297,239 3.765,239 Z"
   style="fill:#262626;fill-opacity:1;stroke:#747474;stroke-opacity:1;stroke-width:0.88235015;stroke-dasharray:none"
   id="path2"
   sodipodi:nodetypes="sssssssssssss" />
                    <path
   d="M15.235,239C15.703,239 16.152,239.186 16.483,239.517C16.814,239.848 17,240.297 17,240.765L17,252.235C17,252.703 16.814,253.152 16.483,253.483C16.152,253.814 15.703,254 15.235,254L3.765,254C3.297,254 2.848,253.814 2.517,253.483C2.186,253.152 2,252.703 2,252.235L2,240.765C2,240.297 2.186,239.848 2.517,239.517C2.848,239.186 3.297,239 3.765,239L15.235,239ZM15.235,239.882L3.765,239.882C3.531,239.882 3.306,239.975 3.141,240.141C2.975,240.306 2.882,240.531 2.882,240.765L2.882,252.235C2.882,252.469 2.975,252.694 3.141,252.859C3.306,253.025 3.531,253.118 3.765,253.118L15.235,253.118C15.469,253.118 15.694,253.025 15.859,252.859C16.025,252.694 16.118,252.469 16.118,252.235L16.118,240.765C16.118,240.531 16.025,240.306 15.859,240.141C15.694,239.975 15.469,239.882 15.235,239.882Z"
   style="fill:rgb(116, 116, 116);stroke:#747474;stroke-opacity:1;stroke-width:0.88235015;stroke-dasharray:none"
   id="path3" />
                </g>
                <g
   transform="matrix(1.18502,0,0,1.18502,-29.7896,-149.888)"
   id="g4">
                    <path
   d="m 34.898197,334.49834 c 0.962,0 1.743,0.781 1.743,1.743 0,0.962 -0.781,1.743 -1.743,1.743 -0.962,0 -1.743,-0.781 -1.743,-1.743 0,-0.962 0.781,-1.743 1.743,-1.743 z m 0,0.697 c -0.577,0 -1.046,0.469 -1.046,1.046 0,0.577 0.469,1.046 1.046,1.046 0.577,0 1.045,-0.469 1.045,-1.046 0,-0.577 -0.468,-1.046 -1.045,-1.046 z"
   style="fill:#feda51"
   id="path4" />
                </g>
            </g>
        </g>
    </g>
    <defs
   id="defs7">
        <linearGradient
   id="_Linear1"
   x1="0"
   y1="0"
   x2="1"
   y2="0"
   gradientUnits="userSpaceOnUse"
   gradientTransform="matrix(9.0999e-16,14.8613,-14.8613,9.0999e-16,9.5,239.139)"><stop
     offset="0"
     style="stop-color:rgb(75,75,75);stop-opacity:1"
     id="stop6" /><stop
     offset="1"
     style="stop-color:rgb(63,63,63);stop-opacity:1"
     id="stop7" /></linearGradient>
    </defs>
</svg>
