<?xml version="1.0" encoding="UTF-8" standalone="no"?>
<svg
   width="23px"
   height="23px"
   version="1.1"
   xml:space="preserve"
   style="fill-rule:evenodd;clip-rule:evenodd;stroke-linejoin:round;stroke-miterlimit:2;"
   id="svg40"
   sodipodi:docname="genre.svg"
   inkscape:version="1.4 (e7c3feb100, 2024-10-09)"
   xmlns:inkscape="http://www.inkscape.org/namespaces/inkscape"
   xmlns:sodipodi="http://sodipodi.sourceforge.net/DTD/sodipodi-0.dtd"
   xmlns="http://www.w3.org/2000/svg"
   xmlns:svg="http://www.w3.org/2000/svg"
   xmlns:serif="http://www.serif.com/"><sodipodi:namedview
   id="namedview40"
   pagecolor="#505050"
   bordercolor="#ffffff"
   borderopacity="1"
   inkscape:showpageshadow="0"
   inkscape:pageopacity="0"
   inkscape:pagecheckerboard="1"
   inkscape:deskcolor="#505050"
   inkscape:zoom="13"
   inkscape:cx="2.9230769"
   inkscape:cy="14.769231"
   inkscape:window-width="2560"
   inkscape:window-height="1403"
   inkscape:window-x="0"
   inkscape:window-y="0"
   inkscape:window-maximized="1"
   inkscape:current-layer="g5" />
    <g
   transform="matrix(1,0,0,1,-319,-66)"
   id="g10">
        <g
   transform="matrix(1.21053,0,0,1.21053,86.5789,11.5263)"
   id="g9">
            <rect
   id="genre"
   x="192"
   y="45"
   width="19"
   height="19"
   style="fill:none;" />
            <g
   id="genre1"
   serif:id="genre">
                <g
   transform="matrix(0.826087,0,0,0.826087,-45.087,45.8261)"
   id="g8">
                    <circle
   cx="298.5"
   cy="10.5"
   r="8.5"
   style="display:inline;fill:url(#_Linear1);stroke:#000000;stroke-opacity:1;stroke-width:0.79999752;stroke-dasharray:none"
   id="circle1" />
                    <clipPath
   id="_clip2">
                        <circle
   cx="298.5"
   cy="10.5"
   r="8.5"
   id="circle2" />
                    </clipPath>
                    <g
   clip-path="url(#_clip2)"
   id="g7">
                        <g
   transform="matrix(0.846385,0,0,0.846385,45.8542,1.61296)"
   id="g2">
                            <path
   d="M298.5,2C303.191,2 307,5.809 307,10.5C307,15.191 303.191,19 298.5,19C293.809,19 290,15.191 290,10.5C290,5.809 293.809,2 298.5,2ZM298.5,2.473C294.07,2.473 290.473,6.07 290.473,10.5C290.473,14.93 294.07,18.527 298.5,18.527C302.93,18.527 306.527,14.93 306.527,10.5C306.527,6.07 302.93,2.473 298.5,2.473Z"
   style="fill:url(#_Linear3);"
   id="path2" />
                        </g>
                        <g
   transform="matrix(0.706574,0,0,0.706574,87.5878,3.08098)"
   id="g3">
                            <path
   d="M298.5,2C303.191,2 307,5.809 307,10.5C307,15.191 303.191,19 298.5,19C293.809,19 290,15.191 290,10.5C290,5.809 293.809,2 298.5,2ZM298.5,2.566C294.121,2.566 290.566,6.121 290.566,10.5C290.566,14.879 294.121,18.434 298.5,18.434C302.879,18.434 306.434,14.879 306.434,10.5C306.434,6.121 302.879,2.566 298.5,2.566Z"
   style="fill:url(#_Linear4);"
   id="path3" />
                        </g>
                        <g
   transform="matrix(0.589857,0,0,0.589857,122.428,4.3065)"
   id="g4">
                            <path
   d="M298.5,2C303.191,2 307,5.809 307,10.5C307,15.191 303.191,19 298.5,19C293.809,19 290,15.191 290,10.5C290,5.809 293.809,2 298.5,2ZM298.5,2.678C294.183,2.678 290.678,6.183 290.678,10.5C290.678,14.817 294.183,18.322 298.5,18.322C302.817,18.322 306.322,14.817 306.322,10.5C306.322,6.183 302.817,2.678 298.5,2.678Z"
   style="fill:url(#_Linear5);"
   id="path4" />
                        </g>
                        <g
   transform="matrix(0.466667,0,0,0.466667,159.2,5.6)"
   id="g5"
   style="fill:#e96363;fill-opacity:1">
                            <circle
   cx="298.5"
   cy="10.5"
   r="7.5"
   style="fill:#e96363;fill-opacity:1;stroke:#000000;stroke-opacity:1;stroke-width:1.49999428;stroke-dasharray:none"
   id="circle4" />
                        </g>
                        <g
   transform="matrix(0.0666667,0,0,0.0666667,278.6,9.8)"
   id="g6"
   style="fill:#2e2e2e;fill-opacity:1">
                            <circle
   cx="298.5"
   cy="10.5"
   r="7.5"
   style="fill:#2e2e2e;fill-opacity:1"
   id="circle5" />
                        </g>
                    </g>
                    <path
   d="M298.5,2C303.191,2 307,5.809 307,10.5C307,15.191 303.191,19 298.5,19C293.809,19 290,15.191 290,10.5C290,5.809 293.809,2 298.5,2ZM298.5,2.55C294.112,2.55 290.55,6.112 290.55,10.5C290.55,14.888 294.112,18.45 298.5,18.45C302.888,18.45 306.45,14.888 306.45,10.5C306.45,6.112 302.888,2.55 298.5,2.55Z"
   style="fill:rgb(119, 119, 119);opacity:0"
   id="path7" />
                </g>
            </g>
        </g>
    </g>
    <defs
   id="defs40">
        <linearGradient
   id="_Linear1"
   x1="0"
   y1="0"
   x2="1"
   y2="0"
   gradientUnits="userSpaceOnUse"
   gradientTransform="matrix(8,16,-16,8,294,2)"><stop
     offset="0"
     style="stop-color:rgb(64,64,64);stop-opacity:1"
     id="stop10" /><stop
     offset="0.24"
     style="stop-color:rgb(26,26,26);stop-opacity:1"
     id="stop11" /><stop
     offset="0.49"
     style="stop-color:rgb(36,36,36);stop-opacity:1"
     id="stop12" /><stop
     offset="0.58"
     style="stop-color:rgb(57,57,57);stop-opacity:1"
     id="stop13" /><stop
     offset="0.66"
     style="stop-color:rgb(77,77,77);stop-opacity:1"
     id="stop14" /><stop
     offset="0.81"
     style="stop-color:rgb(67,67,67);stop-opacity:1"
     id="stop15" /><stop
     offset="1"
     style="stop-color:rgb(64,64,64);stop-opacity:1"
     id="stop16" /></linearGradient>
        <linearGradient
   id="_Linear3"
   x1="0"
   y1="0"
   x2="1"
   y2="0"
   gradientUnits="userSpaceOnUse"
   gradientTransform="matrix(15.6923,17,-17,15.6923,290,2)"><stop
     offset="0"
     style="stop-color:rgb(64,64,64);stop-opacity:1"
     id="stop17" /><stop
     offset="0.24"
     style="stop-color:rgb(26,26,26);stop-opacity:1"
     id="stop18" /><stop
     offset="0.49"
     style="stop-color:rgb(36,36,36);stop-opacity:1"
     id="stop19" /><stop
     offset="0.58"
     style="stop-color:rgb(57,57,57);stop-opacity:1"
     id="stop20" /><stop
     offset="0.66"
     style="stop-color:rgb(77,77,77);stop-opacity:1"
     id="stop21" /><stop
     offset="0.81"
     style="stop-color:rgb(67,67,67);stop-opacity:1"
     id="stop22" /><stop
     offset="1"
     style="stop-color:rgb(64,64,64);stop-opacity:1"
     id="stop23" /></linearGradient>
        <linearGradient
   id="_Linear4"
   x1="0"
   y1="0"
   x2="1"
   y2="0"
   gradientUnits="userSpaceOnUse"
   gradientTransform="matrix(15.6923,17,-17,15.6923,290,2)"><stop
     offset="0"
     style="stop-color:rgb(64,64,64);stop-opacity:1"
     id="stop24" /><stop
     offset="0.24"
     style="stop-color:rgb(26,26,26);stop-opacity:1"
     id="stop25" /><stop
     offset="0.49"
     style="stop-color:rgb(36,36,36);stop-opacity:1"
     id="stop26" /><stop
     offset="0.58"
     style="stop-color:rgb(57,57,57);stop-opacity:1"
     id="stop27" /><stop
     offset="0.66"
     style="stop-color:rgb(77,77,77);stop-opacity:1"
     id="stop28" /><stop
     offset="0.81"
     style="stop-color:rgb(67,67,67);stop-opacity:1"
     id="stop29" /><stop
     offset="1"
     style="stop-color:rgb(64,64,64);stop-opacity:1"
     id="stop30" /></linearGradient>
        <linearGradient
   id="_Linear5"
   x1="0"
   y1="0"
   x2="1"
   y2="0"
   gradientUnits="userSpaceOnUse"
   gradientTransform="matrix(15.6923,17,-17,15.6923,290,2)"><stop
     offset="0"
     style="stop-color:rgb(64,64,64);stop-opacity:1"
     id="stop31" /><stop
     offset="0.24"
     style="stop-color:rgb(26,26,26);stop-opacity:1"
     id="stop32" /><stop
     offset="0.49"
     style="stop-color:rgb(36,36,36);stop-opacity:1"
     id="stop33" /><stop
     offset="0.58"
     style="stop-color:rgb(57,57,57);stop-opacity:1"
     id="stop34" /><stop
     offset="0.66"
     style="stop-color:rgb(77,77,77);stop-opacity:1"
     id="stop35" /><stop
     offset="0.81"
     style="stop-color:rgb(67,67,67);stop-opacity:1"
     id="stop36" /><stop
     offset="1"
     style="stop-color:rgb(64,64,64);stop-opacity:1"
     id="stop37" /></linearGradient>
        <linearGradient
   id="_Linear6"
   x1="0"
   y1="0"
   x2="1"
   y2="0"
   gradientUnits="userSpaceOnUse"
   gradientTransform="matrix(2.14286,10.7143,-10.7143,2.14286,297.429,5.14286)"><stop
     offset="0"
     style="stop-color:rgb(205,80,64);stop-opacity:1"
     id="stop38" /><stop
     offset="0.5"
     style="stop-color:rgb(218,115,103);stop-opacity:1"
     id="stop39" /><stop
     offset="1"
     style="stop-color:rgb(198,69,53);stop-opacity:1"
     id="stop40" /></linearGradient>
    </defs>
</svg>
