<?xml version="1.0" encoding="UTF-8" standalone="no"?>
<svg
   width="23px"
   height="23px"
   version="1.1"
   xml:space="preserve"
   style="fill-rule:evenodd;clip-rule:evenodd;stroke-linejoin:round;stroke-miterlimit:2;"
   id="svg23"
   sodipodi:docname="named_filters.svg"
   inkscape:version="1.4 (e7c3feb100, 2024-10-09)"
   xmlns:inkscape="http://www.inkscape.org/namespaces/inkscape"
   xmlns:sodipodi="http://sodipodi.sourceforge.net/DTD/sodipodi-0.dtd"
   xmlns="http://www.w3.org/2000/svg"
   xmlns:svg="http://www.w3.org/2000/svg"
   xmlns:serif="http://www.serif.com/"><defs
   id="defs23" /><sodipodi:namedview
   id="namedview23"
   pagecolor="#505050"
   bordercolor="#ffffff"
   borderopacity="1"
   inkscape:showpageshadow="0"
   inkscape:pageopacity="0"
   inkscape:pagecheckerboard="1"
   inkscape:deskcolor="#505050"
   inkscape:zoom="26"
   inkscape:cx="3.6153846"
   inkscape:cy="12.192308"
   inkscape:window-width="2560"
   inkscape:window-height="1403"
   inkscape:window-x="0"
   inkscape:window-y="0"
   inkscape:window-maximized="1"
   inkscape:current-layer="g21" />
    <g
   transform="matrix(1,0,0,1,-191,-66)"
   id="g23">
        <g
   transform="matrix(1.21053,0,0,1.21053,-2.68421,50.2632)"
   id="g22">
            <rect
   id="named_filters"
   x="160"
   y="13"
   width="19"
   height="19"
   style="fill:none;" />
            <g
   id="named_filters1"
   serif:id="named_filters">
                <g
   transform="matrix(0.936232,0,0,0.936232,130.646,-28.5246)"
   id="g21">
                    <path
   d="M49,48.765C49,47.791 48.209,47 47.235,47L35.765,47C34.791,47 34,47.791 34,48.765L34,60.235C34,61.209 34.791,62 35.765,62L47.235,62C48.209,62 49,61.209 49,60.235L49,48.765Z"
   id="path1" />
                    <clipPath
   id="_clip1">
                        <path
   d="M49,48.765C49,47.791 48.209,47 47.235,47L35.765,47C34.791,47 34,47.791 34,48.765L34,60.235C34,61.209 34.791,62 35.765,62L47.235,62C48.209,62 49,61.209 49,60.235L49,48.765Z"
   id="path2" />
                    </clipPath>
                    <g
   clip-path="url(#_clip1)"
   id="g20">
                        <g
   transform="matrix(1.06811,0,0,1.06811,-139.545,30.4675)"
   id="g19">
                            <g
   transform="matrix(0.0947955,0,0,0.109394,159.924,-133.356)"
   id="g3">
                                <path
   d="M65.979,1380.85C65.979,1379.65 65.433,1378.51 64.46,1377.67C63.487,1376.82 62.167,1376.35 60.791,1376.35C57.396,1376.35 52.976,1376.35 49.58,1376.35C48.204,1376.35 46.885,1376.82 45.912,1377.67C44.939,1378.51 44.392,1379.65 44.392,1380.85C44.392,1383.8 44.392,1387.64 44.392,1390.59C44.392,1391.78 44.939,1392.93 45.912,1393.77C46.885,1394.61 48.204,1395.09 49.58,1395.09C52.976,1395.09 57.396,1395.09 60.791,1395.09C62.167,1395.09 63.487,1394.61 64.46,1393.77C65.433,1392.93 65.979,1391.78 65.979,1390.59C65.979,1387.64 65.979,1383.8 65.979,1380.85Z"
   style="fill:white;"
   id="path3" />
                            </g>
                            <g
   transform="matrix(0.0947955,0,0,0.109394,159.924,-127.615)"
   id="g4">
                                <path
   d="M65.979,1380.85C65.979,1379.65 65.433,1378.51 64.46,1377.67C63.487,1376.82 62.167,1376.35 60.791,1376.35C57.396,1376.35 52.976,1376.35 49.58,1376.35C48.204,1376.35 46.885,1376.82 45.912,1377.67C44.939,1378.51 44.392,1379.65 44.392,1380.85C44.392,1383.8 44.392,1387.64 44.392,1390.59C44.392,1391.78 44.939,1392.93 45.912,1393.77C46.885,1394.61 48.204,1395.09 49.58,1395.09C52.976,1395.09 57.396,1395.09 60.791,1395.09C62.167,1395.09 63.487,1394.61 64.46,1393.77C65.433,1392.93 65.979,1391.78 65.979,1390.59C65.979,1387.64 65.979,1383.8 65.979,1380.85Z"
   style="fill:white;"
   id="path4" />
                            </g>
                            <g
   transform="matrix(0.0947955,0,0,0.109394,165.743,-133.434)"
   id="g5">
                                <path
   d="M65.979,1380.85C65.979,1379.65 65.433,1378.51 64.46,1377.67C63.487,1376.82 62.167,1376.35 60.791,1376.35C57.396,1376.35 52.976,1376.35 49.58,1376.35C48.204,1376.35 46.885,1376.82 45.912,1377.67C44.939,1378.51 44.392,1379.65 44.392,1380.85C44.392,1383.8 44.392,1387.64 44.392,1390.59C44.392,1391.78 44.939,1392.93 45.912,1393.77C46.885,1394.61 48.204,1395.09 49.58,1395.09C52.976,1395.09 57.396,1395.09 60.791,1395.09C62.167,1395.09 63.487,1394.61 64.46,1393.77C65.433,1392.93 65.979,1391.78 65.979,1390.59C65.979,1387.64 65.979,1383.8 65.979,1380.85Z"
   style="fill:white;"
   id="path5" />
                            </g>
                            <g
   transform="matrix(0.0947955,0,0,0.109394,168.613,-130.564)"
   id="g6">
                                <path
   d="M65.979,1380.85C65.979,1379.65 65.433,1378.51 64.46,1377.67C63.487,1376.82 62.167,1376.35 60.791,1376.35C57.396,1376.35 52.976,1376.35 49.58,1376.35C48.204,1376.35 46.885,1376.82 45.912,1377.67C44.939,1378.51 44.392,1379.65 44.392,1380.85C44.392,1383.8 44.392,1387.64 44.392,1390.59C44.392,1391.78 44.939,1392.93 45.912,1393.77C46.885,1394.61 48.204,1395.09 49.58,1395.09C52.976,1395.09 57.396,1395.09 60.791,1395.09C62.167,1395.09 63.487,1394.61 64.46,1393.77C65.433,1392.93 65.979,1391.78 65.979,1390.59C65.979,1387.64 65.979,1383.8 65.979,1380.85Z"
   style="fill:white;"
   id="path6" />
                            </g>
                            <g
   transform="matrix(0.0947955,0,0,0.109394,162.878,-133.356)"
   id="g7">
                                <path
   d="M65.979,1380.85C65.979,1379.65 65.433,1378.51 64.46,1377.67C63.487,1376.82 62.167,1376.35 60.791,1376.35C57.396,1376.35 52.976,1376.35 49.58,1376.35C48.204,1376.35 46.885,1376.82 45.912,1377.67C44.939,1378.51 44.392,1379.65 44.392,1380.85C44.392,1383.8 44.392,1387.64 44.392,1390.59C44.392,1391.78 44.939,1392.93 45.912,1393.77C46.885,1394.61 48.204,1395.09 49.58,1395.09C52.976,1395.09 57.396,1395.09 60.791,1395.09C62.167,1395.09 63.487,1394.61 64.46,1393.77C65.433,1392.93 65.979,1391.78 65.979,1390.59C65.979,1387.64 65.979,1383.8 65.979,1380.85Z"
   style="fill:white;fill-opacity:0.4;"
   id="path7" />
                            </g>
                            <g
   transform="matrix(0.0947955,0,0,0.109394,162.878,-130.486)"
   id="g8">
                                <path
   d="M65.979,1380.85C65.979,1379.65 65.433,1378.51 64.46,1377.67C63.487,1376.82 62.167,1376.35 60.791,1376.35C57.396,1376.35 52.976,1376.35 49.58,1376.35C48.204,1376.35 46.885,1376.82 45.912,1377.67C44.939,1378.51 44.392,1379.65 44.392,1380.85C44.392,1383.8 44.392,1387.64 44.392,1390.59C44.392,1391.78 44.939,1392.93 45.912,1393.77C46.885,1394.61 48.204,1395.09 49.58,1395.09C52.976,1395.09 57.396,1395.09 60.791,1395.09C62.167,1395.09 63.487,1394.61 64.46,1393.77C65.433,1392.93 65.979,1391.78 65.979,1390.59C65.979,1387.64 65.979,1383.8 65.979,1380.85Z"
   style="fill:white;fill-opacity:0.4;"
   id="path8" />
                            </g>
                            <g
   transform="matrix(0.0947955,0,0,0.109394,162.878,-124.745)"
   id="g9">
                                <path
   d="M65.979,1380.85C65.979,1379.65 65.433,1378.51 64.46,1377.67C63.487,1376.82 62.167,1376.35 60.791,1376.35C57.396,1376.35 52.976,1376.35 49.58,1376.35C48.204,1376.35 46.885,1376.82 45.912,1377.67C44.939,1378.51 44.392,1379.65 44.392,1380.85C44.392,1383.8 44.392,1387.64 44.392,1390.59C44.392,1391.78 44.939,1392.93 45.912,1393.77C46.885,1394.61 48.204,1395.09 49.58,1395.09C52.976,1395.09 57.396,1395.09 60.791,1395.09C62.167,1395.09 63.487,1394.61 64.46,1393.77C65.433,1392.93 65.979,1391.78 65.979,1390.59C65.979,1387.64 65.979,1383.8 65.979,1380.85Z"
   style="fill:white;fill-opacity:0.5;"
   id="path9" />
                            </g>
                            <g
   transform="matrix(0.0947955,0,0,0.109394,162.878,-127.615)"
   id="g10">
                                <path
   d="M65.979,1380.85C65.979,1379.65 65.433,1378.51 64.46,1377.67C63.487,1376.82 62.167,1376.35 60.791,1376.35C57.396,1376.35 52.976,1376.35 49.58,1376.35C48.204,1376.35 46.885,1376.82 45.912,1377.67C44.939,1378.51 44.392,1379.65 44.392,1380.85C44.392,1383.8 44.392,1387.64 44.392,1390.59C44.392,1391.78 44.939,1392.93 45.912,1393.77C46.885,1394.61 48.204,1395.09 49.58,1395.09C52.976,1395.09 57.396,1395.09 60.791,1395.09C62.167,1395.09 63.487,1394.61 64.46,1393.77C65.433,1392.93 65.979,1391.78 65.979,1390.59C65.979,1387.64 65.979,1383.8 65.979,1380.85Z"
   style="fill:white;fill-opacity:0.6;"
   id="path10" />
                            </g>
                            <g
   transform="matrix(0.0947955,0,0,0.109394,165.682,-124.745)"
   id="g11">
                                <path
   d="M65.979,1380.85C65.979,1379.65 65.433,1378.51 64.46,1377.67C63.487,1376.82 62.167,1376.35 60.791,1376.35C57.396,1376.35 52.976,1376.35 49.58,1376.35C48.204,1376.35 46.885,1376.82 45.912,1377.67C44.939,1378.51 44.392,1379.65 44.392,1380.85C44.392,1383.8 44.392,1387.64 44.392,1390.59C44.392,1391.78 44.939,1392.93 45.912,1393.77C46.885,1394.61 48.204,1395.09 49.58,1395.09C52.976,1395.09 57.396,1395.09 60.791,1395.09C62.167,1395.09 63.487,1394.61 64.46,1393.77C65.433,1392.93 65.979,1391.78 65.979,1390.59C65.979,1387.64 65.979,1383.8 65.979,1380.85Z"
   style="fill:white;fill-opacity:0.4;"
   id="path11" />
                            </g>
                            <g
   transform="matrix(0.0947955,0,0,0.109394,160.012,-124.745)"
   id="g12">
                                <path
   d="M65.979,1380.85C65.979,1379.65 65.433,1378.51 64.46,1377.67C63.487,1376.82 62.167,1376.35 60.791,1376.35C57.396,1376.35 52.976,1376.35 49.58,1376.35C48.204,1376.35 46.885,1376.82 45.912,1377.67C44.939,1378.51 44.392,1379.65 44.392,1380.85C44.392,1383.8 44.392,1387.64 44.392,1390.59C44.392,1391.78 44.939,1392.93 45.912,1393.77C46.885,1394.61 48.204,1395.09 49.58,1395.09C52.976,1395.09 57.396,1395.09 60.791,1395.09C62.167,1395.09 63.487,1394.61 64.46,1393.77C65.433,1392.93 65.979,1391.78 65.979,1390.59C65.979,1387.64 65.979,1383.8 65.979,1380.85Z"
   style="fill:white;fill-opacity:0.4;"
   id="path12" />
                            </g>
                            <g
   transform="matrix(0.0947955,0,0,0.109394,160.012,-130.486)"
   id="g13">
                                <path
   d="M65.979,1380.85C65.979,1379.65 65.433,1378.51 64.46,1377.67C63.487,1376.82 62.167,1376.35 60.791,1376.35C57.396,1376.35 52.976,1376.35 49.58,1376.35C48.204,1376.35 46.885,1376.82 45.912,1377.67C44.939,1378.51 44.392,1379.65 44.392,1380.85C44.392,1383.8 44.392,1387.64 44.392,1390.59C44.392,1391.78 44.939,1392.93 45.912,1393.77C46.885,1394.61 48.204,1395.09 49.58,1395.09C52.976,1395.09 57.396,1395.09 60.791,1395.09C62.167,1395.09 63.487,1394.61 64.46,1393.77C65.433,1392.93 65.979,1391.78 65.979,1390.59C65.979,1387.64 65.979,1383.8 65.979,1380.85Z"
   style="fill:white;fill-opacity:0.4;"
   id="path13" />
                            </g>
                            <g
   transform="matrix(0.0947955,0,0,0.109394,165.743,-130.486)"
   id="g14">
                                <path
   d="M65.979,1380.85C65.979,1379.65 65.433,1378.51 64.46,1377.67C63.487,1376.82 62.167,1376.35 60.791,1376.35C57.396,1376.35 52.976,1376.35 49.58,1376.35C48.204,1376.35 46.885,1376.82 45.912,1377.67C44.939,1378.51 44.392,1379.65 44.392,1380.85C44.392,1383.8 44.392,1387.64 44.392,1390.59C44.392,1391.78 44.939,1392.93 45.912,1393.77C46.885,1394.61 48.204,1395.09 49.58,1395.09C52.976,1395.09 57.396,1395.09 60.791,1395.09C62.167,1395.09 63.487,1394.61 64.46,1393.77C65.433,1392.93 65.979,1391.78 65.979,1390.59C65.979,1387.64 65.979,1383.8 65.979,1380.85Z"
   style="fill:white;fill-opacity:0.78;"
   id="path14" />
                            </g>
                            <g
   transform="matrix(0.0947955,0,0,0.109394,168.609,-133.351)"
   id="g15">
                                <path
   d="M65.979,1380.85C65.979,1379.65 65.433,1378.51 64.46,1377.67C63.487,1376.82 62.167,1376.35 60.791,1376.35C57.396,1376.35 52.976,1376.35 49.58,1376.35C48.204,1376.35 46.885,1376.82 45.912,1377.67C44.939,1378.51 44.392,1379.65 44.392,1380.85C44.392,1383.8 44.392,1387.64 44.392,1390.59C44.392,1391.78 44.939,1392.93 45.912,1393.77C46.885,1394.61 48.204,1395.09 49.58,1395.09C52.976,1395.09 57.396,1395.09 60.791,1395.09C62.167,1395.09 63.487,1394.61 64.46,1393.77C65.433,1392.93 65.979,1391.78 65.979,1390.59C65.979,1387.64 65.979,1383.8 65.979,1380.85Z"
   style="fill:white;fill-opacity:0.2;"
   id="path15" />
                            </g>
                            <g
   transform="matrix(0.0947955,0,0,0.109394,165.743,-127.615)"
   id="g16">
                                <path
   d="M65.979,1380.85C65.979,1379.65 65.433,1378.51 64.46,1377.67C63.487,1376.82 62.167,1376.35 60.791,1376.35C57.396,1376.35 52.976,1376.35 49.58,1376.35C48.204,1376.35 46.885,1376.82 45.912,1377.67C44.939,1378.51 44.392,1379.65 44.392,1380.85C44.392,1383.8 44.392,1387.64 44.392,1390.59C44.392,1391.78 44.939,1392.93 45.912,1393.77C46.885,1394.61 48.204,1395.09 49.58,1395.09C52.976,1395.09 57.396,1395.09 60.791,1395.09C62.167,1395.09 63.487,1394.61 64.46,1393.77C65.433,1392.93 65.979,1391.78 65.979,1390.59C65.979,1387.64 65.979,1383.8 65.979,1380.85Z"
   style="fill:white;fill-opacity:0.3;"
   id="path16" />
                            </g>
                            <g
   transform="matrix(0.0947955,0,0,0.109394,168.609,-127.615)"
   id="g17">
                                <path
   d="M65.979,1380.85C65.979,1379.65 65.433,1378.51 64.46,1377.67C63.487,1376.82 62.167,1376.35 60.791,1376.35C57.396,1376.35 52.976,1376.35 49.58,1376.35C48.204,1376.35 46.885,1376.82 45.912,1377.67C44.939,1378.51 44.392,1379.65 44.392,1380.85C44.392,1383.8 44.392,1387.64 44.392,1390.59C44.392,1391.78 44.939,1392.93 45.912,1393.77C46.885,1394.61 48.204,1395.09 49.58,1395.09C52.976,1395.09 57.396,1395.09 60.791,1395.09C62.167,1395.09 63.487,1394.61 64.46,1393.77C65.433,1392.93 65.979,1391.78 65.979,1390.59C65.979,1387.64 65.979,1383.8 65.979,1380.85Z"
   style="fill:white;"
   id="path17" />
                            </g>
                            <g
   transform="matrix(0.0947955,0,0,0.109394,168.609,-124.745)"
   id="g18">
                                <path
   d="M65.979,1380.85C65.979,1379.65 65.433,1378.51 64.46,1377.67C63.487,1376.82 62.167,1376.35 60.791,1376.35C57.396,1376.35 52.976,1376.35 49.58,1376.35C48.204,1376.35 46.885,1376.82 45.912,1377.67C44.939,1378.51 44.392,1379.65 44.392,1380.85C44.392,1383.8 44.392,1387.64 44.392,1390.59C44.392,1391.78 44.939,1392.93 45.912,1393.77C46.885,1394.61 48.204,1395.09 49.58,1395.09C52.976,1395.09 57.396,1395.09 60.791,1395.09C62.167,1395.09 63.487,1394.61 64.46,1393.77C65.433,1392.93 65.979,1391.78 65.979,1390.59C65.979,1387.64 65.979,1383.8 65.979,1380.85Z"
   style="fill:white;fill-opacity:0.7;"
   id="path18" />
                            </g>
                        </g>
                    </g>
                    <path
   d="M49,48.765L49,60.235C49,61.209 48.209,62 47.235,62L35.765,62C34.791,62 34,61.209 34,60.235L34,48.765C34,47.791 34.791,47 35.765,47L47.235,47C48.209,47 49,47.791 49,48.765ZM48.118,48.765C48.118,48.278 47.722,47.882 47.235,47.882L35.765,47.882C35.278,47.882 34.882,48.278 34.882,48.765L34.882,60.235C34.882,60.722 35.278,61.118 35.765,61.118L47.235,61.118C47.722,61.118 48.118,60.722 48.118,60.235L48.118,48.765Z"
   style="fill:#ffffff;fill-opacity:1"
   id="path20" />
                </g>
            </g>
        </g>
    </g>
</svg>
