<?xml version="1.0" encoding="UTF-8" standalone="no"?>
<svg
   width="23px"
   height="23px"
   version="1.1"
   xml:space="preserve"
   style="fill-rule:evenodd;clip-rule:evenodd;stroke-linejoin:round;stroke-miterlimit:2;"
   id="svg7"
   sodipodi:docname="overlay_device.svg"
   inkscape:version="1.4 (e7c3feb100, 2024-10-09)"
   xmlns:inkscape="http://www.inkscape.org/namespaces/inkscape"
   xmlns:sodipodi="http://sodipodi.sourceforge.net/DTD/sodipodi-0.dtd"
   xmlns="http://www.w3.org/2000/svg"
   xmlns:svg="http://www.w3.org/2000/svg"
   xmlns:serif="http://www.serif.com/"><sodipodi:namedview
   id="namedview7"
   pagecolor="#505050"
   bordercolor="#ffffff"
   borderopacity="1"
   inkscape:showpageshadow="0"
   inkscape:pageopacity="0"
   inkscape:pagecheckerboard="1"
   inkscape:deskcolor="#505050"
   inkscape:zoom="52"
   inkscape:cx="11.5"
   inkscape:cy="11.5"
   inkscape:window-width="2560"
   inkscape:window-height="1403"
   inkscape:window-x="0"
   inkscape:window-y="0"
   inkscape:window-maximized="1"
   inkscape:current-layer="g4" />
    <g
   transform="matrix(1,0,0,1,-255,-226)"
   id="g6">
        <g
   transform="matrix(1.21053,0,0,1.21053,138.789,16.5789)"
   id="g5">
            <rect
   id="overlay_device"
   x="96"
   y="173"
   width="19"
   height="19"
   style="fill:none;" />
            <g
   id="overlay_device1"
   serif:id="overlay_device">
                <g
   transform="matrix(0.826087,0,0,0.826087,25.7826,-2.95652)"
   id="g4">
                    <circle
   cx="102"
   cy="230"
   r="4"
   style="fill:#ffffff;fill-opacity:1"
   id="circle1" />
                    <clipPath
   id="_clip2">
                        <circle
   cx="102"
   cy="230"
   r="4"
   id="circle2" />
                    </clipPath>
                    <g
   clip-path="url(#_clip2)"
   id="g3">
                        <g
   transform="matrix(1,0,0,1,-107,20)"
   id="g2">
                            <path
   d="M209.138,208C210.166,208 211,208.834 211,209.862L211,210.138C211,211.166 210.166,212 209.138,212L207.228,212C207.168,212 207.11,211.976 207.067,211.933C207.024,211.89 207,211.832 207,211.772C207,211.067 207,208.933 207,208.228C207,208.168 207.024,208.11 207.067,208.067C207.11,208.024 207.168,208 207.228,208C207.603,208 208.384,208 209.138,208ZM208.135,209C208.06,209 208,209.06 208,209.135C208,209.499 208,210.501 208,210.865C208,210.94 208.06,211 208.135,211C208.339,211 208.744,211 209.125,211C209.357,211 209.58,210.908 209.744,210.744C209.908,210.58 210,210.357 210,210.125C210,210.042 210,209.958 210,209.875C210,209.643 209.908,209.42 209.744,209.256C209.58,209.092 209.357,209 209.125,209C208.744,209 208.339,209 208.135,209Z"
   id="path2" />
                        </g>
                    </g>
                    <path
   d="M102,225.5C104.484,225.5 106.5,227.516 106.5,230C106.5,232.484 104.484,234.5 102,234.5C99.516,234.5 97.5,232.484 97.5,230C97.5,227.516 99.516,225.5 102,225.5ZM102,226C99.792,226 98,227.792 98,230C98,232.208 99.792,234 102,234C104.208,234 106,232.208 106,230C106,227.792 104.208,226 102,226Z"
   id="path3" />
                </g>
            </g>
        </g>
    </g>
    <defs
   id="defs7">
        <linearGradient
   id="_Linear1"
   x1="0"
   y1="0"
   x2="1"
   y2="0"
   gradientUnits="userSpaceOnUse"
   gradientTransform="matrix(3.2147e-16,8,-4.59375,4.28626e-16,101.5,226)"><stop
     offset="0"
     style="stop-color:rgb(229,229,229);stop-opacity:1"
     id="stop6" /><stop
     offset="1"
     style="stop-color:rgb(179,179,179);stop-opacity:1"
     id="stop7" /></linearGradient>
    </defs>
</svg>
