<?xml version="1.0" encoding="UTF-8" standalone="no"?><!DOCTYPE svg PUBLIC "-//W3C//DTD SVG 1.1//EN" "http://www.w3.org/Graphics/SVG/1.1/DTD/svg11.dtd"><svg width="19px" height="19px" version="1.1" xmlns="http://www.w3.org/2000/svg" xmlns:xlink="http://www.w3.org/1999/xlink" xml:space="preserve" xmlns:serif="http://www.serif.com/" style="fill-rule:evenodd;clip-rule:evenodd;stroke-linejoin:round;stroke-miterlimit:2;"><path id="polygon3161" d="M5.979,7.5l-2,0l0,4l2,0l4,3l0,-10l-4,3Z" style="fill-rule:nonzero;"/><path id="path3813" d="M13.948,5.031l-0.687,0.688c0.966,0.966 1.562,2.302 1.562,3.781c0,1.479 -0.596,2.815 -1.562,3.781l0.687,0.688c1.149,-1.149 1.875,-2.72 1.875,-4.469c0,-1.749 -0.726,-3.32 -1.875,-4.469Z" style="fill-opacity:0.4;fill-rule:nonzero;"/><path id="path38131" serif:id="path3813" d="M12.604,6.375l-0.687,0.688c0.622,0.621 1,1.487 1,2.437c0,0.95 -0.378,1.816 -1,2.438l0.687,0.687c0.797,-0.797 1.282,-1.905 1.282,-3.125c0,-1.22 -0.485,-2.328 -1.282,-3.125Z" style="fill-rule:nonzero;"/><path id="path38132" serif:id="path3813" d="M11.198,7.781l-0.687,0.688c0.258,0.259 0.406,0.629 0.406,1.031c0,0.402 -0.148,0.772 -0.406,1.031l0.687,0.688c0.441,-0.442 0.719,-1.047 0.719,-1.719c0,-0.672 -0.278,-1.277 -0.719,-1.719Z" style="fill-rule:nonzero;"/></svg>