<?xml version="1.0" encoding="UTF-8" standalone="no"?><!DOCTYPE svg PUBLIC "-//W3C//DTD SVG 1.1//EN" "http://www.w3.org/Graphics/SVG/1.1/DTD/svg11.dtd"><svg width="19px" height="19px" version="1.1" xmlns="http://www.w3.org/2000/svg" xmlns:xlink="http://www.w3.org/1999/xlink" xml:space="preserve" xmlns:serif="http://www.serif.com/" style="fill-rule:evenodd;clip-rule:evenodd;stroke-linejoin:round;stroke-miterlimit:2;"><path d="M0.966,6.99l5.585,0c0.47,0 0.744,0.319 0.744,0.698l0,4.322l-1.559,0l0,-3.756l-0.91,0l0,3.756l-1.415,0l0,-3.756l-0.887,0l0,3.756l-1.558,0l0,-5.02Z" style="fill-rule:nonzero;"/><rect x="8.062" y="6.99" width="1.558" height="5.02"/><path d="M10.363,6.99l4.627,0c0.469,0 0.743,0.319 0.743,0.698l0,3.699c0,0.47 -0.25,0.623 -0.791,0.623l-4.579,0l0,-3.189l1.582,0l0,1.962l2.229,0l0,-2.661l-3.811,0l0,-1.132Z" style="fill-rule:nonzero;"/><rect x="16.452" y="6.99" width="1.582" height="5.02"/></svg>