<?xml version="1.0" encoding="UTF-8" standalone="no"?>
<!-- Generator: Adobe Illustrator 15.0.0, SVG Export Plug-In . SVG Version: 6.00 Build 0)  -->

<svg
   xmlns:dc="http://purl.org/dc/elements/1.1/"
   xmlns:cc="http://creativecommons.org/ns#"
   xmlns:rdf="http://www.w3.org/1999/02/22-rdf-syntax-ns#"
   xmlns:svg="http://www.w3.org/2000/svg"
   xmlns="http://www.w3.org/2000/svg"
   xmlns:sodipodi="http://sodipodi.sourceforge.net/DTD/sodipodi-0.dtd"
   xmlns:inkscape="http://www.inkscape.org/namespaces/inkscape"
   version="1.1"
   id="Layer_1"
   x="0px"
   y="0px"
   width="19"
   height="19"
   viewBox="24 4 19 19"
   enable-background="new 24 4 13 11"
   xml:space="preserve"
   inkscape:version="0.91 r13725"
   sodipodi:docname="onsets.svg"><metadata
     id="metadata3115"><rdf:RDF><cc:Work
         rdf:about=""><dc:format>image/svg+xml</dc:format><dc:type
           rdf:resource="http://purl.org/dc/dcmitype/StillImage" /><dc:title></dc:title></cc:Work></rdf:RDF></metadata><defs
     id="defs3113" /><sodipodi:namedview
     pagecolor="#ffffff"
     bordercolor="#666666"
     borderopacity="1"
     objecttolerance="10"
     gridtolerance="10"
     guidetolerance="10"
     inkscape:pageopacity="0"
     inkscape:pageshadow="2"
     inkscape:window-width="1440"
     inkscape:window-height="855"
     id="namedview3111"
     showgrid="true"
     inkscape:zoom="34.368421"
     inkscape:cx="9.5"
     inkscape:cy="9.5"
     inkscape:window-x="49"
     inkscape:window-y="109"
     inkscape:window-maximized="0"
     inkscape:current-layer="Layer_1"><inkscape:grid
       type="xygrid"
       id="grid3117"
       empspacing="5"
       visible="true"
       enabled="true"
       snapvisiblegridlinesonly="true" /></sodipodi:namedview><path
     style="color:#000000;font-style:normal;font-variant:normal;font-weight:normal;font-stretch:normal;font-size:medium;line-height:normal;font-family:sans-serif;text-indent:0;text-align:start;text-decoration:none;text-decoration-line:none;text-decoration-style:solid;text-decoration-color:#000000;letter-spacing:normal;word-spacing:normal;text-transform:none;direction:ltr;block-progression:tb;writing-mode:lr-tb;baseline-shift:baseline;text-anchor:start;white-space:normal;clip-rule:nonzero;display:inline;overflow:visible;visibility:visible;opacity:1;isolation:auto;mix-blend-mode:normal;color-interpolation:sRGB;color-interpolation-filters:linearRGB;solid-color:#000000;solid-opacity:1;fill:#000000;fill-opacity:1;fill-rule:nonzero;stroke:none;stroke-width:0.99999994;stroke-linecap:butt;stroke-linejoin:round;stroke-miterlimit:4;stroke-dasharray:none;stroke-dashoffset:0;stroke-opacity:1;color-rendering:auto;image-rendering:auto;shape-rendering:auto;text-rendering:auto;enable-background:accumulate"
     d="m 28.611154,8.9999876 a 0.61117533,0.5556091 0 0 0 -0.611114,0.555554 l 0,1.1111074 0,7.777749 a 0.61117533,0.5556091 0 0 0 0.0024,0.05642 0.61117533,0.5556091 0 0 0 0.02387,0.108505 0.61117533,0.5556091 0 0 0 0.02149,0.05208 0.61117533,0.5556091 0 0 0 0.05968,0.09766 0.61117533,0.5556091 0 0 0 0.03581,0.04339 0.61117533,0.5556091 0 0 0 0.04297,0.04124 0.61117533,0.5556091 0 0 0 0.09549,0.06728 0.61117533,0.5556091 0 0 0 0.05252,0.02821 0.61117533,0.5556091 0 0 0 0.174264,0.05209 0.61117533,0.5556091 0 0 0 0.05968,0.0066 0.61117533,0.5556091 0 0 0 0.04289,0.0022 l 9.777828,0 a 0.61117533,0.5556091 0 0 0 0.121746,-0.01087 0.61117533,0.5556091 0 0 0 0.116968,-0.03255 0.61117533,0.5556091 0 0 0 0.0549,-0.02388 0.61117533,0.5556091 0 0 0 0.05252,-0.03038 0.61117533,0.5556091 0 0 0 0.04775,-0.03256 0.61117533,0.5556091 0 0 0 0.15039,-0.17361 0.61117533,0.5556091 0 0 0 0.02625,-0.04991 0.61117533,0.5556091 0 0 0 0.03104,-0.108517 0.61117533,0.5556091 0 0 0 0.0072,-0.05425 0.61117533,0.5556091 0 0 0 0.0023,-0.03904 l 0,-7.777749 0,-1.1111069 A 0.61117533,0.5556091 0 0 0 38.388882,9.000014 l -9.777828,0 z m 0.611114,2.2222144 8.555601,0 0,6.666643 -8.555601,0 0,-6.666643 z"
     id="rect4137"
     inkscape:connector-curvature="0" /><rect
     style="opacity:1;fill:#000000;fill-opacity:1;stroke:none;stroke-width:0.5;stroke-linecap:butt;stroke-linejoin:round;stroke-miterlimit:4;stroke-dasharray:none;stroke-dashoffset:0;stroke-opacity:1"
     id="rect4144"
     width="1"
     height="2.5"
     x="30"
     y="8" /><rect
     y="8"
     x="36"
     height="2.5"
     width="1"
     id="rect4146"
     style="opacity:1;fill:#000000;fill-opacity:1;stroke:none;stroke-width:0.5;stroke-linecap:butt;stroke-linejoin:round;stroke-miterlimit:4;stroke-dasharray:none;stroke-dashoffset:0;stroke-opacity:1" /><rect
     style="opacity:1;fill:#000000;fill-opacity:1;stroke:none;stroke-width:0.5;stroke-linecap:butt;stroke-linejoin:round;stroke-miterlimit:4;stroke-dasharray:none;stroke-dashoffset:0;stroke-opacity:1"
     id="rect4178"
     width="1"
     height="1"
     x="31"
     y="13" /><rect
     y="13"
     x="33"
     height="1"
     width="1"
     id="rect4180"
     style="opacity:1;fill:#000000;fill-opacity:1;stroke:none;stroke-width:0.5;stroke-linecap:butt;stroke-linejoin:round;stroke-miterlimit:4;stroke-dasharray:none;stroke-dashoffset:0;stroke-opacity:1" /><rect
     style="opacity:1;fill:#000000;fill-opacity:1;stroke:none;stroke-width:0.5;stroke-linecap:butt;stroke-linejoin:round;stroke-miterlimit:4;stroke-dasharray:none;stroke-dashoffset:0;stroke-opacity:1"
     id="rect4182"
     width="1"
     height="1"
     x="35"
     y="13" /><rect
     style="opacity:1;fill:#000000;fill-opacity:1;stroke:none;stroke-width:0.5;stroke-linecap:butt;stroke-linejoin:round;stroke-miterlimit:4;stroke-dasharray:none;stroke-dashoffset:0;stroke-opacity:1"
     id="rect4186"
     width="1"
     height="1"
     x="33"
     y="15" /><rect
     y="15"
     x="31"
     height="1"
     width="1"
     id="rect4188"
     style="opacity:1;fill:#000000;fill-opacity:1;stroke:none;stroke-width:0.5;stroke-linecap:butt;stroke-linejoin:round;stroke-miterlimit:4;stroke-dasharray:none;stroke-dashoffset:0;stroke-opacity:1" /></svg>