<?xml version="1.0" encoding="UTF-8" standalone="no"?>
<!-- Generator: Adobe Illustrator 15.0.0, SVG Export Plug-In . SVG Version: 6.00 Build 0)  -->

<svg
   xmlns:dc="http://purl.org/dc/elements/1.1/"
   xmlns:cc="http://creativecommons.org/ns#"
   xmlns:rdf="http://www.w3.org/1999/02/22-rdf-syntax-ns#"
   xmlns:svg="http://www.w3.org/2000/svg"
   xmlns="http://www.w3.org/2000/svg"
   xmlns:sodipodi="http://sodipodi.sourceforge.net/DTD/sodipodi-0.dtd"
   xmlns:inkscape="http://www.inkscape.org/namespaces/inkscape"
   version="1.1"
   id="Layer_1"
   x="0px"
   y="0px"
   width="19"
   height="19"
   viewBox="24 4 19 19"
   enable-background="new 24 4 13 11"
   xml:space="preserve"
   inkscape:version="0.91 r13725"
   sodipodi:docname="stretch.svg"><metadata
     id="metadata3115"><rdf:RDF><cc:Work
         rdf:about=""><dc:format>image/svg+xml</dc:format><dc:type
           rdf:resource="http://purl.org/dc/dcmitype/StillImage" /><dc:title></dc:title></cc:Work></rdf:RDF></metadata><defs
     id="defs3113" /><sodipodi:namedview
     pagecolor="#ffffff"
     bordercolor="#666666"
     borderopacity="1"
     objecttolerance="10"
     gridtolerance="10"
     guidetolerance="10"
     inkscape:pageopacity="0"
     inkscape:pageshadow="2"
     inkscape:window-width="1050"
     inkscape:window-height="773"
     id="namedview3111"
     showgrid="true"
     inkscape:zoom="30.341309"
     inkscape:cx="5.4020263"
     inkscape:cy="9.6844493"
     inkscape:window-x="-6"
     inkscape:window-y="0"
     inkscape:window-maximized="0"
     inkscape:current-layer="Layer_1"
     showguides="false"><inkscape:grid
       type="xygrid"
       id="grid3117"
       empspacing="5"
       visible="true"
       enabled="true"
       snapvisiblegridlinesonly="true" /></sodipodi:namedview><path
     style="opacity:1;fill:#000000;fill-opacity:1;stroke:none;stroke-opacity:1"
     d="m 33.687369,8.4347267 c -3.033825,0.120681 -7.135185,3.0677093 -5.057092,5.0570923 4.098819,3.923845 2.648315,5.884536 5.057092,5.057092 2.112952,-0.725825 5.849087,-0.512279 5.057092,-5.057092 -0.97617,-5.6016871 -1.71115,-5.1901883 -5.057092,-5.0570923 z m 0,0.6742797 c 0.186776,0 0.33714,0.209982 0.33714,0.4714676 l 0,3.777016 c 0,0.01508 -0.0056,0.02744 -0.0066,0.04215 l 2.230916,1.57639 c 0.158253,0.11184 0.19866,0.325521 0.09087,0.478054 -0.107793,0.152531 -0.322436,0.184266 -0.480688,0.07243 l -2.284923,-1.614579 c -0.091,-0.0643 -0.137506,-0.161649 -0.144864,-0.262073 -0.04693,-0.08108 -0.07902,-0.179407 -0.07902,-0.292364 l 0,-3.7770148 c 0,-0.2614856 0.150363,-0.4714688 0.337138,-0.4714688 z"
     id="path4706"
     inkscape:connector-curvature="0"
     sodipodi:nodetypes="ssssscssccccccsscc" /></svg>