<?xml version="1.0" encoding="UTF-8" standalone="no"?><!DOCTYPE svg PUBLIC "-//W3C//DTD SVG 1.1//EN" "http://www.w3.org/Graphics/SVG/1.1/DTD/svg11.dtd"><svg width="19px" height="19px" version="1.1" xmlns="http://www.w3.org/2000/svg" xmlns:xlink="http://www.w3.org/1999/xlink" xml:space="preserve" xmlns:serif="http://www.serif.com/" style="fill-rule:evenodd;clip-rule:evenodd;stroke-linejoin:round;stroke-miterlimit:2;"><path d="M10.678,7.91l0,-3.419c0,-0.271 0.26,-0.491 0.58,-0.491c0.32,0 0.58,0.22 0.58,0.491l0,4.094c0,0.01 0,0.021 -0.001,0.031c-0.034,0.874 -0.77,1.602 -1.757,1.81l0,2.742c0.347,0.17 0.58,0.487 0.58,0.85c0,0.542 -0.52,0.982 -1.16,0.982c-0.64,0 -1.16,-0.44 -1.16,-0.982c0,-0.363 0.233,-0.68 0.58,-0.85l0,-2.742c-0.987,-0.208 -1.723,-0.936 -1.757,-1.81c-0.001,-0.01 -0.001,-0.021 -0.001,-0.031l0,-4.094c0,-0.271 0.26,-0.491 0.58,-0.491c0.32,0 0.58,0.22 0.58,0.491l0,3.449l0.018,0.338c0,0.529 0.52,1.005 1.16,1.005c0.64,0 1.16,-0.476 1.16,-1.005l0.018,-0.368Z"/></svg>