<?xml version="1.0" encoding="UTF-8" standalone="no"?><!DOCTYPE svg PUBLIC "-//W3C//DTD SVG 1.1//EN" "http://www.w3.org/Graphics/SVG/1.1/DTD/svg11.dtd"><svg width="19px" height="19px" version="1.1" xmlns="http://www.w3.org/2000/svg" xmlns:xlink="http://www.w3.org/1999/xlink" xml:space="preserve" xmlns:serif="http://www.serif.com/" style="fill-rule:evenodd;clip-rule:evenodd;stroke-linejoin:round;stroke-miterlimit:2;"><path d="M12,6.31c-0,-1.276 -1.034,-2.31 -2.31,-2.31l-0.38,0c-1.276,0 -2.31,1.034 -2.31,2.31l0,0.38c0,1.276 1.034,2.31 2.31,2.31l0.38,0c1.276,-0 2.31,-1.034 2.31,-2.31l0,-0.38Z" style="fill-opacity:0.4;"/><path d="M12,6.31c-0,-1.276 -1.034,-2.31 -2.31,-2.31l-0.38,0c-1.276,0 -2.31,1.034 -2.31,2.31l0,0.38c0,1.276 1.034,2.31 2.31,2.31l0.38,0c1.276,-0 2.31,-1.034 2.31,-2.31l0,-0.38Zm-1,-0l0,0.38c-0,0.723 -0.587,1.31 -1.31,1.31l-0.38,0c-0.723,-0 -1.31,-0.587 -1.31,-1.31l-0,-0.38c0,-0.723 0.587,-1.31 1.31,-1.31l0.38,-0c0.723,0 1.31,0.586 1.31,1.31Z"/><rect x="9" y="9" width="1" height="6"/></svg>