<?xml version="1.0" encoding="UTF-8" standalone="no"?>
<!-- Generator: Adobe Illustrator 15.0.2, SVG Export Plug-In . SVG Version: 6.00 Build 0)  -->

<svg
   xmlns:dc="http://purl.org/dc/elements/1.1/"
   xmlns:cc="http://creativecommons.org/ns#"
   xmlns:rdf="http://www.w3.org/1999/02/22-rdf-syntax-ns#"
   xmlns:svg="http://www.w3.org/2000/svg"
   xmlns="http://www.w3.org/2000/svg"
   xmlns:sodipodi="http://sodipodi.sourceforge.net/DTD/sodipodi-0.dtd"
   xmlns:inkscape="http://www.inkscape.org/namespaces/inkscape"
   version="1.1"
   id="Layer_1"
   x="0px"
   y="0px"
   width="19"
   height="19"
   viewBox="6.5 14 19 19"
   enable-background="new 6.5 14 17 15"
   xml:space="preserve"
   inkscape:version="0.91 r13725"
   sodipodi:docname="waveform.svg"><metadata
     id="metadata8947"><rdf:RDF><cc:Work
         rdf:about=""><dc:format>image/svg+xml</dc:format><dc:type
           rdf:resource="http://purl.org/dc/dcmitype/StillImage" /><dc:title></dc:title></cc:Work></rdf:RDF></metadata><defs
     id="defs8945" /><sodipodi:namedview
     pagecolor="#ffffff"
     bordercolor="#666666"
     borderopacity="1"
     objecttolerance="10"
     gridtolerance="10"
     guidetolerance="10"
     inkscape:pageopacity="0"
     inkscape:pageshadow="2"
     inkscape:window-width="1440"
     inkscape:window-height="855"
     id="namedview8943"
     showgrid="true"
     inkscape:zoom="32.275389"
     inkscape:cx="7.83879"
     inkscape:cy="9.8514054"
     inkscape:window-x="-59"
     inkscape:window-y="0"
     inkscape:window-maximized="0"
     inkscape:current-layer="g8937"
     inkscape:snap-bbox="true"
     showguides="true"
     inkscape:guide-bbox="true"><inkscape:grid
       type="xygrid"
       id="grid8949" /></sodipodi:namedview><g
     id="g8937"
     transform="translate(0,4)"><polygon
       transform="translate(9.5,12)"
       points="10.117,8.283 10.8,7.899 13,7.9 13,7.1 10.064,7.1 8.683,6 8,6 8,7.306 6.758,5 6,5 6,7.34 4.782,3.5 4,3.5 4,7.658 2.792,2 2,2 2,13 2.8,13 2.8,5.842 4,11.5 4.8,11.5 4.8,6.16 6.018,10 6.8,10 6.8,6.694 8.042,9 8.8,9 8.8,6.966 "
       id="polygon14917" /><rect
       style="fill:#000000;fill-opacity:1;stroke:none"
       id="rect15457"
       width="2"
       height="1"
       x="9.5"
       y="19" /></g></svg>