<?xml version="1.0" encoding="UTF-8" standalone="no"?>
<!-- Generator: Adobe Illustrator 15.0.0, SVG Export Plug-In . SVG Version: 6.00 Build 0)  -->

<svg
   version="1.1"
   id="Layer_1"
   x="0px"
   y="0px"
   width="24"
   height="24"
   viewBox="24 4 24 24"
   enable-background="new 24 4 13 11"
   xml:space="preserve"
   inkscape:version="1.4.2 (ebf0e940d0, 2025-05-08)"
   sodipodi:docname="fades_reset.svg"
   xmlns:inkscape="http://www.inkscape.org/namespaces/inkscape"
   xmlns:sodipodi="http://sodipodi.sourceforge.net/DTD/sodipodi-0.dtd"
   xmlns="http://www.w3.org/2000/svg"
   xmlns:svg="http://www.w3.org/2000/svg"
   xmlns:rdf="http://www.w3.org/1999/02/22-rdf-syntax-ns#"
   xmlns:cc="http://creativecommons.org/ns#"
   xmlns:dc="http://purl.org/dc/elements/1.1/"><metadata
     id="metadata3115"><rdf:RDF><cc:Work
         rdf:about=""><dc:format>image/svg+xml</dc:format><dc:type
           rdf:resource="http://purl.org/dc/dcmitype/StillImage" /><dc:title /></cc:Work></rdf:RDF></metadata><defs
     id="defs3113" /><sodipodi:namedview
     pagecolor="#ffffff"
     bordercolor="#666666"
     borderopacity="1"
     objecttolerance="10"
     gridtolerance="10"
     guidetolerance="10"
     inkscape:pageopacity="0"
     inkscape:pageshadow="2"
     inkscape:window-width="2560"
     inkscape:window-height="1403"
     id="namedview3111"
     showgrid="true"
     inkscape:zoom="21.454545"
     inkscape:cx="5.5932204"
     inkscape:cy="12.864407"
     inkscape:window-x="0"
     inkscape:window-y="0"
     inkscape:window-maximized="1"
     inkscape:current-layer="Layer_1"
     inkscape:showpageshadow="2"
     inkscape:pagecheckerboard="0"
     inkscape:deskcolor="#d1d1d1"><inkscape:grid
       type="xygrid"
       id="grid3117"
       empspacing="5"
       visible="true"
       enabled="true"
       snapvisiblegridlinesonly="true"
       originx="0"
       originy="0"
       spacingy="1"
       spacingx="1"
       units="px" /></sodipodi:namedview><path
     d="m 36.234375,10.648438 c -2.414443,-9.3e-5 -4.37206,1.956651 -4.373047,4.371093 -9.1e-5,2.415205 1.957842,4.373138 4.373047,4.373047 2.414442,-9.87e-4 4.371185,-1.958605 4.371094,-4.373047 -9.86e-4,-2.41368 -1.957414,-4.370108 -4.371094,-4.371093 z m -1.476563,1.921875 1.47461,1.449218 1.476562,-1.449218 1.017578,1 -1.476562,1.449218 1.476562,1.451172 -1.017578,1 -1.476562,-1.451172 -1.47461,1.451172 -1.017578,-1 1.476563,-1.451172 -1.476563,-1.449218 z"
     style="display:inline;opacity:1;stroke-width:3.39173;stroke-opacity:0.5"
     id="path5" /><path
     style="fill:#000000;fill-rule:evenodd;stroke:none;stroke-width:1px;stroke-linecap:butt;stroke-linejoin:miter;stroke-opacity:1;fill-opacity:0.32549021"
     d="M 9.2597656 14.220703 L 3.7773438 17.5 L 21.5 17.5 L 21.5 6.8984375 L 16.457031 9.9160156 A 4.3728814 4.3728814 0 0 1 16.517578 10.152344 A 4.3728814 4.3728814 0 0 1 16.582031 10.583984 A 4.3728814 4.3728814 0 0 1 16.605469 11.019531 A 4.3728814 4.3728814 0 0 1 16.59375 11.328125 A 4.3728814 4.3728814 0 0 1 16.541016 11.761719 A 4.3728814 4.3728814 0 0 1 16.445312 12.189453 A 4.3728814 4.3728814 0 0 1 16.308594 12.603516 A 4.3728814 4.3728814 0 0 1 16.130859 13.001953 A 4.3728814 4.3728814 0 0 1 15.912109 13.380859 A 4.3728814 4.3728814 0 0 1 15.658203 13.738281 A 4.3728814 4.3728814 0 0 1 15.371094 14.066406 A 4.3728814 4.3728814 0 0 1 15.050781 14.363281 A 4.3728814 4.3728814 0 0 1 14.703125 14.628906 A 4.3728814 4.3728814 0 0 1 14.330078 14.857422 A 4.3728814 4.3728814 0 0 1 13.9375 15.046875 A 4.3728814 4.3728814 0 0 1 13.525391 15.197266 A 4.3728814 4.3728814 0 0 1 13.103516 15.306641 A 4.3728814 4.3728814 0 0 1 12.669922 15.371094 A 4.3728814 4.3728814 0 0 1 12.234375 15.392578 A 4.3728814 4.3728814 0 0 1 11.923828 15.382812 A 4.3728814 4.3728814 0 0 1 11.490234 15.330078 A 4.3728814 4.3728814 0 0 1 11.064453 15.234375 A 4.3728814 4.3728814 0 0 1 10.648438 15.095703 A 4.3728814 4.3728814 0 0 1 10.25 14.917969 A 4.3728814 4.3728814 0 0 1 9.8710938 14.699219 A 4.3728814 4.3728814 0 0 1 9.515625 14.445312 A 4.3728814 4.3728814 0 0 1 9.2597656 14.220703 z "
     id="path4228"
     transform="translate(24,4)" /><path
     style="fill:none;fill-opacity:0.3254902;fill-rule:evenodd;stroke:#000000;stroke-width:1px;stroke-linecap:square;stroke-linejoin:miter;stroke-opacity:1"
     d="M 33.259766,18.220703 27.777344,21.5 45.5,21.5 l 0,-10.601562 -5.042969,3.017578"
     id="path4230"
     inkscape:connector-curvature="0"
     sodipodi:nodetypes="ccccc" /><g
     id="path1"
     style="opacity:1" /></svg>
