<?xml version="1.0" encoding="UTF-8" standalone="no"?>
<!-- Generator: Adobe Illustrator 15.0.2, SVG Export Plug-In . SVG Version: 6.00 Build 0)  -->

<svg
   version="1.1"
   id="Layer_1"
   x="0px"
   y="0px"
   width="15"
   height="15"
   viewBox="6.5 14 15 15"
   enable-background="new 6.5 14 17 15"
   xml:space="preserve"
   inkscape:version="1.4.2 (ebf0e940d0, 2025-05-08)"
   sodipodi:docname="fct.svg"
   xmlns:inkscape="http://www.inkscape.org/namespaces/inkscape"
   xmlns:sodipodi="http://sodipodi.sourceforge.net/DTD/sodipodi-0.dtd"
   xmlns="http://www.w3.org/2000/svg"
   xmlns:svg="http://www.w3.org/2000/svg"
   xmlns:rdf="http://www.w3.org/1999/02/22-rdf-syntax-ns#"
   xmlns:cc="http://creativecommons.org/ns#"
   xmlns:dc="http://purl.org/dc/elements/1.1/"><metadata
     id="metadata8947"><rdf:RDF><cc:Work
         rdf:about=""><dc:format>image/svg+xml</dc:format><dc:type
           rdf:resource="http://purl.org/dc/dcmitype/StillImage" /><dc:title /></cc:Work></rdf:RDF></metadata><defs
     id="defs8945">

</defs><sodipodi:namedview
     pagecolor="#ffffff"
     bordercolor="#666666"
     borderopacity="1"
     objecttolerance="10"
     gridtolerance="10"
     guidetolerance="10"
     inkscape:pageopacity="0"
     inkscape:pageshadow="2"
     inkscape:window-width="2560"
     inkscape:window-height="1403"
     id="namedview8943"
     showgrid="true"
     inkscape:zoom="14.5"
     inkscape:cx="-10.206897"
     inkscape:cy="0.75862069"
     inkscape:window-x="0"
     inkscape:window-y="0"
     inkscape:window-maximized="1"
     inkscape:current-layer="Layer_1"
     inkscape:snap-bbox="true"
     showguides="true"
     inkscape:guide-bbox="true"
     inkscape:snap-object-midpoints="true"
     inkscape:showpageshadow="2"
     inkscape:pagecheckerboard="0"
     inkscape:deskcolor="#d1d1d1"><inkscape:grid
       type="xygrid"
       id="grid8949"
       empspacing="5"
       visible="true"
       enabled="true"
       snapvisiblegridlinesonly="true"
       originx="0"
       originy="0"
       spacingy="1"
       spacingx="1"
       units="px" /></sodipodi:namedview><path
     style="font-weight:bold;font-size:24px;font-family:'Ableton Sans Bold';-inkscape-font-specification:'Ableton Sans Bold,  Bold';letter-spacing:0px;word-spacing:0px;fill:#000000;fill-opacity:1;stroke-width:0.355;stroke-linecap:round;stroke:#000000;stroke-opacity:1;stroke-dasharray:none"
     d="m 20.475617,24.754776 c 0,-1.604103 -0.824331,-2.807181 -1.812042,-3.401293 l -0.467864,0.653523 c 0.898596,0.638672 1.359033,1.477855 1.359033,2.74777 0,1.269915 -0.47529,2.109098 -1.359033,2.747769 l 0.467864,0.638671 c 0.987711,-0.594112 1.812042,-1.782337 1.812042,-3.38644 z"
     id="path3" /><path
     style="font-weight:bold;font-size:24px;font-family:'Ableton Sans Bold';-inkscape-font-specification:'Ableton Sans Bold,  Bold';letter-spacing:0px;word-spacing:0px;fill:#000000;fill-opacity:1;stroke:#000000;stroke-width:0.327038;stroke-linecap:round;stroke-dasharray:none;stroke-opacity:1"
     d="m 17.832856,26.557578 -1.135682,-1.765095 1.074109,-1.669315 h -0.937279 l -0.629414,1.005694 -0.629414,-1.005694 h -0.923595 l 1.067265,1.662473 -1.13568,1.771937 h 0.923596 l 0.704668,-1.115157 0.697829,1.115157 z"
     id="path2" /><path
     style="font-weight:bold;font-size:24px;font-family:'Ableton Sans Bold';-inkscape-font-specification:'Ableton Sans Bold,  Bold';letter-spacing:0px;word-spacing:0px;fill:#000000;fill-opacity:1;stroke-width:0.355;stroke-linecap:round;stroke:#000000;stroke-opacity:1;stroke-dasharray:none"
     d="m 11.727318,24.754776 c 0,1.604103 0.82433,2.792328 1.812042,3.38644 l 0.467864,-0.638671 c -0.883742,-0.638671 -1.359032,-1.477854 -1.359032,-2.747769 0,-1.269915 0.460436,-2.109098 1.359032,-2.74777 L 13.53936,21.360909 c -0.987712,0.594113 -1.812042,1.789764 -1.812042,3.393867 z"
     id="path1" /><path
     style="font-weight:bold;font-size:24px;font-family:'Ableton Sans Bold';-inkscape-font-specification:'Ableton Sans Bold,  Bold';letter-spacing:0px;word-spacing:0px;fill:#000000;fill-opacity:1;stroke-width:0.286228;stroke-linecap:round;stroke:none;stroke-opacity:1"
     d="m 11.48429,16.781163 c 0.549556,0 0.879291,0.192344 1.099113,0.398428 l 0.838075,-1.140331 c -0.425907,-0.453384 -1.126592,-0.728162 -2.019622,-0.728162 -1.7585835,0 -2.6653527,1.140331 -2.6653527,2.734046 v 0.302257 H 7.5 v 1.305197 h 1.2365033 v 6.275651 h 1.6486717 v -6.275651 h 1.662411 v -1.305197 h -1.662411 v -0.164867 c 0,-0.865553 0.343473,-1.40137 1.099115,-1.401371 z"
     id="text1"
     sodipodi:nodetypes="sccssccccccccccss" /></svg>
