<?xml version="1.0" encoding="UTF-8" standalone="no"?>
<svg
   width="23px"
   height="23px"
   version="1.1"
   xml:space="preserve"
   style="fill-rule:evenodd;clip-rule:evenodd;stroke-linejoin:round;stroke-miterlimit:2;"
   id="svg3"
   sodipodi:docname="all.svg"
   inkscape:version="1.4 (e7c3feb100, 2024-10-09)"
   xmlns:inkscape="http://www.inkscape.org/namespaces/inkscape"
   xmlns:sodipodi="http://sodipodi.sourceforge.net/DTD/sodipodi-0.dtd"
   xmlns="http://www.w3.org/2000/svg"
   xmlns:svg="http://www.w3.org/2000/svg"
   xmlns:serif="http://www.serif.com/"><defs
   id="defs3" /><sodipodi:namedview
   id="namedview3"
   pagecolor="#505050"
   bordercolor="#ffffff"
   borderopacity="1"
   inkscape:showpageshadow="0"
   inkscape:pageopacity="0"
   inkscape:pagecheckerboard="1"
   inkscape:deskcolor="#505050"
   inkscape:zoom="52"
   inkscape:cx="11.509615"
   inkscape:cy="11.5"
   inkscape:window-width="2560"
   inkscape:window-height="1403"
   inkscape:window-x="0"
   inkscape:window-y="0"
   inkscape:window-maximized="1"
   inkscape:current-layer="g1" />
    <g
   transform="matrix(1,0,0,1,-63,-33)"
   id="g3">
        <g
   transform="matrix(1.21053,0,0,1.21053,63,17.2632)"
   id="g2">
            <rect
   id="all"
   x="0"
   y="13"
   width="19"
   height="19"
   style="fill:none;" />
            <g
   id="all1"
   serif:id="all">
                <g
   transform="matrix(0.826087,0,0,0.826087,1.65217,14.6522)"
   id="g1">
                    <path
   d="m 9.5,3.656 c -3.222,0 -5.844,2.622 -5.844,5.844 0,0.929647 0.218282,1.809344 0.6062771,2.590522 C 5.2190072,14.016775 7.2076472,15.344 9.5,15.344 c 3.222,0 5.844,-2.622 5.844,-5.844 0,-3.222 -2.622,-5.844 -5.844,-5.844 z m 0,1.907 c 2.173,0 3.938,1.764 3.938,3.937 0,2.173 -1.765,3.938 -3.938,3.938 -2.173,0 -3.937,-1.765 -3.937,-3.938 0,-2.173 1.764,-3.937 3.937,-3.937 z"
   style="fill:#ffffff;fill-rule:nonzero;stroke:#ffffff;stroke-width:0.5px;stroke-opacity:1;fill-opacity:1"
   id="path1"
   sodipodi:nodetypes="sssssssssss" />
                </g>
            </g>
        </g>
    </g>
</svg>
