<?xml version="1.0" encoding="UTF-8" standalone="no"?>
<svg
   width="23px"
   height="23px"
   version="1.1"
   xml:space="preserve"
   style="fill-rule:evenodd;clip-rule:evenodd;stroke-linecap:round;stroke-linejoin:round;stroke-miterlimit:1.5;"
   id="svg9"
   sodipodi:docname="audio_file.svg"
   inkscape:version="1.4 (e7c3feb100, 2024-10-09)"
   xmlns:inkscape="http://www.inkscape.org/namespaces/inkscape"
   xmlns:sodipodi="http://sodipodi.sourceforge.net/DTD/sodipodi-0.dtd"
   xmlns="http://www.w3.org/2000/svg"
   xmlns:svg="http://www.w3.org/2000/svg"
   xmlns:serif="http://www.serif.com/"><sodipodi:namedview
   id="namedview9"
   pagecolor="#505050"
   bordercolor="#ffffff"
   borderopacity="1"
   inkscape:showpageshadow="0"
   inkscape:pageopacity="0"
   inkscape:pagecheckerboard="1"
   inkscape:deskcolor="#505050"
   inkscape:zoom="36.769553"
   inkscape:cx="7.2206481"
   inkscape:cy="15.937099"
   inkscape:window-width="2560"
   inkscape:window-height="1403"
   inkscape:window-x="0"
   inkscape:window-y="0"
   inkscape:window-maximized="1"
   inkscape:current-layer="g3" />
    <g
   transform="matrix(1,0,0,1,-31,-98)"
   id="g6">
        <g
   transform="matrix(1.21053,0,0,1.21053,31,43.5263)"
   id="g5">
            <rect
   id="audio_file"
   x="0"
   y="45"
   width="19"
   height="19"
   style="fill:none;" />
            <g
   id="audio_file1"
   serif:id="audio_file">
                <g
   id="Instr-Preset"
   serif:id="Instr Preset"
   transform="matrix(0.928922,0,0,0.928922,-29.0503,3.87375)">
                    <path
   d="M49,48.779C49,47.797 48.203,47 47.221,47L35.779,47C34.797,47 34,47.797 34,48.779L34,60.221C34,61.203 34.797,62 35.779,62L47.221,62C48.203,62 49,61.203 49,60.221L49,48.779Z"
   id="path1" />
                    <path
   id="path2"
   style="fill:#ff704c;fill-opacity:1"
   d="M 35.778655 46.555248 C 34.551655 46.555248 33.55542 47.551482 33.55542 48.778482 L 33.55542 60.221191 C 33.55542 61.448191 34.551655 62.444425 35.778655 62.444425 L 47.221363 62.444425 C 48.448363 62.444425 49.444597 61.448191 49.444597 60.221191 L 49.444597 48.778482 C 49.444597 47.551482 48.448363 46.555248 47.221363 46.555248 L 35.778655 46.555248 z M 34.304025 47.784975 C 34.240064 47.879623 34.184051 47.980789 34.139019 48.087196 C 34.184051 47.980789 34.240064 47.879623 34.304025 47.784975 z M 35.778655 47.889189 L 47.221363 47.889189 C 47.712363 47.889189 48.110656 48.287482 48.110656 48.778482 L 48.110656 60.221191 C 48.110656 60.712191 47.712363 61.110484 47.221363 61.110484 L 35.778655 61.110484 C 35.287655 61.110484 34.889361 60.712191 34.889361 60.221191 L 34.889361 48.778482 C 34.889361 48.287482 35.287655 47.889189 35.778655 47.889189 z M 34.139019 60.912478 C 34.184051 61.018884 34.240064 61.12005 34.304025 61.214698 C 34.240064 61.12005 34.184051 61.018884 34.139019 60.912478 z " />
                </g>
                <g
   transform="matrix(0.928922,0,0,0.928922,-357.889,-47.217)"
   id="g3">
                    
                </g>
                <g
   transform="matrix(0.0439957,0,0,0.0439957,-95.7643,12.2638)"
   id="g4">
                    <path
   d="M2295.21,1049.69L2295.21,870.328C2304.7,931.625 2319.94,983.924 2343,1024L2343,895.883C2354.36,943.637 2369.76,979.74 2391,999L2391,922C2401.33,955.01 2418.09,973.365 2440,980L2438,934C2458.93,965.804 2469.08,972.465 2490,960.007"
   style="fill:none;stroke:url(#_Linear2);stroke-width:18.78px;"
   id="path4" />
                </g>
            </g>
        </g>
    </g>
    <defs
   id="defs9">
        <linearGradient
   id="_Linear1"
   x1="0"
   y1="0"
   x2="1"
   y2="0"
   gradientUnits="userSpaceOnUse"
   gradientTransform="matrix(7.57982e-15,-15,15,7.57982e-15,41.5,62)"><stop
     offset="0"
     style="stop-color:rgb(198,75,38);stop-opacity:1"
     id="stop6" /><stop
     offset="1"
     style="stop-color:rgb(255,113,70);stop-opacity:1"
     id="stop7" /></linearGradient>
        <linearGradient
   id="_Linear2"
   x1="0"
   y1="0"
   x2="1"
   y2="0"
   gradientUnits="userSpaceOnUse"
   gradientTransform="matrix(1.56755e-14,-256,216.615,1.32639e-14,2295.21,1088)"><stop
     offset="0"
     style="stop-color:#ff7148;stop-opacity:1;"
     id="stop8" /><stop
     offset="1"
     style="stop-color:rgb(255,113,70);stop-opacity:1"
     id="stop9" /></linearGradient>
    <linearGradient
   id="_Linear2-2"
   x1="0"
   y1="0"
   x2="1"
   y2="0"
   gradientUnits="userSpaceOnUse"
   gradientTransform="matrix(0.254902,8.60966,-55.9628,0.732436,232.333,36)"><stop
     offset="0"
     style="stop-color:rgb(255,113,70);stop-opacity:1"
     id="stop8-3" /><stop
     offset="1"
     style="stop-color:rgb(198,75,38);stop-opacity:1"
     id="stop9-7" /></linearGradient><linearGradient
   id="_Linear3"
   x1="0"
   y1="0"
   x2="1"
   y2="0"
   gradientUnits="userSpaceOnUse"
   gradientTransform="matrix(0,-256,216.615,0,2295.21,1088)"><stop
     offset="0"
     style="stop-color:#ff704c;stop-opacity:1;"
     id="stop10" /><stop
     offset="1"
     style="stop-color:rgb(255,113,70);stop-opacity:1"
     id="stop11" /></linearGradient><linearGradient
   id="_Linear4"
   x1="0"
   y1="0"
   x2="1"
   y2="0"
   gradientUnits="userSpaceOnUse"
   gradientTransform="matrix(0,-15,15,0,41.5,62)"><stop
     offset="0"
     style="stop-color:#ff704c;stop-opacity:1;"
     id="stop12" /><stop
     offset="1"
     style="stop-color:rgb(255,113,70);stop-opacity:1"
     id="stop13" /></linearGradient><linearGradient
   id="_Linear1-5"
   x1="0"
   y1="0"
   x2="1"
   y2="0"
   gradientUnits="userSpaceOnUse"
   gradientTransform="matrix(0,-15,14.8829,0,41.5,62)"><stop
     offset="0"
     style="stop-color:rgb(198,75,38);stop-opacity:1"
     id="stop10-6" /><stop
     offset="1"
     style="stop-color:rgb(255,113,70);stop-opacity:1"
     id="stop11-0" /></linearGradient><linearGradient
   id="_Linear3-6"
   x1="0"
   y1="0"
   x2="1"
   y2="0"
   gradientUnits="userSpaceOnUse"
   gradientTransform="matrix(0,2,-1.57083,0,42.8927,139)"><stop
     offset="0"
     style="stop-color:black;stop-opacity:0"
     id="stop12-2" /><stop
     offset="1"
     style="stop-color:black;stop-opacity:0.42"
     id="stop13-6" /></linearGradient><linearGradient
   id="_Linear1-6"
   x1="0"
   y1="0"
   x2="1"
   y2="0"
   gradientUnits="userSpaceOnUse"
   gradientTransform="matrix(9.11314e-16,-15,14.8829,9.18485e-16,41.5,62)"><stop
     offset="0"
     style="stop-color:rgb(198,75,38);stop-opacity:1"
     id="stop10-9" /><stop
     offset="1"
     style="stop-color:rgb(255,113,70);stop-opacity:1"
     id="stop11-3" /></linearGradient></defs>
</svg>
