<?xml version="1.0" encoding="UTF-8" standalone="no"?>
<svg
   width="23px"
   height="23px"
   version="1.1"
   xml:space="preserve"
   style="fill-rule:evenodd;clip-rule:evenodd;stroke-linejoin:round;stroke-miterlimit:2;"
   id="svg9"
   sodipodi:docname="audio_loop.svg"
   inkscape:version="1.4 (e7c3feb100, 2024-10-09)"
   xmlns:inkscape="http://www.inkscape.org/namespaces/inkscape"
   xmlns:sodipodi="http://sodipodi.sourceforge.net/DTD/sodipodi-0.dtd"
   xmlns="http://www.w3.org/2000/svg"
   xmlns:svg="http://www.w3.org/2000/svg"
   xmlns:serif="http://www.serif.com/"><sodipodi:namedview
   id="namedview9"
   pagecolor="#505050"
   bordercolor="#ffffff"
   borderopacity="1"
   inkscape:showpageshadow="0"
   inkscape:pageopacity="0"
   inkscape:pagecheckerboard="1"
   inkscape:deskcolor="#505050"
   inkscape:zoom="26"
   inkscape:cx="12.096154"
   inkscape:cy="10.730769"
   inkscape:window-width="2560"
   inkscape:window-height="1403"
   inkscape:window-x="0"
   inkscape:window-y="0"
   inkscape:window-maximized="1"
   inkscape:current-layer="Instr-Preset" />
    <g
   transform="matrix(1,0,0,1,-31,-194)"
   id="g5">
        <g
   transform="matrix(1.21053,0,0,1.21053,31,23.3158)"
   id="g4">
            <rect
   id="audio_loop"
   x="0"
   y="141"
   width="19"
   height="19"
   style="fill:none;" />
            <g
   id="audio_loop1"
   serif:id="audio_loop">
                <g
   id="Instr-Preset"
   serif:id="Instr Preset"
   transform="matrix(0.928922,0,0,0.928922,-29.0503,99.8189)">
                    <path
   d="M49,54.5C49,50.361 45.639,47 41.5,47C37.361,47 34,50.361 34,54.5C34,58.639 37.361,62 41.5,62C45.639,62 49,58.639 49,54.5Z"
   id="path1" />
                    <path
   d="M49,54.5C49,58.639 45.639,62 41.5,62C37.361,62 34,58.639 34,54.5C34,50.361 37.361,47 41.5,47C45.639,47 49,50.361 49,54.5ZM48.111,54.5C48.111,50.851 45.149,47.889 41.5,47.889C37.851,47.889 34.889,50.851 34.889,54.5C34.889,58.149 37.851,61.111 41.5,61.111C45.149,61.111 48.111,58.149 48.111,54.5Z"
   style="fill:#ff704c;fill-opacity:1"
   id="path2" />
                </g>
                <g
   transform="matrix(0.560587,0,0,0.560587,3.05324,145.768)"
   id="g3">
                    <path
   d="M16.071,3L6.93,3C5.314,3 4,4.438 4,6.205L4,10.795C4,12.562 5.314,14 6.93,14L8,14L8,12L6.93,12C6.426,12 6,11.449 6,10.795L6,6.205C6,5.552 6.426,5 6.93,5L16.072,5C16.574,5 17,5.552 17,6.205L17,10.795C17,11.449 16.574,12 16.071,12L12.875,12L14.53,10.531L13.47,9.47L9.939,13L13.469,16.531L14.53,15.47L12.875,14L16.071,14C17.687,14 19,12.562 19,10.795L19,6.205C19,4.438 17.687,3 16.071,3Z"
   style="fill:#ff704c;fill-rule:nonzero;fill-opacity:1"
   id="path3" />
                </g>
            </g>
        </g>
    </g>
    <defs
   id="defs9">
        <linearGradient
   id="_Linear1"
   x1="0"
   y1="0"
   x2="1"
   y2="0"
   gradientUnits="userSpaceOnUse"
   gradientTransform="matrix(7.57982e-15,-15,15,7.57982e-15,41.5,62)"><stop
     offset="0"
     style="stop-color:#ff704c;stop-opacity:1;"
     id="stop5" /><stop
     offset="1"
     style="stop-color:rgb(255,113,70);stop-opacity:1"
     id="stop6" /></linearGradient>
        <radialGradient
   id="_Radial2"
   cx="0"
   cy="0"
   r="1"
   gradientUnits="userSpaceOnUse"
   gradientTransform="matrix(7.5,6.15729,-6.15729,7.5,11.5,11.4386)"><stop
     offset="0"
     style="stop-color:#ff704c;stop-opacity:1;"
     id="stop7" /><stop
     offset="0.48"
     style="stop-color:rgb(240,103,61);stop-opacity:1"
     id="stop8" /><stop
     offset="1"
     style="stop-color:rgb(198,75,38);stop-opacity:1"
     id="stop9" /></radialGradient>
    <linearGradient
   id="_Linear1-5"
   x1="0"
   y1="0"
   x2="1"
   y2="0"
   gradientUnits="userSpaceOnUse"
   gradientTransform="matrix(9.11314e-16,-15,14.8829,9.18485e-16,41.5,62)"><stop
     offset="0"
     style="stop-color:rgb(198,75,38);stop-opacity:1"
     id="stop5-62" /><stop
     offset="1"
     style="stop-color:rgb(255,113,70);stop-opacity:1"
     id="stop6-9" /></linearGradient><linearGradient
   id="_Linear1-3"
   x1="0"
   y1="0"
   x2="1"
   y2="0"
   gradientUnits="userSpaceOnUse"
   gradientTransform="matrix(0,-15,14.8829,0,41.5,62)"><stop
     offset="0"
     style="stop-color:rgb(198,75,38);stop-opacity:1"
     id="stop5-6" /><stop
     offset="1"
     style="stop-color:rgb(255,113,70);stop-opacity:1"
     id="stop6-7" /></linearGradient><linearGradient
   id="_Linear2"
   x1="0"
   y1="0"
   x2="1"
   y2="0"
   gradientUnits="userSpaceOnUse"
   gradientTransform="matrix(0.254902,8.60966,-55.9628,0.732436,232.333,36)"><stop
     offset="0"
     style="stop-color:rgb(255,113,70);stop-opacity:1"
     id="stop8-1" /><stop
     offset="1"
     style="stop-color:rgb(198,75,38);stop-opacity:1"
     id="stop9-2" /></linearGradient><linearGradient
   id="_Linear3"
   x1="0"
   y1="0"
   x2="1"
   y2="0"
   gradientUnits="userSpaceOnUse"
   gradientTransform="matrix(0,-256,216.615,0,2295.21,1088)"><stop
     offset="0"
     style="stop-color:#ff704c;stop-opacity:1;"
     id="stop10" /><stop
     offset="1"
     style="stop-color:rgb(255,113,70);stop-opacity:1"
     id="stop11" /></linearGradient><linearGradient
   id="_Linear4"
   x1="0"
   y1="0"
   x2="1"
   y2="0"
   gradientUnits="userSpaceOnUse"
   gradientTransform="matrix(0,-15,15,0,41.5,62)"><stop
     offset="0"
     style="stop-color:#ff704c;stop-opacity:1;"
     id="stop12" /><stop
     offset="1"
     style="stop-color:rgb(255,113,70);stop-opacity:1"
     id="stop13" /></linearGradient><linearGradient
   id="_Linear3-6"
   x1="0"
   y1="0"
   x2="1"
   y2="0"
   gradientUnits="userSpaceOnUse"
   gradientTransform="matrix(0,2,-1.57083,0,42.8927,139)"><stop
     offset="0"
     style="stop-color:black;stop-opacity:0"
     id="stop12-2" /><stop
     offset="1"
     style="stop-color:black;stop-opacity:0.42"
     id="stop13-6" /></linearGradient></defs>
</svg>
