<?xml version="1.0" encoding="UTF-8" standalone="no"?>
<svg
   width="23px"
   height="23px"
   version="1.1"
   xml:space="preserve"
   style="fill-rule:evenodd;clip-rule:evenodd;stroke-linejoin:round;stroke-miterlimit:2;"
   id="svg6"
   sodipodi:docname="category.svg"
   inkscape:version="1.4 (e7c3feb100, 2024-10-09)"
   xmlns:inkscape="http://www.inkscape.org/namespaces/inkscape"
   xmlns:sodipodi="http://sodipodi.sourceforge.net/DTD/sodipodi-0.dtd"
   xmlns:xlink="http://www.w3.org/1999/xlink"
   xmlns="http://www.w3.org/2000/svg"
   xmlns:svg="http://www.w3.org/2000/svg"
   xmlns:serif="http://www.serif.com/"><sodipodi:namedview
   id="namedview6"
   pagecolor="#505050"
   bordercolor="#ffffff"
   borderopacity="1"
   inkscape:showpageshadow="0"
   inkscape:pageopacity="0"
   inkscape:pagecheckerboard="1"
   inkscape:deskcolor="#505050"
   inkscape:zoom="13"
   inkscape:cx="-20.076923"
   inkscape:cy="22.384615"
   inkscape:window-width="2560"
   inkscape:window-height="1403"
   inkscape:window-x="0"
   inkscape:window-y="0"
   inkscape:window-maximized="1"
   inkscape:current-layer="category1" />
    <g
   transform="matrix(1,0,0,1,-223,-98)"
   id="g5">
        <g
   transform="matrix(1.21053,0,0,1.21053,-9.42105,43.5263)"
   id="g4">
            <rect
   id="category"
   x="192"
   y="45"
   width="19"
   height="19"
   style="fill:none;" />
            <g
   id="category1"
   serif:id="category">
                <g
   transform="matrix(0.936232,0,0,0.936232,162.646,3.47536)"
   id="g1"
   style="fill:#ff9292;fill-opacity:1">
                    <path
   d="M49,54.5C49,58.639 45.639,62 41.5,62C37.361,62 34,58.639 34,54.5C34,50.361 37.361,47 41.5,47C45.639,47 49,50.361 49,54.5ZM48.118,54.5C48.118,50.848 45.152,47.882 41.5,47.882C37.848,47.882 34.882,50.848 34.882,54.5C34.882,58.152 37.848,61.118 41.5,61.118C45.152,61.118 48.118,58.152 48.118,54.5Z"
   style="fill:#ff9292;fill-opacity:1"
   id="path1" />
                </g>
                <g
   transform="matrix(0.826087,0,0,0.826087,192,-8.69565)"
   id="g2"
   style="fill:#ff9292;fill-opacity:1">
                    <path
   d="m 11.5,67.566 c 3.007852,0 5.670408,1.489458 7.289743,3.770449 C 19.825107,72.79486 20.434,74.576852 20.434,76.5 c 0,4.931 -4.003,8.934 -8.934,8.934 -4.931,0 -8.934,-4.003 -8.934,-8.934 0,-4.931 4.003,-8.934 8.934,-8.934 z m 0,0.5 c -4.655,0 -8.434,3.779 -8.434,8.434 0,4.655 3.779,8.434 8.434,8.434 4.655,0 8.434,-3.779 8.434,-8.434 0,-4.655 -3.779,-8.434 -8.434,-8.434 z"
   style="fill-opacity:1;fill:#ff9292"
   id="path2"
   sodipodi:nodetypes="sssssssssss" />
                </g>
                <g
   transform="matrix(0.936232,0,0,0.936232,12.8493,33.4348)"
   id="g3"
   style="fill:#ff9292;fill-opacity:1">
                    <path
   d="M196.308,25.507L196.308,22.327L201.154,22.327L201.154,20.942L206.692,20.942L206.692,25.507C205.653,27.296 203.716,28.5 201.5,28.5C199.284,28.5 197.347,27.296 196.308,25.507ZM200.462,21.635L196.308,21.635L196.308,20.25L200.462,20.25L200.462,21.635Z"
   style="fill:#ff9292;fill-opacity:1"
   id="path3" />
                </g>
            </g>
        </g>
    </g>
    <defs
   id="defs6"><linearGradient
   id="linearGradient6"
   inkscape:collect="always"><stop
     style="stop-color:#f3b1ae;stop-opacity:1;"
     offset="0"
     id="stop7" /><stop
     style="stop-color:#f3b1ae;stop-opacity:0;"
     offset="1"
     id="stop8" /></linearGradient>
        <linearGradient
   id="_Linear1"
   x1="0"
   y1="0"
   x2="1"
   y2="0"
   gradientUnits="userSpaceOnUse"
   gradientTransform="matrix(3.82702e-16,6.25,-6.25,3.82702e-16,201.5,23)"><stop
     offset="0"
     style="stop-color:rgb(243,177,174);stop-opacity:1"
     id="stop5" /><stop
     offset="1"
     style="stop-color:rgb(136,105,100);stop-opacity:1"
     id="stop6" /></linearGradient>
    <linearGradient
   inkscape:collect="always"
   xlink:href="#linearGradient6"
   id="linearGradient8"
   x1="34"
   y1="54.5"
   x2="49"
   y2="54.5"
   gradientUnits="userSpaceOnUse" /><linearGradient
   inkscape:collect="always"
   xlink:href="#linearGradient6"
   id="linearGradient9"
   x1="2.566"
   y1="76.5"
   x2="20.434"
   y2="76.5"
   gradientUnits="userSpaceOnUse" /><linearGradient
   inkscape:collect="always"
   xlink:href="#linearGradient6"
   id="linearGradient10"
   x1="196.308"
   y1="24.375"
   x2="206.692"
   y2="24.375"
   gradientUnits="userSpaceOnUse" /></defs>
</svg>
