<?xml version="1.0" encoding="UTF-8" standalone="no"?>
<svg
   width="23px"
   height="23px"
   version="1.1"
   xml:space="preserve"
   style="fill-rule:evenodd;clip-rule:evenodd;stroke-linejoin:round;stroke-miterlimit:2;"
   id="svg7"
   sodipodi:docname="clap.svg"
   inkscape:version="1.4 (e7c3feb100, 2024-10-09)"
   xmlns:inkscape="http://www.inkscape.org/namespaces/inkscape"
   xmlns:sodipodi="http://sodipodi.sourceforge.net/DTD/sodipodi-0.dtd"
   xmlns="http://www.w3.org/2000/svg"
   xmlns:svg="http://www.w3.org/2000/svg"
   xmlns:serif="http://www.serif.com/"><sodipodi:namedview
   id="namedview7"
   pagecolor="#505050"
   bordercolor="#ffffff"
   borderopacity="1"
   inkscape:showpageshadow="0"
   inkscape:pageopacity="0"
   inkscape:pagecheckerboard="1"
   inkscape:deskcolor="#505050"
   inkscape:zoom="52"
   inkscape:cx="12.538462"
   inkscape:cy="14"
   inkscape:window-width="2560"
   inkscape:window-height="1403"
   inkscape:window-x="0"
   inkscape:window-y="0"
   inkscape:window-maximized="1"
   inkscape:current-layer="g3" />
    <g
   transform="matrix(1,0,0,1,-31,-226)"
   id="g6">
        <g
   transform="matrix(1.21053,0,0,1.21053,-85.2105,16.5789)"
   id="g5">
            <rect
   id="clap"
   x="96"
   y="173"
   width="19"
   height="19"
   style="fill:none;" />
            <g
   id="clap1"
   serif:id="clap">
                <g
   transform="matrix(0.826087,0,0,0.826087,98.0892,174.34)"
   id="g4">
                    <path
   d="M16.339,11.233C18.108,11.233 19.55,12.674 19.55,14.444C19.55,16.213 18.108,17.655 16.339,17.655L15.816,17.655C15.658,17.655 15.512,17.738 15.43,17.873C14.838,18.861 13.788,19.523 12.603,19.523C10.833,19.523 9.392,18.081 9.392,16.312C9.392,14.542 10.833,13.101 12.603,13.101L13.126,13.101C13.284,13.101 13.431,13.018 13.512,12.882C14.104,11.895 15.154,11.233 16.339,11.233Z"
   style="fill-rule:nonzero;"
   id="path1" />
                    <clipPath
   id="_clip1">
                        <path
   d="M16.339,11.233C18.108,11.233 19.55,12.674 19.55,14.444C19.55,16.213 18.108,17.655 16.339,17.655L15.816,17.655C15.658,17.655 15.512,17.738 15.43,17.873C14.838,18.861 13.788,19.523 12.603,19.523C10.833,19.523 9.392,18.081 9.392,16.312C9.392,14.542 10.833,13.101 12.603,13.101L13.126,13.101C13.284,13.101 13.431,13.018 13.512,12.882C14.104,11.895 15.154,11.233 16.339,11.233Z"
   clip-rule="nonzero"
   id="path2" />
                    </clipPath>
                    <g
   clip-path="url(#_clip1)"
   id="g3">
                        <path
   d="M16.339,17.134L15.965,17.134L15.965,15.565L16.339,15.565C16.937,15.565 17.385,15.042 17.385,14.519C17.385,13.921 16.862,13.472 16.339,13.472C15.741,13.398 15.218,13.921 15.218,14.519L15.218,16.386C15.218,17.806 14.023,19.002 12.603,19.002C11.183,19.002 9.988,17.806 9.988,16.312C9.988,14.817 11.183,13.697 12.603,13.697L12.976,13.697L12.976,15.266L12.603,15.266C12.005,15.266 11.557,15.789 11.557,16.312C11.557,16.91 12.08,17.358 12.603,17.358C13.126,17.358 13.724,16.91 13.724,16.312L13.724,14.519C13.724,13.099 14.919,11.903 16.339,11.903C17.758,11.903 18.954,13.024 18.954,14.519C18.954,16.013 17.758,17.134 16.339,17.134Z"
   style="fill:#ffffff;fill-rule:nonzero;fill-opacity:1"
   id="path3" />
                    </g>
                </g>
            </g>
        </g>
    </g>
    <defs
   id="defs7">
        <linearGradient
   id="_Linear2"
   x1="0"
   y1="0"
   x2="1"
   y2="0"
   gradientUnits="userSpaceOnUse"
   gradientTransform="matrix(3.06162e-16,5,-3.95884,2.42409e-16,12.942,13.878)"><stop
     offset="0"
     style="stop-color:rgb(229,229,229);stop-opacity:1"
     id="stop6" /><stop
     offset="1"
     style="stop-color:rgb(179,179,179);stop-opacity:1"
     id="stop7" /></linearGradient>
    </defs>
</svg>
