<?xml version="1.0" encoding="UTF-8" standalone="no"?>
<svg
   width="23px"
   height="23px"
   version="1.1"
   xml:space="preserve"
   style="fill-rule:evenodd;clip-rule:evenodd;stroke-linejoin:round;stroke-miterlimit:2;"
   id="svg12"
   sodipodi:docname="dawproject.svg"
   inkscape:version="1.4 (e7c3feb100, 2024-10-09)"
   xmlns:inkscape="http://www.inkscape.org/namespaces/inkscape"
   xmlns:sodipodi="http://sodipodi.sourceforge.net/DTD/sodipodi-0.dtd"
   xmlns="http://www.w3.org/2000/svg"
   xmlns:svg="http://www.w3.org/2000/svg"
   xmlns:serif="http://www.serif.com/"><sodipodi:namedview
   id="namedview12"
   pagecolor="#505050"
   bordercolor="#ffffff"
   borderopacity="1"
   inkscape:showpageshadow="0"
   inkscape:pageopacity="0"
   inkscape:pagecheckerboard="1"
   inkscape:deskcolor="#505050"
   inkscape:zoom="52"
   inkscape:cx="11.5"
   inkscape:cy="11.5"
   inkscape:window-width="2560"
   inkscape:window-height="1403"
   inkscape:window-x="0"
   inkscape:window-y="0"
   inkscape:window-maximized="1"
   inkscape:current-layer="g4" />
    <g
   transform="matrix(1,0,0,1,-319,-33)"
   id="g8">
        <g
   transform="matrix(1.21053,0,0,1.21053,319,17.2632)"
   id="g7">
            <rect
   id="dawproject"
   x="0"
   y="13"
   width="19"
   height="19"
   style="fill:none;" />
            <g
   id="dawproject1"
   serif:id="dawproject">
                <g
   transform="matrix(0.826087,0,0,0.826087,2.47826,15.4783)"
   id="g4">
                    <path
   d="M13.5,16L3.5,16C2.673,16 2,15.327 2,14.5L2,2.5C2,1.673 2.673,1 3.5,1L10,1L15,6L15,14.5C15,15.327 14.327,16 13.5,16Z"
   style="fill:url(#_Linear1);fill-rule:nonzero;"
   id="path1" />
                    <clipPath
   id="_clip2">
                        <path
   d="M13.5,16L3.5,16C2.673,16 2,15.327 2,14.5L2,2.5C2,1.673 2.673,1 3.5,1L10,1L15,6L15,14.5C15,15.327 14.327,16 13.5,16Z"
   clip-rule="nonzero"
   id="path2" />
                    </clipPath>
                    <g
   clip-path="url(#_clip2)"
   id="g3">
                        <path
   d="M10,1L10,6L15,6L10,1Z"
   style="fill:url(#_Linear3);fill-rule:nonzero;"
   id="path3" />
                    </g>
                    <path
   d="M13.5,16.5L3.5,16.5C2.397,16.5 1.5,15.603 1.5,14.5L1.5,2.5C1.5,1.397 2.397,0.5 3.5,0.5L10,0.5C10.133,0.5 10.26,0.553 10.354,0.646L15.354,5.646C15.447,5.74 15.5,5.867 15.5,6L15.5,14.5C15.5,15.603 14.603,16.5 13.5,16.5ZM13.5,16C14.327,16 15,15.327 15,14.5L15,6L10,1L3.5,1C2.673,1 2,1.673 2,2.5L2,14.5C2,15.327 2.673,16 3.5,16L13.5,16Z"
   style="fill-opacity:1;fill:#000000"
   id="path4" />
                </g>
                <g
   transform="matrix(0.127995,0,0,0.127995,5.78261,21.2697)"
   id="g5">
                    <path
   d="M0,22.148C0,22.148 2.744,11.895 8.792,11.895L31.56,12.231L31.647,0C31.647,0 57.853,19.43 57.853,22.148L0,22.148Z"
   style="fill:white;fill-rule:nonzero;"
   id="path5" />
                </g>
                <g
   transform="matrix(0.127995,0,0,0.127995,13.2174,27.4318)"
   id="g6">
                    <path
   d="M0,-22.148C0,-22.148 -2.744,-11.895 -8.792,-11.895L-31.56,-12.231L-31.647,0C-31.647,0 -57.853,-19.43 -57.853,-22.148L0,-22.148Z"
   style="fill:white;fill-rule:nonzero;"
   id="path6" />
                </g>
            </g>
        </g>
    </g>
    <defs
   id="defs12">
        <linearGradient
   id="_Linear1"
   x1="0"
   y1="0"
   x2="1"
   y2="0"
   gradientUnits="userSpaceOnUse"
   gradientTransform="matrix(13,0,0,-19.8401,2,8.5)"><stop
     offset="0"
     style="stop-color:rgb(255,90,0);stop-opacity:1"
     id="stop8" /><stop
     offset="1"
     style="stop-color:rgb(255,118,43);stop-opacity:1"
     id="stop9" /><stop
     offset="1"
     style="stop-color:rgb(255,118,43);stop-opacity:1"
     id="stop10" /></linearGradient>
        <linearGradient
   id="_Linear3"
   x1="0"
   y1="0"
   x2="1"
   y2="0"
   gradientUnits="userSpaceOnUse"
   gradientTransform="matrix(2.26143,-2,2,2.26143,10,6)"><stop
     offset="0"
     style="stop-color:rgb(246,246,246);stop-opacity:1"
     id="stop11" /><stop
     offset="1"
     style="stop-color:rgb(201,201,201);stop-opacity:1"
     id="stop12" /></linearGradient>
    </defs>
</svg>
