<?xml version="1.0" encoding="UTF-8" standalone="no"?>
<svg
   width="23px"
   height="23px"
   version="1.1"
   xml:space="preserve"
   style="fill-rule:evenodd;clip-rule:evenodd;stroke-linejoin:round;stroke-miterlimit:2;"
   id="svg12"
   sodipodi:docname="device_bitwig.svg"
   inkscape:version="1.4 (e7c3feb100, 2024-10-09)"
   xmlns:inkscape="http://www.inkscape.org/namespaces/inkscape"
   xmlns:sodipodi="http://sodipodi.sourceforge.net/DTD/sodipodi-0.dtd"
   xmlns="http://www.w3.org/2000/svg"
   xmlns:svg="http://www.w3.org/2000/svg"
   xmlns:serif="http://www.serif.com/"><sodipodi:namedview
   id="namedview12"
   pagecolor="#505050"
   bordercolor="#ffffff"
   borderopacity="1"
   inkscape:showpageshadow="0"
   inkscape:pageopacity="0"
   inkscape:pagecheckerboard="1"
   inkscape:deskcolor="#505050"
   inkscape:zoom="26"
   inkscape:cx="18.961538"
   inkscape:cy="12.730769"
   inkscape:window-width="2560"
   inkscape:window-height="1403"
   inkscape:window-x="0"
   inkscape:window-y="0"
   inkscape:window-maximized="1"
   inkscape:current-layer="g5" />
    <g
   transform="matrix(1,0,0,1,-255,-130)"
   id="g9">
        <g
   transform="matrix(1.21053,0,0,1.21053,-16.1579,36.7895)"
   id="g8">
            <rect
   id="device_bitwig"
   x="224"
   y="77"
   width="19"
   height="19"
   style="fill:none;" />
            <g
   id="device_bitwig1"
   serif:id="device_bitwig">
                <g
   transform="matrix(0.936232,0,0,0.928922,194.646,35.8189)"
   id="g6">
                    <g
   id="g5">
                        <path
   d="M49,48.779C49,47.797 48.209,47 47.235,47L35.765,47C34.791,47 34,47.797 34,48.779L34,60.221C34,61.203 34.791,62 35.765,62L47.235,62C48.209,62 49,61.203 49,60.221L49,48.779Z"
   style="fill:#ffffff;fill-opacity:1"
   id="path1" />
                        <clipPath
   id="_clip2">
                            <path
   d="M49,48.779C49,47.797 48.209,47 47.235,47L35.765,47C34.791,47 34,47.797 34,48.779L34,60.221C34,61.203 34.791,62 35.765,62L47.235,62C48.209,62 49,61.203 49,60.221L49,48.779Z"
   id="path2" />
                        </clipPath>
                        <g
   clip-path="url(#_clip2)"
   id="g4">
                            <g
   transform="matrix(0.882353,0,0,0.889296,-193.647,-71.2764)"
   id="g3">
                                <path
   d="M274,135C274,134.448 273.552,134 273,134L260,134C259.448,134 259,134.448 259,135L259,148C259,148.552 259.448,149 260,149L273,149C273.552,149 274,148.552 274,148L274,135Z"
   id="path3" />
                            </g>
                        </g>
                    </g>
                </g>
                <g
   transform="matrix(0.925417,0,0,0.925417,224.709,77.5735)"
   id="g7">
                    <path
   d="M8.403,11.5C8.403,11.995 7.995,12.403 7.5,12.403C7.005,12.403 6.597,11.995 6.597,11.5C6.597,11.005 7.005,10.597 7.5,10.597C7.995,10.597 8.403,11.005 8.403,11.5ZM14.403,11.5C14.403,11.995 13.995,12.403 13.5,12.403C13.005,12.403 12.597,11.995 12.597,11.5C12.597,11.005 13.005,10.597 13.5,10.597C13.995,10.597 14.403,11.005 14.403,11.5ZM6.403,11.5C6.403,11.995 5.995,12.403 5.5,12.403C5.005,12.403 4.597,11.995 4.597,11.5C4.597,11.005 5.005,10.597 5.5,10.597C5.995,10.597 6.403,11.005 6.403,11.5ZM12.403,11.5C12.403,11.995 11.995,12.403 11.5,12.403C11.005,12.403 10.597,11.995 10.597,11.5C10.597,11.5 10.597,11.5 10.597,11.5C10.597,11.004 11.005,10.597 11.5,10.597C11.995,10.597 12.403,11.004 12.403,11.5C12.403,11.5 12.403,11.5 12.403,11.5ZM8.403,9.5C8.403,9.995 7.995,10.403 7.5,10.403C7.005,10.403 6.597,9.995 6.597,9.5C6.597,9.005 7.005,8.597 7.5,8.597C7.995,8.597 8.403,9.005 8.403,9.5ZM10.403,9.5C10.403,9.995 9.995,10.403 9.5,10.403C9.005,10.403 8.597,9.995 8.597,9.5C8.597,9.005 9.005,8.597 9.5,8.597C9.995,8.597 10.403,9.005 10.403,9.5ZM12.403,9.5C12.403,9.995 11.995,10.403 11.5,10.403C11.005,10.403 10.597,9.995 10.597,9.5C10.597,9.005 11.005,8.597 11.5,8.597C11.995,8.597 12.403,9.005 12.403,9.5ZM14.403,9.5C14.403,9.995 13.995,10.403 13.5,10.403C13.005,10.403 12.597,9.995 12.597,9.5C12.597,9.005 13.005,8.597 13.5,8.597C13.995,8.597 14.403,9.005 14.403,9.5ZM6.403,9.5C6.403,9.995 5.995,10.403 5.5,10.403C5.005,10.403 4.597,9.995 4.597,9.5C4.597,9.005 5.005,8.597 5.5,8.597C5.995,8.597 6.403,9.005 6.403,9.5ZM8.403,7.5C8.403,7.995 7.995,8.403 7.5,8.403C7.005,8.403 6.597,7.995 6.597,7.5C6.597,7.005 7.005,6.597 7.5,6.597C7.995,6.597 8.403,7.005 8.403,7.5ZM10.403,7.5C10.403,7.995 9.995,8.403 9.5,8.403C9.005,8.403 8.597,7.995 8.597,7.5C8.597,7.005 9.005,6.597 9.5,6.597C9.995,6.597 10.403,7.005 10.403,7.5ZM12.403,7.5C12.403,7.995 11.995,8.403 11.5,8.403C11.005,8.403 10.597,7.995 10.597,7.5C10.597,7.005 11.005,6.597 11.5,6.597C11.995,6.597 12.403,7.005 12.403,7.5Z"
   style="fill:#ffffff;fill-opacity:1"
   id="path6" />
                </g>
            </g>
        </g>
    </g>
    <defs
   id="defs12">
        <linearGradient
   id="_Linear1"
   x1="0"
   y1="0"
   x2="1"
   y2="0"
   gradientUnits="userSpaceOnUse"
   gradientTransform="matrix(7.57982e-15,-15,15,7.57982e-15,41.5,62)"><stop
     offset="0"
     style="stop-color:rgb(148,125,101);stop-opacity:1"
     id="stop9" /><stop
     offset="1"
     style="stop-color:rgb(147,167,189);stop-opacity:1"
     id="stop10" /></linearGradient>
        <linearGradient
   id="_Linear3"
   x1="0"
   y1="0"
   x2="1"
   y2="0"
   gradientUnits="userSpaceOnUse"
   gradientTransform="matrix(4.95506e-15,-5.80576,9.80576,2.93378e-15,9.5,12.4029)"><stop
     offset="0"
     style="stop-color:rgb(148,125,101);stop-opacity:1"
     id="stop11" /><stop
     offset="1"
     style="stop-color:rgb(147,167,189);stop-opacity:1"
     id="stop12" /></linearGradient>
    </defs>
</svg>
