<?xml version="1.0" encoding="UTF-8" standalone="no"?>
<svg
   width="23px"
   height="23px"
   version="1.1"
   xml:space="preserve"
   style="fill-rule:evenodd;clip-rule:evenodd;stroke-linejoin:round;stroke-miterlimit:2;"
   id="svg6"
   sodipodi:docname="device_generic.svg"
   inkscape:version="1.4 (e7c3feb100, 2024-10-09)"
   xmlns:inkscape="http://www.inkscape.org/namespaces/inkscape"
   xmlns:sodipodi="http://sodipodi.sourceforge.net/DTD/sodipodi-0.dtd"
   xmlns="http://www.w3.org/2000/svg"
   xmlns:svg="http://www.w3.org/2000/svg"
   xmlns:serif="http://www.serif.com/"><sodipodi:namedview
   id="namedview6"
   pagecolor="#505050"
   bordercolor="#ffffff"
   borderopacity="1"
   inkscape:showpageshadow="0"
   inkscape:pageopacity="0"
   inkscape:pagecheckerboard="1"
   inkscape:deskcolor="#505050"
   inkscape:zoom="36.769553"
   inkscape:cx="11.884833"
   inkscape:cy="13.108672"
   inkscape:window-width="2560"
   inkscape:window-height="1403"
   inkscape:window-x="0"
   inkscape:window-y="0"
   inkscape:window-maximized="1"
   inkscape:current-layer="svg6" />
    <g
   transform="matrix(1,0,0,1,-127,-130)"
   id="g5">
        <g
   transform="matrix(1.21053,0,0,1.21053,10.7895,36.7895)"
   id="g4">
            <rect
   id="device_generic"
   x="96"
   y="77"
   width="19"
   height="19"
   style="fill:none;" />
            <g
   id="device_generic1"
   serif:id="device_generic">
                <g
   transform="matrix(0.928922,0,0,0.928922,66.8949,35.8189)"
   id="g3">
                    <g
   id="Generic-FX"
   serif:id="Generic FX">
                        <path
   id="Generic-FX1"
   style="fill:#cbcbcb;fill-opacity:1"
   d="M 35.778255 46.555098 C 34.551255 46.555098 33.555021 47.551332 33.555021 48.778332 L 33.555021 60.221041 C 33.555021 61.448041 34.551255 62.444275 35.778255 62.444275 L 47.220963 62.444275 C 48.447963 62.444275 49.444197 61.448041 49.444197 60.221041 L 49.444197 48.778332 C 49.444197 47.551332 48.447963 46.555098 47.220963 46.555098 L 35.778255 46.555098 z " />
                        <clipPath
   id="_clip2">
                            <path
   id="Generic-FX2"
   serif:id="Generic FX"
   d="M49,48.779C49,47.797 48.203,47 47.221,47L35.779,47C34.797,47 34,47.797 34,48.779L34,60.221C34,61.203 34.797,62 35.779,62L47.221,62C48.203,62 49,61.203 49,60.221L49,48.779Z" />
                        </clipPath>
                        <g
   clip-path="url(#_clip2)"
   id="g2">
                            <g
   transform="matrix(1.26667,0,0,1.26667,-92.7667,-55.3379)"
   id="g1">
                                <path
   d="M106,85.714L107.567,83L108.433,83.5L106.866,86.214L110,86.214L110,87.214L106.866,87.214L108.433,89.928L107.567,90.428L106,87.714L104.433,90.428L103.567,89.928L105.134,87.214L102,87.214L102,86.214L105.134,86.214L103.567,83.5L104.433,83L106,85.714Z"
   id="path1" />
                            </g>
                        </g>
                        
                    </g>
                </g>
            </g>
        </g>
    </g>
    <defs
   id="defs6">
        <linearGradient
   id="_Linear1"
   x1="0"
   y1="0"
   x2="1"
   y2="0"
   gradientUnits="userSpaceOnUse"
   gradientTransform="matrix(9.18485e-16,15,-15,9.18485e-16,41.5,47)"><stop
     offset="0"
     style="stop-color:rgb(211,211,211);stop-opacity:1"
     id="stop5" /><stop
     offset="1"
     style="stop-color:rgb(166,166,166);stop-opacity:1"
     id="stop6" /></linearGradient>
    <linearGradient
   id="_Linear1-5"
   x1="0"
   y1="0"
   x2="1"
   y2="0"
   gradientUnits="userSpaceOnUse"
   gradientTransform="matrix(0.889296,15,-15,0.889296,39.3358,47)"><stop
     offset="0"
     style="stop-color:rgb(211,211,211);stop-opacity:1"
     id="stop6-6" /><stop
     offset="1"
     style="stop-color:rgb(166,166,166);stop-opacity:1"
     id="stop7" /></linearGradient></defs>
</svg>
