<?xml version="1.0" encoding="UTF-8" standalone="no"?>
<svg
   width="23px"
   height="23px"
   version="1.1"
   xml:space="preserve"
   style="fill-rule:evenodd;clip-rule:evenodd;stroke-linejoin:round;stroke-miterlimit:2;"
   id="svg7"
   sodipodi:docname="device_audio_layers.svg"
   inkscape:version="1.4 (e7c3feb100, 2024-10-09)"
   xmlns:inkscape="http://www.inkscape.org/namespaces/inkscape"
   xmlns:sodipodi="http://sodipodi.sourceforge.net/DTD/sodipodi-0.dtd"
   xmlns="http://www.w3.org/2000/svg"
   xmlns:svg="http://www.w3.org/2000/svg"
   xmlns:serif="http://www.serif.com/"><sodipodi:namedview
   id="namedview7"
   pagecolor="#505050"
   bordercolor="#ffffff"
   borderopacity="1"
   inkscape:showpageshadow="0"
   inkscape:pageopacity="0"
   inkscape:pagecheckerboard="1"
   inkscape:deskcolor="#505050"
   inkscape:zoom="36.769553"
   inkscape:cx="15.828313"
   inkscape:cy="10.08987"
   inkscape:window-width="2560"
   inkscape:window-height="1403"
   inkscape:window-x="0"
   inkscape:window-y="0"
   inkscape:window-maximized="1"
   inkscape:current-layer="Audio-FX" />
    <g
   transform="matrix(1,0,0,1,-31,-162)"
   id="g6">
        <g
   transform="matrix(1.21053,0,0,1.21053,31,30.0526)"
   id="g5">
            <rect
   id="device_audio_layers"
   x="0"
   y="109"
   width="19"
   height="19"
   style="fill:none;" />
            <g
   id="device_audio_layers1"
   serif:id="device_audio_layers">
                <g
   id="Audio-preset"
   serif:id="Audio preset">
                </g>
                <g
   id="Audio-FX"
   serif:id="Audio FX"
   transform="matrix(0.936232,0,0,0.928922,-29.3536,67.8189)">
                    <path
   id="path1"
   style="fill:#ff704c;fill-opacity:1"
   d="M 35.764663 46.555045 C 34.546663 46.555045 33.558788 47.551279 33.558788 48.778279 L 33.558788 60.220987 C 33.558788 61.447987 34.546663 62.444221 35.764663 62.444221 L 47.235215 62.444221 C 48.453215 62.444221 49.441091 61.447987 49.441091 60.220987 L 49.441091 48.778279 C 49.441091 47.551279 48.453215 46.555045 47.235215 46.555045 L 35.764663 46.555045 z " />
                    <clipPath
   id="_clip2">
                        <path
   d="M49,48.779C49,47.797 48.209,47 47.235,47L35.765,47C34.791,47 34,47.797 34,48.779L34,60.221C34,61.203 34.791,62 35.765,62L47.235,62C48.209,62 49,61.203 49,60.221L49,48.779Z"
   id="path2" />
                    </clipPath>
                    <g
   clip-path="url(#_clip2)"
   id="g4">
                        <g
   transform="matrix(0.882353,0,0,1.01634,-136.294,-0.386789)"
   id="g3">
                            <path
   d="M197,54.05L201.5,54.05L202,52.167L206,52.167L206,58L197,58L197,54.05ZM201,51L201,52.75L197,52.75L197,51L201,51Z"
   id="path3" />
                        </g>
                    </g>
                    
                </g>
            </g>
        </g>
    </g>
    <defs
   id="defs7">
        <linearGradient
   id="_Linear1"
   x1="0"
   y1="0"
   x2="1"
   y2="0"
   gradientUnits="userSpaceOnUse"
   gradientTransform="matrix(9.11314e-16,-15,14.8829,9.18485e-16,41.5,62)"><stop
     offset="0"
     style="stop-color:rgb(198,75,38);stop-opacity:1"
     id="stop6" /><stop
     offset="1"
     style="stop-color:rgb(255,113,70);stop-opacity:1"
     id="stop7" /></linearGradient>
    <linearGradient
   id="_Linear1-8"
   x1="0"
   y1="0"
   x2="1"
   y2="0"
   gradientUnits="userSpaceOnUse"
   gradientTransform="matrix(0,-15,14.8829,0,41.5,62)"><stop
     offset="0"
     style="stop-color:rgb(198,75,38);stop-opacity:1"
     id="stop10" /><stop
     offset="1"
     style="stop-color:rgb(255,113,70);stop-opacity:1"
     id="stop11" /></linearGradient><linearGradient
   id="_Linear3"
   x1="0"
   y1="0"
   x2="1"
   y2="0"
   gradientUnits="userSpaceOnUse"
   gradientTransform="matrix(0,2,-1.57083,0,42.8927,139)"><stop
     offset="0"
     style="stop-color:black;stop-opacity:0"
     id="stop12" /><stop
     offset="1"
     style="stop-color:black;stop-opacity:0.42"
     id="stop13" /></linearGradient></defs>
</svg>
