<?xml version="1.0" encoding="UTF-8" standalone="no"?>
<svg
   width="23px"
   height="23px"
   version="1.1"
   xml:space="preserve"
   style="fill-rule:evenodd;clip-rule:evenodd;stroke-linejoin:round;stroke-miterlimit:2;"
   id="svg7"
   sodipodi:docname="device_note_layers.svg"
   inkscape:version="1.4 (e7c3feb100, 2024-10-09)"
   xmlns:inkscape="http://www.inkscape.org/namespaces/inkscape"
   xmlns:sodipodi="http://sodipodi.sourceforge.net/DTD/sodipodi-0.dtd"
   xmlns="http://www.w3.org/2000/svg"
   xmlns:svg="http://www.w3.org/2000/svg"
   xmlns:serif="http://www.serif.com/"><sodipodi:namedview
   id="namedview7"
   pagecolor="#505050"
   bordercolor="#ffffff"
   borderopacity="1"
   inkscape:showpageshadow="0"
   inkscape:pageopacity="0"
   inkscape:pagecheckerboard="1"
   inkscape:deskcolor="#505050"
   inkscape:zoom="18.384776"
   inkscape:cx="19.907776"
   inkscape:cy="17.351313"
   inkscape:window-width="2560"
   inkscape:window-height="1403"
   inkscape:window-x="0"
   inkscape:window-y="0"
   inkscape:window-maximized="1"
   inkscape:current-layer="svg7" />
    <g
   transform="matrix(1,0,0,1,-95,-162)"
   id="g6">
        <g
   transform="matrix(1.21053,0,0,1.21053,17.5263,30.0526)"
   id="g5">
            <rect
   id="device_note_layers"
   x="64"
   y="109"
   width="19"
   height="19"
   style="fill:none;" />
            <g
   id="device_note_layers1"
   serif:id="device_note_layers">
                <g
   id="Note-FX"
   serif:id="Note FX"
   transform="matrix(0.928922,0,0,0.928922,34.8949,67.8189)">
                    <path
   id="path1"
   style="fill:#6c8df3;fill-opacity:1"
   d="M 35.778397 46.555045 C 34.551397 46.555045 33.555163 47.551279 33.555163 48.778279 L 33.555163 60.220987 C 33.555163 61.447987 34.551397 62.444221 35.778397 62.444221 L 47.221106 62.444221 C 48.448106 62.444221 49.44434 61.447987 49.44434 60.220987 L 49.44434 48.778279 C 49.44434 47.551279 48.448106 46.555045 47.221106 46.555045 L 35.778397 46.555045 z " />
                    <clipPath
   id="_clip2">
                        <path
   d="M49,48.779C49,47.797 48.203,47 47.221,47L35.779,47C34.797,47 34,47.797 34,48.779L34,60.221C34,61.203 34.797,62 35.779,62L47.221,62C48.203,62 49,61.203 49,60.221L49,48.779Z"
   id="path2" />
                    </clipPath>
                    <g
   clip-path="url(#_clip2)"
   id="g4">
                        <g
   transform="matrix(0.889296,0,0,1.01634,-137.634,-0.386789)"
   id="g3">
                            <path
   d="M197,54.05L201.5,54.05L202,52.167L206,52.167L206,58L197,58L197,54.05ZM201,51L201,52.75L197,52.75L197,51L201,51Z"
   id="path3" />
                        </g>
                    </g>
                    
                </g>
            </g>
        </g>
    </g>
    <defs
   id="defs7">
        <linearGradient
   id="_Linear1"
   x1="0"
   y1="0"
   x2="1"
   y2="0"
   gradientUnits="userSpaceOnUse"
   gradientTransform="matrix(9.18485e-16,15,-15,9.18485e-16,41.5,47)"><stop
     offset="0"
     style="stop-color:rgb(114,211,244);stop-opacity:1"
     id="stop6" /><stop
     offset="1"
     style="stop-color:rgb(21,161,208);stop-opacity:1"
     id="stop7" /></linearGradient>
    </defs>
</svg>
