<?xml version="1.0" encoding="UTF-8" standalone="no"?>
<svg
   width="23px"
   height="23px"
   version="1.1"
   xml:space="preserve"
   style="fill-rule:evenodd;clip-rule:evenodd;stroke-linejoin:round;stroke-miterlimit:2;"
   id="svg6"
   sodipodi:docname="device_note.svg"
   inkscape:version="1.4 (e7c3feb100, 2024-10-09)"
   xmlns:inkscape="http://www.inkscape.org/namespaces/inkscape"
   xmlns:sodipodi="http://sodipodi.sourceforge.net/DTD/sodipodi-0.dtd"
   xmlns="http://www.w3.org/2000/svg"
   xmlns:svg="http://www.w3.org/2000/svg"
   xmlns:serif="http://www.serif.com/"><sodipodi:namedview
   id="namedview6"
   pagecolor="#505050"
   bordercolor="#ffffff"
   borderopacity="1"
   inkscape:showpageshadow="0"
   inkscape:pageopacity="0"
   inkscape:pagecheckerboard="1"
   inkscape:deskcolor="#505050"
   inkscape:zoom="52"
   inkscape:cx="13.307692"
   inkscape:cy="12.230769"
   inkscape:window-width="2560"
   inkscape:window-height="1403"
   inkscape:window-x="0"
   inkscape:window-y="0"
   inkscape:window-maximized="1"
   inkscape:current-layer="Note-FX" />
    <g
   transform="matrix(1,0,0,1,-95,-130)"
   id="g5">
        <g
   transform="matrix(1.21053,0,0,1.21053,17.5263,36.7895)"
   id="g4">
            <rect
   id="device_note"
   x="64"
   y="77"
   width="19"
   height="19"
   style="fill:none;" />
            <g
   id="device_note1"
   serif:id="device_note">
                <g
   transform="matrix(0.928922,0,0,0.928922,34.8949,35.8189)"
   id="g3">
                    <g
   id="Note-FX"
   serif:id="Note FX">
                        <path
   id="Note-FX1"
   style="fill:#6c8df3;fill-opacity:1"
   d="M 35.778397 46.555098 C 34.551397 46.555098 33.555163 47.551332 33.555163 48.778332 L 33.555163 60.221041 C 33.555163 61.448041 34.551397 62.444275 35.778397 62.444275 L 47.221106 62.444275 C 48.448106 62.444275 49.44434 61.448041 49.44434 60.221041 L 49.44434 48.778332 C 49.44434 47.551332 48.448106 46.555098 47.221106 46.555098 L 35.778397 46.555098 z " />
                        <clipPath
   id="_clip2">
                            <path
   id="Note-FX2"
   serif:id="Note FX"
   d="M49,48.779C49,47.797 48.203,47 47.221,47L35.779,47C34.797,47 34,47.797 34,48.779L34,60.221C34,61.203 34.797,62 35.779,62L47.221,62C48.203,62 49,61.203 49,60.221L49,48.779Z" />
                        </clipPath>
                        <g
   clip-path="url(#_clip2)"
   id="g2">
                            <g
   transform="matrix(1.26667,0,0,1.26667,-52.2333,-55.0667)"
   id="g1">
                                <path
   d="M74,89L70,89L70,88L74,88L74,89ZM78,87L75,87L75,86L78,86L78,87ZM74,85L70,85L70,84L74,84L74,85Z"
   id="path1" />
                            </g>
                        </g>
                        
                    </g>
                </g>
            </g>
        </g>
    </g>
    <defs
   id="defs6">
        <linearGradient
   id="_Linear1"
   x1="0"
   y1="0"
   x2="1"
   y2="0"
   gradientUnits="userSpaceOnUse"
   gradientTransform="matrix(9.18485e-16,15,-15,9.18485e-16,41.5,47)"><stop
     offset="0"
     style="stop-color:rgb(114,211,244);stop-opacity:1"
     id="stop5" /><stop
     offset="1"
     style="stop-color:rgb(21,161,208);stop-opacity:1"
     id="stop6" /></linearGradient>
    </defs>
</svg>
