<?xml version="1.0" encoding="UTF-8" standalone="no"?>
<svg
   width="23px"
   height="23px"
   version="1.1"
   xml:space="preserve"
   style="fill-rule:evenodd;clip-rule:evenodd;stroke-linejoin:round;stroke-miterlimit:2;"
   id="svg8"
   sodipodi:docname="device_instrument_layers.svg"
   inkscape:version="1.4 (e7c3feb100, 2024-10-09)"
   xmlns:inkscape="http://www.inkscape.org/namespaces/inkscape"
   xmlns:sodipodi="http://sodipodi.sourceforge.net/DTD/sodipodi-0.dtd"
   xmlns="http://www.w3.org/2000/svg"
   xmlns:svg="http://www.w3.org/2000/svg"
   xmlns:serif="http://www.serif.com/"><sodipodi:namedview
   id="namedview8"
   pagecolor="#505050"
   bordercolor="#ffffff"
   borderopacity="1"
   inkscape:showpageshadow="0"
   inkscape:pageopacity="0"
   inkscape:pagecheckerboard="1"
   inkscape:deskcolor="#505050"
   inkscape:zoom="26"
   inkscape:cx="24"
   inkscape:cy="8.4230769"
   inkscape:window-width="2560"
   inkscape:window-height="1403"
   inkscape:window-x="0"
   inkscape:window-y="0"
   inkscape:window-maximized="1"
   inkscape:current-layer="svg8" />
    <g
   transform="matrix(1,0,0,1,-63,-162)"
   id="g6">
        <g
   transform="matrix(1.21053,0,0,1.21053,24.2632,30.0526)"
   id="g5">
            <rect
   id="device_instrument_layers"
   x="32"
   y="109"
   width="19"
   height="19"
   style="fill:none;" />
            <g
   id="device_instrument_layers1"
   serif:id="device_instrument_layers">
                <g
   id="Instrument"
   transform="matrix(0.928922,0,0,0.928922,2.89491,67.8189)">
                    <path
   id="path1"
   style="fill:#ffe356;fill-opacity:1"
   d="M 35.77844 46.555045 C 34.55144 46.555045 33.555206 47.551279 33.555206 48.778279 L 33.555206 60.220987 C 33.555206 61.447987 34.55144 62.444221 35.77844 62.444221 L 47.221148 62.444221 C 48.448148 62.444221 49.444382 61.447987 49.444382 60.220987 L 49.444382 48.778279 C 49.444382 47.551279 48.448148 46.555045 47.221148 46.555045 L 35.77844 46.555045 z " />
                    <clipPath
   id="_clip2">
                        <path
   d="M49,48.779C49,47.797 48.203,47 47.221,47L35.779,47C34.797,47 34,47.797 34,48.779L34,60.221C34,61.203 34.797,62 35.779,62L47.221,62C48.203,62 49,61.203 49,60.221L49,48.779Z"
   id="path2" />
                    </clipPath>
                    <g
   clip-path="url(#_clip2)"
   id="g4">
                        <g
   transform="matrix(0.889296,0,0,1.01634,-137.634,-0.386789)"
   id="g3">
                            <path
   d="M197,54.05L201.5,54.05L202,52.167L206,52.167L206,58L197,58L197,54.05ZM201,51L201,52.75L197,52.75L197,51L201,51Z"
   id="path3" />
                        </g>
                    </g>
                    
                </g>
            </g>
        </g>
    </g>
    <defs
   id="defs8">
        <linearGradient
   id="_Linear1"
   x1="0"
   y1="0"
   x2="1"
   y2="0"
   gradientUnits="userSpaceOnUse"
   gradientTransform="matrix(9.25713e-16,-15.118,15.118,9.25713e-16,41.1144,62.118)"><stop
     offset="0"
     style="stop-color:rgb(209,164,0);stop-opacity:1"
     id="stop6" /><stop
     offset="0.6"
     style="stop-color:rgb(255,207,33);stop-opacity:1"
     id="stop7" /><stop
     offset="1"
     style="stop-color:rgb(255,218,86);stop-opacity:1"
     id="stop8" /></linearGradient>
    <linearGradient
   id="_Linear1-9"
   x1="0"
   y1="0"
   x2="1"
   y2="0"
   gradientUnits="userSpaceOnUse"
   gradientTransform="matrix(9.25713e-16,-15.118,15.118,9.25713e-16,41.1144,62.118)"><stop
     offset="0"
     style="stop-color:#ffe356;stop-opacity:1;"
     id="stop13" /><stop
     offset="0.6"
     style="stop-color:rgb(255,207,33);stop-opacity:1"
     id="stop14" /><stop
     offset="1"
     style="stop-color:rgb(255,218,86);stop-opacity:1"
     id="stop15" /></linearGradient><linearGradient
   id="_Linear2"
   x1="0"
   y1="0"
   x2="1"
   y2="0"
   gradientUnits="userSpaceOnUse"
   gradientTransform="matrix(9,-0.333333,0.237664,5,5,10.3333)"><stop
     offset="0"
     style="stop-color:rgb(209,164,0);stop-opacity:1"
     id="stop11" /><stop
     offset="0.5"
     style="stop-color:rgb(255,207,33);stop-opacity:1"
     id="stop12" /><stop
     offset="1"
     style="stop-color:rgb(133,124,88);stop-opacity:1"
     id="stop13-0" /></linearGradient><radialGradient
   id="_Radial3"
   cx="0"
   cy="0"
   r="1"
   gradientUnits="userSpaceOnUse"
   gradientTransform="matrix(3.18182,0,0,2.4691,-7,21.0512)"><stop
     offset="0"
     style="stop-color:rgb(255,220,95);stop-opacity:1"
     id="stop14-9" /><stop
     offset="1"
     style="stop-color:rgb(209,164,0);stop-opacity:1"
     id="stop15-3" /></radialGradient><linearGradient
   id="_Linear1-3"
   x1="0"
   y1="0"
   x2="1"
   y2="0"
   gradientUnits="userSpaceOnUse"
   gradientTransform="matrix(0,-15.118,15.118,0,41.1144,62.118)"><stop
     offset="0"
     style="stop-color:rgb(209,164,0);stop-opacity:1"
     id="stop5" /><stop
     offset="0.6"
     style="stop-color:rgb(255,207,33);stop-opacity:1"
     id="stop6-1" /><stop
     offset="1"
     style="stop-color:rgb(255,218,86);stop-opacity:1"
     id="stop7-2" /></linearGradient></defs>
</svg>
