<?xml version="1.0" encoding="UTF-8" standalone="no"?>
<svg
   width="23px"
   height="23px"
   version="1.1"
   xml:space="preserve"
   style="fill-rule:evenodd;clip-rule:evenodd;stroke-linejoin:round;stroke-miterlimit:2;"
   id="svg4"
   sodipodi:docname="folder_empty.svg"
   inkscape:version="1.4 (e7c3feb100, 2024-10-09)"
   xmlns:inkscape="http://www.inkscape.org/namespaces/inkscape"
   xmlns:sodipodi="http://sodipodi.sourceforge.net/DTD/sodipodi-0.dtd"
   xmlns="http://www.w3.org/2000/svg"
   xmlns:svg="http://www.w3.org/2000/svg"
   xmlns:serif="http://www.serif.com/"><sodipodi:namedview
   id="namedview4"
   pagecolor="#505050"
   bordercolor="#ffffff"
   borderopacity="1"
   inkscape:showpageshadow="0"
   inkscape:pageopacity="0"
   inkscape:pagecheckerboard="1"
   inkscape:deskcolor="#505050"
   inkscape:zoom="52"
   inkscape:cx="11.519231"
   inkscape:cy="11.5"
   inkscape:window-width="2560"
   inkscape:window-height="1403"
   inkscape:window-x="0"
   inkscape:window-y="0"
   inkscape:window-maximized="1"
   inkscape:current-layer="Folder-back" />
    <g
   transform="matrix(1,0,0,1,-127,-66)"
   id="g3">
        <g
   transform="matrix(1.21053,0,0,1.21053,88.2632,11.5263)"
   id="g2">
            <rect
   id="folder_empty"
   x="32"
   y="45"
   width="19"
   height="19"
   style="fill:none;" />
            <g
   id="folder_empty1"
   serif:id="folder_empty">
                <g
   id="Folder-back"
   serif:id="Folder back"
   transform="matrix(0.826087,0,0,0.826087,7.21739,9.47826)">
                    <path
   id="path1"
   style="fill:#bfbfbf;fill-opacity:1"
   d="M 35.999821 46.499838 C 35.336821 46.499838 34.701249 46.763258 34.232249 47.232258 C 33.763249 47.701258 33.499829 48.33683 33.499829 48.99983 L 33.499829 59.999796 C 33.499829 60.662796 33.763249 61.298369 34.232249 61.767369 C 34.701249 62.236369 35.336821 62.499788 35.999821 62.499788 L 46.999787 62.499788 C 48.380787 62.499788 49.49978 61.380796 49.49978 59.999796 L 49.49978 51.999821 C 49.49978 50.618821 48.380787 49.499829 46.999787 49.499829 L 43.634563 49.499829 C 43.041563 49.499829 42.504474 49.151206 42.263474 48.609206 L 41.984178 47.984208 C 41.583178 47.082208 40.687982 46.499838 39.700982 46.499838 L 35.999821 46.499838 z M 41.806444 48.812331 C 41.846569 48.902581 41.893274 48.990283 41.945116 49.072096 C 41.893274 48.990283 41.846569 48.902581 41.806444 48.812331 z M 43.341596 49.978343 C 43.437406 49.992468 43.53386 49.999827 43.63261 49.999827 C 43.53386 49.999827 43.437406 49.992468 43.341596 49.978343 z " />
                    
                </g>
            </g>
        </g>
    </g>
    <defs
   id="defs4">
        <linearGradient
   id="_Linear1"
   x1="0"
   y1="0"
   x2="1"
   y2="0"
   gradientUnits="userSpaceOnUse"
   gradientTransform="matrix(1.04095e-15,17,-17,1.04095e-15,38,46)"><stop
     offset="0"
     style="stop-color:rgb(155,155,155);stop-opacity:1"
     id="stop3" /><stop
     offset="1"
     style="stop-color:rgb(132,132,132);stop-opacity:1"
     id="stop4" /></linearGradient>
    </defs>
</svg>
