<?xml version="1.0" encoding="UTF-8" standalone="no"?>
<svg
   width="23px"
   height="23px"
   version="1.1"
   xml:space="preserve"
   style="fill-rule:evenodd;clip-rule:evenodd;stroke-linecap:round;stroke-linejoin:round;stroke-miterlimit:1.5;"
   id="svg24"
   sodipodi:docname="kind_device.svg"
   inkscape:version="1.4 (e7c3feb100, 2024-10-09)"
   xmlns:inkscape="http://www.inkscape.org/namespaces/inkscape"
   xmlns:sodipodi="http://sodipodi.sourceforge.net/DTD/sodipodi-0.dtd"
   xmlns="http://www.w3.org/2000/svg"
   xmlns:svg="http://www.w3.org/2000/svg"
   xmlns:serif="http://www.serif.com/"><sodipodi:namedview
   id="namedview24"
   pagecolor="#505050"
   bordercolor="#ffffff"
   borderopacity="1"
   inkscape:showpageshadow="0"
   inkscape:pageopacity="0"
   inkscape:pagecheckerboard="1"
   inkscape:deskcolor="#505050"
   inkscape:zoom="13"
   inkscape:cx="22.230769"
   inkscape:cy="0.53846154"
   inkscape:window-width="2560"
   inkscape:window-height="1403"
   inkscape:window-x="0"
   inkscape:window-y="0"
   inkscape:window-maximized="1"
   inkscape:current-layer="svg24" />
    <g
   transform="matrix(1,0,0,1,-160,-194)"
   id="g18">
        <g
   transform="matrix(1.21053,0,0,1.21053,-33.6842,23.3158)"
   id="g17">
            <rect
   id="kind_device"
   x="160"
   y="141"
   width="19"
   height="19"
   style="fill:none;" />
            <g
   id="kind_device1"
   serif:id="kind_device">
                <g
   id="Audio-FX"
   serif:id="Audio FX"
   transform="matrix(0.605797,0,0,0.605797,163.363,95.7284)">
                    <g
   id="Audio-FX1"
   serif:id="Audio FX"
   transform="matrix(1,0,0,1,-31.3701,31.8215)">
                        <path
   id="path1"
   style="fill:#ff704c;fill-opacity:1"
   d="M 36.726977 46.317502 C 34.845977 46.317502 33.317896 47.845584 33.317896 49.726584 L 33.317896 59.272011 C 33.317896 61.153011 34.845977 62.681092 36.726977 62.681092 L 46.272404 62.681092 C 48.153404 62.681092 49.681485 61.153011 49.681485 59.272011 L 49.681485 49.726584 C 49.681485 47.845584 48.153404 46.317502 46.272404 46.317502 L 36.726977 46.317502 z " />
                        
                    </g>
                    <g
   transform="matrix(0.0550302,0,0,0.0554633,-121.502,33.0764)"
   id="g3">
                        <path
   d="M2295.21,1049.69L2295.21,870.328C2304.7,931.625 2319.94,983.924 2343,1024L2343,895.883C2354.36,943.637 2369.76,979.74 2391,999L2391,922C2401.33,955.01 2418.09,973.365 2440,980L2438,934C2458.93,965.804 2469.08,972.465 2490,960.007"
   style="fill:none;stroke:black;stroke-width:12.83px;"
   id="path3" />
                    </g>
                </g>
                <g
   transform="matrix(0.605797,0,0,0.605797,141.881,118.31)"
   id="g6">
                    <g
   id="Note-FX"
   serif:id="Note FX">
                        <path
   id="Note-FX1"
   style="fill:#6c8df3;fill-opacity:1"
   d="M 36.726703 46.317679 C 34.845703 46.317679 33.317622 47.84576 33.317622 49.72676 L 33.317622 59.272187 C 33.317622 61.153187 34.845703 62.681268 36.726703 62.681268 L 46.27213 62.681268 C 48.15313 62.681268 49.681211 61.153187 49.681211 59.272187 L 49.681211 49.72676 C 49.681211 47.84576 48.15313 46.317679 46.27213 46.317679 L 36.726703 46.317679 z " />
                        <clipPath
   id="_clip3">
                            <path
   id="Note-FX2"
   serif:id="Note FX"
   d="M49,49.727C49,48.222 47.778,47 46.273,47L36.727,47C35.222,47 34,48.222 34,49.727L34,59.273C34,60.778 35.222,62 36.727,62L46.273,62C47.778,62 49,60.778 49,59.273L49,49.727Z" />
                        </clipPath>
                        <g
   clip-path="url(#_clip3)"
   id="g5">
                            <g
   transform="matrix(1.26667,0,0,1.26667,-52.2333,-55.0667)"
   id="g4">
                                <path
   d="M74,89L70,89L70,88L74,88L74,89ZM78,87L75,87L75,86L78,86L78,87ZM74,85L70,85L70,84L74,84L74,85Z"
   id="path4" />
                            </g>
                        </g>
                        
                    </g>
                </g>
                <g
   id="Instrument"
   transform="matrix(0.605797,0,0,0.605797,146.838,100.577)">
                    <g
   id="Instrument1"
   serif:id="Instrument"
   transform="matrix(1,0,0,1,0,32)">
                        <path
   id="path6"
   style="fill:#ffe356;fill-opacity:1"
   d="M 36.725889 46.317126 C 34.844889 46.317126 33.316808 47.845207 33.316808 49.726207 L 33.316808 59.274297 C 33.316808 61.155297 34.844889 62.680715 36.725889 62.680715 L 46.273979 62.680715 C 48.154979 62.680715 49.68306 61.155297 49.68306 59.274297 L 49.68306 49.726207 C 49.68306 47.845207 48.154979 46.317126 46.273979 46.317126 L 36.725889 46.317126 z " />
                        
                    </g>
                    <g
   transform="matrix(0.95575,0,0,0.955748,1.87631,3.88683)"
   id="g16">
                        <g
   transform="matrix(2.46715e-18,0.0390625,-0.0386406,2.29387e-18,51.6416,55.6988)"
   id="g8">
                            <path
   d="M645.021,116.888L932.001,116.888"
   style="fill:none;stroke:black;stroke-width:19.16px;"
   id="path8" />
                        </g>
                        <g
   transform="matrix(-0.0390624,4.85905e-18,-4.65992e-18,-0.0386407,72.3211,96.6217)"
   id="g9">
                            <path
   d="M645.021,116.888L932.001,116.888"
   style="fill:none;stroke:black;stroke-width:19.16px;"
   id="path9" />
                        </g>
                        <g
   transform="matrix(2.46715e-18,0.0390625,-0.0386406,2.29387e-18,40.4315,55.6988)"
   id="g10">
                            <path
   d="M645.021,116.888L932.001,116.888"
   style="fill:none;stroke:black;stroke-width:19.16px;"
   id="path10" />
                        </g>
                        <g
   transform="matrix(-0.0390624,4.85905e-18,-4.65992e-18,-0.0386407,72.3211,85.4115)"
   id="g11">
                            <path
   d="M645.021,116.888L932.001,116.888"
   style="fill:none;stroke:black;stroke-width:19.16px;"
   id="path11" />
                        </g>
                        <g
   transform="matrix(2.46715e-18,0.0390625,-0.0386406,2.29387e-18,44.1682,55.6988)"
   id="g12">
                            <path
   d="M645.021,116.888L932.001,116.888"
   style="fill:none;stroke:black;stroke-width:10.05px;"
   id="path12" />
                        </g>
                        <g
   transform="matrix(0.0576839,-3.71206e-19,7.00098e-18,0.606633,-93.9155,2.01938)"
   id="g13">
                            <path
   d="M2334,130.022L2297,130.022L2297,140.371C2297,140.718 2299.97,141 2303.62,141L2327.38,141C2331.03,141 2334,140.718 2334,140.371L2334,130.022Z"
   id="path13" />
                        </g>
                        <g
   transform="matrix(0.0576839,-3.71206e-19,7.00098e-18,0.606633,-90.1788,2.01938)"
   id="g14">
                            <path
   d="M2334,130.022L2297,130.022L2297,140.371C2297,140.718 2299.97,141 2303.62,141L2327.38,141C2331.03,141 2334,140.718 2334,140.371L2334,130.022Z"
   id="path14" />
                        </g>
                        <g
   transform="matrix(2.46715e-18,0.0390625,-0.0386406,2.29387e-18,47.9049,55.6988)"
   id="g15">
                            <path
   d="M645.021,116.888L932.001,116.888"
   style="fill:none;stroke:black;stroke-width:10.05px;"
   id="path15" />
                        </g>
                    </g>
                </g>
            </g>
        </g>
    </g>
    <defs
   id="defs24">
        <linearGradient
   id="_Linear1"
   x1="0"
   y1="0"
   x2="1"
   y2="0"
   gradientUnits="userSpaceOnUse"
   gradientTransform="matrix(9.11314e-16,-15,14.8829,9.18485e-16,41.5,62)"><stop
     offset="0"
     style="stop-color:rgb(198,75,38);stop-opacity:1"
     id="stop18" /><stop
     offset="1"
     style="stop-color:rgb(255,113,70);stop-opacity:1"
     id="stop19" /></linearGradient>
        <linearGradient
   id="_Linear2"
   x1="0"
   y1="0"
   x2="1"
   y2="0"
   gradientUnits="userSpaceOnUse"
   gradientTransform="matrix(9.18485e-16,15,-15,9.18485e-16,41.5,47)"><stop
     offset="0"
     style="stop-color:rgb(114,211,244);stop-opacity:1"
     id="stop20" /><stop
     offset="1"
     style="stop-color:rgb(21,161,208);stop-opacity:1"
     id="stop21" /></linearGradient>
        <linearGradient
   id="_Linear4"
   x1="0"
   y1="0"
   x2="1"
   y2="0"
   gradientUnits="userSpaceOnUse"
   gradientTransform="matrix(9.25713e-16,-15.118,15.118,9.25713e-16,41.1144,62.118)"><stop
     offset="0"
     style="stop-color:rgb(209,164,0);stop-opacity:1"
     id="stop22" /><stop
     offset="0.6"
     style="stop-color:rgb(255,207,33);stop-opacity:1"
     id="stop23" /><stop
     offset="1"
     style="stop-color:rgb(255,218,86);stop-opacity:1"
     id="stop24" /></linearGradient>
    <linearGradient
   id="_Linear2-6"
   x1="0"
   y1="0"
   x2="1"
   y2="0"
   gradientUnits="userSpaceOnUse"
   gradientTransform="matrix(9,-0.333333,0.237664,5,5,10.3333)"><stop
     offset="0"
     style="stop-color:rgb(209,164,0);stop-opacity:1"
     id="stop11" /><stop
     offset="0.5"
     style="stop-color:rgb(255,207,33);stop-opacity:1"
     id="stop12" /><stop
     offset="1"
     style="stop-color:rgb(133,124,88);stop-opacity:1"
     id="stop13" /></linearGradient><radialGradient
   id="_Radial3"
   cx="0"
   cy="0"
   r="1"
   gradientUnits="userSpaceOnUse"
   gradientTransform="matrix(3.18182,0,0,2.4691,-7,21.0512)"><stop
     offset="0"
     style="stop-color:rgb(255,220,95);stop-opacity:1"
     id="stop14" /><stop
     offset="1"
     style="stop-color:rgb(209,164,0);stop-opacity:1"
     id="stop15" /></radialGradient><linearGradient
   id="_Linear1-3"
   x1="0"
   y1="0"
   x2="1"
   y2="0"
   gradientUnits="userSpaceOnUse"
   gradientTransform="matrix(0,-15.118,15.118,0,41.1144,62.118)"><stop
     offset="0"
     style="stop-color:rgb(209,164,0);stop-opacity:1"
     id="stop5-7" /><stop
     offset="0.6"
     style="stop-color:rgb(255,207,33);stop-opacity:1"
     id="stop6-5" /><stop
     offset="1"
     style="stop-color:rgb(255,218,86);stop-opacity:1"
     id="stop7-3" /></linearGradient><linearGradient
   id="_Linear1-8"
   x1="0"
   y1="0"
   x2="1"
   y2="0"
   gradientUnits="userSpaceOnUse"
   gradientTransform="matrix(0,-15,14.8829,0,41.5,62)"><stop
     offset="0"
     style="stop-color:rgb(198,75,38);stop-opacity:1"
     id="stop10" /><stop
     offset="1"
     style="stop-color:rgb(255,113,70);stop-opacity:1"
     id="stop11-9" /></linearGradient><linearGradient
   id="_Linear3"
   x1="0"
   y1="0"
   x2="1"
   y2="0"
   gradientUnits="userSpaceOnUse"
   gradientTransform="matrix(0,2,-1.57083,0,42.8927,139)"><stop
     offset="0"
     style="stop-color:black;stop-opacity:0"
     id="stop12-3" /><stop
     offset="1"
     style="stop-color:black;stop-opacity:0.42"
     id="stop13-6" /></linearGradient></defs>
</svg>
