<?xml version="1.0" encoding="UTF-8" standalone="no"?>
<svg
   width="23px"
   height="23px"
   version="1.1"
   xml:space="preserve"
   style="fill-rule:evenodd;clip-rule:evenodd;stroke-linejoin:round;stroke-miterlimit:2;"
   id="svg44"
   sodipodi:docname="library_music.svg"
   inkscape:version="1.4 (e7c3feb100, 2024-10-09)"
   xmlns:inkscape="http://www.inkscape.org/namespaces/inkscape"
   xmlns:sodipodi="http://sodipodi.sourceforge.net/DTD/sodipodi-0.dtd"
   xmlns="http://www.w3.org/2000/svg"
   xmlns:svg="http://www.w3.org/2000/svg"
   xmlns:serif="http://www.serif.com/"><sodipodi:namedview
   id="namedview44"
   pagecolor="#505050"
   bordercolor="#ffffff"
   borderopacity="1"
   inkscape:showpageshadow="0"
   inkscape:pageopacity="0"
   inkscape:pagecheckerboard="1"
   inkscape:deskcolor="#505050"
   inkscape:zoom="36.769552"
   inkscape:cx="11.939226"
   inkscape:cy="21.947507"
   inkscape:window-width="2560"
   inkscape:window-height="1403"
   inkscape:window-x="0"
   inkscape:window-y="0"
   inkscape:window-maximized="1"
   inkscape:current-layer="Folder-back" />
    <g
   transform="matrix(1,0,0,1,-287,0)"
   id="g12">
        <g
   transform="matrix(1.21053,0,0,1.21053,248.263,-54.4737)"
   id="g11">
            <rect
   id="library_music"
   x="32"
   y="45"
   width="19"
   height="19"
   style="fill:none;" />
            <g
   id="library_music1"
   serif:id="library_music">
                <g
   id="Folder-back"
   serif:id="Folder back"
   transform="matrix(0.826087,0,0,0.826087,7.21739,9.47826)">
                    <path
   id="path1"
   style="fill:#c7d6a9;fill-opacity:1"
   d="M 36.000021 46.499838 C 35.337021 46.499838 34.701449 46.763258 34.232449 47.232258 C 33.763449 47.701258 33.500029 48.33683 33.500029 48.99983 L 33.500029 59.999796 C 33.500029 60.662796 33.763449 61.298369 34.232449 61.767369 C 34.701449 62.236369 35.337021 62.499788 36.000021 62.499788 L 46.999987 62.499788 C 48.380987 62.499788 49.49998 61.380796 49.49998 59.999796 L 49.49998 51.999821 C 49.49998 50.618821 48.380987 49.499829 46.999987 49.499829 L 43.634763 49.499829 C 43.041763 49.499829 42.504674 49.151206 42.263674 48.609206 L 41.984378 47.984208 C 41.583378 47.082208 40.688182 46.499838 39.701182 46.499838 L 36.000021 46.499838 z M 41.806644 48.812331 C 41.846769 48.902581 41.891521 48.990283 41.943362 49.072096 C 41.891521 48.990283 41.846769 48.902581 41.806644 48.812331 z M 43.341796 49.978343 C 43.437606 49.992468 43.53406 49.999827 43.63281 49.999827 C 43.53406 49.999827 43.437606 49.992468 43.341796 49.978343 z " />
                    <clipPath
   id="_clip2">
                        <path
   d="M49,52C49,50.895 48.105,50 47,50C45.909,50 44.59,50 43.633,50C42.843,50 42.127,49.535 41.806,48.813C41.715,48.607 41.619,48.393 41.528,48.187C41.207,47.465 40.491,47 39.701,47C38.662,47 37.189,47 36,47C35.47,47 34.961,47.211 34.586,47.586C34.211,47.961 34,48.47 34,49C34,51.871 34,57.129 34,60C34,60.53 34.211,61.039 34.586,61.414C34.961,61.789 35.47,62 36,62L47,62C48.105,62 49,61.105 49,60C49,57.78 49,54.22 49,52Z"
   id="path2" />
                    </clipPath>
                    <g
   clip-path="url(#_clip2)"
   id="g10">
                        <g
   transform="matrix(0.592435,0,0,0.592435,-135.342,49.7359)"
   id="g9">
                            <circle
   cx="298.5"
   cy="10.5"
   r="8.5"
   style="fill:url(#_Linear3);"
   id="circle2" />
                            <clipPath
   id="_clip4">
                                <circle
   cx="298.5"
   cy="10.5"
   r="8.5"
   id="circle3" />
                            </clipPath>
                            <g
   clip-path="url(#_clip4)"
   id="g8">
                                <g
   transform="matrix(0.846385,0,0,0.846385,45.8542,1.61296)"
   id="g3">
                                    <path
   d="M298.5,2C303.191,2 307,5.809 307,10.5C307,15.191 303.191,19 298.5,19C293.809,19 290,15.191 290,10.5C290,5.809 293.809,2 298.5,2ZM298.5,2.798C294.249,2.798 290.798,6.249 290.798,10.5C290.798,14.751 294.249,18.202 298.5,18.202C302.751,18.202 306.202,14.751 306.202,10.5C306.202,6.249 302.751,2.798 298.5,2.798Z"
   style="fill:url(#_Linear5);"
   id="path3" />
                                </g>
                                <g
   transform="matrix(0.706574,0,0,0.706574,87.5878,3.08098)"
   id="g4">
                                    <path
   d="M298.5,2C303.191,2 307,5.809 307,10.5C307,15.191 303.191,19 298.5,19C293.809,19 290,15.191 290,10.5C290,5.809 293.809,2 298.5,2ZM298.5,2.956C294.336,2.956 290.956,6.336 290.956,10.5C290.956,14.664 294.336,18.044 298.5,18.044C302.664,18.044 306.044,14.664 306.044,10.5C306.044,6.336 302.664,2.956 298.5,2.956Z"
   style="fill:url(#_Linear6);"
   id="path4" />
                                </g>
                                <g
   transform="matrix(0.589857,0,0,0.589857,122.428,4.3065)"
   id="g5">
                                    <path
   d="M298.5,2C303.191,2 307,5.809 307,10.5C307,15.191 303.191,19 298.5,19C293.809,19 290,15.191 290,10.5C290,5.809 293.809,2 298.5,2ZM298.5,3.145C294.44,3.145 291.145,6.44 291.145,10.5C291.145,14.56 294.44,17.855 298.5,17.855C302.56,17.855 305.855,14.56 305.855,10.5C305.855,6.44 302.56,3.145 298.5,3.145Z"
   style="fill:url(#_Linear7);"
   id="path5" />
                                </g>
                                <g
   transform="matrix(0.466667,0,0,0.466667,159.2,5.6)"
   id="g6">
                                    <circle
   cx="298.5"
   cy="10.5"
   r="7.5"
   style="fill:url(#_Linear8);"
   id="circle5" />
                                </g>
                                <g
   transform="matrix(0.0666667,0,0,0.0666667,278.6,9.8)"
   id="g7">
                                    <circle
   cx="298.5"
   cy="10.5"
   r="7.5"
   style="fill:rgb(121,59,52);"
   id="circle6" />
                                </g>
                            </g>
                            <path
   d="M298.5,2C303.191,2 307,5.809 307,10.5C307,15.191 303.191,19 298.5,19C293.809,19 290,15.191 290,10.5C290,5.809 293.809,2 298.5,2ZM298.5,2.928C294.321,2.928 290.928,6.321 290.928,10.5C290.928,14.679 294.321,18.072 298.5,18.072C302.679,18.072 306.072,14.679 306.072,10.5C306.072,6.321 302.679,2.928 298.5,2.928Z"
   style="fill:#000000;fill-opacity:1"
   id="path8" />
                        </g>
                    </g>
                    
                </g>
            </g>
        </g>
    </g>
    <defs
   id="defs44">
        <linearGradient
   id="_Linear1"
   x1="0"
   y1="0"
   x2="1"
   y2="0"
   gradientUnits="userSpaceOnUse"
   gradientTransform="matrix(9.18485e-16,-15,15,9.18485e-16,40,62)"><stop
     offset="0"
     style="stop-color:rgb(139,162,104);stop-opacity:1"
     id="stop12" /><stop
     offset="1"
     style="stop-color:rgb(202,222,172);stop-opacity:1"
     id="stop13" /></linearGradient>
        <linearGradient
   id="_Linear3"
   x1="0"
   y1="0"
   x2="1"
   y2="0"
   gradientUnits="userSpaceOnUse"
   gradientTransform="matrix(8,16,-16,8,294,2)"><stop
     offset="0"
     style="stop-color:rgb(64,64,64);stop-opacity:1"
     id="stop14" /><stop
     offset="0.24"
     style="stop-color:rgb(26,26,26);stop-opacity:1"
     id="stop15" /><stop
     offset="0.49"
     style="stop-color:rgb(36,36,36);stop-opacity:1"
     id="stop16" /><stop
     offset="0.58"
     style="stop-color:rgb(57,57,57);stop-opacity:1"
     id="stop17" /><stop
     offset="0.66"
     style="stop-color:rgb(77,77,77);stop-opacity:1"
     id="stop18" /><stop
     offset="0.81"
     style="stop-color:rgb(67,67,67);stop-opacity:1"
     id="stop19" /><stop
     offset="1"
     style="stop-color:rgb(64,64,64);stop-opacity:1"
     id="stop20" /></linearGradient>
        <linearGradient
   id="_Linear5"
   x1="0"
   y1="0"
   x2="1"
   y2="0"
   gradientUnits="userSpaceOnUse"
   gradientTransform="matrix(15.6923,17,-17,15.6923,290,2)"><stop
     offset="0"
     style="stop-color:rgb(64,64,64);stop-opacity:1"
     id="stop21" /><stop
     offset="0.24"
     style="stop-color:rgb(26,26,26);stop-opacity:1"
     id="stop22" /><stop
     offset="0.49"
     style="stop-color:rgb(36,36,36);stop-opacity:1"
     id="stop23" /><stop
     offset="0.58"
     style="stop-color:rgb(57,57,57);stop-opacity:1"
     id="stop24" /><stop
     offset="0.66"
     style="stop-color:rgb(77,77,77);stop-opacity:1"
     id="stop25" /><stop
     offset="0.81"
     style="stop-color:rgb(67,67,67);stop-opacity:1"
     id="stop26" /><stop
     offset="1"
     style="stop-color:rgb(64,64,64);stop-opacity:1"
     id="stop27" /></linearGradient>
        <linearGradient
   id="_Linear6"
   x1="0"
   y1="0"
   x2="1"
   y2="0"
   gradientUnits="userSpaceOnUse"
   gradientTransform="matrix(15.6923,17,-17,15.6923,290,2)"><stop
     offset="0"
     style="stop-color:rgb(64,64,64);stop-opacity:1"
     id="stop28" /><stop
     offset="0.24"
     style="stop-color:rgb(26,26,26);stop-opacity:1"
     id="stop29" /><stop
     offset="0.49"
     style="stop-color:rgb(36,36,36);stop-opacity:1"
     id="stop30" /><stop
     offset="0.58"
     style="stop-color:rgb(57,57,57);stop-opacity:1"
     id="stop31" /><stop
     offset="0.66"
     style="stop-color:rgb(77,77,77);stop-opacity:1"
     id="stop32" /><stop
     offset="0.81"
     style="stop-color:rgb(67,67,67);stop-opacity:1"
     id="stop33" /><stop
     offset="1"
     style="stop-color:rgb(64,64,64);stop-opacity:1"
     id="stop34" /></linearGradient>
        <linearGradient
   id="_Linear7"
   x1="0"
   y1="0"
   x2="1"
   y2="0"
   gradientUnits="userSpaceOnUse"
   gradientTransform="matrix(15.6923,17,-17,15.6923,290,2)"><stop
     offset="0"
     style="stop-color:rgb(64,64,64);stop-opacity:1"
     id="stop35" /><stop
     offset="0.24"
     style="stop-color:rgb(26,26,26);stop-opacity:1"
     id="stop36" /><stop
     offset="0.49"
     style="stop-color:rgb(36,36,36);stop-opacity:1"
     id="stop37" /><stop
     offset="0.58"
     style="stop-color:rgb(57,57,57);stop-opacity:1"
     id="stop38" /><stop
     offset="0.66"
     style="stop-color:rgb(77,77,77);stop-opacity:1"
     id="stop39" /><stop
     offset="0.81"
     style="stop-color:rgb(67,67,67);stop-opacity:1"
     id="stop40" /><stop
     offset="1"
     style="stop-color:rgb(64,64,64);stop-opacity:1"
     id="stop41" /></linearGradient>
        <linearGradient
   id="_Linear8"
   x1="0"
   y1="0"
   x2="1"
   y2="0"
   gradientUnits="userSpaceOnUse"
   gradientTransform="matrix(2.14286,10.7143,-10.7143,2.14286,297.429,5.14286)"><stop
     offset="0"
     style="stop-color:rgb(205,80,64);stop-opacity:1"
     id="stop42" /><stop
     offset="0.5"
     style="stop-color:rgb(218,115,103);stop-opacity:1"
     id="stop43" /><stop
     offset="1"
     style="stop-color:rgb(198,69,53);stop-opacity:1"
     id="stop44" /></linearGradient>
    </defs>
</svg>
