<?xml version="1.0" encoding="UTF-8" standalone="no"?>
<svg
   width="17px"
   height="9px"
   version="1.1"
   xml:space="preserve"
   style="fill-rule:evenodd;clip-rule:evenodd;stroke-linejoin:round;stroke-miterlimit:2;"
   id="svg16"
   sodipodi:docname="many_collections.svg"
   inkscape:version="1.4 (e7c3feb100, 2024-10-09)"
   xmlns:inkscape="http://www.inkscape.org/namespaces/inkscape"
   xmlns:sodipodi="http://sodipodi.sourceforge.net/DTD/sodipodi-0.dtd"
   xmlns="http://www.w3.org/2000/svg"
   xmlns:svg="http://www.w3.org/2000/svg"
   xmlns:serif="http://www.serif.com/"><sodipodi:namedview
   id="namedview16"
   pagecolor="#505050"
   bordercolor="#ffffff"
   borderopacity="1"
   inkscape:showpageshadow="0"
   inkscape:pageopacity="0"
   inkscape:pagecheckerboard="1"
   inkscape:deskcolor="#505050"
   inkscape:zoom="33.222222"
   inkscape:cx="12.311037"
   inkscape:cy="0"
   inkscape:window-width="2560"
   inkscape:window-height="1403"
   inkscape:window-x="0"
   inkscape:window-y="0"
   inkscape:window-maximized="1"
   inkscape:current-layer="svg16" />
    <g
   transform="matrix(1,0,0,1,-31,-384)"
   id="g7">
        <g
   transform="matrix(0.894737,0,0,0.473684,-54.8947,286.895)"
   id="g6">
            <rect
   id="many_collections"
   x="96"
   y="205"
   width="19"
   height="19"
   style="fill:none;" />
            <g
   id="many_collections1"
   serif:id="many_collections"
   style="fill:#96de88;fill-opacity:1">
                <g
   transform="matrix(0.977941,0,0,1.84722,55.0662,-443.111)"
   id="g1"
   style="fill:#96de88;fill-opacity:1">
                    <path
   d="M51,356C51,353.792 49.208,352 47,352C44.792,352 43,353.792 43,356C43,358.208 44.792,360 47,360C49.208,360 51,358.208 51,356Z"
   style="fill:#96de88;fill-opacity:1"
   id="path1" />
                </g>
                <g
   transform="matrix(1.11765,0,0,2.11111,61.3529,-605.667)"
   id="g2"
   style="fill:#96de88;fill-opacity:1">
                    <path
   d="M37,391.964C38.695,391.722 40,390.262 40,388.5C40,386.738 38.695,385.278 37,385.036C37.163,385.012 37.33,385 37.5,385C39.432,385 41,386.568 41,388.5C41,390.432 39.432,392 37.5,392C37.33,392 37.163,391.988 37,391.964Z"
   style="fill:#96de88;fill-opacity:1"
   id="path2" />
                </g>
                <g
   transform="matrix(1.11765,0,0,2.11111,63.5882,-605.667)"
   id="g3"
   style="fill:#96de88;fill-opacity:1">
                    <path
   d="M37,391.964C38.695,391.722 40,390.262 40,388.5C40,386.738 38.695,385.278 37,385.036C37.163,385.012 37.33,385 37.5,385C39.432,385 41,386.568 41,388.5C41,390.432 39.432,392 37.5,392C37.33,392 37.163,391.988 37,391.964Z"
   style="fill:#96de88;fill-opacity:1"
   id="path3" />
                </g>
                <g
   transform="matrix(1.11765,0,0,2.11111,65.8235,-605.667)"
   id="g4"
   style="fill:#96de88;fill-opacity:1">
                    <path
   d="M37,391.964C38.695,391.722 40,390.262 40,388.5C40,386.738 38.695,385.278 37,385.036C37.163,385.012 37.33,385 37.5,385C39.432,385 41,386.568 41,388.5C41,390.432 39.432,392 37.5,392C37.33,392 37.163,391.988 37,391.964Z"
   style="fill:#96de88;fill-opacity:1"
   id="path4" />
                </g>
                <g
   transform="matrix(1.11765,0,0,2.11111,68.0588,-605.667)"
   id="g5"
   style="fill:#96de88;fill-opacity:1">
                    <path
   d="M37,391.964C38.695,391.722 40,390.262 40,388.5C40,386.738 38.695,385.278 37,385.036C37.163,385.012 37.33,385 37.5,385C39.432,385 41,386.568 41,388.5C41,390.432 39.432,392 37.5,392C37.33,392 37.163,391.988 37,391.964Z"
   style="fill:#96de88;fill-opacity:1"
   id="path5" />
                </g>
            </g>
        </g>
    </g>
    <defs
   id="defs16">
        <linearGradient
   id="_Linear1"
   x1="0"
   y1="0"
   x2="1"
   y2="0"
   gradientUnits="userSpaceOnUse"
   gradientTransform="matrix(4.89859e-16,8,-8,4.89859e-16,47.4444,352)"><stop
     offset="0"
     style="stop-color:rgb(114,188,77);stop-opacity:1"
     id="stop7" /><stop
     offset="1"
     style="stop-color:rgb(75,166,29);stop-opacity:0.77"
     id="stop8" /></linearGradient>
        <linearGradient
   id="_Linear2"
   x1="0"
   y1="0"
   x2="1"
   y2="0"
   gradientUnits="userSpaceOnUse"
   gradientTransform="matrix(2.44929e-16,7,-4,4.28626e-16,39.2222,385)"><stop
     offset="0"
     style="stop-color:rgb(114,188,77);stop-opacity:1"
     id="stop9" /><stop
     offset="1"
     style="stop-color:rgb(75,166,29);stop-opacity:0.77"
     id="stop10" /></linearGradient>
        <linearGradient
   id="_Linear3"
   x1="0"
   y1="0"
   x2="1"
   y2="0"
   gradientUnits="userSpaceOnUse"
   gradientTransform="matrix(2.44929e-16,7,-4,4.28626e-16,39.2222,385)"><stop
     offset="0"
     style="stop-color:rgb(114,188,77);stop-opacity:1"
     id="stop11" /><stop
     offset="1"
     style="stop-color:rgb(75,166,29);stop-opacity:0.77"
     id="stop12" /></linearGradient>
        <linearGradient
   id="_Linear4"
   x1="0"
   y1="0"
   x2="1"
   y2="0"
   gradientUnits="userSpaceOnUse"
   gradientTransform="matrix(2.44929e-16,7,-4,4.28626e-16,39.2222,385)"><stop
     offset="0"
     style="stop-color:rgb(114,188,77);stop-opacity:1"
     id="stop13" /><stop
     offset="1"
     style="stop-color:rgb(75,166,29);stop-opacity:0.77"
     id="stop14" /></linearGradient>
        <linearGradient
   id="_Linear5"
   x1="0"
   y1="0"
   x2="1"
   y2="0"
   gradientUnits="userSpaceOnUse"
   gradientTransform="matrix(2.44929e-16,7,-4,4.28626e-16,39.2222,385)"><stop
     offset="0"
     style="stop-color:rgb(114,188,77);stop-opacity:1"
     id="stop15" /><stop
     offset="1"
     style="stop-color:rgb(75,166,29);stop-opacity:0.77"
     id="stop16" /></linearGradient>
    </defs>
</svg>
