<?xml version="1.0" encoding="UTF-8" standalone="no"?>
<svg
   width="23px"
   height="23px"
   version="1.1"
   xml:space="preserve"
   style="fill-rule:evenodd;clip-rule:evenodd;stroke-linejoin:round;stroke-miterlimit:2;"
   id="svg14"
   sodipodi:docname="MIDI_file.svg"
   inkscape:version="1.4 (e7c3feb100, 2024-10-09)"
   xmlns:inkscape="http://www.inkscape.org/namespaces/inkscape"
   xmlns:sodipodi="http://sodipodi.sourceforge.net/DTD/sodipodi-0.dtd"
   xmlns="http://www.w3.org/2000/svg"
   xmlns:svg="http://www.w3.org/2000/svg"
   xmlns:serif="http://www.serif.com/"><sodipodi:namedview
   id="namedview14"
   pagecolor="#505050"
   bordercolor="#ffffff"
   borderopacity="1"
   inkscape:showpageshadow="0"
   inkscape:pageopacity="0"
   inkscape:pagecheckerboard="1"
   inkscape:deskcolor="#505050"
   inkscape:zoom="13"
   inkscape:cx="-25.769231"
   inkscape:cy="19.230769"
   inkscape:window-width="2560"
   inkscape:window-height="1403"
   inkscape:window-x="0"
   inkscape:window-y="0"
   inkscape:window-maximized="1"
   inkscape:current-layer="g4" />
    <g
   transform="matrix(1,0,0,1,-319,-98)"
   id="g9">
        <g
   transform="matrix(1.21053,0,0,1.21053,-29.6316,43.5263)"
   id="g8">
            <rect
   id="MIDI_file"
   x="288"
   y="45"
   width="19"
   height="19"
   style="display:none;fill:none" />
            <g
   id="MIDI_file1"
   serif:id="MIDI_file"
   style="display:inline">
                <g
   transform="matrix(0.936232,0,0,0.936232,258.646,3.47536)"
   id="g5">
                    <path
   d="M 49,48.765 C 49,47.791 48.209,47 47.235,47 H 35.765 C 34.791,47 34,47.791 34,48.765 v 11.47 C 34,61.209 34.791,62 35.765,62 h 11.47 C 48.209,62 49,61.209 49,60.235 Z"
   id="path1" />
                    <clipPath
   id="_clip1">
                        <path
   d="M 49,48.765 C 49,47.791 48.209,47 47.235,47 H 35.765 C 34.791,47 34,47.791 34,48.765 v 11.47 C 34,61.209 34.791,62 35.765,62 h 11.47 C 48.209,62 49,61.209 49,60.235 Z"
   id="path2" />
                    </clipPath>
                    <g
   clip-path="url(#_clip1)"
   id="g4">
                        <g
   transform="matrix(1.15385,0,0,1.76471,-229.077,-16.5294)"
   id="g2">
                            <path
   id="rect2"
   style="fill:#82a4b0"
   d="M 228.00034 35.999828 L 228.00034 36.983221 C 228.0002 36.988838 227.99885 36.994183 227.99885 36.999822 L 227.99885 43.499787 C 227.99885 44.051719 228.68412 44.499781 229.52825 44.499781 L 239.46936 44.499781 C 240.31349 44.499781 240.99877 44.051719 240.99877 43.499787 L 240.99877 37.999817 L 241.00026 37.999817 L 241.00026 35.999828 L 239.46936 35.999828 L 229.52825 35.999828 L 228.00034 35.999828 z M 228.76355 37.999817 L 240.23556 37.999817 L 240.23556 43.499787 C 240.23556 43.775753 239.89143 43.999784 239.46936 43.999784 L 229.52825 43.999784 C 229.10619 43.999784 228.76355 43.775753 228.76355 43.499787 L 228.76355 37.999817 z " />
                        </g>
                        <g
   transform="matrix(1.21324,0,0,1.05882,-48.2794,-34.8824)"
   id="g3">
                            <path
   d="m 74,89 h -4 v -1 h 4 z m 4,-2.417 h -3 v -1 h 3 z m -4,-2.416 h -4 v -1 h 4 z"
   style="fill:#82a4b0;fill-opacity:1"
   id="path3" />
                        </g>
                    </g>
                    
                </g>
                <g
   transform="matrix(0.936232,0,0,0.936232,258.646,3.47536)"
   id="g6">
                    
                </g>
                <g
   transform="matrix(0.928922,0,0,0.928922,-69.8887,-47.217)"
   id="g7">
                    <path
   d="m 403.445,103.779 v 11.442 c 0,1.227 -0.997,2.224 -2.224,2.224 h -11.442 c -1.227,0 -2.224,-0.997 -2.224,-2.224 v -11.442 c 0,-1.227 0.997,-2.224 2.224,-2.224 h 11.442 c 1.227,0 2.224,0.997 2.224,2.224 z m -0.445,0 C 403,102.797 402.203,102 401.221,102 h -11.442 c -0.982,0 -1.779,0.797 -1.779,1.779 v 11.442 c 0,0.982 0.797,1.779 1.779,1.779 h 11.442 c 0.982,0 1.779,-0.797 1.779,-1.779 z"
   style="fill-opacity:1;fill:#82a4b0"
   id="path6" />
                </g>
            </g>
        </g>
    </g>
    <defs
   id="defs14">
        <linearGradient
   id="_Linear2"
   x1="0"
   y1="0"
   x2="1"
   y2="0"
   gradientUnits="userSpaceOnUse"
   gradientTransform="matrix(3.26572e-16,6.11111,-5.33333,3.74198e-16,72.9091,83.1667)"><stop
     offset="0"
     style="stop-color:rgb(151,183,193);stop-opacity:1"
     id="stop9" /><stop
     offset="1"
     style="stop-color:rgb(73,133,151);stop-opacity:1"
     id="stop10" /></linearGradient>
        <linearGradient
   id="_Linear3"
   x1="0"
   y1="0"
   x2="1"
   y2="0"
   gradientUnits="userSpaceOnUse"
   gradientTransform="matrix(9.18485e-16,15,-15,9.18485e-16,41.5,47)"><stop
     offset="0"
     style="stop-color:rgb(152,183,193);stop-opacity:1"
     id="stop11" /><stop
     offset="1"
     style="stop-color:rgb(83,124,139);stop-opacity:1"
     id="stop12" /></linearGradient>
        <radialGradient
   id="_Radial4"
   cx="0"
   cy="0"
   r="1"
   gradientUnits="userSpaceOnUse"
   gradientTransform="matrix(5.73529,-6.61765,6.61765,5.73529,41.5,54.5)"><stop
     offset="0"
     style="stop-color:rgb(196,196,196);stop-opacity:0.21"
     id="stop13" /><stop
     offset="1"
     style="stop-color:rgb(44,44,44);stop-opacity:0.57"
     id="stop14" /></radialGradient>
    </defs>
</svg>
