<?xml version="1.0" encoding="UTF-8" standalone="no"?>
<svg
   width="23px"
   height="23px"
   version="1.1"
   xml:space="preserve"
   style="fill-rule:evenodd;clip-rule:evenodd;stroke-linejoin:round;stroke-miterlimit:2;"
   id="svg7"
   sodipodi:docname="modulator_voice_stacking.svg"
   inkscape:version="1.4 (e7c3feb100, 2024-10-09)"
   xmlns:inkscape="http://www.inkscape.org/namespaces/inkscape"
   xmlns:sodipodi="http://sodipodi.sourceforge.net/DTD/sodipodi-0.dtd"
   xmlns="http://www.w3.org/2000/svg"
   xmlns:svg="http://www.w3.org/2000/svg"
   xmlns:serif="http://www.serif.com/"><sodipodi:namedview
   id="namedview7"
   pagecolor="#505050"
   bordercolor="#ffffff"
   borderopacity="1"
   inkscape:showpageshadow="0"
   inkscape:pageopacity="0"
   inkscape:pagecheckerboard="1"
   inkscape:deskcolor="#505050"
   inkscape:zoom="26"
   inkscape:cx="2.6923077"
   inkscape:cy="12.346154"
   inkscape:window-width="2560"
   inkscape:window-height="1403"
   inkscape:window-x="0"
   inkscape:window-y="0"
   inkscape:window-maximized="1"
   inkscape:current-layer="g6" />
    <g
   transform="matrix(1,0,0,1,-126.982,-258)"
   id="g6">
        <g
   transform="matrix(1.21053,0,0,1.21053,-27.9652,9.84211)"
   id="g5">
            <rect
   id="modulator_voice_stacking"
   x="128"
   y="205"
   width="19"
   height="19"
   style="fill:none;" />
            <g
   id="modulator_voice_stacking1"
   serif:id="modulator_voice_stacking">
                <g
   transform="matrix(0.936232,0,0,0.936232,128.606,-16.2812)"
   id="g2">
                    <g
   id="Modulator-Shape"
   serif:id="Modulator Shape">
                        <g
   id="Modulator-Shape1"
   serif:id="Modulator Shape">
                            <path
   id="path1"
   style="fill:#5381e0;fill-opacity:1"
   d="M 3.7656339 238.55816 C 3.1806339 238.55816 2.6182877 238.79041 2.2042877 239.20441 C 1.7902877 239.61841 1.5597585 240.18076 1.5597585 240.76576 L 1.5597585 252.23459 C 1.5597585 252.81959 1.7902877 253.38021 2.2042877 253.79421 C 2.6182877 254.20821 3.1806339 254.44046 3.7656339 254.44046 L 15.234462 254.44046 C 15.819462 254.44046 16.381809 254.20821 16.795809 253.79421 C 17.209809 253.38021 17.440338 252.81959 17.440338 252.23459 L 17.440338 240.76576 C 17.440338 240.18076 17.209809 239.61841 16.795809 239.20441 C 16.381809 238.79041 15.819462 238.55816 15.234462 238.55816 L 3.7656339 238.55816 z " />
                            
                        </g>
                    </g>
                </g>
                <g
   transform="matrix(0.826087,0,0,0.826087,137.5,214.5)"
   id="g4">
                    <g
   transform="matrix(1,0,0,1,-8.5,-8.5)"
   id="g3">
                        <path
   id="rect4746-8"
   d="M13.555,9.893L12.701,10.442L13.318,10.821L8.5,13.776L3.682,10.821L4.299,10.442L3.445,9.893L2,10.821L8.5,15L15,10.821L13.555,9.893ZM8.5,2L2,6.179L8.5,10.357L15,6.179L8.5,2ZM8.5,3.224L13.318,6.179L8.5,9.133L3.682,6.179L8.5,3.224ZM13.555,7.571L12.701,8.121L13.318,8.5L8.5,11.454L3.682,8.5L4.299,8.121L3.445,7.571L2,8.5L8.5,12.679L15,8.5L13.555,7.571Z"
   style="fill-rule:nonzero;" />
                    </g>
                </g>
            </g>
        </g>
    </g>
    <defs
   id="defs7">
        <linearGradient
   id="_Linear1"
   x1="0"
   y1="0"
   x2="1"
   y2="0"
   gradientUnits="userSpaceOnUse"
   gradientTransform="matrix(6.17647,8.82353,-8.82353,6.17647,6.41176,242.529)"><stop
     offset="0"
     style="stop-color:rgb(127,216,241);stop-opacity:1"
     id="stop6" /><stop
     offset="1"
     style="stop-color:rgb(38,163,191);stop-opacity:1"
     id="stop7" /></linearGradient>
    <linearGradient
   id="_Linear1-3"
   x1="0"
   y1="0"
   x2="1"
   y2="0"
   gradientUnits="userSpaceOnUse"
   gradientTransform="matrix(9.18485e-16,15,-15,9.18485e-16,41.5,47)"><stop
     offset="0"
     style="stop-color:rgb(114,211,244);stop-opacity:1"
     id="stop5-5" /><stop
     offset="1"
     style="stop-color:rgb(21,161,208);stop-opacity:1"
     id="stop6-9" /></linearGradient></defs>
</svg>
