<?xml version="1.0" encoding="UTF-8" standalone="no"?>
<svg
   width="23px"
   height="23px"
   version="1.1"
   xml:space="preserve"
   style="fill-rule:evenodd;clip-rule:evenodd;stroke-linecap:round;stroke-linejoin:round;stroke-miterlimit:1.5;"
   id="svg6"
   sodipodi:docname="modulator_envelope.svg"
   inkscape:version="1.4 (e7c3feb100, 2024-10-09)"
   xmlns:inkscape="http://www.inkscape.org/namespaces/inkscape"
   xmlns:sodipodi="http://sodipodi.sourceforge.net/DTD/sodipodi-0.dtd"
   xmlns="http://www.w3.org/2000/svg"
   xmlns:svg="http://www.w3.org/2000/svg"
   xmlns:serif="http://www.serif.com/"><sodipodi:namedview
   id="namedview6"
   pagecolor="#505050"
   bordercolor="#ffffff"
   borderopacity="1"
   inkscape:showpageshadow="0"
   inkscape:pageopacity="0"
   inkscape:pagecheckerboard="1"
   inkscape:deskcolor="#505050"
   inkscape:zoom="18.384776"
   inkscape:cx="20.995632"
   inkscape:cy="9.0292097"
   inkscape:window-width="2560"
   inkscape:window-height="1403"
   inkscape:window-x="0"
   inkscape:window-y="0"
   inkscape:window-maximized="1"
   inkscape:current-layer="svg6" />
    <g
   transform="matrix(1,0,0,1,-95,-290)"
   id="g5">
        <g
   transform="matrix(1.21053,0,0,1.21053,17.5263,3.10526)"
   id="g4">
            <rect
   id="modulator_envelope"
   x="64"
   y="237"
   width="19"
   height="19"
   style="fill:none;" />
            <g
   id="modulator_envelope1"
   serif:id="modulator_envelope">
                <g
   transform="matrix(0.936232,0,0,0.936232,64.6058,15.7188)"
   id="g2">
                    <g
   id="Modulator-Shape"
   serif:id="Modulator Shape">
                        <g
   id="Modulator-Shape1"
   serif:id="Modulator Shape">
                            <path
   id="path1"
   style="fill:#5381e0;fill-opacity:1"
   d="M 3.7644948 238.55979 C 3.1794948 238.55979 2.618872 238.79032 2.204872 239.20432 C 1.790872 239.61832 1.5586194 240.18066 1.5586194 240.76566 L 1.5586194 252.23449 C 1.5586194 252.81949 1.790872 253.38184 2.204872 253.79584 C 2.618872 254.20984 3.1794948 254.44037 3.7644948 254.44037 L 15.235047 254.44037 C 15.820047 254.44037 16.380669 254.20984 16.794669 253.79584 C 17.208669 253.38184 17.440922 252.81949 17.440922 252.23449 L 17.440922 240.76566 C 17.440922 240.18066 17.208669 239.61832 16.794669 239.20432 C 16.380669 238.79032 15.820047 238.55979 15.235047 238.55979 L 3.7644948 238.55979 z " />
                            
                        </g>
                    </g>
                </g>
                <g
   transform="matrix(0.675889,0,0,0.826087,23.8221,42.8696)"
   id="g3">
                    <path
   d="M68,251L71,242L73,247L77,247L79,251"
   style="fill:none;stroke:black;stroke-width:1.44px;"
   id="path3" />
                </g>
            </g>
        </g>
    </g>
    <defs
   id="defs6">
        <linearGradient
   id="_Linear1"
   x1="0"
   y1="0"
   x2="1"
   y2="0"
   gradientUnits="userSpaceOnUse"
   gradientTransform="matrix(6.17647,8.82353,-8.82353,6.17647,6.41176,242.529)"><stop
     offset="0"
     style="stop-color:rgb(127,216,241);stop-opacity:1"
     id="stop5" /><stop
     offset="1"
     style="stop-color:rgb(38,163,191);stop-opacity:1"
     id="stop6" /></linearGradient>
    <linearGradient
   id="_Linear1-3"
   x1="0"
   y1="0"
   x2="1"
   y2="0"
   gradientUnits="userSpaceOnUse"
   gradientTransform="matrix(9.18485e-16,15,-15,9.18485e-16,41.5,47)"><stop
     offset="0"
     style="stop-color:rgb(114,211,244);stop-opacity:1"
     id="stop5-5" /><stop
     offset="1"
     style="stop-color:rgb(21,161,208);stop-opacity:1"
     id="stop6-9" /></linearGradient></defs>
</svg>
