<?xml version="1.0" encoding="UTF-8" standalone="no"?>
<svg
   width="23px"
   height="23px"
   version="1.1"
   xml:space="preserve"
   style="fill-rule:evenodd;clip-rule:evenodd;stroke-linejoin:round;stroke-miterlimit:2;"
   id="svg6"
   sodipodi:docname="modulator_note_driven.svg"
   inkscape:version="1.4 (e7c3feb100, 2024-10-09)"
   xmlns:inkscape="http://www.inkscape.org/namespaces/inkscape"
   xmlns:sodipodi="http://sodipodi.sourceforge.net/DTD/sodipodi-0.dtd"
   xmlns="http://www.w3.org/2000/svg"
   xmlns:svg="http://www.w3.org/2000/svg"
   xmlns:serif="http://www.serif.com/"><sodipodi:namedview
   id="namedview6"
   pagecolor="#505050"
   bordercolor="#ffffff"
   borderopacity="1"
   inkscape:showpageshadow="0"
   inkscape:pageopacity="0"
   inkscape:pagecheckerboard="1"
   inkscape:deskcolor="#505050"
   inkscape:zoom="18.384776"
   inkscape:cx="31.711019"
   inkscape:cy="7.7781746"
   inkscape:window-width="2560"
   inkscape:window-height="1403"
   inkscape:window-x="0"
   inkscape:window-y="0"
   inkscape:window-maximized="1"
   inkscape:current-layer="svg6" />
    <g
   transform="matrix(1,0,0,1,-255,-258)"
   id="g5">
        <g
   transform="matrix(1.21053,0,0,1.21053,-16.1579,9.84211)"
   id="g4">
            <rect
   id="modulator_note_driven"
   x="224"
   y="205"
   width="19"
   height="19"
   style="fill:none;" />
            <g
   id="modulator_note_driven1"
   serif:id="modulator_note_driven">
                <g
   transform="matrix(0.936232,0,0,0.936232,224.606,-16.2812)"
   id="g2">
                    <g
   id="Modulator-Shape"
   serif:id="Modulator Shape">
                        <g
   id="Modulator-Shape1"
   serif:id="Modulator Shape">
                            <path
   id="path1"
   style="fill:#5381e0;fill-opacity:1"
   d="M 3.7654751 238.55816 C 3.1804751 238.55816 2.6198523 238.79041 2.2058523 239.20441 C 1.7918523 239.61841 1.5595997 240.18076 1.5595997 240.76576 L 1.5595997 252.23459 C 1.5595997 252.81959 1.7918523 253.38021 2.2058523 253.79421 C 2.6198523 254.20821 3.1804751 254.44046 3.7654751 254.44046 L 15.234304 254.44046 C 15.819304 254.44046 16.38165 254.20821 16.79565 253.79421 C 17.20965 253.38021 17.440179 252.81959 17.440179 252.23459 L 17.440179 240.76576 C 17.440179 240.18076 17.20965 239.61841 16.79565 239.20441 C 16.38165 238.79041 15.819304 238.55816 15.234304 238.55816 L 3.7654751 238.55816 z " />
                            
                        </g>
                    </g>
                </g>
                <g
   transform="matrix(1.17663,0,0,1.17663,146.592,112.771)"
   id="g3">
                    <path
   d="M74,89L70,89L70,88L74,88L74,89ZM78,87L75,87L75,86L78,86L78,87ZM74,85L70,85L70,84L74,84L74,85Z"
   id="path3" />
                </g>
            </g>
        </g>
    </g>
    <defs
   id="defs6">
        <linearGradient
   id="_Linear1"
   x1="0"
   y1="0"
   x2="1"
   y2="0"
   gradientUnits="userSpaceOnUse"
   gradientTransform="matrix(6.17647,8.82353,-8.82353,6.17647,6.41176,242.529)"><stop
     offset="0"
     style="stop-color:rgb(127,216,241);stop-opacity:1"
     id="stop5" /><stop
     offset="1"
     style="stop-color:rgb(38,163,191);stop-opacity:1"
     id="stop6" /></linearGradient>
    <linearGradient
   id="_Linear1-3"
   x1="0"
   y1="0"
   x2="1"
   y2="0"
   gradientUnits="userSpaceOnUse"
   gradientTransform="matrix(9.18485e-16,15,-15,9.18485e-16,41.5,47)"><stop
     offset="0"
     style="stop-color:rgb(114,211,244);stop-opacity:1"
     id="stop5-5" /><stop
     offset="1"
     style="stop-color:rgb(21,161,208);stop-opacity:1"
     id="stop6-9" /></linearGradient></defs>
</svg>
