<?xml version="1.0" encoding="UTF-8" standalone="no"?>
<svg
   width="23px"
   height="23px"
   version="1.1"
   xml:space="preserve"
   style="fill-rule:evenodd;clip-rule:evenodd;stroke-linejoin:round;stroke-miterlimit:2;"
   id="svg7"
   sodipodi:docname="modulator_sidechain.svg"
   inkscape:version="1.4 (e7c3feb100, 2024-10-09)"
   xmlns:inkscape="http://www.inkscape.org/namespaces/inkscape"
   xmlns:sodipodi="http://sodipodi.sourceforge.net/DTD/sodipodi-0.dtd"
   xmlns="http://www.w3.org/2000/svg"
   xmlns:svg="http://www.w3.org/2000/svg"
   xmlns:serif="http://www.serif.com/"><sodipodi:namedview
   id="namedview7"
   pagecolor="#505050"
   bordercolor="#ffffff"
   borderopacity="1"
   inkscape:showpageshadow="0"
   inkscape:pageopacity="0"
   inkscape:pagecheckerboard="1"
   inkscape:deskcolor="#505050"
   inkscape:zoom="26"
   inkscape:cx="6.0769231"
   inkscape:cy="9.3846154"
   inkscape:window-width="2560"
   inkscape:window-height="1403"
   inkscape:window-x="0"
   inkscape:window-y="0"
   inkscape:window-maximized="1"
   inkscape:current-layer="svg7" />
    <g
   transform="matrix(1,0,0,1,-159,-290)"
   id="g6">
        <g
   transform="matrix(1.21053,0,0,1.21053,4.05263,3.10526)"
   id="g5">
            <rect
   id="modulator_sidechain"
   x="128"
   y="237"
   width="19"
   height="19"
   style="fill:none;" />
            <g
   id="modulator_sidechain1"
   serif:id="modulator_sidechain">
                <g
   transform="matrix(0.936232,0,0,0.936232,128.606,15.7188)"
   id="g2">
                    <g
   id="Modulator-Shape"
   serif:id="Modulator Shape">
                        <g
   id="Modulator-Shape1"
   serif:id="Modulator Shape">
                            <path
   id="path1"
   style="fill:#5381e0;fill-opacity:1"
   d="M 3.7657839 238.55979 C 3.1807839 238.55979 2.6184377 238.79032 2.2044377 239.20432 C 1.7904377 239.61832 1.5581852 240.18066 1.5581852 240.76566 L 1.5581852 252.23449 C 1.5581852 252.81949 1.7904377 253.38184 2.2044377 253.79584 C 2.6184377 254.20984 3.1807839 254.44037 3.7657839 254.44037 L 15.234612 254.44037 C 15.819612 254.44037 16.380235 254.20984 16.794235 253.79584 C 17.208235 253.38184 17.440488 252.81949 17.440488 252.23449 L 17.440488 240.76566 C 17.440488 240.18066 17.208235 239.61832 16.794235 239.20432 C 16.380235 238.79032 15.819612 238.55979 15.234612 238.55979 L 3.7657839 238.55979 z " />
                            
                        </g>
                    </g>
                </g>
                <g
   id="polygon3063"
   transform="matrix(0.794638,0,0,1.01714,131.54,239.348)">
                    <path
   d="M7.5,8.25L4.901,5.001L7.02,5.001L7,2.54L8,2.54L8.02,5.001L10.099,5.001L7.5,8.25Z"
   style="fill-rule:nonzero;"
   id="path3" />
                </g>
                <g
   id="rect3833"
   transform="matrix(3.02899,0,0,0.826087,126.899,241.13)">
                    <rect
   x="2"
   y="10"
   width="3"
   height="1"
   id="rect3" />
                </g>
                <g
   transform="matrix(0.515268,0,0,0.826087,66.6506,42.8696)"
   id="g4">
                    <rect
   x="135.095"
   y="249"
   width="4.81"
   height="3"
   id="rect4" />
                </g>
            </g>
        </g>
    </g>
    <defs
   id="defs7">
        <linearGradient
   id="_Linear1"
   x1="0"
   y1="0"
   x2="1"
   y2="0"
   gradientUnits="userSpaceOnUse"
   gradientTransform="matrix(6.17647,8.82353,-8.82353,6.17647,6.41176,242.529)"><stop
     offset="0"
     style="stop-color:rgb(127,216,241);stop-opacity:1"
     id="stop6" /><stop
     offset="1"
     style="stop-color:rgb(38,163,191);stop-opacity:1"
     id="stop7" /></linearGradient>
    <linearGradient
   id="_Linear1-3"
   x1="0"
   y1="0"
   x2="1"
   y2="0"
   gradientUnits="userSpaceOnUse"
   gradientTransform="matrix(9.18485e-16,15,-15,9.18485e-16,41.5,47)"><stop
     offset="0"
     style="stop-color:rgb(114,211,244);stop-opacity:1"
     id="stop5-5" /><stop
     offset="1"
     style="stop-color:rgb(21,161,208);stop-opacity:1"
     id="stop6-9" /></linearGradient></defs>
</svg>
