<?xml version="1.0" encoding="UTF-8" standalone="no"?>
<svg
   width="23px"
   height="23px"
   version="1.1"
   xml:space="preserve"
   style="fill-rule:evenodd;clip-rule:evenodd;stroke-linejoin:round;stroke-miterlimit:2;"
   id="svg8"
   sodipodi:docname="modulator_interface.svg"
   inkscape:version="1.4 (e7c3feb100, 2024-10-09)"
   xmlns:inkscape="http://www.inkscape.org/namespaces/inkscape"
   xmlns:sodipodi="http://sodipodi.sourceforge.net/DTD/sodipodi-0.dtd"
   xmlns="http://www.w3.org/2000/svg"
   xmlns:svg="http://www.w3.org/2000/svg"
   xmlns:serif="http://www.serif.com/"><sodipodi:namedview
   id="namedview8"
   pagecolor="#505050"
   bordercolor="#ffffff"
   borderopacity="1"
   inkscape:showpageshadow="0"
   inkscape:pageopacity="0"
   inkscape:pagecheckerboard="1"
   inkscape:deskcolor="#505050"
   inkscape:zoom="26"
   inkscape:cx="8"
   inkscape:cy="13.307692"
   inkscape:window-width="2560"
   inkscape:window-height="1403"
   inkscape:window-x="0"
   inkscape:window-y="0"
   inkscape:window-maximized="1"
   inkscape:current-layer="Modulator-Shape1" />
    <g
   transform="matrix(1,0,0,1,-223,-290)"
   id="g7">
        <g
   transform="matrix(1.21053,0,0,1.21053,-9.42105,3.10526)"
   id="g6">
            <rect
   id="modulator_interface"
   x="192"
   y="237"
   width="19"
   height="19"
   style="fill:none;" />
            <g
   id="modulator_interface1"
   serif:id="modulator_interface">
                <g
   transform="matrix(0.936232,0,0,0.936232,192.606,15.7188)"
   id="g2">
                    <g
   id="Modulator-Shape"
   serif:id="Modulator Shape">
                        <g
   id="Modulator-Shape1"
   serif:id="Modulator Shape">
                            <path
   id="path1"
   style="fill:#5381e0;fill-opacity:1"
   d="M 3.7655721 238.55979 C 3.1805721 238.55979 2.618226 238.79032 2.204226 239.20432 C 1.790226 239.61832 1.5596968 240.18066 1.5596968 240.76566 L 1.5596968 252.23449 C 1.5596968 252.81949 1.790226 253.38184 2.204226 253.79584 C 2.618226 254.20984 3.1805721 254.44037 3.7655721 254.44037 L 15.234401 254.44037 C 15.819401 254.44037 16.381747 254.20984 16.795747 253.79584 C 17.209747 253.38184 17.440276 252.81949 17.440276 252.23449 L 17.440276 240.76566 C 17.440276 240.18066 17.209747 239.61832 16.795747 239.20432 C 16.381747 238.79032 15.819401 238.55979 15.234401 238.55979 L 3.7655721 238.55979 z " />
                            
                        </g>
                    </g>
                </g>
                <g
   transform="matrix(0.911523,0,0,0.911523,18.7396,21.3111)"
   id="g3">
                    <circle
   cx="200.5"
   cy="247.5"
   r="2.5"
   id="circle2" />
                </g>
                <g
   transform="matrix(1.81739,0,0,1.81739,-162.887,-202.891)"
   id="g4">
                    <path
   d="M202.268,249.268C202.737,248.799 203,248.163 203,247.5C203,246.12 201.88,245 200.5,245C199.12,245 198,246.12 198,247.5C198,248.163 198.263,248.799 198.732,249.268L199.156,248.844C198.8,248.487 198.6,248.004 198.6,247.5C198.6,246.451 199.451,245.6 200.5,245.6C201.549,245.6 202.4,246.451 202.4,247.5C202.4,248.004 202.2,248.487 201.844,248.844L202.268,249.268Z"
   style="fill-opacity:0.38;"
   id="path3" />
                </g>
                <g
   transform="matrix(1.81739,0,0,1.81739,-162.887,-202.891)"
   id="g5">
                    <path
   d="M199.443,245.234C198.563,245.645 198,246.528 198,247.5C198,248.163 198.263,248.799 198.732,249.268L199.156,248.844C198.8,248.487 198.6,248.004 198.6,247.5C198.6,246.762 199.028,246.09 199.697,245.778L199.443,245.234Z"
   id="path4" />
                </g>
            </g>
        </g>
    </g>
    <defs
   id="defs8">
        <linearGradient
   id="_Linear1"
   x1="0"
   y1="0"
   x2="1"
   y2="0"
   gradientUnits="userSpaceOnUse"
   gradientTransform="matrix(6.17647,8.82353,-8.82353,6.17647,6.41176,242.529)"><stop
     offset="0"
     style="stop-color:rgb(127,216,241);stop-opacity:1"
     id="stop7" /><stop
     offset="1"
     style="stop-color:rgb(38,163,191);stop-opacity:1"
     id="stop8" /></linearGradient>
    <linearGradient
   id="_Linear1-3"
   x1="0"
   y1="0"
   x2="1"
   y2="0"
   gradientUnits="userSpaceOnUse"
   gradientTransform="matrix(9.18485e-16,15,-15,9.18485e-16,41.5,47)"><stop
     offset="0"
     style="stop-color:rgb(114,211,244);stop-opacity:1"
     id="stop5-5" /><stop
     offset="1"
     style="stop-color:rgb(21,161,208);stop-opacity:1"
     id="stop6-9" /></linearGradient></defs>
</svg>
