<?xml version="1.0" encoding="UTF-8" standalone="no"?>
<svg
   width="23px"
   height="23px"
   version="1.1"
   xml:space="preserve"
   style="fill-rule:evenodd;clip-rule:evenodd;stroke-linejoin:round;stroke-miterlimit:2;"
   id="svg5"
   sodipodi:docname="modulator_monophonic.svg"
   inkscape:version="1.4 (e7c3feb100, 2024-10-09)"
   xmlns:inkscape="http://www.inkscape.org/namespaces/inkscape"
   xmlns:sodipodi="http://sodipodi.sourceforge.net/DTD/sodipodi-0.dtd"
   xmlns="http://www.w3.org/2000/svg"
   xmlns:svg="http://www.w3.org/2000/svg"
   xmlns:serif="http://www.serif.com/"><sodipodi:namedview
   id="namedview5"
   pagecolor="#505050"
   bordercolor="#ffffff"
   borderopacity="1"
   inkscape:showpageshadow="0"
   inkscape:pageopacity="0"
   inkscape:pagecheckerboard="1"
   inkscape:deskcolor="#505050"
   inkscape:zoom="26"
   inkscape:cx="1.7307692"
   inkscape:cy="10.153846"
   inkscape:window-width="2560"
   inkscape:window-height="1403"
   inkscape:window-x="0"
   inkscape:window-y="0"
   inkscape:window-maximized="1"
   inkscape:current-layer="svg5" />
    <g
   transform="matrix(1,0,0,1,-31,-290)"
   id="g4">
        <g
   transform="matrix(1.21053,0,0,1.21053,31,3.10526)"
   id="g3">
            <rect
   id="modulator_monophonic"
   x="0"
   y="237"
   width="19"
   height="19"
   style="fill:none;" />
            <g
   id="modulator_monophonic1"
   serif:id="modulator_monophonic">
                <g
   transform="matrix(0.936232,0,0,0.936232,0.605797,15.7188)"
   id="g2">
                    <g
   id="Modulator-Shape"
   serif:id="Modulator Shape">
                        <g
   id="Modulator-Shape1"
   serif:id="Modulator Shape">
                            <path
   id="path1"
   style="fill:#5381e0;fill-opacity:1"
   d="M 3.7646921 238.55979 C 3.1796921 238.55979 2.6190693 238.79032 2.2050693 239.20432 C 1.7910693 239.61832 1.5588167 240.18066 1.5588167 240.76566 L 1.5588167 252.23449 C 1.5588167 252.81949 1.7910693 253.38184 2.2050693 253.79584 C 2.6190693 254.20984 3.1796921 254.44037 3.7646921 254.44037 L 15.235244 254.44037 C 15.820244 254.44037 16.380867 254.20984 16.794867 253.79584 C 17.208867 253.38184 17.441119 252.81949 17.441119 252.23449 L 17.441119 240.76566 C 17.441119 240.18066 17.208867 239.61832 16.794867 239.20432 C 16.380867 238.79032 15.820244 238.55979 15.235244 238.55979 L 3.7646921 238.55979 z " />
                            
                        </g>
                    </g>
                </g>
                <g
   id="path6"
   transform="matrix(0.470344,0,0,0.470344,5.31226,242.032)">
                    <path
   d="M13.7,8.7L13.7,5.6L18.3,9.5L13.7,13.4L13.7,10.3L7.95,10.3C7.71,12 6.26,13 4.5,13C2.57,13 1,11.439 1,9.5C1,7.57 2.57,6 4.5,6C6.26,6 7.71,7.01 7.95,8.7L13.7,8.7Z"
   style="fill-rule:nonzero;"
   id="path3" />
                </g>
            </g>
        </g>
    </g>
    <defs
   id="defs5">
        <linearGradient
   id="_Linear1"
   x1="0"
   y1="0"
   x2="1"
   y2="0"
   gradientUnits="userSpaceOnUse"
   gradientTransform="matrix(6.17647,8.82353,-8.82353,6.17647,6.41176,242.529)"><stop
     offset="0"
     style="stop-color:rgb(127,216,241);stop-opacity:1"
     id="stop4" /><stop
     offset="1"
     style="stop-color:rgb(38,163,191);stop-opacity:1"
     id="stop5" /></linearGradient>
    <linearGradient
   id="_Linear1-3"
   x1="0"
   y1="0"
   x2="1"
   y2="0"
   gradientUnits="userSpaceOnUse"
   gradientTransform="matrix(9.18485e-16,15,-15,9.18485e-16,41.5,47)"><stop
     offset="0"
     style="stop-color:rgb(114,211,244);stop-opacity:1"
     id="stop5-5" /><stop
     offset="1"
     style="stop-color:rgb(21,161,208);stop-opacity:1"
     id="stop6-9" /></linearGradient></defs>
</svg>
