<?xml version="1.0" encoding="UTF-8" standalone="no"?>
<svg
   width="23px"
   height="23px"
   version="1.1"
   xml:space="preserve"
   style="fill-rule:evenodd;clip-rule:evenodd;stroke-linejoin:round;stroke-miterlimit:2;"
   id="svg9"
   sodipodi:docname="multisample.svg"
   inkscape:version="1.4 (e7c3feb100, 2024-10-09)"
   xmlns:inkscape="http://www.inkscape.org/namespaces/inkscape"
   xmlns:sodipodi="http://sodipodi.sourceforge.net/DTD/sodipodi-0.dtd"
   xmlns="http://www.w3.org/2000/svg"
   xmlns:svg="http://www.w3.org/2000/svg"
   xmlns:serif="http://www.serif.com/"><sodipodi:namedview
   id="namedview9"
   pagecolor="#505050"
   bordercolor="#ffffff"
   borderopacity="1"
   inkscape:showpageshadow="0"
   inkscape:pageopacity="0"
   inkscape:pagecheckerboard="1"
   inkscape:deskcolor="#505050"
   inkscape:zoom="18.384776"
   inkscape:cx="9.8994949"
   inkscape:cy="4.5146048"
   inkscape:window-width="2560"
   inkscape:window-height="1403"
   inkscape:window-x="0"
   inkscape:window-y="0"
   inkscape:window-maximized="1"
   inkscape:current-layer="svg9" />
    <g
   transform="matrix(1,0,0,1,-415,-226)"
   id="g7">
        <g
   transform="matrix(1.21053,0,0,1.21053,-49.8421,16.5789)"
   id="g6">
            <rect
   id="multisample"
   x="384"
   y="173"
   width="19"
   height="19"
   style="fill:none;" />
            <g
   id="multisample1"
   serif:id="multisample">
                <g
   id="Instr-Preset"
   serif:id="Instr Preset"
   transform="matrix(0.95462066,0,0,0.95462066,353.88204,130.47266)">
                    <path
   d="M 49,48.779 C 49,47.797 48.203,47 47.221,47 H 35.779 C 34.797,47 34,47.797 34,48.779 V 60.221 C 34,61.203 34.797,62 35.779,62 H 47.221 C 48.203,62 49,61.203 49,60.221 Z"
   id="path1" />
                    <clipPath
   id="_clip1">
                        <path
   d="M 49,48.779 C 49,47.797 48.203,47 47.221,47 H 35.779 C 34.797,47 34,47.797 34,48.779 V 60.221 C 34,61.203 34.797,62 35.779,62 H 47.221 C 48.203,62 49,61.203 49,60.221 Z"
   id="path2" />
                    </clipPath>
                    <g
   clip-path="url(#_clip1)"
   id="g4">
                        <g
   transform="matrix(0.889296,0,0,0.889296,-309.268,-97.066)"
   id="g3">
                            <path
   d="m 392.122,165.959 v 5.086 c 0,0.171 0.139,0.309 0.309,0.309 h 0.397 v 3.687 h -2.869 v -9.082 z m 3.733,9.082 h -2.71 v -3.687 h 0.397 c 0.17,0 0.309,-0.138 0.309,-0.309 v -5.086 h 1.298 v 5.086 c 0,0.171 0.139,0.309 0.309,0.309 h 0.397 z m 3.186,0 h -2.869 v -3.687 h 0.397 c 0.17,0 0.309,-0.138 0.309,-0.309 v -5.086 h 2.163 z"
   style="fill:#ffe356;fill-opacity:1"
   id="path3" />
                        </g>
                    </g>
                    <path
   d="M 49,48.779 V 60.221 C 49,61.203 48.203,62 47.221,62 H 35.779 C 34.797,62 34,61.203 34,60.221 V 48.779 C 34,47.797 34.797,47 35.779,47 H 47.221 C 48.203,47 49,47.797 49,48.779 Z m -0.889,0 c 0,-0.491 -0.399,-0.89 -0.89,-0.89 H 35.779 c -0.491,0 -0.89,0.399 -0.89,0.89 v 11.442 c 0,0.491 0.399,0.89 0.89,0.89 h 11.442 c 0.491,0 0.89,-0.399 0.89,-0.89 z"
   style="fill:#ffe356;fill-opacity:1"
   id="path4" />
                </g>
                <g
   transform="matrix(0.928922,0,0,0.928922,26.110147,80.782525)"
   id="g5">
                    <path
   d="m 403.445,103.779 v 11.442 c 0,1.227 -0.997,2.224 -2.224,2.224 h -11.442 c -1.227,0 -2.224,-0.997 -2.224,-2.224 v -11.442 c 0,-1.227 0.997,-2.224 2.224,-2.224 h 11.442 c 1.227,0 2.224,0.997 2.224,2.224 z m -0.445,0 C 403,102.797 402.203,102 401.221,102 h -11.442 c -0.982,0 -1.779,0.797 -1.779,1.779 v 11.442 c 0,0.982 0.797,1.779 1.779,1.779 h 11.442 c 0.982,0 1.779,-0.797 1.779,-1.779 z"
   style="fill:#ffe356;fill-opacity:1"
   id="path5" />
                </g>
            </g>
        </g>
    </g>
    <defs
   id="defs9">
        <linearGradient
   id="_Linear2"
   x1="0"
   y1="0"
   x2="1"
   y2="0"
   gradientUnits="userSpaceOnUse"
   gradientTransform="matrix(7.57982e-15,-15,15,7.57982e-15,41.5,62)"><stop
     offset="0"
     style="stop-color:rgb(209,164,0);stop-opacity:1"
     id="stop7" /><stop
     offset="0.6"
     style="stop-color:rgb(255,207,33);stop-opacity:1"
     id="stop8" /><stop
     offset="1"
     style="stop-color:rgb(255,218,86);stop-opacity:1"
     id="stop9" /></linearGradient>
    <linearGradient
   id="_Linear1"
   x1="0"
   y1="0"
   x2="1"
   y2="0"
   gradientUnits="userSpaceOnUse"
   gradientTransform="matrix(9.25713e-16,-15.118,15.118,9.25713e-16,41.1144,62.118)"><stop
     offset="0"
     style="stop-color:rgb(209,164,0);stop-opacity:1"
     id="stop5" /><stop
     offset="0.6"
     style="stop-color:rgb(255,207,33);stop-opacity:1"
     id="stop6" /><stop
     offset="1"
     style="stop-color:rgb(255,218,86);stop-opacity:1"
     id="stop7-35" /></linearGradient><linearGradient
   id="_Linear2-6"
   x1="0"
   y1="0"
   x2="1"
   y2="0"
   gradientUnits="userSpaceOnUse"
   gradientTransform="matrix(9,-0.333333,0.237664,5,5,10.3333)"><stop
     offset="0"
     style="stop-color:rgb(209,164,0);stop-opacity:1"
     id="stop11" /><stop
     offset="0.5"
     style="stop-color:rgb(255,207,33);stop-opacity:1"
     id="stop12" /><stop
     offset="1"
     style="stop-color:rgb(133,124,88);stop-opacity:1"
     id="stop13" /></linearGradient><radialGradient
   id="_Radial3"
   cx="0"
   cy="0"
   r="1"
   gradientUnits="userSpaceOnUse"
   gradientTransform="matrix(3.18182,0,0,2.4691,-7,21.0512)"><stop
     offset="0"
     style="stop-color:rgb(255,220,95);stop-opacity:1"
     id="stop14" /><stop
     offset="1"
     style="stop-color:rgb(209,164,0);stop-opacity:1"
     id="stop15" /></radialGradient><linearGradient
   id="_Linear1-3"
   x1="0"
   y1="0"
   x2="1"
   y2="0"
   gradientUnits="userSpaceOnUse"
   gradientTransform="matrix(0,-15.118,15.118,0,41.1144,62.118)"><stop
     offset="0"
     style="stop-color:rgb(209,164,0);stop-opacity:1"
     id="stop5-7" /><stop
     offset="0.6"
     style="stop-color:rgb(255,207,33);stop-opacity:1"
     id="stop6-5" /><stop
     offset="1"
     style="stop-color:rgb(255,218,86);stop-opacity:1"
     id="stop7-3" /></linearGradient></defs>
</svg>
