<?xml version="1.0" encoding="UTF-8" standalone="no"?>
<svg
   width="23px"
   height="23px"
   version="1.1"
   xml:space="preserve"
   style="fill-rule:evenodd;clip-rule:evenodd;stroke-linejoin:round;stroke-miterlimit:2;"
   id="svg13"
   sodipodi:docname="note_clip.svg"
   inkscape:version="1.4 (e7c3feb100, 2024-10-09)"
   xmlns:inkscape="http://www.inkscape.org/namespaces/inkscape"
   xmlns:sodipodi="http://sodipodi.sourceforge.net/DTD/sodipodi-0.dtd"
   xmlns="http://www.w3.org/2000/svg"
   xmlns:svg="http://www.w3.org/2000/svg"
   xmlns:serif="http://www.serif.com/"><sodipodi:namedview
   id="namedview13"
   pagecolor="#505050"
   bordercolor="#ffffff"
   borderopacity="1"
   inkscape:showpageshadow="0"
   inkscape:pageopacity="0"
   inkscape:pagecheckerboard="1"
   inkscape:deskcolor="#505050"
   inkscape:zoom="18.384776"
   inkscape:cx="9.0292097"
   inkscape:cy="7.3974248"
   inkscape:window-width="2560"
   inkscape:window-height="1403"
   inkscape:window-x="0"
   inkscape:window-y="0"
   inkscape:window-maximized="1"
   inkscape:current-layer="svg13" />
    <g
   transform="matrix(1,0,0,1,-287,-98)"
   id="g8">
        <g
   transform="matrix(1.21053,0,0,1.21053,-22.8947,43.5263)"
   id="g7">
            <rect
   id="note_clip"
   x="256"
   y="45"
   width="19"
   height="19"
   style="fill:none;" />
            <g
   id="note_clip1"
   serif:id="note_clip">
                <g
   transform="matrix(0.936232,0,0,0.936232,226.646,3.47536)"
   id="g5">
                    <path
   d="M49,48.765C49,47.791 48.209,47 47.235,47L35.765,47C34.791,47 34,47.791 34,48.765L34,60.235C34,61.209 34.791,62 35.765,62L47.235,62C48.209,62 49,61.209 49,60.235L49,48.765Z"
   id="path1" />
                    <clipPath
   id="_clip1">
                        <path
   d="M49,48.765C49,47.791 48.209,47 47.235,47L35.765,47C34.791,47 34,47.791 34,48.765L34,60.235C34,61.209 34.791,62 35.765,62L47.235,62C48.209,62 49,61.209 49,60.235L49,48.765Z"
   id="path2" />
                    </clipPath>
                    <g
   clip-path="url(#_clip1)"
   id="g4">
                        <g
   transform="matrix(1.15385,0,0,1.76471,-229.077,-16.5294)"
   id="g2">
                            <rect
   x="228"
   y="36"
   width="13"
   height="2"
   style="fill:#6c8df3;fill-opacity:1"
   id="rect2" />
                        </g>
                        <g
   transform="matrix(1.21324,0,0,1.05882,-48.2794,-34.8824)"
   id="g3"
   style="fill:#6c8df3;fill-opacity:1">
                            <path
   d="M74,89L70,89L70,88L74,88L74,89ZM78,86.583L75,86.583L75,85.583L78,85.583L78,86.583ZM74,84.167L70,84.167L70,83.167L74,83.167L74,84.167Z"
   style="fill:#6c8df3;fill-opacity:1"
   id="path3" />
                        </g>
                    </g>
                    <path
   d="M49,48.765L49,60.235C49,61.209 48.209,62 47.235,62L35.765,62C34.791,62 34,61.209 34,60.235L34,48.765C34,47.791 34.791,47 35.765,47L47.235,47C48.209,47 49,47.791 49,48.765ZM48.118,48.765C48.118,48.278 47.722,47.882 47.235,47.882L35.765,47.882C35.278,47.882 34.882,48.278 34.882,48.765L34.882,60.235C34.882,60.722 35.278,61.118 35.765,61.118L47.235,61.118C47.722,61.118 48.118,60.722 48.118,60.235L48.118,48.765Z"
   style="fill:#6c8df3;fill-opacity:1"
   id="path4" />
                </g>
                <g
   transform="matrix(0.928922,0,0,0.928922,-101.889,-47.217)"
   id="g6"
   style="fill:#6c8df3;fill-opacity:1">
                    <path
   d="M403.445,103.779L403.445,115.221C403.445,116.448 402.448,117.445 401.221,117.445L389.779,117.445C388.552,117.445 387.555,116.448 387.555,115.221L387.555,103.779C387.555,102.552 388.552,101.555 389.779,101.555L401.221,101.555C402.448,101.555 403.445,102.552 403.445,103.779ZM403,103.779C403,102.797 402.203,102 401.221,102L389.779,102C388.797,102 388,102.797 388,103.779L388,115.221C388,116.203 388.797,117 389.779,117L401.221,117C402.203,117 403,116.203 403,115.221L403,103.779Z"
   style="fill-opacity:1;fill:#6c8df3"
   id="path5" />
                </g>
            </g>
        </g>
    </g>
    <defs
   id="defs13">
        <linearGradient
   id="_Linear2"
   x1="0"
   y1="0"
   x2="1"
   y2="0"
   gradientUnits="userSpaceOnUse"
   gradientTransform="matrix(7.89805e-16,8.43363,-3.03494,1.21509e-16,234.118,36.0332)"><stop
     offset="0"
     style="stop-color:rgb(114,211,244);stop-opacity:1"
     id="stop8" /><stop
     offset="1"
     style="stop-color:rgb(21,161,208);stop-opacity:1"
     id="stop9" /></linearGradient>
        <linearGradient
   id="_Linear3"
   x1="0"
   y1="0"
   x2="1"
   y2="0"
   gradientUnits="userSpaceOnUse"
   gradientTransform="matrix(3.26572e-16,6.11111,-3.39394,2.38126e-16,72.1818,82.8889)"><stop
     offset="0"
     style="stop-color:rgb(114,211,244);stop-opacity:1"
     id="stop10" /><stop
     offset="1"
     style="stop-color:rgb(21,161,208);stop-opacity:1"
     id="stop11" /></linearGradient>
        <linearGradient
   id="_Linear4"
   x1="0"
   y1="0"
   x2="1"
   y2="0"
   gradientUnits="userSpaceOnUse"
   gradientTransform="matrix(9.18485e-16,15,-15,9.18485e-16,41.5,47)"><stop
     offset="0"
     style="stop-color:rgb(114,211,244);stop-opacity:1"
     id="stop12" /><stop
     offset="1"
     style="stop-color:rgb(21,161,208);stop-opacity:1"
     id="stop13" /></linearGradient>
    </defs>
</svg>
