<?xml version="1.0" encoding="UTF-8" standalone="no"?>
<svg
   width="23px"
   height="23px"
   version="1.1"
   xml:space="preserve"
   style="fill-rule:evenodd;clip-rule:evenodd;stroke-linejoin:round;stroke-miterlimit:2;"
   id="svg3"
   sodipodi:docname="queued.svg"
   inkscape:version="1.4 (e7c3feb100, 2024-10-09)"
   xmlns:inkscape="http://www.inkscape.org/namespaces/inkscape"
   xmlns:sodipodi="http://sodipodi.sourceforge.net/DTD/sodipodi-0.dtd"
   xmlns="http://www.w3.org/2000/svg"
   xmlns:svg="http://www.w3.org/2000/svg"
   xmlns:serif="http://www.serif.com/"><defs
   id="defs3" /><sodipodi:namedview
   id="namedview3"
   pagecolor="#505050"
   bordercolor="#ffffff"
   borderopacity="1"
   inkscape:showpageshadow="0"
   inkscape:pageopacity="0"
   inkscape:pagecheckerboard="1"
   inkscape:deskcolor="#505050"
   inkscape:zoom="52"
   inkscape:cx="11.5"
   inkscape:cy="11.5"
   inkscape:window-width="2560"
   inkscape:window-height="1403"
   inkscape:window-x="0"
   inkscape:window-y="0"
   inkscape:window-maximized="1"
   inkscape:current-layer="g2" />
    <g
   transform="matrix(1,0,0,1,-415,-130)"
   id="g3">
        <g
   transform="matrix(1.21053,0,0,1.21053,-49.8421,75.5263)"
   id="g2">
            <rect
   id="queued"
   x="384"
   y="45"
   width="19"
   height="19"
   style="fill:none;" />
            <g
   id="queued1"
   serif:id="queued"
   style="fill:#4c4c4c;fill-opacity:1">
                <g
   transform="matrix(0.936232,0,0,0.928922,354.646,3.81892)"
   id="g1"
   style="fill:#4c4c4c;fill-opacity:1">
                    <path
   d="M49,48.779L49,60.221C49,61.203 48.209,62 47.235,62L35.765,62C34.791,62 34,61.203 34,60.221L34,48.779C34,47.797 34.791,47 35.765,47L47.235,47C48.209,47 49,47.797 49,48.779ZM48.066,48.779C48.066,48.316 47.694,47.941 47.235,47.941L35.765,47.941C35.306,47.941 34.934,48.316 34.934,48.779L34.934,60.221C34.934,60.684 35.306,61.059 35.765,61.059L47.235,61.059C47.694,61.059 48.066,60.684 48.066,60.221L48.066,48.779Z"
   style="fill:#4c4c4c;fill-opacity:1"
   id="path1" />
                </g>
            </g>
        </g>
    </g>
</svg>
