<?xml version="1.0" encoding="UTF-8" standalone="no"?>
<svg
   width="23px"
   height="23px"
   version="1.1"
   xml:space="preserve"
   style="fill-rule:evenodd;clip-rule:evenodd;stroke-linejoin:round;stroke-miterlimit:2;"
   id="svg11"
   sodipodi:docname="scene.svg"
   inkscape:version="1.4 (e7c3feb100, 2024-10-09)"
   xmlns:inkscape="http://www.inkscape.org/namespaces/inkscape"
   xmlns:sodipodi="http://sodipodi.sourceforge.net/DTD/sodipodi-0.dtd"
   xmlns="http://www.w3.org/2000/svg"
   xmlns:svg="http://www.w3.org/2000/svg"
   xmlns:serif="http://www.serif.com/"><sodipodi:namedview
   id="namedview11"
   pagecolor="#505050"
   bordercolor="#ffffff"
   borderopacity="1"
   inkscape:showpageshadow="0"
   inkscape:pageopacity="0"
   inkscape:pagecheckerboard="1"
   inkscape:deskcolor="#505050"
   inkscape:zoom="18.384776"
   inkscape:cx="-19.309454"
   inkscape:cy="7.6149961"
   inkscape:window-width="2560"
   inkscape:window-height="1403"
   inkscape:window-x="0"
   inkscape:window-y="0"
   inkscape:window-maximized="1"
   inkscape:current-layer="g7" />
    <g
   transform="matrix(1,0,0,1,-127,-33)"
   id="g10">
        <g
   transform="matrix(1.21053,0,0,1.21053,127,17.2632)"
   id="g9">
            <rect
   id="scene"
   x="0"
   y="13"
   width="19"
   height="19"
   style="fill:none;" />
            <g
   id="scene1"
   serif:id="scene">
                <g
   transform="matrix(0.826087,0,0,0.826087,1.65217,14.6522)"
   id="g1">
                    
                </g>
                <g
   transform="matrix(0.826087,0,0,0.826087,1.6521446,15.065114)"
   id="g2">
                    <rect
   x="2"
   y="2"
   width="15"
   height="3"
   style="fill:#779ac9;fill-opacity:1;fill-rule:nonzero"
   id="rect2" />
                </g>
                <g
   transform="matrix(0.826087,0,0,0.826087,1.6521446,15.065114)"
   id="g3"
   style="fill:#698ec0;fill-opacity:1">
                    <rect
   x="2"
   y="5"
   width="15"
   height="1"
   style="fill:#698ec0;fill-opacity:1;fill-rule:nonzero"
   id="rect3" />
                </g>
                <g
   transform="matrix(0.826087,0,0,0.826087,1.6521446,15.065114)"
   id="g4">
                    <rect
   x="2"
   y="7"
   width="15"
   height="3"
   style="fill:#c7725a;fill-opacity:1;fill-rule:nonzero"
   id="rect4" />
                </g>
                <g
   transform="matrix(0.826087,0,0,0.826087,1.6521446,15.065114)"
   id="g5">
                    <rect
   x="2"
   y="10"
   width="15"
   height="1"
   style="fill:#c06656;fill-rule:nonzero"
   id="rect5" />
                </g>
                <g
   transform="matrix(0.826087,0,0,0.826087,1.6521446,15.065114)"
   id="g6">
                    <rect
   x="2"
   y="12"
   width="15"
   height="3"
   style="fill:#d4b977;fill-opacity:1;fill-rule:nonzero"
   id="rect6" />
                </g>
                <g
   transform="matrix(0.826087,0,0,0.826087,1.65217,14.6522)"
   id="g7">
                    <rect
   x="1.9999692"
   y="15.499843"
   width="15"
   height="1"
   style="fill:#bfa568;fill-opacity:1;fill-rule:nonzero"
   id="rect7" />
                </g>
                <g
   transform="matrix(0.826087,0,0,0.826087,1.65217,14.6522)"
   id="g8">
                    
                </g>
            </g>
        </g>
    </g>
    <defs
   id="defs11">
        <linearGradient
   id="_Linear1"
   x1="0"
   y1="0"
   x2="1"
   y2="0"
   gradientUnits="userSpaceOnUse"
   gradientTransform="matrix(9.18516e-16,15.0005,-15.0005,9.18516e-16,9.4995,2.5)"><stop
     offset="0"
     style="stop-color:white;stop-opacity:0.15"
     id="stop10" /><stop
     offset="1"
     style="stop-color:black;stop-opacity:0.15"
     id="stop11" /></linearGradient>
    </defs>
</svg>
