<?xml version="1.0" encoding="UTF-8" standalone="no"?>
<svg
   width="23px"
   height="23px"
   version="1.1"
   xml:space="preserve"
   style="fill-rule:evenodd;clip-rule:evenodd;stroke-linejoin:round;stroke-miterlimit:2;"
   id="svg11"
   sodipodi:docname="tag.svg"
   inkscape:version="1.4 (e7c3feb100, 2024-10-09)"
   xmlns:inkscape="http://www.inkscape.org/namespaces/inkscape"
   xmlns:sodipodi="http://sodipodi.sourceforge.net/DTD/sodipodi-0.dtd"
   xmlns="http://www.w3.org/2000/svg"
   xmlns:svg="http://www.w3.org/2000/svg"
   xmlns:serif="http://www.serif.com/"><sodipodi:namedview
   id="namedview11"
   pagecolor="#505050"
   bordercolor="#ffffff"
   borderopacity="1"
   inkscape:showpageshadow="0"
   inkscape:pageopacity="0"
   inkscape:pagecheckerboard="1"
   inkscape:deskcolor="#505050"
   inkscape:zoom="36.769553"
   inkscape:cx="9.70912"
   inkscape:cy="10.742584"
   inkscape:window-width="2560"
   inkscape:window-height="1403"
   inkscape:window-x="0"
   inkscape:window-y="0"
   inkscape:window-maximized="1"
   inkscape:current-layer="g2" />
    <g
   transform="matrix(1,0,0,1,-159,-98)"
   id="g5">
        <g
   transform="matrix(1.21053,0,0,1.21053,4.05263,43.5263)"
   id="g4">
            <rect
   id="tag"
   x="128"
   y="45"
   width="19"
   height="19"
   style="fill:none;" />
            <g
   id="tag1"
   serif:id="tag">
                <g
   transform="matrix(-0.68189,0.68189,0.68189,0.68189,138.452,43.5738)"
   id="g2">
                    <path
   d="M14,5.203L14,9.797C14,10.461 13.461,11 12.797,11L4.452,11C4.161,11 3.879,10.894 3.66,10.702L1.035,8.405C0.774,8.177 0.624,7.847 0.624,7.5C0.624,7.153 0.774,6.823 1.035,6.595L3.66,4.298C3.879,4.106 4.161,4 4.452,4L12.797,4C13.461,4 14,4.539 14,5.203ZM2.798,6.702C2.358,6.702 2,7.06 2,7.5C2,7.94 2.358,8.298 2.798,8.298C3.238,8.298 3.596,7.94 3.596,7.5C3.596,7.06 3.238,6.702 2.798,6.702Z"
   style="fill:#4082c9;fill-opacity:1"
   id="path1" />
                    <path
   d="M14.385,5.203C14.385,4.326 13.674,3.615 12.797,3.615L4.452,3.615C4.068,3.615 3.695,3.755 3.406,4.008L0.781,6.305C0.437,6.606 0.239,7.042 0.239,7.5C0.239,7.958 0.437,8.394 0.781,8.695L3.406,10.992C3.695,11.245 4.068,11.385 4.452,11.385L12.797,11.385C13.674,11.385 14.385,10.674 14.385,9.797L14.385,5.203ZM14,5.203L14,9.797C14,10.461 13.461,11 12.797,11L4.452,11C4.161,11 3.879,10.894 3.66,10.702L1.035,8.405C0.774,8.177 0.624,7.847 0.624,7.5C0.624,7.153 0.774,6.823 1.035,6.595L3.66,4.298C3.879,4.106 4.161,4 4.452,4L12.797,4C13.461,4 14,4.539 14,5.203ZM2.798,6.702C2.358,6.702 2,7.06 2,7.5C2,7.94 2.358,8.298 2.798,8.298C3.238,8.298 3.596,7.94 3.596,7.5C3.596,7.06 3.238,6.702 2.798,6.702ZM2.798,7.087C3.025,7.087 3.211,7.273 3.211,7.5C3.211,7.727 3.025,7.913 2.798,7.913C2.571,7.913 2.385,7.727 2.385,7.5C2.385,7.273 2.571,7.087 2.798,7.087Z"
   id="path2" />
                </g>
                <g
   transform="matrix(-0.748988,0.748988,0.748988,0.748988,138.552,42.4666)"
   id="g3">
                    <path
   d="M13,5.627C13,5.281 12.719,5 12.373,5L5.627,5C5.281,5 5,5.281 5,5.627L5,9.373C5,9.719 5.281,10 5.627,10L12.373,10C12.719,10 13,9.719 13,9.373L13,5.627Z"
   style="fill:#ffffff;fill-opacity:1"
   id="path3" />
                </g>
            </g>
        </g>
    </g>
    <defs
   id="defs11">
        <linearGradient
   id="_Linear1"
   x1="0"
   y1="0"
   x2="1"
   y2="0"
   gradientUnits="userSpaceOnUse"
   gradientTransform="matrix(-7.53681,-4.228,-4.228,7.53681,12.5959,9.53642)"><stop
     offset="0"
     style="stop-color:white;stop-opacity:0.69"
     id="stop5" /><stop
     offset="0.34"
     style="stop-color:white;stop-opacity:0.71"
     id="stop6" /><stop
     offset="0.39"
     style="stop-color:white;stop-opacity:0.63"
     id="stop7" /><stop
     offset="0.43"
     style="stop-color:white;stop-opacity:0.54"
     id="stop8" /><stop
     offset="0.55"
     style="stop-color:white;stop-opacity:0.5"
     id="stop9" /><stop
     offset="0.75"
     style="stop-color:white;stop-opacity:0.63"
     id="stop10" /><stop
     offset="1"
     style="stop-color:white;stop-opacity:0.41"
     id="stop11" /></linearGradient>
    </defs>
</svg>
