<?xml version="1.0" encoding="UTF-8" standalone="no"?>
<svg
   width="23px"
   height="23px"
   version="1.1"
   xml:space="preserve"
   style="fill-rule:evenodd;clip-rule:evenodd;stroke-linejoin:round;stroke-miterlimit:2;"
   id="svg15"
   sodipodi:docname="template.svg"
   inkscape:version="1.4 (e7c3feb100, 2024-10-09)"
   xmlns:inkscape="http://www.inkscape.org/namespaces/inkscape"
   xmlns:sodipodi="http://sodipodi.sourceforge.net/DTD/sodipodi-0.dtd"
   xmlns="http://www.w3.org/2000/svg"
   xmlns:svg="http://www.w3.org/2000/svg"
   xmlns:serif="http://www.serif.com/"><sodipodi:namedview
   id="namedview15"
   pagecolor="#505050"
   bordercolor="#ffffff"
   borderopacity="1"
   inkscape:showpageshadow="0"
   inkscape:pageopacity="0"
   inkscape:pagecheckerboard="1"
   inkscape:deskcolor="#505050"
   inkscape:zoom="26"
   inkscape:cx="8.6923077"
   inkscape:cy="10.346154"
   inkscape:window-width="2560"
   inkscape:window-height="1403"
   inkscape:window-x="0"
   inkscape:window-y="0"
   inkscape:window-maximized="1"
   inkscape:current-layer="svg15" />
    <g
   transform="matrix(1,0,0,1,-287,-33)"
   id="g12">
        <g
   transform="matrix(1.21053,0,0,1.21053,287,17.2632)"
   id="g11">
            <rect
   id="template"
   x="0"
   y="13"
   width="19"
   height="19"
   style="fill:none;" />
            <g
   id="template1"
   serif:id="template">
                <g
   transform="matrix(0.826087,0,0,0.826087,2.47826,15.4783)"
   id="g10">
                    <path
   d="M13.5,16L3.5,16C2.673,16 2,15.327 2,14.5L2,2.5C2,1.673 2.673,1 3.5,1L9,1L15,7L15,14.5C15,15.327 14.327,16 13.5,16Z"
   style="fill:#bebebe;fill-rule:nonzero;fill-opacity:1"
   id="path1" />
                    <clipPath
   id="_clip2">
                        <path
   d="M13.5,16L3.5,16C2.673,16 2,15.327 2,14.5L2,2.5C2,1.673 2.673,1 3.5,1L9,1L15,7L15,14.5C15,15.327 14.327,16 13.5,16Z"
   clip-rule="nonzero"
   id="path2" />
                    </clipPath>
                    <g
   clip-path="url(#_clip2)"
   id="g9">
                        <path
   d="M9,1L9,7L15,7L9,1Z"
   style="fill:url(#_Linear3);fill-rule:nonzero;"
   id="path3" />
                        <g
   transform="matrix(1,0,0,1,2.00288,3.99712)"
   id="g8"
   style="fill:#000000;fill-opacity:1">
                            <path
   d="M7.403,7.5C7.403,7.995 6.995,8.403 6.5,8.403C6.005,8.403 5.597,7.995 5.597,7.5C5.597,7.005 6.005,6.597 6.5,6.597C6.995,6.597 7.403,7.005 7.403,7.5Z"
   style="fill:#000000;fill-opacity:1"
   id="path4" />
                            <path
   d="M5.403,5.5C5.403,5.995 4.995,6.403 4.5,6.403C4.005,6.403 3.597,5.995 3.597,5.5C3.597,5.005 4.005,4.597 4.5,4.597C4.995,4.597 5.403,5.005 5.403,5.5Z"
   style="fill:#000000;fill-opacity:1"
   id="path5" />
                            <path
   d="M7.403,5.5C7.403,5.995 6.995,6.403 6.5,6.403C6.005,6.403 5.597,5.995 5.597,5.5C5.597,5.005 6.005,4.597 6.5,4.597C6.995,4.597 7.403,5.005 7.403,5.5Z"
   style="fill:#000000;fill-opacity:1"
   id="path6" />
                            <path
   d="M9.403,5.5C9.403,5.995 8.995,6.403 8.5,6.403C8.005,6.403 7.597,5.995 7.597,5.5C7.597,5.005 8.005,4.597 8.5,4.597C8.995,4.597 9.403,5.005 9.403,5.5Z"
   style="fill:#000000;fill-opacity:1"
   id="path7" />
                            <path
   d="M7.403,9.5C7.403,9.995 6.995,10.403 6.5,10.403C6.005,10.403 5.597,9.995 5.597,9.5C5.597,9.5 5.597,9.5 5.597,9.5C5.597,9.004 6.005,8.597 6.5,8.597C6.995,8.597 7.403,9.004 7.403,9.5C7.403,9.5 7.403,9.5 7.403,9.5Z"
   style="fill:#000000;fill-opacity:1"
   id="path8" />
                        </g>
                    </g>
                    <path
   d="M13.5,16.5L3.5,16.5C2.397,16.5 1.5,15.603 1.5,14.5L1.5,2.5C1.5,1.397 2.397,0.5 3.5,0.5L9,0.5C9.133,0.5 9.26,0.553 9.354,0.646L15.354,6.646C15.447,6.74 15.5,6.867 15.5,7L15.5,14.5C15.5,15.603 14.603,16.5 13.5,16.5ZM13.5,16C14.327,16 15,15.327 15,14.5L15,7L9,1L3.5,1C2.673,1 2,1.673 2,2.5L2,14.5C2,15.327 2.673,16 3.5,16L13.5,16Z"
   style="fill-opacity:1;fill:#000000"
   id="path9" />
                </g>
            </g>
        </g>
    </g>
    <defs
   id="defs15">
        <linearGradient
   id="_Linear1"
   x1="0"
   y1="0"
   x2="1"
   y2="0"
   gradientUnits="userSpaceOnUse"
   gradientTransform="matrix(5,-4,4,5,7,9)"><stop
     offset="0"
     style="stop-color:rgb(200,200,200);stop-opacity:1"
     id="stop12" /><stop
     offset="1"
     style="stop-color:rgb(166,166,166);stop-opacity:1"
     id="stop13" /></linearGradient>
        <linearGradient
   id="_Linear3"
   x1="0"
   y1="0"
   x2="1"
   y2="0"
   gradientUnits="userSpaceOnUse"
   gradientTransform="matrix(2.26143,-2,2,2.26143,10,6)"><stop
     offset="0"
     style="stop-color:rgb(246,246,246);stop-opacity:1"
     id="stop14" /><stop
     offset="1"
     style="stop-color:rgb(201,201,201);stop-opacity:1"
     id="stop15" /></linearGradient>
    </defs>
</svg>
