<?xml version="1.0" encoding="UTF-8" standalone="no"?>
<svg
   width="23px"
   height="23px"
   version="1.1"
   xml:space="preserve"
   style="fill-rule:evenodd;clip-rule:evenodd;stroke-linejoin:round;stroke-miterlimit:2;"
   id="svg13"
   sodipodi:docname="u-he-preset.svg"
   inkscape:version="1.4 (e7c3feb100, 2024-10-09)"
   xmlns:inkscape="http://www.inkscape.org/namespaces/inkscape"
   xmlns:sodipodi="http://sodipodi.sourceforge.net/DTD/sodipodi-0.dtd"
   xmlns="http://www.w3.org/2000/svg"
   xmlns:svg="http://www.w3.org/2000/svg"
   xmlns:serif="http://www.serif.com/"><sodipodi:namedview
   id="namedview13"
   pagecolor="#505050"
   bordercolor="#ffffff"
   borderopacity="1"
   inkscape:showpageshadow="0"
   inkscape:pageopacity="0"
   inkscape:pagecheckerboard="1"
   inkscape:deskcolor="#505050"
   inkscape:zoom="26"
   inkscape:cx="-3.6153846"
   inkscape:cy="10.076923"
   inkscape:window-width="2560"
   inkscape:window-height="1403"
   inkscape:window-x="0"
   inkscape:window-y="0"
   inkscape:window-maximized="1"
   inkscape:current-layer="g4" />
    <g
   transform="matrix(1,0,0,1,-383,-162)"
   id="g9">
        <g
   transform="matrix(1.21053,0,0,1.21053,-43.1053,30.0526)"
   id="g8">
            <rect
   id="u-he-preset"
   x="352"
   y="109"
   width="19"
   height="19"
   style="fill:none;" />
            <g
   id="u-he-preset1"
   serif:id="u-he-preset">
                <g
   transform="matrix(0.936232,0,0,0.936232,322.646,67.4754)"
   id="g4">
                    <path
   id="path1"
   style="fill:#ffe356;fill-opacity:1"
   d="M 35.765702 46.558444 C 34.547702 46.558444 33.559827 47.54632 33.559827 48.76432 L 33.559827 60.234872 C 33.559827 61.452872 34.547702 62.440747 35.765702 62.440747 L 47.234531 62.440747 C 48.452531 62.440747 49.440406 61.452872 49.440406 60.234872 L 49.440406 48.76432 C 49.440406 47.54632 48.452531 46.558444 47.234531 46.558444 L 35.765702 46.558444 z " />
                    <clipPath
   id="_clip2">
                        <path
   d="M49,48.765C49,47.791 48.209,47 47.235,47L35.765,47C34.791,47 34,47.791 34,48.765L34,60.235C34,61.209 34.791,62 35.765,62L47.235,62C48.209,62 49,61.209 49,60.235L49,48.765Z"
   id="path2" />
                    </clipPath>
                    <g
   clip-path="url(#_clip2)"
   id="g3">
                        <g
   id="path9"
   transform="matrix(0.0882353,0,0,0.0882353,32.6765,45.6765)">
                            <path
   d="M111.664,59.163L108.486,76.17L118.766,76.17L113.906,101.962C112.785,107.569 111.851,112.989 107.552,117.662C103.627,121.774 98.02,124.203 92.787,124.203C87.367,124.203 82.694,121.961 80.638,117.288C78.396,112.989 79.33,107.383 80.265,102.336L88.301,58.976L69.985,58.976L66.808,75.983L60.827,107.569C59.145,116.354 58.958,123.83 63.631,130.745C67.929,137.286 75.405,141.024 84.003,141.024C93.347,141.024 103.627,136.913 110.355,129.063L108.486,138.968L135.587,138.968L138.764,121.961L128.485,121.961L140.259,58.976L111.664,58.976L111.664,59.163Z"
   style="fill-rule:nonzero;"
   id="path3" />
                        </g>
                    </g>
                    
                </g>
                <g
   transform="matrix(0.826087,0,0,0.826087,281.783,-66.9565)"
   id="g7">
                    <circle
   cx="102"
   cy="230"
   r="4"
   style="fill:#ffffff;fill-opacity:1"
   id="circle4" />
                    <clipPath
   id="_clip4">
                        <circle
   cx="102"
   cy="230"
   r="4"
   id="circle5" />
                    </clipPath>
                    <g
   clip-path="url(#_clip4)"
   id="g6">
                        <g
   transform="matrix(1,0,0,1,-107,20)"
   id="g5">
                            <path
   d="M209.559,208C209.941,208 210.308,208.152 210.578,208.422C210.848,208.692 211,209.059 211,209.441C211,209.48 211,209.52 211,209.559C211,210.355 210.355,211 209.559,211L208,211L208,211.812C208,211.862 207.98,211.91 207.945,211.945C207.91,211.98 207.862,212 207.812,212L207.17,212C207.125,212 207.082,211.982 207.05,211.95C207.018,211.918 207,211.875 207,211.83C207,211.236 207,209.237 207,208.388C207,208.285 207.041,208.186 207.113,208.113C207.186,208.041 207.285,208 207.388,208C207.887,208 208.784,208 209.559,208ZM208.135,209C208.06,209 208,209.06 208,209.135C208,209.407 208,210 208,210L209.587,210C209.815,210 210,209.815 210,209.587C210,209.529 210,209.471 210,209.413C210,209.185 209.815,209 209.587,209C209.132,209 208.427,209 208.135,209Z"
   id="path5" />
                        </g>
                    </g>
                    <path
   d="M102,225.5C104.484,225.5 106.5,227.516 106.5,230C106.5,232.484 104.484,234.5 102,234.5C99.516,234.5 97.5,232.484 97.5,230C97.5,227.516 99.516,225.5 102,225.5ZM102,226C99.792,226 98,227.792 98,230C98,232.208 99.792,234 102,234C104.208,234 106,232.208 106,230C106,227.792 104.208,226 102,226Z"
   id="path6" />
                </g>
            </g>
        </g>
    </g>
    <defs
   id="defs13">
        <linearGradient
   id="_Linear1"
   x1="0"
   y1="0"
   x2="1"
   y2="0"
   gradientUnits="userSpaceOnUse"
   gradientTransform="matrix(9.25713e-16,-15.118,15.118,9.25713e-16,41.1144,62.118)"><stop
     offset="0"
     style="stop-color:rgb(209,164,0);stop-opacity:1"
     id="stop9" /><stop
     offset="0.6"
     style="stop-color:rgb(255,207,33);stop-opacity:1"
     id="stop10" /><stop
     offset="1"
     style="stop-color:rgb(255,218,86);stop-opacity:1"
     id="stop11" /></linearGradient>
        <linearGradient
   id="_Linear3"
   x1="0"
   y1="0"
   x2="1"
   y2="0"
   gradientUnits="userSpaceOnUse"
   gradientTransform="matrix(3.2147e-16,8,-4.59375,4.28626e-16,101.5,226)"><stop
     offset="0"
     style="stop-color:rgb(229,229,229);stop-opacity:1"
     id="stop12" /><stop
     offset="1"
     style="stop-color:rgb(179,179,179);stop-opacity:1"
     id="stop13" /></linearGradient>
    <linearGradient
   id="_Linear1-29"
   x1="0"
   y1="0"
   x2="1"
   y2="0"
   gradientUnits="userSpaceOnUse"
   gradientTransform="matrix(7.57982e-15,-15,15,7.57982e-15,41.5,62)"><stop
     offset="0"
     style="stop-color:rgb(209,164,0);stop-opacity:1"
     id="stop6" /><stop
     offset="0.6"
     style="stop-color:rgb(255,207,33);stop-opacity:1"
     id="stop7" /><stop
     offset="1"
     style="stop-color:rgb(255,218,86);stop-opacity:1"
     id="stop8" /></linearGradient><linearGradient
   id="_Linear2-6"
   x1="0"
   y1="0"
   x2="1"
   y2="0"
   gradientUnits="userSpaceOnUse"
   gradientTransform="matrix(9,-0.333333,0.237664,5,5,10.3333)"><stop
     offset="0"
     style="stop-color:rgb(209,164,0);stop-opacity:1"
     id="stop11-1" /><stop
     offset="0.5"
     style="stop-color:rgb(255,207,33);stop-opacity:1"
     id="stop12-2" /><stop
     offset="1"
     style="stop-color:rgb(133,124,88);stop-opacity:1"
     id="stop13-7" /></linearGradient><radialGradient
   id="_Radial3"
   cx="0"
   cy="0"
   r="1"
   gradientUnits="userSpaceOnUse"
   gradientTransform="matrix(3.18182,0,0,2.4691,-7,21.0512)"><stop
     offset="0"
     style="stop-color:rgb(255,220,95);stop-opacity:1"
     id="stop14" /><stop
     offset="1"
     style="stop-color:rgb(209,164,0);stop-opacity:1"
     id="stop15" /></radialGradient><linearGradient
   id="_Linear1-3"
   x1="0"
   y1="0"
   x2="1"
   y2="0"
   gradientUnits="userSpaceOnUse"
   gradientTransform="matrix(0,-15.118,15.118,0,41.1144,62.118)"><stop
     offset="0"
     style="stop-color:rgb(209,164,0);stop-opacity:1"
     id="stop5-7" /><stop
     offset="0.6"
     style="stop-color:rgb(255,207,33);stop-opacity:1"
     id="stop6-5" /><stop
     offset="1"
     style="stop-color:rgb(255,218,86);stop-opacity:1"
     id="stop7-3" /></linearGradient></defs>
</svg>
