<?xml version="1.0" encoding="UTF-8" standalone="no"?>
<svg
   width="23px"
   height="23px"
   version="1.1"
   xml:space="preserve"
   style="fill-rule:evenodd;clip-rule:evenodd;stroke-linejoin:round;stroke-miterlimit:2;"
   id="svg9"
   sodipodi:docname="user_library.svg"
   inkscape:version="1.4 (e7c3feb100, 2024-10-09)"
   xmlns:inkscape="http://www.inkscape.org/namespaces/inkscape"
   xmlns:sodipodi="http://sodipodi.sourceforge.net/DTD/sodipodi-0.dtd"
   xmlns="http://www.w3.org/2000/svg"
   xmlns:svg="http://www.w3.org/2000/svg"
   xmlns:serif="http://www.serif.com/"><sodipodi:namedview
   id="namedview9"
   pagecolor="#505050"
   bordercolor="#ffffff"
   borderopacity="1"
   inkscape:showpageshadow="0"
   inkscape:pageopacity="0"
   inkscape:pagecheckerboard="1"
   inkscape:deskcolor="#505050"
   inkscape:zoom="18.384776"
   inkscape:cx="-3.5899267"
   inkscape:cy="5.2217116"
   inkscape:window-width="2560"
   inkscape:window-height="1403"
   inkscape:window-x="0"
   inkscape:window-y="0"
   inkscape:window-maximized="1"
   inkscape:current-layer="Folder-back" />
    <g
   transform="matrix(1,0,0,1,-192,0)"
   id="g8">
        <g
   transform="matrix(1.21053,0,0,1.21053,153.263,-54.4737)"
   id="g7">
            <rect
   id="user_library"
   x="32"
   y="45"
   width="19"
   height="19"
   style="fill:none;" />
            <g
   id="user_library1"
   serif:id="user_library">
                <g
   id="Folder-back"
   serif:id="Folder back"
   transform="matrix(0.826087,0,0,0.826087,7.21739,9.47826)">
                    <path
   id="path1"
   style="fill:#e98b56;fill-opacity:1"
   d="M 36.000021 46.499838 C 35.337021 46.499838 34.701449 46.763258 34.232449 47.232258 C 33.763449 47.701258 33.500029 48.33683 33.500029 48.99983 L 33.500029 59.999796 C 33.500029 60.662796 33.763449 61.298369 34.232449 61.767369 C 34.701449 62.236369 35.337021 62.499788 36.000021 62.499788 L 46.999987 62.499788 C 48.380987 62.499788 49.49998 61.380796 49.49998 59.999796 L 49.49998 51.999821 C 49.49998 50.618821 48.380987 49.499829 46.999987 49.499829 L 43.634763 49.499829 C 43.041763 49.499829 42.504674 49.151206 42.263674 48.609206 L 41.984378 47.984208 C 41.583378 47.082208 40.688182 46.499838 39.701182 46.499838 L 36.000021 46.499838 z M 41.806644 48.812331 C 41.846769 48.902581 41.891521 48.990283 41.943362 49.072096 C 41.891521 48.990283 41.846769 48.902581 41.806644 48.812331 z M 43.341796 49.978343 C 43.437606 49.992468 43.53406 49.999827 43.63281 49.999827 C 43.53406 49.999827 43.437606 49.992468 43.341796 49.978343 z " />
                    <clipPath
   id="_clip2">
                        <path
   d="M49,52C49,50.895 48.105,50 47,50C45.909,50 44.59,50 43.633,50C42.843,50 42.127,49.535 41.806,48.813C41.715,48.607 41.619,48.393 41.528,48.187C41.207,47.465 40.491,47 39.701,47C38.662,47 37.189,47 36,47C35.47,47 34.961,47.211 34.586,47.586C34.211,47.961 34,48.47 34,49C34,51.871 34,57.129 34,60C34,60.53 34.211,61.039 34.586,61.414C34.961,61.789 35.47,62 36,62L47,62C48.105,62 49,61.105 49,60C49,57.78 49,54.22 49,52Z"
   id="path2" />
                    </clipPath>
                    <g
   clip-path="url(#_clip2)"
   id="g6">
                        <g
   transform="matrix(1,0,0,1,32,45)"
   id="g5">
                            <g
   transform="matrix(1.5,0,0,1.5,0.5,-3)"
   id="g3">
                                <path
   d="M9,11.572C9,10.392 7.986,9.428 6.75,9.428L5.25,9.428C4.012,9.428 3,10.393 3,11.572L3,12L9,12L9,11.572Z"
   style="fill-opacity:1;fill-rule:nonzero;fill:#000000"
   id="path3" />
                            </g>
                            <g
   transform="matrix(1.5,0,0,1.5,0.5,-3)"
   id="g4">
                                <circle
   cx="6"
   cy="7.5"
   r="1.5"
   style="fill-opacity:1;fill:#000000"
   id="circle3" />
                            </g>
                        </g>
                    </g>
                    
                </g>
            </g>
        </g>
    </g>
    <defs
   id="defs9">
        <linearGradient
   id="_Linear1"
   x1="0"
   y1="0"
   x2="1"
   y2="0"
   gradientUnits="userSpaceOnUse"
   gradientTransform="matrix(9.18485e-16,-15,15,9.18485e-16,40,62)"><stop
     offset="0"
     style="stop-color:rgb(199,115,42);stop-opacity:1"
     id="stop8" /><stop
     offset="1"
     style="stop-color:rgb(255,206,3);stop-opacity:1"
     id="stop9" /></linearGradient>
    </defs>
</svg>
