<?xml version="1.0" encoding="UTF-8" standalone="no"?>
<svg
   width="23px"
   height="23px"
   version="1.1"
   xml:space="preserve"
   style="fill-rule:evenodd;clip-rule:evenodd;stroke-linejoin:round;stroke-miterlimit:2;"
   id="svg7"
   sodipodi:docname="vendor.svg"
   inkscape:version="1.4 (e7c3feb100, 2024-10-09)"
   xmlns:inkscape="http://www.inkscape.org/namespaces/inkscape"
   xmlns:sodipodi="http://sodipodi.sourceforge.net/DTD/sodipodi-0.dtd"
   xmlns="http://www.w3.org/2000/svg"
   xmlns:svg="http://www.w3.org/2000/svg"
   xmlns:serif="http://www.serif.com/"><defs
   id="defs7" /><sodipodi:namedview
   id="namedview7"
   pagecolor="#505050"
   bordercolor="#ffffff"
   borderopacity="1"
   inkscape:showpageshadow="0"
   inkscape:pageopacity="0"
   inkscape:pagecheckerboard="1"
   inkscape:deskcolor="#505050"
   inkscape:zoom="18.384776"
   inkscape:cx="11.966422"
   inkscape:cy="14.577278"
   inkscape:window-width="2560"
   inkscape:window-height="1403"
   inkscape:window-x="0"
   inkscape:window-y="0"
   inkscape:window-maximized="1"
   inkscape:current-layer="svg7" />
    <g
   transform="matrix(1,0,0,1,-127,-98)"
   id="g7">
        <g
   transform="matrix(1.21053,0,0,1.21053,10.7895,43.5263)"
   id="g6">
            <rect
   id="vendor"
   x="96"
   y="45"
   width="19"
   height="19"
   style="fill:none;" />
            <g
   id="vendor1"
   serif:id="vendor">
                <g
   transform="matrix(0.908696,0,0,0.885093,10.2522,6.70497)"
   id="g2">
                    <rect
   x="98"
   y="47"
   width="10"
   height="14"
   style="fill:#aaaaaa;fill-opacity:1"
   id="rect1" />
                    <g
   transform="matrix(0.909091,0,0,0.933333,8.90909,3.13333)"
   id="g1"
   style="fill:#4a598a;fill-opacity:1">
                        <path
   d="M101,48L101,50L99,50L99,48L101,48ZM104,48L104,50L102,50L102,48L104,48ZM107,48L107,50L105,50L105,48L107,48ZM101,51L101,53L99,53L99,51L101,51ZM104,51L104,53L102,53L102,51L104,51ZM107,51L107,53L105,53L105,51L107,51ZM101,54L101,56L99,56L99,54L101,54ZM101,57L101,59L99,59L99,57L101,57ZM104,54L104,56L102,56L102,54L104,54ZM107,54L107,56L105,56L105,54L107,54Z"
   style="fill:#4a598a;fill-opacity:1"
   id="path1" />
                    </g>
                </g>
                <g
   transform="matrix(0.826087,0,0,0.649068,21.6522,21.9286)"
   id="g5">
                    <rect
   x="98"
   y="47"
   width="10"
   height="14"
   style="fill:#ffffff;fill-opacity:1"
   id="rect2" />
                    <g
   transform="matrix(1,0,0,2.54545,-10,-66.2727)"
   id="g3">
                        <rect
   x="112"
   y="48"
   width="2"
   height="2"
   id="rect3" />
                    </g>
                    <g
   transform="matrix(1,0,0,1.27273,-4,-19.1818)"
   id="g4"
   style="fill:#7492f0;fill-opacity:1">
                        <path
   d="M105,53L105,55L103,55L103,53L105,53ZM105,56L105,58L103,58L103,56L105,56ZM105,59L105,61L103,61L103,59L105,59ZM108,53L108,55L106,55L106,53L108,53ZM108,56L108,58L106,58L106,56L108,56ZM111,53L111,55L109,55L109,53L111,53ZM111,56L111,58L109,58L109,56L111,56ZM111,59L111,61L109,61L109,59L111,59Z"
   style="fill:#7492f0;fill-opacity:1"
   id="path3" />
                    </g>
                </g>
            </g>
        </g>
    </g>
</svg>
