<?xml version="1.0" encoding="UTF-8" standalone="no"?>
<svg
   width="23px"
   height="23px"
   version="1.1"
   xml:space="preserve"
   style="fill-rule:evenodd;clip-rule:evenodd;stroke-linejoin:round;stroke-miterlimit:2;"
   id="svg9"
   sodipodi:docname="vst3.svg"
   inkscape:version="1.4 (e7c3feb100, 2024-10-09)"
   xmlns:inkscape="http://www.inkscape.org/namespaces/inkscape"
   xmlns:sodipodi="http://sodipodi.sourceforge.net/DTD/sodipodi-0.dtd"
   xmlns="http://www.w3.org/2000/svg"
   xmlns:svg="http://www.w3.org/2000/svg"
   xmlns:serif="http://www.serif.com/"><sodipodi:namedview
   id="namedview9"
   pagecolor="#505050"
   bordercolor="#ffffff"
   borderopacity="1"
   inkscape:showpageshadow="0"
   inkscape:pageopacity="0"
   inkscape:pagecheckerboard="1"
   inkscape:deskcolor="#505050"
   inkscape:zoom="18.384776"
   inkscape:cx="-12.238387"
   inkscape:cy="3.1003913"
   inkscape:window-width="2560"
   inkscape:window-height="1403"
   inkscape:window-x="0"
   inkscape:window-y="0"
   inkscape:window-maximized="1"
   inkscape:current-layer="g1" />
    <g
   transform="matrix(1,0,0,1,-95,-226)"
   id="g6">
        <g
   transform="matrix(1.21053,0,0,1.21053,17.5263,16.5789)"
   id="g5">
            <rect
   id="vst3"
   x="64"
   y="173"
   width="19"
   height="19"
   style="fill:none;" />
            <g
   id="vst31"
   serif:id="vst3">
                <g
   transform="matrix(0.936232,0,0,0.936232,34.6464,131.475)"
   id="g1">
                    <path
   d="M 49,48.765 C 49,47.791 48.209,47 47.235,47 H 35.765 C 34.791,47 34,47.791 34,48.765 v 11.47 C 34,61.209 34.791,62 35.765,62 h 11.47 C 48.209,62 49,61.209 49,60.235 Z"
   style="fill:#ffffff;fill-opacity:0.00337754"
   id="path1"
   sodipodi:nodetypes="sssssssss" />
                </g>
                <g
   transform="matrix(0.929348,0,0,0.929348,-17.163,-27.1196)"
   id="g2">
                    <circle
   cx="102"
   cy="230"
   r="4"
   style="fill:#b0c4ec;fill-opacity:1"
   id="circle1" />
                    <path
   d="M102,225.556C104.453,225.556 106.444,227.547 106.444,230C106.444,232.453 104.453,234.444 102,234.444C99.547,234.444 97.556,232.453 97.556,230C97.556,227.547 99.547,225.556 102,225.556ZM102,226C99.792,226 98,227.792 98,230C98,232.208 99.792,234 102,234C104.208,234 106,232.208 106,230C106,227.792 104.208,226 102,226Z"
   id="path2" />
                </g>
                <g
   transform="matrix(0.529797,0,0,0.529797,21.1358,61.2512)"
   id="g4">
                    <g
   transform="matrix(12,0,0,12,110.303,240.789)"
   id="g3">
                    </g>
                    <text
   x="103.102px"
   y="240.789px"
   style="font-family:'AndaleMono', 'Andale Mono', monospace;font-size:12px;stroke:black;stroke-width:0.55px;"
   id="text3">3</text>
                </g>
            </g>
        </g>
    </g>
    <defs
   id="defs9">
        <radialGradient
   id="_Radial1"
   cx="0"
   cy="0"
   r="1"
   gradientUnits="userSpaceOnUse"
   gradientTransform="matrix(5.73529,-6.61765,6.61765,5.73529,41.5,54.5)"><stop
     offset="0"
     style="stop-color:rgb(152,152,152);stop-opacity:0"
     id="stop6" /><stop
     offset="1"
     style="stop-color:rgb(44,44,44);stop-opacity:0.17"
     id="stop7" /></radialGradient>
        <linearGradient
   id="_Linear2"
   x1="0"
   y1="0"
   x2="1"
   y2="0"
   gradientUnits="userSpaceOnUse"
   gradientTransform="matrix(3.2147e-16,8,-4.59375,4.28626e-16,101.5,226)"><stop
     offset="0"
     style="stop-color:rgb(215,228,243);stop-opacity:1"
     id="stop8" /><stop
     offset="1"
     style="stop-color:rgb(157,165,187);stop-opacity:1"
     id="stop9" /></linearGradient>
    </defs>
</svg>
