<?xml version="1.0" encoding="UTF-8" standalone="no"?>
<svg
   width="23px"
   height="23px"
   version="1.1"
   xml:space="preserve"
   style="fill-rule:evenodd;clip-rule:evenodd;stroke-linejoin:round;stroke-miterlimit:2;"
   id="svg26"
   sodipodi:docname="vst3_bridged.svg"
   inkscape:version="1.4 (e7c3feb100, 2024-10-09)"
   xmlns:inkscape="http://www.inkscape.org/namespaces/inkscape"
   xmlns:sodipodi="http://sodipodi.sourceforge.net/DTD/sodipodi-0.dtd"
   xmlns="http://www.w3.org/2000/svg"
   xmlns:svg="http://www.w3.org/2000/svg"
   xmlns:serif="http://www.serif.com/"><sodipodi:namedview
   id="namedview26"
   pagecolor="#505050"
   bordercolor="#ffffff"
   borderopacity="1"
   inkscape:showpageshadow="0"
   inkscape:pageopacity="0"
   inkscape:pagecheckerboard="1"
   inkscape:deskcolor="#505050"
   inkscape:zoom="52"
   inkscape:cx="11.5"
   inkscape:cy="11.5"
   inkscape:window-width="2560"
   inkscape:window-height="1403"
   inkscape:window-x="0"
   inkscape:window-y="0"
   inkscape:window-maximized="1"
   inkscape:current-layer="g1" />
    <g
   transform="matrix(1,0,0,1,-95,-258)"
   id="g23">
        <g
   transform="matrix(1.21053,0,0,1.21053,95,9.84211)"
   id="g22">
            <rect
   id="vst3_bridged"
   x="0"
   y="205"
   width="19"
   height="19"
   style="fill:none;" />
            <g
   id="vst3_bridged1"
   serif:id="vst3_bridged">
                <g
   transform="matrix(0.936232,0,0,0.936232,-29.3536,163.475)"
   id="g1">
                    <path
   d="M49,48.765C49,47.791 48.209,47 47.235,47L35.765,47C34.791,47 34,47.791 34,48.765L34,60.235C34,61.209 34.791,62 35.765,62L47.235,62C48.209,62 49,61.209 49,60.235L49,48.765Z"
   style="fill:#ffffff;fill-opacity:0.00569143"
   id="path1" />
                </g>
                <g
   transform="matrix(1,0,0,1,-7.10543e-15,32)"
   id="g18">
                    <g
   transform="matrix(0.698997,0,0,0.698997,-41.9398,-5.24415)"
   id="g2">
                        <rect
   x="76"
   y="268"
   width="1"
   height="2"
   id="rect1" />
                    </g>
                    <g
   transform="matrix(4.28012e-17,-0.698997,0.698997,4.28012e-17,-178.244,242.201)"
   id="g3">
                        <rect
   x="76"
   y="268"
   width="1"
   height="2"
   id="rect2" />
                    </g>
                    <g
   transform="matrix(0.698997,0,0,0.698997,-41.9398,2.44482)"
   id="g4">
                        <rect
   x="76"
   y="268"
   width="1"
   height="2"
   id="rect3" />
                    </g>
                    <g
   transform="matrix(4.28012e-17,-0.698997,0.698997,4.28012e-17,-170.555,242.201)"
   id="g5">
                        <rect
   x="76"
   y="268"
   width="1"
   height="2"
   id="rect4" />
                    </g>
                    <g
   transform="matrix(0.698997,0,0,0.698997,-40.5418,-5.24415)"
   id="g6">
                        <rect
   x="76"
   y="268"
   width="1"
   height="2"
   id="rect5" />
                    </g>
                    <g
   transform="matrix(4.28012e-17,-0.698997,0.698997,4.28012e-17,-178.244,240.803)"
   id="g7">
                        <rect
   x="76"
   y="268"
   width="1"
   height="2"
   id="rect6" />
                    </g>
                    <g
   transform="matrix(0.698997,0,0,0.698997,-40.5418,2.44482)"
   id="g8">
                        <rect
   x="76"
   y="268"
   width="1"
   height="2"
   id="rect7" />
                    </g>
                    <g
   transform="matrix(4.28012e-17,-0.698997,0.698997,4.28012e-17,-170.555,240.803)"
   id="g9">
                        <rect
   x="76"
   y="268"
   width="1"
   height="2"
   id="rect8" />
                    </g>
                    <g
   transform="matrix(0.698997,0,0,0.698997,-39.1438,-5.24415)"
   id="g10">
                        <rect
   x="76"
   y="268"
   width="1"
   height="2"
   id="rect9" />
                    </g>
                    <g
   transform="matrix(4.28012e-17,-0.698997,0.698997,4.28012e-17,-178.244,239.405)"
   id="g11">
                        <rect
   x="76"
   y="268"
   width="1"
   height="2"
   id="rect10" />
                    </g>
                    <g
   transform="matrix(0.698997,0,0,0.698997,-39.1438,2.44482)"
   id="g12">
                        <rect
   x="76"
   y="268"
   width="1"
   height="2"
   id="rect11" />
                    </g>
                    <g
   transform="matrix(4.28012e-17,-0.698997,0.698997,4.28012e-17,-170.555,239.405)"
   id="g13">
                        <rect
   x="76"
   y="268"
   width="1"
   height="2"
   id="rect12" />
                    </g>
                    <g
   transform="matrix(0.698997,0,0,0.698997,-37.7458,-5.24415)"
   id="g14">
                        <rect
   x="76"
   y="268"
   width="1"
   height="2"
   id="rect13" />
                    </g>
                    <g
   transform="matrix(4.28012e-17,-0.698997,0.698997,4.28012e-17,-178.244,238.007)"
   id="g15">
                        <rect
   x="76"
   y="268"
   width="1"
   height="2"
   id="rect14" />
                    </g>
                    <g
   transform="matrix(0.698997,0,0,0.698997,-37.7458,2.44482)"
   id="g16">
                        <rect
   x="76"
   y="268"
   width="1"
   height="2"
   id="rect15" />
                    </g>
                    <g
   transform="matrix(4.28012e-17,-0.698997,0.698997,4.28012e-17,-170.555,238.007)"
   id="g17">
                        <rect
   x="76"
   y="268"
   width="1"
   height="2"
   id="rect16" />
                    </g>
                </g>
                <g
   transform="matrix(0.826087,0,0,0.826087,-52.0435,18.3043)"
   id="g19">
                    <rect
   x="75"
   y="238"
   width="9"
   height="9"
   style="fill:#b0c4ec;fill-opacity:1"
   id="rect18" />
                    <path
   d="M84.5,238L84.5,247C84.5,247.276 84.276,247.5 84,247.5L75,247.5C74.724,247.5 74.5,247.276 74.5,247L74.5,238C74.5,237.724 74.724,237.5 75,237.5L84,237.5C84.276,237.5 84.5,237.724 84.5,238ZM84,238L75,238L75,247L84,247L84,238Z"
   id="path18" />
                </g>
                <g
   transform="matrix(0.529797,0,0,0.529797,-42.8642,93.2512)"
   id="g21">
                    <g
   transform="matrix(12,0,0,12,110.303,240.789)"
   id="g20">
                    </g>
                    <text
   x="103.102px"
   y="240.789px"
   style="font-family:'AndaleMono', 'Andale Mono', monospace;font-size:12px;stroke:black;stroke-width:0.55px;"
   id="text20">3</text>
                </g>
            </g>
        </g>
    </g>
    <defs
   id="defs26">
        <radialGradient
   id="_Radial1"
   cx="0"
   cy="0"
   r="1"
   gradientUnits="userSpaceOnUse"
   gradientTransform="matrix(5.73529,-6.61765,6.61765,5.73529,41.5,54.5)"><stop
     offset="0"
     style="stop-color:rgb(152,152,152);stop-opacity:0"
     id="stop23" /><stop
     offset="1"
     style="stop-color:rgb(44,44,44);stop-opacity:0.17"
     id="stop24" /></radialGradient>
        <linearGradient
   id="_Linear2"
   x1="0"
   y1="0"
   x2="1"
   y2="0"
   gradientUnits="userSpaceOnUse"
   gradientTransform="matrix(3.61654e-16,9,-5.16797,4.82205e-16,78.9375,238)"><stop
     offset="0"
     style="stop-color:rgb(215,228,243);stop-opacity:1"
     id="stop25" /><stop
     offset="1"
     style="stop-color:rgb(157,165,187);stop-opacity:1"
     id="stop26" /></linearGradient>
    </defs>
</svg>
